<svg xmlns="http://www.w3.org/2000/svg" viewBox="0 0 1400 900" width="1400" height="900" role="img" aria-labelledby="t"><title id="t">Treasury Bodyguard: Plunderspell bestiary concept sheet</title><defs>
    <pattern id="mail" width="0.022" height="0.016" patternUnits="userSpaceOnUse">
      <rect width="0.022" height="0.016" fill="#6F7378"/>
      <path d="M0,0.008 a0.0055,0.0055 0 0,0 0.011,0 M0.011,0.016 a0.0055,0.0055 0 0,0 0.011,0 M0.011,0 a0.0055,0.0055 0 0,0 0.011,0"
            stroke="#474B50" stroke-width="0.0022" fill="none"/>
      <circle cx="0.0055" cy="0.0045" r="0.0012" fill="#A9AFB5"/>
      <circle cx="0.0165" cy="0.0125" r="0.0012" fill="#A9AFB5"/>
    </pattern>
    <filter id="glowBlur" x="-2" y="-2" width="5" height="5"><feGaussianBlur stdDeviation="0.02"/></filter>
    <filter id="softBlur" x="-1" y="-1" width="3" height="3"><feGaussianBlur stdDeviation="0.02"/></filter>
    <filter id="silhouette"><feFlood flood-color="#14120E"/><feComposite in2="SourceAlpha" operator="in"/></filter>
    <radialGradient id="stageLight" cx="50%" cy="85%" r="70%">
      <stop offset="0" stop-color="#2B261D"/><stop offset="1" stop-color="#1E1A14"/>
    </radialGradient><g id="fig"><path d="M-0.472,0.0004 L-0.4382,2.0929 A0.022,0.022 0 0 0 -0.3943,2.0921 L-0.428,-0.0004 A0.022,0.022 0 0 0 -0.472,0.0004 Z" fill="#7A5B3A" stroke="#14120E" stroke-width="0.012" stroke-linejoin="round" stroke-linecap="round" /><path d="M-0.4275,2.1487 L-0.405,2.1487 L-0.4118,2.2275 Z" fill="#8E959C" stroke="#14120E" stroke-width="0.012" stroke-linejoin="round" stroke-linecap="round" /><path d="M-0.432,2.115 C-0.4537,2.1431 -0.5258,2.1487 -0.5625,2.1487 C-0.5992,2.1487 -0.6338,2.1431 -0.6525,2.115 C-0.6712,2.0869 -0.6787,2.0175 -0.675,1.98 C-0.6712,1.9425 -0.6488,1.8937 -0.63,1.89 C-0.6113,1.8862 -0.5955,1.9425 -0.5625,1.9575 C-0.5295,1.9725 -0.4537,1.9538 -0.432,1.98 C-0.4103,2.0063 -0.4103,2.0869 -0.432,2.115 Z" fill="#8E959C" stroke="#14120E" stroke-width="0.012" stroke-linejoin="round" stroke-linecap="round" /><path d="M-0.4005,2.0587 L-0.315,2.07 L-0.315,2.0137 L-0.4005,2.025 Z" fill="#666D74" stroke="#14120E" stroke-width="0.012" stroke-linejoin="round" stroke-linecap="round" /><path d="M-0.2925,2.0813 L-0.279,2.0813 L-0.279,2.0025 L-0.2925,2.0025 Z" fill="#666D74" stroke="#14120E" stroke-width="0.007" stroke-linejoin="round" stroke-linecap="round" /><path d="M-0.27,2.0813 L-0.2565,2.0813 L-0.2565,2.0025 L-0.27,2.0025 Z" fill="#666D74" stroke="#14120E" stroke-width="0.007" stroke-linejoin="round" stroke-linecap="round" /><path d="M-0.4208,1.8 L-0.4208,1.98" stroke="#43464B" stroke-width="0.0604" stroke-linecap="round" fill="none" /><path d="M0.2508,1.2064 L0.2897,0.6405 A0.0878,0.0878 0 0 0 0.1153,0.6195 L0.0192,1.1786 A0.1167,0.1167 0 0 0 0.2508,1.2064 Z" fill="#8E959C" stroke="#14120E" stroke-width="0.012" stroke-linejoin="round" stroke-linecap="round" /><path d="M0.2508,1.2064 L0.2897,0.6405 A0.0878,0.0878 0 0 0 0.1153,0.6195 L0.0192,1.1786 A0.1167,0.1167 0 0 0 0.2508,1.2064 Z" fill="#000" opacity="0.3"/><path d="M0.2875,0.6338 L0.2936,0.1268 A0.0686,0.0686 0 0 0 0.1564,0.1207 L0.1175,0.6262 A0.0851,0.0851 0 0 0 0.2875,0.6338 Z" fill="#8E959C" stroke="#14120E" stroke-width="0.012" stroke-linejoin="round" stroke-linecap="round" /><path d="M0.2875,0.6338 L0.2936,0.1268 A0.0686,0.0686 0 0 0 0.1564,0.1207 L0.1175,0.6262 A0.0851,0.0851 0 0 0 0.2875,0.6338 Z" fill="#000" opacity="0.3"/><ellipse cx="0.2025" cy="0.6412" rx="0.1098" ry="0.0933" fill="#8E959C" transform="rotate(0 0.2025 0.6412)" stroke="#14120E" stroke-width="0.012" stroke-linejoin="round" stroke-linecap="round" /><path d="M0.1426,0.1949 C0.1097,0.1729 0.0713,0.0325 0.1262,0 C0.1811,-0.0325 0.4117,-0.0096 0.4721,0 C0.5324,0.0096 0.5132,0.0357 0.4885,0.0576 C0.4638,0.0796 0.3815,0.1089 0.3238,0.1318 C0.2662,0.1546 0.1756,0.2168 0.1426,0.1949 Z" fill="#666D74" stroke="#14120E" stroke-width="0.012" stroke-linejoin="round" stroke-linecap="round" /><path d="M0.1426,0.1949 C0.1097,0.1729 0.0713,0.0325 0.1262,0 C0.1811,-0.0325 0.4117,-0.0096 0.4721,0 C0.5324,0.0096 0.5132,0.0357 0.4885,0.0576 C0.4638,0.0796 0.3815,0.1089 0.3238,0.1318 C0.2662,0.1546 0.1756,0.2168 0.1426,0.1949 Z" fill="#000" opacity="0.2"/><path d="M-0.013,1.173 L-0.1356,0.6157 A0.0906,0.0906 0 0 0 -0.3144,0.6443 L-0.257,1.212 A0.1235,0.1235 0 0 0 -0.013,1.173 Z" fill="#8E959C" stroke="#14120E" stroke-width="0.012" stroke-linejoin="round" stroke-linecap="round" /><path d="M-0.1374,0.6242 L-0.1875,0.119 A0.0714,0.0714 0 0 0 -0.33,0.1285 L-0.3126,0.6358 A0.0878,0.0878 0 0 0 -0.1374,0.6242 Z" fill="#8E959C" stroke="#14120E" stroke-width="0.012" stroke-linejoin="round" stroke-linecap="round" /><ellipse cx="-0.225" cy="0.6412" rx="0.1153" ry="0.0988" fill="#8E959C" transform="rotate(0 -0.225 0.6412)" stroke="#14120E" stroke-width="0.012" stroke-linejoin="round" stroke-linecap="round" /><path d="M-0.27,0.5175 L-0.2475,0.2025" stroke="#BFC5CA" stroke-width="0.0165" stroke-linecap="round" fill="none" opacity="0.7"/><path d="M-0.1695,0.1949 C-0.1339,0.1729 -0.0922,0.0325 -0.1517,0 C-0.2112,-0.0325 -0.461,-0.0096 -0.5264,0 C-0.5918,0.0096 -0.571,0.0357 -0.5442,0.0576 C-0.5175,0.0796 -0.4283,0.1089 -0.3658,0.1318 C-0.3034,0.1546 -0.2052,0.2168 -0.1695,0.1949 Z" fill="#666D74" stroke="#14120E" stroke-width="0.012" stroke-linejoin="round" stroke-linecap="round" /><path d="M-0.27,1.35 L0.27,1.35 L0.3038,0.9675 L-0.3038,0.9675 Z" fill="url(#mail)" stroke="#14120E" stroke-width="0.012" stroke-linejoin="round" stroke-linecap="round" /><path d="M-0.27,1.35 L0.27,1.35 L0.2767,1.26 L-0.2767,1.26 Z" fill="#8E959C" stroke="#14120E" stroke-width="0.012" stroke-linejoin="round" stroke-linecap="round" /><path d="M-0.279,1.2712 L0.279,1.2712 L0.2858,1.1812 L-0.2858,1.1812 Z" fill="#8E959C" stroke="#14120E" stroke-width="0.012" stroke-linejoin="round" stroke-linecap="round" /><path d="M-0.288,1.1925 L0.288,1.1925 L0.2948,1.1025 L-0.2948,1.1025 Z" fill="#8E959C" stroke="#14120E" stroke-width="0.012" stroke-linejoin="round" stroke-linecap="round" /><path d="M-0.2588,1.8225 C-0.3038,1.7738 -0.2738,1.6538 -0.27,1.575 C-0.2662,1.4962 -0.3206,1.3875 -0.2362,1.35 C-0.1519,1.3125 0.1519,1.3125 0.2362,1.35 C0.3206,1.3875 0.2662,1.4962 0.27,1.575 C0.2738,1.6538 0.3038,1.7738 0.2588,1.8225 C0.2138,1.8713 0.0863,1.8675 0,1.8675 C-0.0863,1.8675 -0.2138,1.8713 -0.2588,1.8225 Z" fill="#8E959C" stroke="#14120E" stroke-width="0.012" stroke-linejoin="round" stroke-linecap="round" /><path d="M0,1.845 L0,1.3725" stroke="#666D74" stroke-width="0.022" stroke-linecap="round" fill="none" /><path d="M-0.2025,1.755 C-0.2119,1.74 -0.225,1.5863 -0.2137,1.53 C-0.2025,1.4737 -0.1444,1.4025 -0.135,1.4175 C-0.1256,1.4325 -0.1463,1.5637 -0.1575,1.62 C-0.1688,1.6763 -0.1931,1.77 -0.2025,1.755 Z" fill="#BFC5CA"  opacity="0.5"/><path d="M0.045,1.845 C0.0806,1.9238 0.2213,1.8675 0.2588,1.8225 C0.2963,1.7775 0.2738,1.6538 0.27,1.575 C0.2662,1.4962 0.2737,1.3875 0.2362,1.35 C0.1987,1.3125 0.0769,1.2675 0.045,1.35 C0.0131,1.4325 0.0094,1.7662 0.045,1.845 Z" fill="#000"  opacity="0.2"/><path d="M-0.1125,1.8675 C-0.1275,1.8919 -0.2719,1.8787 -0.315,1.8562 C-0.3581,1.8337 -0.3713,1.7719 -0.3713,1.7325 C-0.3713,1.6931 -0.3394,1.6237 -0.315,1.62 C-0.2906,1.6162 -0.2588,1.6687 -0.225,1.71 C-0.1913,1.7512 -0.0975,1.8431 -0.1125,1.8675 Z" fill="#8E959C" stroke="#14120E" stroke-width="0.012" stroke-linejoin="round" stroke-linecap="round" /><path d="M-0.2391,1.6634 L-0.3284,1.4192 A0.0686,0.0686 0 0 0 -0.4591,1.4608 L-0.3909,1.7116 A0.0796,0.0796 0 0 0 -0.2391,1.6634 Z" fill="#8E959C" stroke="#14120E" stroke-width="0.012" stroke-linejoin="round" stroke-linecap="round" /><circle cx="-0.3937" cy="1.44" r="0.0824" fill="#8E959C" stroke="#14120E" stroke-width="0.012" stroke-linejoin="round" stroke-linecap="round" /><path d="M-0.326,1.429 L-0.3634,1.2503 A0.0604,0.0604 0 0 0 -0.4826,1.2697 L-0.4615,1.451 A0.0686,0.0686 0 0 0 -0.326,1.429 Z" fill="#8E959C" stroke="#14120E" stroke-width="0.012" stroke-linejoin="round" stroke-linecap="round" /><path d="M-0.45,1.2937 C-0.4388,1.3106 -0.3945,1.3087 -0.3825,1.2937 C-0.3705,1.2788 -0.3668,1.2206 -0.378,1.2038 C-0.3892,1.1869 -0.438,1.1775 -0.45,1.1925 C-0.462,1.2075 -0.4612,1.2769 -0.45,1.2937 Z" fill="#666D74" stroke="#14120E" stroke-width="0.012" stroke-linejoin="round" stroke-linecap="round" /><path d="M-0.1575,1.8675 C-0.1856,1.8825 -0.2231,1.9238 -0.1687,1.935 C-0.1144,1.9463 0.1144,1.9463 0.1687,1.935 C0.2231,1.9238 0.1856,1.8825 0.1575,1.8675 C0.1294,1.8525 0.0525,1.845 0,1.845 C-0.0525,1.845 -0.1294,1.8525 -0.1575,1.8675 Z" fill="url(#mail)" stroke="#14120E" stroke-width="0.012" stroke-linejoin="round" stroke-linecap="round" /><path d="M-0.1305,1.9238 L-0.135,2.205 L-0.1012,2.2455 L0.1012,2.2455 L0.135,2.205 L0.1305,1.9238 L0,1.908 Z" fill="#8E959C" stroke="#14120E" stroke-width="0.012" stroke-linejoin="round" stroke-linecap="round" /><path d="M-0.117,2.0925 L0.117,2.0925 L0.117,2.0722 L-0.117,2.0722 Z" fill="#14120E" stroke="#14120E" stroke-width="0.012" stroke-linejoin="round" stroke-linecap="round" /><path d="M0,1.9238 L0,2.241" stroke="#666D74" stroke-width="0.0274" stroke-linecap="round" fill="none" /><path d="M0.045,0.225 L0.675,0.27 L0.6863,1.62 L0.3825,1.6875 L0.0338,1.62 Z" fill="#5E574C" stroke="#14120E" stroke-width="0.012" stroke-linejoin="round" stroke-linecap="round" /><path d="M0.3262,0.2362 L0.4163,0.243 L0.4275,1.6763 L0.3375,1.665 Z" fill="#6E665A" stroke="#14120E" stroke-width="0.012" stroke-linejoin="round" stroke-linecap="round" /><path d="M0.3375,0.2407 L0.675,0.27 L0.6863,1.62 L0.3825,1.6875 Z" fill="#000"  opacity="0.22"/><path d="M0.045,0.45 L0.6795,0.4725" stroke="#5E6166" stroke-width="0.0329" stroke-linecap="round" fill="none" /><path d="M0.045,1.395 L0.6795,1.4175" stroke="#5E6166" stroke-width="0.0329" stroke-linecap="round" fill="none" /><circle cx="0.09" cy="0.4568" r="0.0165" fill="#43464B"  /><circle cx="0.27" cy="0.4568" r="0.0165" fill="#43464B"  /><circle cx="0.45" cy="0.4568" r="0.0165" fill="#43464B"  /><circle cx="0.63" cy="0.4568" r="0.0165" fill="#43464B"  /><circle cx="0.09" cy="1.4018" r="0.0165" fill="#43464B"  /><circle cx="0.27" cy="1.4018" r="0.0165" fill="#43464B"  /><circle cx="0.45" cy="1.4018" r="0.0165" fill="#43464B"  /><circle cx="0.63" cy="1.4018" r="0.0165" fill="#43464B"  /><path d="M0.1125,0.9 C0.1313,0.9187 0.2063,0.9937 0.225,1.0125" stroke="#14120E" stroke-width="0.007" stroke-linecap="round" fill="none" opacity="0.35"/><path d="M0.495,0.675 C0.51,0.6937 0.57,0.7687 0.585,0.7875" stroke="#14120E" stroke-width="0.007" stroke-linecap="round" fill="none" opacity="0.35"/><path d="M0.18,1.8675 C0.195,1.8919 0.2813,1.8787 0.315,1.8562 C0.3488,1.8337 0.3825,1.7719 0.3825,1.7325 C0.3825,1.6931 0.3413,1.6237 0.315,1.62 C0.2888,1.6162 0.2475,1.6687 0.225,1.71 C0.2025,1.7512 0.165,1.8431 0.18,1.8675 Z" fill="#8E959C" stroke="#14120E" stroke-width="0.012" stroke-linejoin="round" stroke-linecap="round" /><path d="M0.18,1.8675 C0.195,1.8919 0.2813,1.8787 0.315,1.8562 C0.3488,1.8337 0.3825,1.7719 0.3825,1.7325 C0.3825,1.6931 0.3413,1.6237 0.315,1.62 C0.2888,1.6162 0.2475,1.6687 0.225,1.71 C0.2025,1.7512 0.165,1.8431 0.18,1.8675 Z" fill="#000" opacity="0.25"/></g><g id="sil"><path d="M-0.472,0.0004 L-0.4382,2.0929 A0.022,0.022 0 0 0 -0.3943,2.0921 L-0.428,-0.0004 A0.022,0.022 0 0 0 -0.472,0.0004 Z" fill="#7A5B3A" stroke="#14120E" stroke-width="0.012" stroke-linejoin="round" stroke-linecap="round" /><path d="M-0.4275,2.1487 L-0.405,2.1487 L-0.4118,2.2275 Z" fill="#8E959C" stroke="#14120E" stroke-width="0.012" stroke-linejoin="round" stroke-linecap="round" /><path d="M-0.432,2.115 C-0.4537,2.1431 -0.5258,2.1487 -0.5625,2.1487 C-0.5992,2.1487 -0.6338,2.1431 -0.6525,2.115 C-0.6712,2.0869 -0.6787,2.0175 -0.675,1.98 C-0.6712,1.9425 -0.6488,1.8937 -0.63,1.89 C-0.6113,1.8862 -0.5955,1.9425 -0.5625,1.9575 C-0.5295,1.9725 -0.4537,1.9538 -0.432,1.98 C-0.4103,2.0063 -0.4103,2.0869 -0.432,2.115 Z" fill="#8E959C" stroke="#14120E" stroke-width="0.012" stroke-linejoin="round" stroke-linecap="round" /><path d="M-0.4005,2.0587 L-0.315,2.07 L-0.315,2.0137 L-0.4005,2.025 Z" fill="#666D74" stroke="#14120E" stroke-width="0.012" stroke-linejoin="round" stroke-linecap="round" /><path d="M-0.2925,2.0813 L-0.279,2.0813 L-0.279,2.0025 L-0.2925,2.0025 Z" fill="#666D74" stroke="#14120E" stroke-width="0.007" stroke-linejoin="round" stroke-linecap="round" /><path d="M-0.27,2.0813 L-0.2565,2.0813 L-0.2565,2.0025 L-0.27,2.0025 Z" fill="#666D74" stroke="#14120E" stroke-width="0.007" stroke-linejoin="round" stroke-linecap="round" /><path d="M-0.4208,1.8 L-0.4208,1.98" stroke="#43464B" stroke-width="0.0604" stroke-linecap="round" fill="none" /><path d="M0.2508,1.2064 L0.2897,0.6405 A0.0878,0.0878 0 0 0 0.1153,0.6195 L0.0192,1.1786 A0.1167,0.1167 0 0 0 0.2508,1.2064 Z" fill="#8E959C" stroke="#14120E" stroke-width="0.012" stroke-linejoin="round" stroke-linecap="round" /><path d="M0.2508,1.2064 L0.2897,0.6405 A0.0878,0.0878 0 0 0 0.1153,0.6195 L0.0192,1.1786 A0.1167,0.1167 0 0 0 0.2508,1.2064 Z" fill="#000" opacity="0.3"/><path d="M0.2875,0.6338 L0.2936,0.1268 A0.0686,0.0686 0 0 0 0.1564,0.1207 L0.1175,0.6262 A0.0851,0.0851 0 0 0 0.2875,0.6338 Z" fill="#8E959C" stroke="#14120E" stroke-width="0.012" stroke-linejoin="round" stroke-linecap="round" /><path d="M0.2875,0.6338 L0.2936,0.1268 A0.0686,0.0686 0 0 0 0.1564,0.1207 L0.1175,0.6262 A0.0851,0.0851 0 0 0 0.2875,0.6338 Z" fill="#000" opacity="0.3"/><ellipse cx="0.2025" cy="0.6412" rx="0.1098" ry="0.0933" fill="#8E959C" transform="rotate(0 0.2025 0.6412)" stroke="#14120E" stroke-width="0.012" stroke-linejoin="round" stroke-linecap="round" /><path d="M0.1426,0.1949 C0.1097,0.1729 0.0713,0.0325 0.1262,0 C0.1811,-0.0325 0.4117,-0.0096 0.4721,0 C0.5324,0.0096 0.5132,0.0357 0.4885,0.0576 C0.4638,0.0796 0.3815,0.1089 0.3238,0.1318 C0.2662,0.1546 0.1756,0.2168 0.1426,0.1949 Z" fill="#666D74" stroke="#14120E" stroke-width="0.012" stroke-linejoin="round" stroke-linecap="round" /><path d="M0.1426,0.1949 C0.1097,0.1729 0.0713,0.0325 0.1262,0 C0.1811,-0.0325 0.4117,-0.0096 0.4721,0 C0.5324,0.0096 0.5132,0.0357 0.4885,0.0576 C0.4638,0.0796 0.3815,0.1089 0.3238,0.1318 C0.2662,0.1546 0.1756,0.2168 0.1426,0.1949 Z" fill="#000" opacity="0.2"/><path d="M-0.013,1.173 L-0.1356,0.6157 A0.0906,0.0906 0 0 0 -0.3144,0.6443 L-0.257,1.212 A0.1235,0.1235 0 0 0 -0.013,1.173 Z" fill="#8E959C" stroke="#14120E" stroke-width="0.012" stroke-linejoin="round" stroke-linecap="round" /><path d="M-0.1374,0.6242 L-0.1875,0.119 A0.0714,0.0714 0 0 0 -0.33,0.1285 L-0.3126,0.6358 A0.0878,0.0878 0 0 0 -0.1374,0.6242 Z" fill="#8E959C" stroke="#14120E" stroke-width="0.012" stroke-linejoin="round" stroke-linecap="round" /><ellipse cx="-0.225" cy="0.6412" rx="0.1153" ry="0.0988" fill="#8E959C" transform="rotate(0 -0.225 0.6412)" stroke="#14120E" stroke-width="0.012" stroke-linejoin="round" stroke-linecap="round" /><path d="M-0.27,0.5175 L-0.2475,0.2025" stroke="#BFC5CA" stroke-width="0.0165" stroke-linecap="round" fill="none" opacity="0.7"/><path d="M-0.1695,0.1949 C-0.1339,0.1729 -0.0922,0.0325 -0.1517,0 C-0.2112,-0.0325 -0.461,-0.0096 -0.5264,0 C-0.5918,0.0096 -0.571,0.0357 -0.5442,0.0576 C-0.5175,0.0796 -0.4283,0.1089 -0.3658,0.1318 C-0.3034,0.1546 -0.2052,0.2168 -0.1695,0.1949 Z" fill="#666D74" stroke="#14120E" stroke-width="0.012" stroke-linejoin="round" stroke-linecap="round" /><path d="M-0.27,1.35 L0.27,1.35 L0.3038,0.9675 L-0.3038,0.9675 Z" fill="url(#mail)" stroke="#14120E" stroke-width="0.012" stroke-linejoin="round" stroke-linecap="round" /><path d="M-0.27,1.35 L0.27,1.35 L0.2767,1.26 L-0.2767,1.26 Z" fill="#8E959C" stroke="#14120E" stroke-width="0.012" stroke-linejoin="round" stroke-linecap="round" /><path d="M-0.279,1.2712 L0.279,1.2712 L0.2858,1.1812 L-0.2858,1.1812 Z" fill="#8E959C" stroke="#14120E" stroke-width="0.012" stroke-linejoin="round" stroke-linecap="round" /><path d="M-0.288,1.1925 L0.288,1.1925 L0.2948,1.1025 L-0.2948,1.1025 Z" fill="#8E959C" stroke="#14120E" stroke-width="0.012" stroke-linejoin="round" stroke-linecap="round" /><path d="M-0.2588,1.8225 C-0.3038,1.7738 -0.2738,1.6538 -0.27,1.575 C-0.2662,1.4962 -0.3206,1.3875 -0.2362,1.35 C-0.1519,1.3125 0.1519,1.3125 0.2362,1.35 C0.3206,1.3875 0.2662,1.4962 0.27,1.575 C0.2738,1.6538 0.3038,1.7738 0.2588,1.8225 C0.2138,1.8713 0.0863,1.8675 0,1.8675 C-0.0863,1.8675 -0.2138,1.8713 -0.2588,1.8225 Z" fill="#8E959C" stroke="#14120E" stroke-width="0.012" stroke-linejoin="round" stroke-linecap="round" /><path d="M0,1.845 L0,1.3725" stroke="#666D74" stroke-width="0.022" stroke-linecap="round" fill="none" /><path d="M-0.2025,1.755 C-0.2119,1.74 -0.225,1.5863 -0.2137,1.53 C-0.2025,1.4737 -0.1444,1.4025 -0.135,1.4175 C-0.1256,1.4325 -0.1463,1.5637 -0.1575,1.62 C-0.1688,1.6763 -0.1931,1.77 -0.2025,1.755 Z" fill="#BFC5CA"  opacity="0.5"/><path d="M0.045,1.845 C0.0806,1.9238 0.2213,1.8675 0.2588,1.8225 C0.2963,1.7775 0.2738,1.6538 0.27,1.575 C0.2662,1.4962 0.2737,1.3875 0.2362,1.35 C0.1987,1.3125 0.0769,1.2675 0.045,1.35 C0.0131,1.4325 0.0094,1.7662 0.045,1.845 Z" fill="#000"  opacity="0.2"/><path d="M-0.1125,1.8675 C-0.1275,1.8919 -0.2719,1.8787 -0.315,1.8562 C-0.3581,1.8337 -0.3713,1.7719 -0.3713,1.7325 C-0.3713,1.6931 -0.3394,1.6237 -0.315,1.62 C-0.2906,1.6162 -0.2588,1.6687 -0.225,1.71 C-0.1913,1.7512 -0.0975,1.8431 -0.1125,1.8675 Z" fill="#8E959C" stroke="#14120E" stroke-width="0.012" stroke-linejoin="round" stroke-linecap="round" /><path d="M-0.2391,1.6634 L-0.3284,1.4192 A0.0686,0.0686 0 0 0 -0.4591,1.4608 L-0.3909,1.7116 A0.0796,0.0796 0 0 0 -0.2391,1.6634 Z" fill="#8E959C" stroke="#14120E" stroke-width="0.012" stroke-linejoin="round" stroke-linecap="round" /><circle cx="-0.3937" cy="1.44" r="0.0824" fill="#8E959C" stroke="#14120E" stroke-width="0.012" stroke-linejoin="round" stroke-linecap="round" /><path d="M-0.326,1.429 L-0.3634,1.2503 A0.0604,0.0604 0 0 0 -0.4826,1.2697 L-0.4615,1.451 A0.0686,0.0686 0 0 0 -0.326,1.429 Z" fill="#8E959C" stroke="#14120E" stroke-width="0.012" stroke-linejoin="round" stroke-linecap="round" /><path d="M-0.45,1.2937 C-0.4388,1.3106 -0.3945,1.3087 -0.3825,1.2937 C-0.3705,1.2788 -0.3668,1.2206 -0.378,1.2038 C-0.3892,1.1869 -0.438,1.1775 -0.45,1.1925 C-0.462,1.2075 -0.4612,1.2769 -0.45,1.2937 Z" fill="#666D74" stroke="#14120E" stroke-width="0.012" stroke-linejoin="round" stroke-linecap="round" /><path d="M-0.1575,1.8675 C-0.1856,1.8825 -0.2231,1.9238 -0.1687,1.935 C-0.1144,1.9463 0.1144,1.9463 0.1687,1.935 C0.2231,1.9238 0.1856,1.8825 0.1575,1.8675 C0.1294,1.8525 0.0525,1.845 0,1.845 C-0.0525,1.845 -0.1294,1.8525 -0.1575,1.8675 Z" fill="url(#mail)" stroke="#14120E" stroke-width="0.012" stroke-linejoin="round" stroke-linecap="round" /><path d="M-0.1305,1.9238 L-0.135,2.205 L-0.1012,2.2455 L0.1012,2.2455 L0.135,2.205 L0.1305,1.9238 L0,1.908 Z" fill="#8E959C" stroke="#14120E" stroke-width="0.012" stroke-linejoin="round" stroke-linecap="round" /><path d="M-0.117,2.0925 L0.117,2.0925 L0.117,2.0722 L-0.117,2.0722 Z" fill="#14120E" stroke="#14120E" stroke-width="0.012" stroke-linejoin="round" stroke-linecap="round" /><path d="M0,1.9238 L0,2.241" stroke="#666D74" stroke-width="0.0274" stroke-linecap="round" fill="none" /><path d="M0.045,0.225 L0.675,0.27 L0.6863,1.62 L0.3825,1.6875 L0.0338,1.62 Z" fill="#5E574C" stroke="#14120E" stroke-width="0.012" stroke-linejoin="round" stroke-linecap="round" /><path d="M0.3262,0.2362 L0.4163,0.243 L0.4275,1.6763 L0.3375,1.665 Z" fill="#6E665A" stroke="#14120E" stroke-width="0.012" stroke-linejoin="round" stroke-linecap="round" /><path d="M0.3375,0.2407 L0.675,0.27 L0.6863,1.62 L0.3825,1.6875 Z" fill="#000"  opacity="0.22"/><path d="M0.045,0.45 L0.6795,0.4725" stroke="#5E6166" stroke-width="0.0329" stroke-linecap="round" fill="none" /><path d="M0.045,1.395 L0.6795,1.4175" stroke="#5E6166" stroke-width="0.0329" stroke-linecap="round" fill="none" /><circle cx="0.09" cy="0.4568" r="0.0165" fill="#43464B"  /><circle cx="0.27" cy="0.4568" r="0.0165" fill="#43464B"  /><circle cx="0.45" cy="0.4568" r="0.0165" fill="#43464B"  /><circle cx="0.63" cy="0.4568" r="0.0165" fill="#43464B"  /><circle cx="0.09" cy="1.4018" r="0.0165" fill="#43464B"  /><circle cx="0.27" cy="1.4018" r="0.0165" fill="#43464B"  /><circle cx="0.45" cy="1.4018" r="0.0165" fill="#43464B"  /><circle cx="0.63" cy="1.4018" r="0.0165" fill="#43464B"  /><path d="M0.1125,0.9 C0.1313,0.9187 0.2063,0.9937 0.225,1.0125" stroke="#14120E" stroke-width="0.007" stroke-linecap="round" fill="none" opacity="0.35"/><path d="M0.495,0.675 C0.51,0.6937 0.57,0.7687 0.585,0.7875" stroke="#14120E" stroke-width="0.007" stroke-linecap="round" fill="none" opacity="0.35"/><path d="M0.18,1.8675 C0.195,1.8919 0.2813,1.8787 0.315,1.8562 C0.3488,1.8337 0.3825,1.7719 0.3825,1.7325 C0.3825,1.6931 0.3413,1.6237 0.315,1.62 C0.2888,1.6162 0.2475,1.6687 0.225,1.71 C0.2025,1.7512 0.165,1.8431 0.18,1.8675 Z" fill="#8E959C" stroke="#14120E" stroke-width="0.012" stroke-linejoin="round" stroke-linecap="round" /><path d="M0.18,1.8675 C0.195,1.8919 0.2813,1.8787 0.315,1.8562 C0.3488,1.8337 0.3825,1.7719 0.3825,1.7325 C0.3825,1.6931 0.3413,1.6237 0.315,1.62 C0.2888,1.6162 0.2475,1.6687 0.225,1.71 C0.2025,1.7512 0.165,1.8431 0.18,1.8675 Z" fill="#000" opacity="0.25"/></g></defs><rect width="1400" height="900" fill="#14120E"/><rect x="30" y="30" width="740" height="840" fill="url(#stageLight)" stroke="#3F3D38"/><rect x="30" y="810" width="740" height="60" fill="#17140F"/><line x1="30" y1="810" x2="770" y2="810" stroke="#635C4C" stroke-width="1.5"/><line x1="62" y1="810" x2="62" y2="134.2" stroke="#635C4C" stroke-width="1"/><line x1="53" y1="810.0" x2="62" y2="810.0" stroke="#635C4C"/><text x="50" y="814.0" text-anchor="end" font-family="'DejaVu Sans Mono', Menlo, Consolas, monospace" font-size="11" fill="#635C4C">0.0</text><line x1="57" y1="739.2" x2="62" y2="739.2" stroke="#635C4C"/><text x="50" y="743.2" text-anchor="end" font-family="'DejaVu Sans Mono', Menlo, Consolas, monospace" font-size="11" fill="#635C4C">0.2</text><line x1="57" y1="668.3" x2="62" y2="668.3" stroke="#635C4C"/><text x="50" y="672.3" text-anchor="end" font-family="'DejaVu Sans Mono', Menlo, Consolas, monospace" font-size="11" fill="#635C4C">0.5</text><line x1="57" y1="597.5" x2="62" y2="597.5" stroke="#635C4C"/><text x="50" y="601.5" text-anchor="end" font-family="'DejaVu Sans Mono', Menlo, Consolas, monospace" font-size="11" fill="#635C4C">0.8</text><line x1="53" y1="526.7" x2="62" y2="526.7" stroke="#635C4C"/><text x="50" y="530.7" text-anchor="end" font-family="'DejaVu Sans Mono', Menlo, Consolas, monospace" font-size="11" fill="#635C4C">1.0</text><line x1="57" y1="455.8" x2="62" y2="455.8" stroke="#635C4C"/><text x="50" y="459.8" text-anchor="end" font-family="'DejaVu Sans Mono', Menlo, Consolas, monospace" font-size="11" fill="#635C4C">1.2</text><line x1="57" y1="385.0" x2="62" y2="385.0" stroke="#635C4C"/><text x="50" y="389.0" text-anchor="end" font-family="'DejaVu Sans Mono', Menlo, Consolas, monospace" font-size="11" fill="#635C4C">1.5</text><line x1="57" y1="314.2" x2="62" y2="314.2" stroke="#635C4C"/><text x="50" y="318.2" text-anchor="end" font-family="'DejaVu Sans Mono', Menlo, Consolas, monospace" font-size="11" fill="#635C4C">1.8</text><line x1="53" y1="243.3" x2="62" y2="243.3" stroke="#635C4C"/><text x="50" y="247.3" text-anchor="end" font-family="'DejaVu Sans Mono', Menlo, Consolas, monospace" font-size="11" fill="#635C4C">2.0</text><line x1="57" y1="172.5" x2="62" y2="172.5" stroke="#635C4C"/><text x="50" y="176.5" text-anchor="end" font-family="'DejaVu Sans Mono', Menlo, Consolas, monospace" font-size="11" fill="#635C4C">2.2</text><g transform="translate(158.3 810) scale(283.33 -283.33)"><ellipse cx="0" cy="1.674" rx="0.072" ry="0.099" fill="none" transform="rotate(0 0 1.674)" stroke="#635C4C" stroke-width="0.01" stroke-dasharray="0.03 0.02" /><path d="M-0.18,1.458 C-0.237,1.374 -0.219,1.038 -0.162,0.954 C-0.105,0.87 0.105,0.87 0.162,0.954 C0.219,1.038 0.237,1.374 0.18,1.458 C0.123,1.542 -0.123,1.542 -0.18,1.458 Z" fill="none" stroke="#635C4C" stroke-width="0.01" stroke-dasharray="0.03 0.02" /><path d="M-0.018,0.9534 L-0.0495,0.0536 A0.0405,0.0405 0 0 0 -0.1305,0.0544 L-0.144,0.9546 A0.063,0.063 0 0 0 -0.018,0.9534 Z" fill="none" stroke="#635C4C" stroke-width="0.01" stroke-dasharray="0.03 0.02" /><path d="M-0.1441,1.4198 L-0.18,0.8623 A0.036,0.036 0 0 0 -0.252,0.8657 L-0.2339,1.4242 A0.045,0.045 0 0 0 -0.1441,1.4198 Z" fill="none" stroke="#635C4C" stroke-width="0.01" stroke-dasharray="0.03 0.02" /><path d="M0.144,0.9546 L0.1305,0.0544 A0.0405,0.0405 0 0 0 0.0495,0.0536 L0.018,0.9534 A0.063,0.063 0 0 0 0.144,0.9546 Z" fill="none" stroke="#635C4C" stroke-width="0.01" stroke-dasharray="0.03 0.02" /><path d="M0.2339,1.4242 L0.252,0.8657 A0.036,0.036 0 0 0 0.18,0.8623 L0.1441,1.4198 A0.045,0.045 0 0 0 0.2339,1.4242 Z" fill="none" stroke="#635C4C" stroke-width="0.01" stroke-dasharray="0.03 0.02" /></g><text x="158.3" y="832" text-anchor="middle" font-family="'DejaVu Sans Mono', Menlo, Consolas, monospace" font-size="11" fill="#635C4C">1.80 m standard</text><line x1="62" y1="172.5" x2="750" y2="172.5" stroke="#9A9078" stroke-dasharray="6 5" stroke-width="1"/><text x="70" y="165.5" font-family="'DejaVu Sans Mono', Menlo, Consolas, monospace" font-size="13" fill="#9A9078">2.25 m</text><g transform="translate(470 810) scale(283.33 -283.33)"><use href="#fig"/></g><rect x="604" y="46" width="150" height="190" fill="#DCD2BA" opacity="0.9"/><g transform="translate(679.0 212) scale(66.67 -66.67)"><use href="#sil" filter="url(#silhouette)"/></g><text x="679.0" y="228" text-anchor="middle" font-family="'DejaVu Sans Mono', Menlo, Consolas, monospace" font-size="10" fill="#1E1A14">SILHOUETTE READ</text><text x="800" y="64" font-family="'DejaVu Sans Mono', Menlo, Consolas, monospace" font-size="11" letter-spacing="2" fill="#635C4C">PLUNDERSPELL BESTIARY · STRATUM II · c.1250</text><text x="800" y="112" font-family="Georgia, 'Times New Roman', serif" font-size="42" fill="#DCD2BA">Treasury Bodyguard</text><text x="800" y="138" font-family="Georgia, 'Times New Roman', serif" font-style="italic" font-size="14" fill="#9A9078">formerly VaultWarden. Placeholder cross-reference only.</text><rect x="800" y="160" width="237" height="24" rx="3" fill="#8E959C"/><text x="808" y="177" font-family="'DejaVu Sans Mono', Menlo, Consolas, monospace" font-size="12" fill="#14120E">STRONGROOM · ARMOURED MELEE</text><text x="1051" y="177" font-family="'DejaVu Sans Mono', Menlo, Consolas, monospace" font-size="12" fill="#9A9078">brief 2.25 m · scale.md 2.10 m</text><text x="800" y="210" font-family="Georgia, 'Times New Roman', serif" font-size="15" fill="#DCD2BA" font-style="italic"><tspan x="800" dy="0">Slow, heavily armoured. He closes the distance and hits hard: the</tspan><tspan x="800" dy="20">tanky melee check at valuable doors.</tspan></text><text x="800" y="264" font-family="'DejaVu Sans Mono', Menlo, Consolas, monospace" font-size="11" letter-spacing="2" fill="#635C4C">CONCEPT</text><circle cx="804" cy="281" r="2.5" fill="#9A9078"/><text x="816" y="286" font-family="Georgia, 'Times New Roman', serif" font-size="14" fill="#DCD2BA" ><tspan x="816" dy="0">A hand-picked, oversized man-at-arms kept at the treasury door, chosen</tspan><tspan x="816" dy="19">for size rather than rank.</tspan></text><circle cx="804" cy="325" r="2.5" fill="#9A9078"/><text x="816" y="330" font-family="Georgia, 'Times New Roman', serif" font-size="14" fill="#DCD2BA" ><tspan x="816" dy="0">The heaviest plate the estate owns: breastplate and limb harness over</tspan><tspan x="816" dy="19">mail, with a plain great helm.</tspan></text><circle cx="804" cy="369" r="2.5" fill="#9A9078"/><text x="816" y="374" font-family="Georgia, 'Times New Roman', serif" font-size="14" fill="#DCD2BA" ><tspan x="816" dy="0">Poleaxe planted upright and a pavise in the off hand. Less decorated</tspan><tspan x="816" dy="19">than the Sergeant, more armoured than anyone.</tspan></text><circle cx="804" cy="413" r="2.5" fill="#9A9078"/><text x="816" y="418" font-family="Georgia, 'Times New Roman', serif" font-size="14" fill="#DCD2BA" ><tspan x="816" dy="0">A planted, square stance. The silhouette says "immovable" before it says</tspan><tspan x="816" dy="19">"dangerous".</tspan></text><text x="800" y="470" font-family="'DejaVu Sans Mono', Menlo, Consolas, monospace" font-size="11" letter-spacing="2" fill="#635C4C">MATERIALS</text><rect x="800" y="484" width="24" height="24" fill="#8E959C" stroke="#635C4C"/><text x="832" y="494" font-family="Georgia, 'Times New Roman', serif" font-size="13" fill="#DCD2BA">Dull steel</text><text x="832" y="508" font-family="'DejaVu Sans Mono', Menlo, Consolas, monospace" font-size="10" fill="#9A9078">full harness</text><rect x="1090" y="484" width="24" height="24" fill="#6F7378" stroke="#635C4C"/><text x="1122" y="494" font-family="Georgia, 'Times New Roman', serif" font-size="13" fill="#DCD2BA">Mail</text><text x="1122" y="508" font-family="'DejaVu Sans Mono', Menlo, Consolas, monospace" font-size="10" fill="#9A9078">skirt, aventail</text><rect x="800" y="518" width="24" height="24" fill="#5E574C" stroke="#635C4C"/><text x="832" y="528" font-family="Georgia, 'Times New Roman', serif" font-size="13" fill="#DCD2BA">Ash-painted oak</text><text x="832" y="542" font-family="'DejaVu Sans Mono', Menlo, Consolas, monospace" font-size="10" fill="#9A9078">pavise face</text><rect x="1090" y="518" width="24" height="24" fill="#5E6166" stroke="#635C4C"/><text x="1122" y="528" font-family="Georgia, 'Times New Roman', serif" font-size="13" fill="#DCD2BA">Iron</text><text x="1122" y="542" font-family="'DejaVu Sans Mono', Menlo, Consolas, monospace" font-size="10" fill="#9A9078">pavise bands, poleaxe langets</text><text x="800" y="568" font-family="'DejaVu Sans Mono', Menlo, Consolas, monospace" font-size="11" letter-spacing="2" fill="#635C4C">RESERVED PIGMENTS</text><rect x="800" y="580" width="14" height="14" fill="#C9A227"/><text x="822" y="591" font-family="'DejaVu Sans Mono', Menlo, Consolas, monospace" font-size="12" fill="#DCD2BA" ><tspan x="822" dy="0">Orpiment: None: he guards the gold, he doesn't wear it.</tspan></text><rect x="800" y="611" width="14" height="14" fill="#7A6AA0"/><text x="822" y="622" font-family="'DejaVu Sans Mono', Menlo, Consolas, monospace" font-size="12" fill="#9A9078" ><tspan x="822" dy="0">Lapis: None.</tspan></text><rect x="800" y="642" width="14" height="14" fill="#C4542E"/><text x="822" y="653" font-family="'DejaVu Sans Mono', Menlo, Consolas, monospace" font-size="12" fill="#9A9078" ><tspan x="822" dy="0">Madder: None.</tspan></text><rect x="800" y="673" width="14" height="14" fill="#5FA288"/><text x="822" y="684" font-family="'DejaVu Sans Mono', Menlo, Consolas, monospace" font-size="12" fill="#9A9078" ><tspan x="822" dy="0">Verdigris: None.</tspan></text><text x="1370" y="886" text-anchor="end" font-family="'DejaVu Sans Mono', Menlo, Consolas, monospace" font-size="10" fill="#635C4C">Hand-authored SVG · Tools/bestiary_concept_svg.py · concept thumbnail for paint-over, not final art</text></svg>
