<svg xmlns="http://www.w3.org/2000/svg" viewBox="0 0 1200 800" width="1200" height="800">
  <!-- Plunderspell castle room sheet · THE BRONZE AGE · CASTLE ROOM · KEEP · generated. Rules: docs/art/rooms/README.md -->
  <defs>
    <pattern id="grid" width="55" height="55" patternUnits="userSpaceOnUse" x="0" y="690"><path d="M55 0 H0 V55" fill="none" stroke="#262119" stroke-width="1"/></pattern>
    <radialGradient id="glow" cx="50%" cy="70%" r="60%"><stop offset="0" stop-color="#2A2012" stop-opacity=".9"/><stop offset="1" stop-color="#14120E" stop-opacity="0"/></radialGradient>
    <radialGradient id="r1" cx="0.5" cy="0.5" r="0.5"><stop offset="0" stop-color="#6A8A8A" stop-opacity="0.28"/><stop offset="0.35" stop-color="#415150" stop-opacity="0.21000000000000002"/><stop offset="1" stop-color="#14120E" stop-opacity="0"/></radialGradient>
    <linearGradient id="g2" x1="0" y1="0" x2="0" y2="1"><stop offset="0" stop-color="#867764"/><stop offset="0.38" stop-color="#7A6A58"/><stop offset="1" stop-color="#4F4438"/></linearGradient>
    <linearGradient id="g3" x1="0" y1="0" x2="0" y2="1"><stop offset="0" stop-color="#CDAE83"/><stop offset="0.38" stop-color="#C9A77A"/><stop offset="1" stop-color="#6C5A42"/></linearGradient>
    <linearGradient id="g4" x1="0" y1="0" x2="0" y2="1"><stop offset="0" stop-color="#2B231B"/><stop offset="0.45" stop-color="#2B231B"/><stop offset="1" stop-color="#C9A77A"/></linearGradient>
    <clipPath id="c5"><path d="M127.5 673.5 L732.5 673.5 L732.5 420.5 L127.5 420.5 Z"/></clipPath>
    <linearGradient id="g6" x1="0" y1="0" x2="0" y2="1"><stop offset="0" stop-color="#A2614D"/><stop offset="0.38" stop-color="#8E3F2C"/><stop offset="1" stop-color="#4E261A"/></linearGradient>
    <linearGradient id="g7" x1="0" y1="0" x2="1" y2="0"><stop offset="0" stop-color="#DED4BA"/><stop offset="0.38" stop-color="#D8CDB2"/><stop offset="1" stop-color="#736C5E"/></linearGradient>
    <linearGradient id="g8" x1="0" y1="0" x2="1" y2="0"><stop offset="0" stop-color="#E0D5BB"/><stop offset="0.38" stop-color="#D8CDB2"/><stop offset="1" stop-color="#736C5E"/></linearGradient>
    <linearGradient id="g9" x1="0" y1="0" x2="0" y2="1"><stop offset="0" stop-color="#DDD2B8"/><stop offset="0.38" stop-color="#D8CDB2"/><stop offset="1" stop-color="#7D7666"/></linearGradient>
    <linearGradient id="g10" x1="0" y1="0" x2="0" y2="1"><stop offset="0" stop-color="#B48262"/><stop offset="0.38" stop-color="#A0603E"/><stop offset="1" stop-color="#573624"/></linearGradient>
    <linearGradient id="g11" x1="0" y1="0" x2="1" y2="0"><stop offset="0" stop-color="#BD9071"/><stop offset="0.38" stop-color="#A0603E"/><stop offset="1" stop-color="#503221"/></linearGradient>
    <clipPath id="c12"><path d="M100 491.5 L127.5 491.5 L127.5 420.5 L100 420.5 Z"/></clipPath>
    <clipPath id="c13"><path d="M732.5 491.5 L760 491.5 L760 420.5 L732.5 420.5 Z"/></clipPath>
  </defs>
  <rect width="1200" height="800" fill="#14120E"/>
  <rect width="1200" height="800" fill="url(#glow)"/>
  <rect x="0" y="120" width="1200" height="570" fill="url(#grid)"/>
  <ellipse cx="639" cy="577.5" rx="280" ry="200" fill="url(#r1)"/>
  <line x1="40" y1="690" x2="1160" y2="690" stroke="#635C4C" stroke-width="1.5"/>
  <rect x="12" y="12" width="1176" height="776" fill="none" stroke="#332D22" stroke-width="1"/>
  <text x="40" y="54" font-family="Overpass Mono, monospace" font-size="12" letter-spacing="3" fill="#635C4C">THE BRONZE AGE · CASTLE ROOM · KEEP</text>
  <text x="40" y="96" font-family="Eczar, Georgia, serif" font-size="38" font-weight="700" fill="#DCD2BA">The Bath</text>
  <text x="1160" y="54" text-anchor="end" font-family="Overpass Mono, monospace" font-size="12" fill="#9A9078">12 × 12 m cell · clear 4.60 m · ≤ 2k tris (kit)</text>
  <text x="1160" y="76" text-anchor="end" font-family="Overpass Mono, monospace" font-size="12" fill="#9A9078">section 1 m = 55 px · plan 1 m = 30 px</text>
  <g font-family="Overpass Mono, monospace" font-size="10" fill="#635C4C" stroke="#635C4C"><line x1="60" y1="690" x2="60" y2="332" stroke-width="1"/><line x1="54" y1="673.5" x2="66" y2="673.5"/><text x="30" y="677.5" stroke="none">0</text><line x1="54" y1="618.5" x2="66" y2="618.5"/><text x="30" y="622.5" stroke="none">1</text><line x1="54" y1="563.5" x2="66" y2="563.5"/><text x="30" y="567.5" stroke="none">2</text><line x1="54" y1="508.5" x2="66" y2="508.5"/><text x="30" y="512.5" stroke="none">3</text><line x1="54" y1="453.5" x2="66" y2="453.5"/><text x="30" y="457.5" stroke="none">4</text><line x1="54" y1="398.5" x2="66" y2="398.5"/><text x="30" y="402.5" stroke="none">5</text><line x1="54" y1="343.5" x2="66" y2="343.5"/><text x="30" y="347.5" stroke="none">6</text><text x="24" y="319" stroke="none">m</text></g>
  <text x="430" y="730" text-anchor="middle" font-family="Overpass Mono, monospace" font-size="11" letter-spacing="3" fill="#635C4C">SECTION A–A · E–W THROUGH THE ROOM, LOOKING NORTH</text>
  <text x="980" y="156" text-anchor="middle" font-family="Overpass Mono, monospace" font-size="11" letter-spacing="3" fill="#635C4C">PLAN · 12 × 12 m CELL</text>
  <g id="drawing">
    <rect x="100" y="673.5" width="660" height="16.5" fill="url(#g2)" stroke="#393229" stroke-width="1"/>
    <path d="M127.5 673.5 L732.5 673.5 L732.5 420.5 L127.5 420.5 Z" fill="url(#g3)" stroke="#594A36" stroke-width="1" stroke-linejoin="round" stroke-linecap="round"/>
    <g clip-path="url(#c5)"><rect x="127.5" y="420.5" width="605" height="66" fill="url(#g4)" opacity=".55"/></g>
    <rect x="358.5" y="491.5" width="143" height="182" fill="#14120E"/>
    <rect x="100" y="420.5" width="660" height="24.7" fill="url(#g6)" stroke="#412017" stroke-width="0.8"/>
    <rect x="127.5" y="541.5" width="231" height="66" fill="#D7BB91" stroke="#6C5A42" stroke-width="0.8"/>
    <rect x="127.5" y="541.5" width="231" height="8.8" fill="#8E3F2C"/><path d="M128 548.4 C129.7 549.3 129.4 543.1 132.5 543.1 A2.8 2.8 0 1 1 132 547.6 A1.4 1.4 0 1 1 133.4 545.9" fill="none" stroke="#3F6F86" stroke-width="1"/><path d="M138.1 548.4 C139.7 549.3 139.5 543.1 142.6 543.1 A2.8 2.8 0 1 1 142 547.6 A1.4 1.4 0 1 1 143.4 545.9" fill="none" stroke="#3F6F86" stroke-width="1"/><path d="M148.1 548.4 C149.8 549.3 149.5 543.1 152.6 543.1 A2.8 2.8 0 1 1 152 547.6 A1.4 1.4 0 1 1 153.5 545.9" fill="none" stroke="#3F6F86" stroke-width="1"/><path d="M158.1 548.4 C159.8 549.3 159.6 543.1 162.7 543.1 A2.8 2.8 0 1 1 162.1 547.6 A1.4 1.4 0 1 1 163.5 545.9" fill="none" stroke="#3F6F86" stroke-width="1"/><path d="M168.2 548.4 C169.9 549.3 169.6 543.1 172.7 543.1 A2.8 2.8 0 1 1 172.1 547.6 A1.4 1.4 0 1 1 173.5 545.9" fill="none" stroke="#3F6F86" stroke-width="1"/><path d="M178.2 548.4 C179.9 549.3 179.6 543.1 182.7 543.1 A2.8 2.8 0 1 1 182.2 547.6 A1.4 1.4 0 1 1 183.6 545.9" fill="none" stroke="#3F6F86" stroke-width="1"/><path d="M188.3 548.4 C190 549.3 189.7 543.1 192.8 543.1 A2.8 2.8 0 1 1 192.2 547.6 A1.4 1.4 0 1 1 193.6 545.9" fill="none" stroke="#3F6F86" stroke-width="1"/><path d="M198.3 548.4 C200 549.3 199.7 543.1 202.8 543.1 A2.8 2.8 0 1 1 202.3 547.6 A1.4 1.4 0 1 1 203.7 545.9" fill="none" stroke="#3F6F86" stroke-width="1"/><path d="M208.4 548.4 C210.1 549.3 209.8 543.1 212.9 543.1 A2.8 2.8 0 1 1 212.3 547.6 A1.4 1.4 0 1 1 213.7 545.9" fill="none" stroke="#3F6F86" stroke-width="1"/><path d="M218.4 548.4 C220.1 549.3 219.8 543.1 222.9 543.1 A2.8 2.8 0 1 1 222.3 547.6 A1.4 1.4 0 1 1 223.8 545.9" fill="none" stroke="#3F6F86" stroke-width="1"/><path d="M228.5 548.4 C230.1 549.3 229.9 543.1 233 543.1 A2.8 2.8 0 1 1 232.4 547.6 A1.4 1.4 0 1 1 233.8 545.9" fill="none" stroke="#3F6F86" stroke-width="1"/><path d="M238.5 548.4 C240.2 549.3 239.9 543.1 243 543.1 A2.8 2.8 0 1 1 242.4 547.6 A1.4 1.4 0 1 1 243.8 545.9" fill="none" stroke="#3F6F86" stroke-width="1"/><path d="M248.5 548.4 C250.2 549.3 249.9 543.1 253 543.1 A2.8 2.8 0 1 1 252.5 547.6 A1.4 1.4 0 1 1 253.9 545.9" fill="none" stroke="#3F6F86" stroke-width="1"/><path d="M258.6 548.4 C260.3 549.3 260 543.1 263.1 543.1 A2.8 2.8 0 1 1 262.5 547.6 A1.4 1.4 0 1 1 263.9 545.9" fill="none" stroke="#3F6F86" stroke-width="1"/><path d="M268.6 548.4 C270.3 549.3 270 543.1 273.1 543.1 A2.8 2.8 0 1 1 272.6 547.6 A1.4 1.4 0 1 1 274 545.9" fill="none" stroke="#3F6F86" stroke-width="1"/><path d="M278.7 548.4 C280.4 549.3 280.1 543.1 283.2 543.1 A2.8 2.8 0 1 1 282.6 547.6 A1.4 1.4 0 1 1 284 545.9" fill="none" stroke="#3F6F86" stroke-width="1"/><path d="M288.7 548.4 C290.4 549.3 290.1 543.1 293.2 543.1 A2.8 2.8 0 1 1 292.7 547.6 A1.4 1.4 0 1 1 294.1 545.9" fill="none" stroke="#3F6F86" stroke-width="1"/><path d="M298.8 548.4 C300.4 549.3 300.2 543.1 303.3 543.1 A2.8 2.8 0 1 1 302.7 547.6 A1.4 1.4 0 1 1 304.1 545.9" fill="none" stroke="#3F6F86" stroke-width="1"/><path d="M308.8 548.4 C310.5 549.3 310.2 543.1 313.3 543.1 A2.8 2.8 0 1 1 312.7 547.6 A1.4 1.4 0 1 1 314.1 545.9" fill="none" stroke="#3F6F86" stroke-width="1"/><path d="M318.8 548.4 C320.5 549.3 320.3 543.1 323.3 543.1 A2.8 2.8 0 1 1 322.8 547.6 A1.4 1.4 0 1 1 324.2 545.9" fill="none" stroke="#3F6F86" stroke-width="1"/><path d="M328.9 548.4 C330.6 549.3 330.3 543.1 333.4 543.1 A2.8 2.8 0 1 1 332.8 547.6 A1.4 1.4 0 1 1 334.2 545.9" fill="none" stroke="#3F6F86" stroke-width="1"/><path d="M338.9 548.4 C340.6 549.3 340.3 543.1 343.4 543.1 A2.8 2.8 0 1 1 342.9 547.6 A1.4 1.4 0 1 1 344.3 545.9" fill="none" stroke="#3F6F86" stroke-width="1"/><path d="M349 548.4 C350.7 549.3 350.4 543.1 353.5 543.1 A2.8 2.8 0 1 1 352.9 547.6 A1.4 1.4 0 1 1 354.3 545.9" fill="none" stroke="#3F6F86" stroke-width="1"/>
    <line x1="141.2" y1="602" x2="141.2" y2="565.6" stroke="#305160" stroke-width="1.2" stroke-linecap="round"/>
    <path d="M141.2 568.4 q-9.8 -14 -15.4 -22.4" fill="none" stroke="#3F6F86" stroke-width="2" stroke-linejoin="round" stroke-linecap="round" opacity="0.9"/>
    <path d="M141.2 568.4 q0 -14 0 -22.4" fill="none" stroke="#3F6F86" stroke-width="2" stroke-linejoin="round" stroke-linecap="round" opacity="0.9"/>
    <path d="M141.2 568.4 q9.8 -14 15.4 -22.4" fill="none" stroke="#3F6F86" stroke-width="2" stroke-linejoin="round" stroke-linecap="round" opacity="0.9"/>
    <line x1="166" y1="602" x2="166" y2="565.6" stroke="#683022" stroke-width="1.2" stroke-linecap="round"/>
    <path d="M166 568.4 q-9.8 -14 -15.4 -22.4" fill="none" stroke="#8E3F2C" stroke-width="2" stroke-linejoin="round" stroke-linecap="round" opacity="0.9"/>
    <path d="M166 568.4 q0 -14 0 -22.4" fill="none" stroke="#8E3F2C" stroke-width="2" stroke-linejoin="round" stroke-linecap="round" opacity="0.9"/>
    <path d="M166 568.4 q9.8 -14 15.4 -22.4" fill="none" stroke="#8E3F2C" stroke-width="2" stroke-linejoin="round" stroke-linecap="round" opacity="0.9"/>
    <line x1="190.8" y1="602" x2="190.8" y2="565.6" stroke="#305160" stroke-width="1.2" stroke-linecap="round"/>
    <path d="M190.8 568.4 q-9.8 -14 -15.4 -22.4" fill="none" stroke="#3F6F86" stroke-width="2" stroke-linejoin="round" stroke-linecap="round" opacity="0.9"/>
    <path d="M190.8 568.4 q0 -14 0 -22.4" fill="none" stroke="#3F6F86" stroke-width="2" stroke-linejoin="round" stroke-linecap="round" opacity="0.9"/>
    <path d="M190.8 568.4 q9.8 -14 15.4 -22.4" fill="none" stroke="#3F6F86" stroke-width="2" stroke-linejoin="round" stroke-linecap="round" opacity="0.9"/>
    <line x1="215.5" y1="602" x2="215.5" y2="565.6" stroke="#683022" stroke-width="1.2" stroke-linecap="round"/>
    <path d="M215.5 568.4 q-9.8 -14 -15.4 -22.4" fill="none" stroke="#8E3F2C" stroke-width="2" stroke-linejoin="round" stroke-linecap="round" opacity="0.9"/>
    <path d="M215.5 568.4 q0 -14 0 -22.4" fill="none" stroke="#8E3F2C" stroke-width="2" stroke-linejoin="round" stroke-linecap="round" opacity="0.9"/>
    <path d="M215.5 568.4 q9.8 -14 15.4 -22.4" fill="none" stroke="#8E3F2C" stroke-width="2" stroke-linejoin="round" stroke-linecap="round" opacity="0.9"/>
    <line x1="240.2" y1="602" x2="240.2" y2="565.6" stroke="#305160" stroke-width="1.2" stroke-linecap="round"/>
    <path d="M240.2 568.4 q-9.8 -14 -15.4 -22.4" fill="none" stroke="#3F6F86" stroke-width="2" stroke-linejoin="round" stroke-linecap="round" opacity="0.9"/>
    <path d="M240.2 568.4 q0 -14 0 -22.4" fill="none" stroke="#3F6F86" stroke-width="2" stroke-linejoin="round" stroke-linecap="round" opacity="0.9"/>
    <path d="M240.2 568.4 q9.8 -14 15.4 -22.4" fill="none" stroke="#3F6F86" stroke-width="2" stroke-linejoin="round" stroke-linecap="round" opacity="0.9"/>
    <line x1="265" y1="602" x2="265" y2="565.6" stroke="#683022" stroke-width="1.2" stroke-linecap="round"/>
    <path d="M265 568.4 q-9.8 -14 -15.4 -22.4" fill="none" stroke="#8E3F2C" stroke-width="2" stroke-linejoin="round" stroke-linecap="round" opacity="0.9"/>
    <path d="M265 568.4 q0 -14 0 -22.4" fill="none" stroke="#8E3F2C" stroke-width="2" stroke-linejoin="round" stroke-linecap="round" opacity="0.9"/>
    <path d="M265 568.4 q9.8 -14 15.4 -22.4" fill="none" stroke="#8E3F2C" stroke-width="2" stroke-linejoin="round" stroke-linecap="round" opacity="0.9"/>
    <line x1="289.8" y1="602" x2="289.8" y2="565.6" stroke="#305160" stroke-width="1.2" stroke-linecap="round"/>
    <path d="M289.8 568.4 q-9.8 -14 -15.4 -22.4" fill="none" stroke="#3F6F86" stroke-width="2" stroke-linejoin="round" stroke-linecap="round" opacity="0.9"/>
    <path d="M289.8 568.4 q0 -14 0 -22.4" fill="none" stroke="#3F6F86" stroke-width="2" stroke-linejoin="round" stroke-linecap="round" opacity="0.9"/>
    <path d="M289.8 568.4 q9.8 -14 15.4 -22.4" fill="none" stroke="#3F6F86" stroke-width="2" stroke-linejoin="round" stroke-linecap="round" opacity="0.9"/>
    <line x1="314.5" y1="602" x2="314.5" y2="565.6" stroke="#683022" stroke-width="1.2" stroke-linecap="round"/>
    <path d="M314.5 568.4 q-9.8 -14 -15.4 -22.4" fill="none" stroke="#8E3F2C" stroke-width="2" stroke-linejoin="round" stroke-linecap="round" opacity="0.9"/>
    <path d="M314.5 568.4 q0 -14 0 -22.4" fill="none" stroke="#8E3F2C" stroke-width="2" stroke-linejoin="round" stroke-linecap="round" opacity="0.9"/>
    <path d="M314.5 568.4 q9.8 -14 15.4 -22.4" fill="none" stroke="#8E3F2C" stroke-width="2" stroke-linejoin="round" stroke-linecap="round" opacity="0.9"/>
    <line x1="339.2" y1="602" x2="339.2" y2="565.6" stroke="#305160" stroke-width="1.2" stroke-linecap="round"/>
    <path d="M339.2 568.4 q-9.8 -14 -15.4 -22.4" fill="none" stroke="#3F6F86" stroke-width="2" stroke-linejoin="round" stroke-linecap="round" opacity="0.9"/>
    <path d="M339.2 568.4 q0 -14 0 -22.4" fill="none" stroke="#3F6F86" stroke-width="2" stroke-linejoin="round" stroke-linecap="round" opacity="0.9"/>
    <path d="M339.2 568.4 q9.8 -14 15.4 -22.4" fill="none" stroke="#3F6F86" stroke-width="2" stroke-linejoin="round" stroke-linecap="round" opacity="0.9"/>
    <rect x="501.5" y="541.5" width="231" height="66" fill="#D7BB91" stroke="#6C5A42" stroke-width="0.8"/>
    <rect x="501.5" y="541.5" width="231" height="8.8" fill="#8E3F2C"/><path d="M502 548.4 C503.7 549.3 503.4 543.1 506.5 543.1 A2.8 2.8 0 1 1 506 547.6 A1.4 1.4 0 1 1 507.4 545.9" fill="none" stroke="#3F6F86" stroke-width="1"/><path d="M512.1 548.4 C513.7 549.3 513.5 543.1 516.6 543.1 A2.8 2.8 0 1 1 516 547.6 A1.4 1.4 0 1 1 517.4 545.9" fill="none" stroke="#3F6F86" stroke-width="1"/><path d="M522.1 548.4 C523.8 549.3 523.5 543.1 526.6 543.1 A2.8 2.8 0 1 1 526 547.6 A1.4 1.4 0 1 1 527.5 545.9" fill="none" stroke="#3F6F86" stroke-width="1"/><path d="M532.1 548.4 C533.8 549.3 533.6 543.1 536.7 543.1 A2.8 2.8 0 1 1 536.1 547.6 A1.4 1.4 0 1 1 537.5 545.9" fill="none" stroke="#3F6F86" stroke-width="1"/><path d="M542.2 548.4 C543.9 549.3 543.6 543.1 546.7 543.1 A2.8 2.8 0 1 1 546.1 547.6 A1.4 1.4 0 1 1 547.5 545.9" fill="none" stroke="#3F6F86" stroke-width="1"/><path d="M552.2 548.4 C553.9 549.3 553.6 543.1 556.7 543.1 A2.8 2.8 0 1 1 556.2 547.6 A1.4 1.4 0 1 1 557.6 545.9" fill="none" stroke="#3F6F86" stroke-width="1"/><path d="M562.3 548.4 C564 549.3 563.7 543.1 566.8 543.1 A2.8 2.8 0 1 1 566.2 547.6 A1.4 1.4 0 1 1 567.6 545.9" fill="none" stroke="#3F6F86" stroke-width="1"/><path d="M572.3 548.4 C574 549.3 573.7 543.1 576.8 543.1 A2.8 2.8 0 1 1 576.3 547.6 A1.4 1.4 0 1 1 577.7 545.9" fill="none" stroke="#3F6F86" stroke-width="1"/><path d="M582.4 548.4 C584.1 549.3 583.8 543.1 586.9 543.1 A2.8 2.8 0 1 1 586.3 547.6 A1.4 1.4 0 1 1 587.7 545.9" fill="none" stroke="#3F6F86" stroke-width="1"/><path d="M592.4 548.4 C594.1 549.3 593.8 543.1 596.9 543.1 A2.8 2.8 0 1 1 596.3 547.6 A1.4 1.4 0 1 1 597.8 545.9" fill="none" stroke="#3F6F86" stroke-width="1"/><path d="M602.5 548.4 C604.1 549.3 603.9 543.1 607 543.1 A2.8 2.8 0 1 1 606.4 547.6 A1.4 1.4 0 1 1 607.8 545.9" fill="none" stroke="#3F6F86" stroke-width="1"/><path d="M612.5 548.4 C614.2 549.3 613.9 543.1 617 543.1 A2.8 2.8 0 1 1 616.4 547.6 A1.4 1.4 0 1 1 617.8 545.9" fill="none" stroke="#3F6F86" stroke-width="1"/><path d="M622.5 548.4 C624.2 549.3 623.9 543.1 627 543.1 A2.8 2.8 0 1 1 626.5 547.6 A1.4 1.4 0 1 1 627.9 545.9" fill="none" stroke="#3F6F86" stroke-width="1"/><path d="M632.6 548.4 C634.3 549.3 634 543.1 637.1 543.1 A2.8 2.8 0 1 1 636.5 547.6 A1.4 1.4 0 1 1 637.9 545.9" fill="none" stroke="#3F6F86" stroke-width="1"/><path d="M642.6 548.4 C644.3 549.3 644 543.1 647.1 543.1 A2.8 2.8 0 1 1 646.6 547.6 A1.4 1.4 0 1 1 648 545.9" fill="none" stroke="#3F6F86" stroke-width="1"/><path d="M652.7 548.4 C654.4 549.3 654.1 543.1 657.2 543.1 A2.8 2.8 0 1 1 656.6 547.6 A1.4 1.4 0 1 1 658 545.9" fill="none" stroke="#3F6F86" stroke-width="1"/><path d="M662.7 548.4 C664.4 549.3 664.1 543.1 667.2 543.1 A2.8 2.8 0 1 1 666.7 547.6 A1.4 1.4 0 1 1 668.1 545.9" fill="none" stroke="#3F6F86" stroke-width="1"/><path d="M672.8 548.4 C674.4 549.3 674.2 543.1 677.3 543.1 A2.8 2.8 0 1 1 676.7 547.6 A1.4 1.4 0 1 1 678.1 545.9" fill="none" stroke="#3F6F86" stroke-width="1"/><path d="M682.8 548.4 C684.5 549.3 684.2 543.1 687.3 543.1 A2.8 2.8 0 1 1 686.7 547.6 A1.4 1.4 0 1 1 688.1 545.9" fill="none" stroke="#3F6F86" stroke-width="1"/><path d="M692.8 548.4 C694.5 549.3 694.3 543.1 697.3 543.1 A2.8 2.8 0 1 1 696.8 547.6 A1.4 1.4 0 1 1 698.2 545.9" fill="none" stroke="#3F6F86" stroke-width="1"/><path d="M702.9 548.4 C704.6 549.3 704.3 543.1 707.4 543.1 A2.8 2.8 0 1 1 706.8 547.6 A1.4 1.4 0 1 1 708.2 545.9" fill="none" stroke="#3F6F86" stroke-width="1"/><path d="M712.9 548.4 C714.6 549.3 714.3 543.1 717.4 543.1 A2.8 2.8 0 1 1 716.9 547.6 A1.4 1.4 0 1 1 718.3 545.9" fill="none" stroke="#3F6F86" stroke-width="1"/><path d="M723 548.4 C724.7 549.3 724.4 543.1 727.5 543.1 A2.8 2.8 0 1 1 726.9 547.6 A1.4 1.4 0 1 1 728.3 545.9" fill="none" stroke="#3F6F86" stroke-width="1"/>
    <line x1="515.2" y1="602" x2="515.2" y2="565.6" stroke="#305160" stroke-width="1.2" stroke-linecap="round"/>
    <path d="M515.2 568.4 q-9.8 -14 -15.4 -22.4" fill="none" stroke="#3F6F86" stroke-width="2" stroke-linejoin="round" stroke-linecap="round" opacity="0.9"/>
    <path d="M515.2 568.4 q0 -14 0 -22.4" fill="none" stroke="#3F6F86" stroke-width="2" stroke-linejoin="round" stroke-linecap="round" opacity="0.9"/>
    <path d="M515.2 568.4 q9.8 -14 15.4 -22.4" fill="none" stroke="#3F6F86" stroke-width="2" stroke-linejoin="round" stroke-linecap="round" opacity="0.9"/>
    <line x1="540" y1="602" x2="540" y2="565.6" stroke="#683022" stroke-width="1.2" stroke-linecap="round"/>
    <path d="M540 568.4 q-9.8 -14 -15.4 -22.4" fill="none" stroke="#8E3F2C" stroke-width="2" stroke-linejoin="round" stroke-linecap="round" opacity="0.9"/>
    <path d="M540 568.4 q0 -14 0 -22.4" fill="none" stroke="#8E3F2C" stroke-width="2" stroke-linejoin="round" stroke-linecap="round" opacity="0.9"/>
    <path d="M540 568.4 q9.8 -14 15.4 -22.4" fill="none" stroke="#8E3F2C" stroke-width="2" stroke-linejoin="round" stroke-linecap="round" opacity="0.9"/>
    <line x1="564.8" y1="602" x2="564.8" y2="565.6" stroke="#305160" stroke-width="1.2" stroke-linecap="round"/>
    <path d="M564.8 568.4 q-9.8 -14 -15.4 -22.4" fill="none" stroke="#3F6F86" stroke-width="2" stroke-linejoin="round" stroke-linecap="round" opacity="0.9"/>
    <path d="M564.8 568.4 q0 -14 0 -22.4" fill="none" stroke="#3F6F86" stroke-width="2" stroke-linejoin="round" stroke-linecap="round" opacity="0.9"/>
    <path d="M564.8 568.4 q9.8 -14 15.4 -22.4" fill="none" stroke="#3F6F86" stroke-width="2" stroke-linejoin="round" stroke-linecap="round" opacity="0.9"/>
    <line x1="589.5" y1="602" x2="589.5" y2="565.6" stroke="#683022" stroke-width="1.2" stroke-linecap="round"/>
    <path d="M589.5 568.4 q-9.8 -14 -15.4 -22.4" fill="none" stroke="#8E3F2C" stroke-width="2" stroke-linejoin="round" stroke-linecap="round" opacity="0.9"/>
    <path d="M589.5 568.4 q0 -14 0 -22.4" fill="none" stroke="#8E3F2C" stroke-width="2" stroke-linejoin="round" stroke-linecap="round" opacity="0.9"/>
    <path d="M589.5 568.4 q9.8 -14 15.4 -22.4" fill="none" stroke="#8E3F2C" stroke-width="2" stroke-linejoin="round" stroke-linecap="round" opacity="0.9"/>
    <line x1="614.2" y1="602" x2="614.2" y2="565.6" stroke="#305160" stroke-width="1.2" stroke-linecap="round"/>
    <path d="M614.2 568.4 q-9.8 -14 -15.4 -22.4" fill="none" stroke="#3F6F86" stroke-width="2" stroke-linejoin="round" stroke-linecap="round" opacity="0.9"/>
    <path d="M614.2 568.4 q0 -14 0 -22.4" fill="none" stroke="#3F6F86" stroke-width="2" stroke-linejoin="round" stroke-linecap="round" opacity="0.9"/>
    <path d="M614.2 568.4 q9.8 -14 15.4 -22.4" fill="none" stroke="#3F6F86" stroke-width="2" stroke-linejoin="round" stroke-linecap="round" opacity="0.9"/>
    <line x1="639" y1="602" x2="639" y2="565.6" stroke="#683022" stroke-width="1.2" stroke-linecap="round"/>
    <path d="M639 568.4 q-9.8 -14 -15.4 -22.4" fill="none" stroke="#8E3F2C" stroke-width="2" stroke-linejoin="round" stroke-linecap="round" opacity="0.9"/>
    <path d="M639 568.4 q0 -14 0 -22.4" fill="none" stroke="#8E3F2C" stroke-width="2" stroke-linejoin="round" stroke-linecap="round" opacity="0.9"/>
    <path d="M639 568.4 q9.8 -14 15.4 -22.4" fill="none" stroke="#8E3F2C" stroke-width="2" stroke-linejoin="round" stroke-linecap="round" opacity="0.9"/>
    <line x1="663.8" y1="602" x2="663.8" y2="565.6" stroke="#305160" stroke-width="1.2" stroke-linecap="round"/>
    <path d="M663.8 568.4 q-9.8 -14 -15.4 -22.4" fill="none" stroke="#3F6F86" stroke-width="2" stroke-linejoin="round" stroke-linecap="round" opacity="0.9"/>
    <path d="M663.8 568.4 q0 -14 0 -22.4" fill="none" stroke="#3F6F86" stroke-width="2" stroke-linejoin="round" stroke-linecap="round" opacity="0.9"/>
    <path d="M663.8 568.4 q9.8 -14 15.4 -22.4" fill="none" stroke="#3F6F86" stroke-width="2" stroke-linejoin="round" stroke-linecap="round" opacity="0.9"/>
    <line x1="688.5" y1="602" x2="688.5" y2="565.6" stroke="#683022" stroke-width="1.2" stroke-linecap="round"/>
    <path d="M688.5 568.4 q-9.8 -14 -15.4 -22.4" fill="none" stroke="#8E3F2C" stroke-width="2" stroke-linejoin="round" stroke-linecap="round" opacity="0.9"/>
    <path d="M688.5 568.4 q0 -14 0 -22.4" fill="none" stroke="#8E3F2C" stroke-width="2" stroke-linejoin="round" stroke-linecap="round" opacity="0.9"/>
    <path d="M688.5 568.4 q9.8 -14 15.4 -22.4" fill="none" stroke="#8E3F2C" stroke-width="2" stroke-linejoin="round" stroke-linecap="round" opacity="0.9"/>
    <line x1="713.2" y1="602" x2="713.2" y2="565.6" stroke="#305160" stroke-width="1.2" stroke-linecap="round"/>
    <path d="M713.2 568.4 q-9.8 -14 -15.4 -22.4" fill="none" stroke="#3F6F86" stroke-width="2" stroke-linejoin="round" stroke-linecap="round" opacity="0.9"/>
    <path d="M713.2 568.4 q0 -14 0 -22.4" fill="none" stroke="#3F6F86" stroke-width="2" stroke-linejoin="round" stroke-linecap="round" opacity="0.9"/>
    <path d="M713.2 568.4 q9.8 -14 15.4 -22.4" fill="none" stroke="#3F6F86" stroke-width="2" stroke-linejoin="round" stroke-linecap="round" opacity="0.9"/>
    <rect x="185.2" y="668" width="27.5" height="5.5" fill="#D8CDB2" stroke="#736C5E" stroke-width="0.7"/>
    <rect x="196.2" y="629.5" width="5.5" height="38.5" fill="url(#g7)" stroke="#5F594D" stroke-width="0.7"/>
    <path d="M168.8 618.5 L174.2 629.5 L223.8 629.5 L229.2 618.5 Z" fill="url(#g8)" stroke="#5F594D" stroke-width="1" stroke-linejoin="round" stroke-linecap="round"/>
    <ellipse cx="199" cy="618.5" rx="27.5" ry="4" fill="#5E8A96" stroke="#364B50" stroke-width="0.6"/>
    <rect x="584" y="665.2" width="110" height="8.2" fill="url(#g9)" stroke="#5F594D" stroke-width="0.8"/>
    <path d="M595 665.2 L683 665.2 L684.1 632.2 L593.9 632.2 Z" fill="url(#g10)" stroke="#482E1E" stroke-width="1" stroke-linejoin="round" stroke-linecap="round"/>
    <rect x="597.8" y="643.2" width="82.5" height="8.8" fill="#8E3F2C"/><path d="M598.4 650.2 C600.1 651 599.8 644.8 602.9 644.8 A2.8 2.8 0 1 1 602.3 649.3 A1.4 1.4 0 1 1 603.8 647.6" fill="none" stroke="#E0C8A0" stroke-width="1"/><path d="M608.7 650.2 C610.4 651 610.1 644.8 613.2 644.8 A2.8 2.8 0 1 1 612.7 649.3 A1.4 1.4 0 1 1 614.1 647.6" fill="none" stroke="#E0C8A0" stroke-width="1"/><path d="M619 650.2 C620.7 651 620.4 644.8 623.5 644.8 A2.8 2.8 0 1 1 623 649.3 A1.4 1.4 0 1 1 624.4 647.6" fill="none" stroke="#E0C8A0" stroke-width="1"/><path d="M629.3 650.2 C631 651 630.7 644.8 633.8 644.8 A2.8 2.8 0 1 1 633.3 649.3 A1.4 1.4 0 1 1 634.7 647.6" fill="none" stroke="#E0C8A0" stroke-width="1"/><path d="M639.7 650.2 C641.3 651 641.1 644.8 644.2 644.8 A2.8 2.8 0 1 1 643.6 649.3 A1.4 1.4 0 1 1 645 647.6" fill="none" stroke="#E0C8A0" stroke-width="1"/><path d="M650 650.2 C651.7 651 651.4 644.8 654.5 644.8 A2.8 2.8 0 1 1 653.9 649.3 A1.4 1.4 0 1 1 655.3 647.6" fill="none" stroke="#E0C8A0" stroke-width="1"/><path d="M660.3 650.2 C662 651 661.7 644.8 664.8 644.8 A2.8 2.8 0 1 1 664.2 649.3 A1.4 1.4 0 1 1 665.6 647.6" fill="none" stroke="#E0C8A0" stroke-width="1"/><path d="M670.6 650.2 C672.3 651 672 644.8 675.1 644.8 A2.8 2.8 0 1 1 674.5 649.3 A1.4 1.4 0 1 1 675.9 647.6" fill="none" stroke="#E0C8A0" stroke-width="1"/>
    <line x1="593.9" y1="632.2" x2="684.1" y2="632.2" stroke="#573624" stroke-width="2" stroke-linecap="round"/>
    <path d="M559.8 673.5 C558.4 672.8 556 668.2 555.4 666.7 C554.8 665.1 553.7 660 553.8 658.2 C553.8 656.3 555.3 649.5 555.9 647.9 C556.6 646.3 559.5 642.9 559.8 642.1 C560.1 641.4 559.1 640.7 559.1 640.4 C559 640.2 558.2 639.5 559.3 639.4 C560.4 639.3 569.1 639.3 570.2 639.4 C571.3 639.5 570.5 640.2 570.4 640.4 C570.4 640.7 569.4 641.4 569.7 642.1 C570 642.9 572.9 646.3 573.5 647.9 C574.2 649.5 575.7 656.3 575.8 658.2 C575.8 660 574.7 665.1 574.1 666.7 C573.5 668.2 571.1 672.8 569.7 673.5 C568.3 674.2 561.2 674.2 559.8 673.5 Z" fill="url(#g11)" stroke="#482E1E" stroke-width="1.1" stroke-linejoin="round" stroke-linecap="round"/>
    <line x1="554.5" y1="659.8" x2="575" y2="659.8" stroke="#6D432B" stroke-width="1.6" stroke-linecap="round" opacity="0.8"/>
    <path d="M556.2 648.9 q-7 4 0 12" fill="none" stroke="#663E29" stroke-width="2" stroke-linejoin="round" stroke-linecap="round"/>
    <path d="M573.3 648.9 q7 4 0 12" fill="none" stroke="#663E29" stroke-width="2" stroke-linejoin="round" stroke-linecap="round"/>
    <path d="M705.5 673.5 C704.1 672.8 701.8 668.2 701.1 666.7 C700.5 665.1 699.4 660 699.5 658.2 C699.6 656.3 701.1 649.5 701.7 647.9 C702.3 646.3 705.2 642.9 705.5 642.1 C705.9 641.4 704.9 640.7 704.8 640.4 C704.8 640.2 703.9 639.5 705.1 639.4 C706.2 639.3 714.8 639.3 715.9 639.4 C717.1 639.5 716.2 640.2 716.2 640.4 C716.1 640.7 715.1 641.4 715.4 642.1 C715.8 642.9 718.7 646.3 719.3 647.9 C719.9 649.5 721.4 656.3 721.5 658.2 C721.6 660 720.5 665.1 719.9 666.7 C719.2 668.2 716.9 672.8 715.4 673.5 C714 674.2 707 674.2 705.5 673.5 Z" fill="url(#g11)" stroke="#482E1E" stroke-width="1.1" stroke-linejoin="round" stroke-linecap="round"/>
    <line x1="700.3" y1="659.8" x2="720.7" y2="659.8" stroke="#6D432B" stroke-width="1.6" stroke-linecap="round" opacity="0.8"/>
    <path d="M701.9 648.9 q-7 4 0 12" fill="none" stroke="#663E29" stroke-width="2" stroke-linejoin="round" stroke-linecap="round"/>
    <path d="M719.1 648.9 q7 4 0 12" fill="none" stroke="#663E29" stroke-width="2" stroke-linejoin="round" stroke-linecap="round"/>
    <path d="M100 491.5 L127.5 491.5 L127.5 420.5 L100 420.5 Z" fill="#3A332A" stroke="#0E0C09" stroke-width="1.2" stroke-linejoin="round" stroke-linecap="round"/>
    <g clip-path="url(#c12)"><g stroke="#635C4C" stroke-width=".8" opacity="0.7"><line x1="29.1" y1="491.5" x2="100" y2="420.5"/><line x1="34.1" y1="491.5" x2="105" y2="420.5"/><line x1="39.1" y1="491.5" x2="110" y2="420.5"/><line x1="44.1" y1="491.5" x2="115" y2="420.5"/><line x1="49.1" y1="491.5" x2="120" y2="420.5"/><line x1="54.1" y1="491.5" x2="125" y2="420.5"/><line x1="59.1" y1="491.5" x2="130" y2="420.5"/><line x1="64.1" y1="491.5" x2="135" y2="420.5"/><line x1="69.1" y1="491.5" x2="140" y2="420.5"/><line x1="74.1" y1="491.5" x2="145" y2="420.5"/><line x1="79.1" y1="491.5" x2="150" y2="420.5"/><line x1="84.1" y1="491.5" x2="155" y2="420.5"/><line x1="89.1" y1="491.5" x2="160" y2="420.5"/><line x1="94.1" y1="491.5" x2="165" y2="420.5"/><line x1="99.1" y1="491.5" x2="170" y2="420.5"/><line x1="104.1" y1="491.5" x2="175" y2="420.5"/><line x1="109.1" y1="491.5" x2="180" y2="420.5"/><line x1="114.1" y1="491.5" x2="185" y2="420.5"/><line x1="119.1" y1="491.5" x2="190" y2="420.5"/><line x1="124.1" y1="491.5" x2="195" y2="420.5"/></g></g>
    <path d="M732.5 491.5 L760 491.5 L760 420.5 L732.5 420.5 Z" fill="#3A332A" stroke="#0E0C09" stroke-width="1.2" stroke-linejoin="round" stroke-linecap="round"/>
    <g clip-path="url(#c13)"><g stroke="#635C4C" stroke-width=".8" opacity="0.7"><line x1="661.5" y1="491.5" x2="732.5" y2="420.5"/><line x1="666.5" y1="491.5" x2="737.5" y2="420.5"/><line x1="671.5" y1="491.5" x2="742.5" y2="420.5"/><line x1="676.5" y1="491.5" x2="747.5" y2="420.5"/><line x1="681.5" y1="491.5" x2="752.5" y2="420.5"/><line x1="686.5" y1="491.5" x2="757.5" y2="420.5"/><line x1="691.5" y1="491.5" x2="762.5" y2="420.5"/><line x1="696.5" y1="491.5" x2="767.5" y2="420.5"/><line x1="701.5" y1="491.5" x2="772.5" y2="420.5"/><line x1="706.5" y1="491.5" x2="777.5" y2="420.5"/><line x1="711.5" y1="491.5" x2="782.5" y2="420.5"/><line x1="716.5" y1="491.5" x2="787.5" y2="420.5"/><line x1="721.5" y1="491.5" x2="792.5" y2="420.5"/><line x1="726.5" y1="491.5" x2="797.5" y2="420.5"/><line x1="731.5" y1="491.5" x2="802.5" y2="420.5"/><line x1="736.5" y1="491.5" x2="807.5" y2="420.5"/><line x1="741.5" y1="491.5" x2="812.5" y2="420.5"/><line x1="746.5" y1="491.5" x2="817.5" y2="420.5"/><line x1="751.5" y1="491.5" x2="822.5" y2="420.5"/><line x1="756.5" y1="491.5" x2="827.5" y2="420.5"/></g></g>
    <g transform="translate(340.5 501) scale(0.25000)" fill="#DCD2BA" opacity=".5"><ellipse cx="160" cy="320" rx="20" ry="26"/><path d="M160 346 C138 350 126 360 124 380 L118 500 L130 502 L138 410 L140 520 L142 690 L156 690 L160 540 L164 690 L178 690 L180 520 L182 410 L190 502 L202 500 L196 380 C194 360 182 350 160 346 Z"/></g>
    <rect x="800" y="170" width="360" height="360" fill="#1B1813" stroke="#635C4C" stroke-width="1"/>
    <g stroke="#635C4C" stroke-width="1"><line x1="800" y1="530" x2="800" y2="536"/><line x1="800" y1="530" x2="794" y2="530"/><line x1="830" y1="530" x2="830" y2="533"/><line x1="800" y1="500" x2="797" y2="500"/><line x1="860" y1="530" x2="860" y2="533"/><line x1="800" y1="470" x2="797" y2="470"/><line x1="890" y1="530" x2="890" y2="533"/><line x1="800" y1="440" x2="797" y2="440"/><line x1="920" y1="530" x2="920" y2="533"/><line x1="800" y1="410" x2="797" y2="410"/><line x1="950" y1="530" x2="950" y2="533"/><line x1="800" y1="380" x2="797" y2="380"/><line x1="980" y1="530" x2="980" y2="536"/><line x1="800" y1="350" x2="794" y2="350"/><line x1="1010" y1="530" x2="1010" y2="533"/><line x1="800" y1="320" x2="797" y2="320"/><line x1="1040" y1="530" x2="1040" y2="533"/><line x1="800" y1="290" x2="797" y2="290"/><line x1="1070" y1="530" x2="1070" y2="533"/><line x1="800" y1="260" x2="797" y2="260"/><line x1="1100" y1="530" x2="1100" y2="533"/><line x1="800" y1="230" x2="797" y2="230"/><line x1="1130" y1="530" x2="1130" y2="533"/><line x1="800" y1="200" x2="797" y2="200"/><line x1="1160" y1="530" x2="1160" y2="536"/><line x1="800" y1="170" x2="794" y2="170"/></g>
    <path d="M1187 180 l6 16 l-6 -4 l-6 4 z" fill="#9A9078"/>
    <rect x="800" y="170" width="360" height="360" fill="#2E2719"/>
    <rect x="800" y="170" width="360" height="15" fill="#3A332A" stroke="#24201A" stroke-width="0.8"/>
    <rect x="800" y="515" width="360" height="15" fill="#3A332A" stroke="#24201A" stroke-width="0.8"/>
    <rect x="800" y="185" width="15" height="330" fill="#3A332A" stroke="#24201A" stroke-width="0.8"/>
    <rect x="1145" y="185" width="15" height="330" fill="#3A332A" stroke="#24201A" stroke-width="0.8"/>
    <rect x="800" y="170" width="360" height="3.6" fill="#8E3F2C"/>
    <rect x="800" y="526.4" width="360" height="3.6" fill="#8E3F2C"/>
    <rect x="941" y="170" width="78" height="15.6" fill="#2E2719"/>
    <rect x="941" y="514.4" width="78" height="15.6" fill="#2E2719"/>
    <rect x="800" y="311" width="15.6" height="78" fill="#2E2719"/>
    <rect x="1144.4" y="311" width="15.6" height="78" fill="#2E2719"/>
    <rect x="932" y="185" width="96" height="330" fill="#9A9078" fill-opacity=".05" stroke="#9A9078" stroke-opacity=".35" stroke-width=".8" stroke-dasharray="4 4"/>
    <rect x="815" y="302" width="330" height="96" fill="#9A9078" fill-opacity=".05" stroke="#9A9078" stroke-opacity=".35" stroke-width=".8" stroke-dasharray="4 4"/>
    <path d="M1071.5 222.5 L1071.5 350 L980 350 L980 515" fill="none" stroke="#5E8A96" stroke-width="3" stroke-linejoin="round" stroke-linecap="round" opacity="0.7"/>
    <circle cx="854" cy="224" r="16.5" fill="#D8CDB2" stroke="#0E0C09" stroke-width="0.8"/>
    <circle cx="854" cy="224" r="12.6" fill="#5E8A96"/>
    <rect x="1064" y="189.5" width="60" height="33" fill="#D8CDB2" stroke="#0E0C09" stroke-width="0.6"/>
    <rect x="1070" y="195.5" width="48" height="21" fill="#A0603E" stroke="#0E0C09" stroke-width="0.6"/>
    <rect x="1073" y="198.5" width="42" height="15" fill="#5E8A96" stroke="#0E0C09" stroke-width="0.6"/>
    <circle cx="1053.5" cy="200" r="6" fill="#A0603E" stroke="#573624" stroke-width="0.7"/>
    <circle cx="1053.5" cy="200" r="2.6" fill="#5E3A26"/>
    <circle cx="1133" cy="242" r="6" fill="#A0603E" stroke="#573624" stroke-width="0.7"/>
    <circle cx="1133" cy="242" r="2.6" fill="#5E3A26"/>
    <rect x="1040" y="500" width="96" height="15" fill="#D8CDB2" stroke="#0E0C09" stroke-width="0.6"/>
    <rect x="1051.2" y="502.2" width="13.5" height="10.5" fill="#CFC3A2" stroke="#0E0C09" stroke-width="0.6"/>
    <rect x="1069.2" y="502.2" width="13.5" height="10.5" fill="#CFC3A2" stroke="#0E0C09" stroke-width="0.6"/>
    <rect x="830" y="499.2" width="78" height="13.5" fill="#4F3623" stroke="#0E0C09" stroke-width="0.6"/>
    <circle cx="839" cy="506" r="2.4" fill="#A0603E"/>
    <circle cx="857" cy="506" r="2.4" fill="#A0603E"/>
    <circle cx="875" cy="506" r="2.4" fill="#A0603E"/>
    <circle cx="893" cy="506" r="2.4" fill="#A0603E"/>
    <rect x="827" y="419" width="18" height="18" fill="#7A6A58" stroke="#0E0C09" stroke-width="0.6"/>
    <g id="loot-anchors" data-xy="3.80,4.80;-4.20,4.20;3.60,-5.25;-3.70,-5.20;-4.80,-2.60"/>
    <path d="M1094 201 l5 5 l-5 5 l-5 -5 z" fill="#C9A227" stroke="#14120E" stroke-width=".8"/>
    <text x="1101" y="209.5" font-family="Overpass Mono, monospace" font-size="8.5" fill="#C9A227" stroke="#14120E" stroke-width="2.4" paint-order="stroke">L1</text>
    <path d="M854 219 l5 5 l-5 5 l-5 -5 z" fill="#C9A227" stroke="#14120E" stroke-width=".8"/>
    <text x="861" y="227.5" font-family="Overpass Mono, monospace" font-size="8.5" fill="#C9A227" stroke="#14120E" stroke-width="2.4" paint-order="stroke">L2</text>
    <path d="M1088 502.5 l5 5 l-5 5 l-5 -5 z" fill="#C9A227" stroke="#14120E" stroke-width=".8"/>
    <text x="1095" y="511" font-family="Overpass Mono, monospace" font-size="8.5" fill="#C9A227" stroke="#14120E" stroke-width="2.4" paint-order="stroke">L3</text>
    <path d="M869 501 l5 5 l-5 5 l-5 -5 z" fill="#C9A227" stroke="#14120E" stroke-width=".8"/>
    <text x="876" y="509.5" font-family="Overpass Mono, monospace" font-size="8.5" fill="#C9A227" stroke="#14120E" stroke-width="2.4" paint-order="stroke">L4</text>
    <path d="M836 423 l5 5 l-5 5 l-5 -5 z" fill="#C9A227" stroke="#14120E" stroke-width=".8"/>
    <text x="843" y="431.5" font-family="Overpass Mono, monospace" font-size="8.5" fill="#C9A227" stroke="#14120E" stroke-width="2.4" paint-order="stroke">L5</text>
    <line x1="782" y1="350" x2="1178" y2="350" stroke="#9A9078" stroke-width="0.8" stroke-linecap="round" stroke-dasharray="8 3 2 3"/>
    <path d="M782 350 l0 -10 l-4 5 m4 -5 l4 5" fill="none" stroke="#9A9078" stroke-width="1" stroke-linejoin="round" stroke-linecap="round"/>
    <path d="M1178 350 l0 -10 l-4 5 m4 -5 l4 5" fill="none" stroke="#9A9078" stroke-width="1" stroke-linejoin="round" stroke-linecap="round"/>
  </g>
  <g id="callouts" font-family="Overpass Mono, monospace">
    <text x="430" y="486.5" font-family="Overpass Mono, monospace" font-size="8.5" fill="#635C4C" text-anchor="middle">ARCHWAY 2.60 × 3.31</text>
    <text x="380.5" y="568.5" font-family="Overpass Mono, monospace" font-size="9" fill="#9A9078" text-anchor="middle">1.80 m</text>
    <path d="M551 574.5 L590 196 L604 196" fill="none" stroke="#9A9078" stroke-width=".8" opacity=".85"/>
    <circle cx="551" cy="574.5" r="2.6" fill="#DCD2BA" stroke="#14120E" stroke-width="1"/>
    <text x="610" y="200" font-family="Overpass Mono, monospace" font-size="12" fill="#DCD2BA">LILY FRESCO</text>
    <text x="610" y="214" font-family="Overpass Mono, monospace" font-size="10.5" fill="#9A9078">1.20–2.40 m, low band</text>
    <path d="M710.5 651.5 L590 261 L604 261" fill="none" stroke="#9A9078" stroke-width=".8" opacity=".85"/>
    <circle cx="710.5" cy="651.5" r="2.6" fill="#DCD2BA" stroke="#14120E" stroke-width="1"/>
    <text x="610" y="265" font-family="Overpass Mono, monospace" font-size="12" fill="#DCD2BA">HYDRIA</text>
    <text x="610" y="279" font-family="Overpass Mono, monospace" font-size="10.5" fill="#9A9078">water jar, 0.62 m</text>
    <path d="M639 646 L590 326 L604 326" fill="none" stroke="#9A9078" stroke-width=".8" opacity=".85"/>
    <circle cx="639" cy="646" r="2.6" fill="#DCD2BA" stroke="#14120E" stroke-width="1"/>
    <text x="610" y="330" font-family="Overpass Mono, monospace" font-size="12" fill="#DCD2BA">PAINTED CLAY TUB</text>
    <text x="610" y="344" font-family="Overpass Mono, monospace" font-size="10.5" fill="#9A9078">1.60 × 0.70 m, spiral band</text>
    <path d="M199 621.2 L350 256 L336 256" fill="none" stroke="#9A9078" stroke-width=".8" opacity=".85"/>
    <circle cx="199" cy="621.2" r="2.6" fill="#DCD2BA" stroke="#14120E" stroke-width="1"/>
    <text x="330" y="260" font-family="Overpass Mono, monospace" font-size="12" fill="#DCD2BA" text-anchor="end">LUSTRAL BASIN</text>
    <text x="330" y="274" font-family="Overpass Mono, monospace" font-size="10.5" fill="#9A9078" text-anchor="end">stone bowl on a pedestal</text>
    <text x="496" y="454.6" font-family="Overpass Mono, monospace" font-size="9" fill="#DCD2BA" text-anchor="middle">4.60 clear · open roof</text>
    <text x="800" y="548" font-family="Overpass Mono, monospace" font-size="9" fill="#635C4C" text-anchor="middle">0</text>
    <text x="980" y="548" font-family="Overpass Mono, monospace" font-size="9" fill="#635C4C" text-anchor="middle">6</text>
    <text x="1160" y="548" font-family="Overpass Mono, monospace" font-size="9" fill="#635C4C" text-anchor="middle">12 m</text>
    <text x="1187" y="210" font-family="Overpass Mono, monospace" font-size="10" fill="#9A9078" text-anchor="middle">N</text>
    <text x="782" y="362" font-family="Overpass Mono, monospace" font-size="9" fill="#9A9078" text-anchor="middle">A</text>
    <text x="1178" y="362" font-family="Overpass Mono, monospace" font-size="9" fill="#9A9078" text-anchor="middle">A</text>
    <text x="980" y="213.5" font-family="Overpass Mono, monospace" font-size="9.5" fill="#DCD2BA" text-anchor="middle" letter-spacing="1">ARCHWAY N 2.60 × 3.31</text>
    <text x="980" y="495.5" font-family="Overpass Mono, monospace" font-size="9.5" fill="#DCD2BA" text-anchor="middle" letter-spacing="1">ARCHWAY S 2.60 × 3.31</text>
    <text x="1094" y="237.5" font-family="Overpass Mono, monospace" font-size="9.5" fill="#DCD2BA" text-anchor="middle" letter-spacing="1">TUB</text>
    <text x="854" y="254" font-family="Overpass Mono, monospace" font-size="9.5" fill="#DCD2BA" text-anchor="middle" letter-spacing="1">BASIN</text>
    <text x="800" y="585" font-family="Overpass Mono, monospace" font-size="9.5" fill="#DCD2BA" letter-spacing="1">ARCHWAYS</text>
    <text x="892" y="585" font-family="Overpass Mono, monospace" font-size="9.5" fill="#9A9078">4, centred · 2.60 × 3.31 · all open</text>
    <text x="800" y="600" font-family="Overpass Mono, monospace" font-size="9.5" fill="#DCD2BA" letter-spacing="1">CLEAR CROSS</text>
    <text x="892" y="600" font-family="Overpass Mono, monospace" font-size="9.5" fill="#9A9078">dashed · |x|,|y| &lt; 1.6 m kept free to 2 m</text>
    <text x="800" y="615" font-family="Overpass Mono, monospace" font-size="9.5" fill="#DCD2BA" letter-spacing="1">TUB</text>
    <text x="892" y="615" font-family="Overpass Mono, monospace" font-size="9.5" fill="#9A9078">NE, on a gypsum plinth · water channel (flat)</text>
    <text x="800" y="630" font-family="Overpass Mono, monospace" font-size="9.5" fill="#DCD2BA" letter-spacing="1">OIL</text>
    <text x="892" y="630" font-family="Overpass Mono, monospace" font-size="9.5" fill="#9A9078">flask shelf and stand, SW · towels on the bench</text>
    <text x="800" y="645" font-family="Overpass Mono, monospace" font-size="9.5" fill="#DCD2BA" letter-spacing="1">LOOT</text>
    <text x="892" y="645" font-family="Overpass Mono, monospace" font-size="9.5" fill="#9A9078">L1–L5: tub, basin, bench, shelf, oil stand</text>
  </g>
  <g id="palette" font-family="Overpass Mono, monospace" font-size="10" fill="#9A9078">
    <rect x="40" y="748" width="34" height="18" fill="#C9A77A" stroke="#332D22" stroke-width=".6"/><text x="80" y="761">#C9A77A plaster</text>
    <rect x="200" y="748" width="34" height="18" fill="#3F6F86" stroke="#332D22" stroke-width=".6"/><text x="240" y="761">#3F6F86 fresco</text>
    <rect x="360" y="748" width="34" height="18" fill="#8E3F2C" stroke="#332D22" stroke-width=".6"/><text x="400" y="761">#8E3F2C haematite</text>
    <rect x="520" y="748" width="34" height="18" fill="#A0603E" stroke="#332D22" stroke-width=".6"/><text x="560" y="761">#A0603E clay</text>
    <rect x="680" y="748" width="34" height="18" fill="#D8CDB2" stroke="#332D22" stroke-width=".6"/><text x="720" y="761">#D8CDB2 gypsum</text>
    <rect x="840" y="748" width="34" height="18" fill="#5A3E28" stroke="#332D22" stroke-width=".6"/><text x="880" y="761">#5A3E28 cypress</text>
    <rect x="1000" y="748" width="34" height="18" fill="#5E8A96" stroke="#332D22" stroke-width=".6"/><text x="1040" y="761">#5E8A96 water</text>
  </g>
</svg>
