<svg xmlns="http://www.w3.org/2000/svg" viewBox="0 0 1200 800" width="1200" height="800">
  <!-- Plunderspell castle room sheet · THE BRONZE AGE · CASTLE ROOM · OUTERBAILEY · generated. Rules: docs/art/rooms/README.md -->
  <defs>
    <pattern id="grid" width="55" height="55" patternUnits="userSpaceOnUse" x="0" y="690"><path d="M55 0 H0 V55" fill="none" stroke="#262119" stroke-width="1"/></pattern>
    <radialGradient id="glow" cx="50%" cy="70%" r="60%"><stop offset="0" stop-color="#2A2012" stop-opacity=".9"/><stop offset="1" stop-color="#14120E" stop-opacity="0"/></radialGradient>
    <radialGradient id="r1" cx="0.5" cy="0.5" r="0.5"><stop offset="0" stop-color="#7A7A6A" stop-opacity="0.2"/><stop offset="0.35" stop-color="#49483E" stop-opacity="0.15000000000000002"/><stop offset="1" stop-color="#14120E" stop-opacity="0"/></radialGradient>
    <linearGradient id="g2" x1="0" y1="0" x2="0" y2="1"><stop offset="0" stop-color="#968A72"/><stop offset="0.38" stop-color="#8C7F68"/><stop offset="1" stop-color="#5A5142"/></linearGradient>
    <linearGradient id="g3" x1="0" y1="0" x2="0" y2="1"><stop offset="0" stop-color="#BD8A4D"/><stop offset="0.38" stop-color="#B7803E"/><stop offset="1" stop-color="#624624"/></linearGradient>
    <linearGradient id="g4" x1="0" y1="0" x2="0" y2="1"><stop offset="0" stop-color="#2B231B"/><stop offset="0.45" stop-color="#2B231B"/><stop offset="1" stop-color="#B7803E"/></linearGradient>
    <clipPath id="c5"><path d="M127.5 673.5 L732.5 673.5 L732.5 475.5 L127.5 475.5 Z"/></clipPath>
    <linearGradient id="g6" x1="0" y1="0" x2="0" y2="1"><stop offset="0" stop-color="#9F765A"/><stop offset="0.38" stop-color="#8A5A3C"/><stop offset="1" stop-color="#4C3322"/></linearGradient>
    <linearGradient id="g7" x1="0" y1="0" x2="0" y2="1"><stop offset="0" stop-color="#806852"/><stop offset="0.38" stop-color="#5A3E28"/><stop offset="1" stop-color="#38281A"/></linearGradient>
    <linearGradient id="g8" x1="0" y1="0" x2="1" y2="0"><stop offset="0" stop-color="#BD9071"/><stop offset="0.38" stop-color="#A0603E"/><stop offset="1" stop-color="#503221"/></linearGradient>
    <linearGradient id="g9" x1="0" y1="0" x2="1" y2="0"><stop offset="0" stop-color="#B48262"/><stop offset="0.38" stop-color="#A0603E"/><stop offset="1" stop-color="#573624"/></linearGradient>
    <linearGradient id="g10" x1="0" y1="0" x2="1" y2="0"><stop offset="0" stop-color="#B9896A"/><stop offset="0.38" stop-color="#A0603E"/><stop offset="1" stop-color="#573624"/></linearGradient>
    <clipPath id="c11"><path d="M100 531 L127.5 531 L127.5 475.5 L100 475.5 Z"/></clipPath>
    <clipPath id="c12"><path d="M732.5 531 L760 531 L760 475.5 L732.5 475.5 Z"/></clipPath>
  </defs>
  <rect width="1200" height="800" fill="#14120E"/>
  <rect width="1200" height="800" fill="url(#glow)"/>
  <rect x="0" y="120" width="1200" height="570" fill="url(#grid)"/>
  <ellipse cx="430" cy="533.5" rx="420" ry="220" fill="url(#r1)"/>
  <line x1="40" y1="690" x2="1160" y2="690" stroke="#635C4C" stroke-width="1.5"/>
  <rect x="12" y="12" width="1176" height="776" fill="none" stroke="#332D22" stroke-width="1"/>
  <text x="40" y="54" font-family="Overpass Mono, monospace" font-size="12" letter-spacing="3" fill="#635C4C">THE BRONZE AGE · CASTLE ROOM · OUTERBAILEY</text>
  <text x="40" y="96" font-family="Eczar, Georgia, serif" font-size="38" font-weight="700" fill="#DCD2BA">The Cistern Court</text>
  <text x="1160" y="54" text-anchor="end" font-family="Overpass Mono, monospace" font-size="12" fill="#9A9078">12 × 12 m cell · clear 3.60 m · ≤ 2k tris (kit)</text>
  <text x="1160" y="76" text-anchor="end" font-family="Overpass Mono, monospace" font-size="12" fill="#9A9078">section 1 m = 55 px · plan 1 m = 30 px</text>
  <g font-family="Overpass Mono, monospace" font-size="10" fill="#635C4C" stroke="#635C4C"><line x1="60" y1="690" x2="60" y2="332" stroke-width="1"/><line x1="54" y1="673.5" x2="66" y2="673.5"/><text x="30" y="677.5" stroke="none">0</text><line x1="54" y1="618.5" x2="66" y2="618.5"/><text x="30" y="622.5" stroke="none">1</text><line x1="54" y1="563.5" x2="66" y2="563.5"/><text x="30" y="567.5" stroke="none">2</text><line x1="54" y1="508.5" x2="66" y2="508.5"/><text x="30" y="512.5" stroke="none">3</text><line x1="54" y1="453.5" x2="66" y2="453.5"/><text x="30" y="457.5" stroke="none">4</text><line x1="54" y1="398.5" x2="66" y2="398.5"/><text x="30" y="402.5" stroke="none">5</text><line x1="54" y1="343.5" x2="66" y2="343.5"/><text x="30" y="347.5" stroke="none">6</text><text x="24" y="319" stroke="none">m</text></g>
  <text x="430" y="730" text-anchor="middle" font-family="Overpass Mono, monospace" font-size="11" letter-spacing="3" fill="#635C4C">SECTION A–A · E–W THROUGH THE COURT, LOOKING NORTH</text>
  <text x="980" y="156" text-anchor="middle" font-family="Overpass Mono, monospace" font-size="11" letter-spacing="3" fill="#635C4C">PLAN · 12 × 12 m CELL</text>
  <g id="drawing">
    <rect x="100" y="673.5" width="660" height="16.5" fill="url(#g2)" stroke="#403A2F" stroke-width="1"/>
    <path d="M127.5 673.5 L732.5 673.5 L732.5 475.5 L127.5 475.5 Z" fill="url(#g3)" stroke="#523A1E" stroke-width="1" stroke-linejoin="round" stroke-linecap="round"/>
    <g clip-path="url(#c5)"><rect x="127.5" y="475.5" width="605" height="16.5" fill="url(#g4)" opacity=".55"/></g>
    <rect x="358.5" y="531" width="143" height="142.5" fill="#14120E"/>
    <rect x="100" y="475.5" width="660" height="24.8" fill="url(#g6)" stroke="#402B1D" stroke-width="0.8"/>
    <rect x="177" y="646" width="88" height="4.4" fill="url(#g7)" stroke="#2C2015" stroke-width="0.8"/>
    <rect x="179.8" y="650.4" width="2.8" height="23.1" fill="#4B3422" stroke="#2C2015" stroke-width="0.5"/>
    <rect x="259.5" y="650.4" width="2.8" height="23.1" fill="#4B3422" stroke="#2C2015" stroke-width="0.5"/>
    <path d="M185.8 646 C184.4 645.3 182 640.7 181.4 639.2 C180.8 637.6 179.7 632.5 179.8 630.7 C179.8 628.8 181.3 622 182 620.4 C182.6 618.8 185.5 615.4 185.8 614.6 C186.1 613.9 185.1 613.2 185.1 612.9 C185 612.7 184.2 612 185.3 611.9 C186.4 611.8 195.1 611.8 196.2 611.9 C197.3 612 196.5 612.7 196.4 612.9 C196.4 613.2 195.4 613.9 195.7 614.6 C196 615.4 198.9 618.8 199.6 620.4 C200.2 622 201.7 628.8 201.8 630.7 C201.8 632.5 200.7 637.6 200.1 639.2 C199.5 640.7 197.1 645.3 195.7 646 C194.3 646.7 187.2 646.7 185.8 646 Z" fill="url(#g8)" stroke="#482E1E" stroke-width="1.1" stroke-linejoin="round" stroke-linecap="round"/>
    <line x1="180.5" y1="632.2" x2="201" y2="632.2" stroke="#6D432B" stroke-width="1.6" stroke-linecap="round" opacity="0.8"/>
    <path d="M182.2 621.4 q-7 4 0 12" fill="none" stroke="#663E29" stroke-width="2" stroke-linejoin="round" stroke-linecap="round"/>
    <path d="M199.3 621.4 q7 4 0 12" fill="none" stroke="#663E29" stroke-width="2" stroke-linejoin="round" stroke-linecap="round"/>
    <path d="M246.3 646 C244.9 645.3 242.5 640.7 241.9 639.2 C241.3 637.6 240.2 632.5 240.2 630.7 C240.3 628.8 241.8 622 242.4 620.4 C243.1 618.8 246 615.4 246.3 614.6 C246.6 613.9 245.6 613.2 245.6 612.9 C245.5 612.7 244.7 612 245.8 611.9 C246.9 611.8 255.6 611.8 256.7 611.9 C257.8 612 257 612.7 256.9 612.9 C256.9 613.2 255.9 613.9 256.2 614.6 C256.5 615.4 259.4 618.8 260.1 620.4 C260.7 622 262.2 628.8 262.2 630.7 C262.3 632.5 261.2 637.6 260.6 639.2 C260 640.7 257.6 645.3 256.2 646 C254.8 646.7 247.7 646.7 246.3 646 Z" fill="url(#g8)" stroke="#482E1E" stroke-width="1.1" stroke-linejoin="round" stroke-linecap="round"/>
    <line x1="241" y1="632.2" x2="261.5" y2="632.2" stroke="#6D432B" stroke-width="1.6" stroke-linecap="round" opacity="0.8"/>
    <path d="M242.7 621.4 q-7 4 0 12" fill="none" stroke="#663E29" stroke-width="2" stroke-linejoin="round" stroke-linecap="round"/>
    <path d="M259.8 621.4 q7 4 0 12" fill="none" stroke="#663E29" stroke-width="2" stroke-linejoin="round" stroke-linecap="round"/>
    <rect x="625.2" y="668" width="27.5" height="5.5" fill="#D8CDB2" stroke="#736C5E" stroke-width="0.7"/>
    <rect x="634.6" y="629.5" width="8.8" height="38.5" fill="url(#g9)" stroke="#482E1E" stroke-width="0.7"/>
    <path d="M606 618.5 L611.5 629.5 L666.5 629.5 L672 618.5 Z" fill="url(#g10)" stroke="#482E1E" stroke-width="1" stroke-linejoin="round" stroke-linecap="round"/>
    <ellipse cx="639" cy="618.5" rx="30.3" ry="4" fill="#5E8A96" stroke="#364B50" stroke-width="0.6"/>
    <line x1="573" y1="629.5" x2="573" y2="544.2" stroke="#5A3E28" stroke-width="2" stroke-linecap="round" opacity="0.7" stroke-dasharray="4 3"/>
    <line x1="683" y1="629.5" x2="683" y2="544.2" stroke="#5A3E28" stroke-width="2" stroke-linecap="round" opacity="0.7" stroke-dasharray="4 3"/>
    <line x1="567.5" y1="544.2" x2="688.5" y2="544.2" stroke="#5A3E28" stroke-width="3" stroke-linecap="round" opacity="0.7" stroke-dasharray="4 3"/>
    <path d="M100 531 L127.5 531 L127.5 475.5 L100 475.5 Z" fill="#3A332A" stroke="#0E0C09" stroke-width="1.2" stroke-linejoin="round" stroke-linecap="round"/>
    <g clip-path="url(#c11)"><g stroke="#635C4C" stroke-width=".8" opacity="0.7"><line x1="44.5" y1="531" x2="100" y2="475.5"/><line x1="49.5" y1="531" x2="105" y2="475.5"/><line x1="54.5" y1="531" x2="110" y2="475.5"/><line x1="59.5" y1="531" x2="115" y2="475.5"/><line x1="64.5" y1="531" x2="120" y2="475.5"/><line x1="69.5" y1="531" x2="125" y2="475.5"/><line x1="74.5" y1="531" x2="130" y2="475.5"/><line x1="79.5" y1="531" x2="135" y2="475.5"/><line x1="84.5" y1="531" x2="140" y2="475.5"/><line x1="89.5" y1="531" x2="145" y2="475.5"/><line x1="94.5" y1="531" x2="150" y2="475.5"/><line x1="99.5" y1="531" x2="155" y2="475.5"/><line x1="104.5" y1="531" x2="160" y2="475.5"/><line x1="109.5" y1="531" x2="165" y2="475.5"/><line x1="114.5" y1="531" x2="170" y2="475.5"/><line x1="119.5" y1="531" x2="175" y2="475.5"/><line x1="124.5" y1="531" x2="180" y2="475.5"/></g></g>
    <path d="M732.5 531 L760 531 L760 475.5 L732.5 475.5 Z" fill="#3A332A" stroke="#0E0C09" stroke-width="1.2" stroke-linejoin="round" stroke-linecap="round"/>
    <g clip-path="url(#c12)"><g stroke="#635C4C" stroke-width=".8" opacity="0.7"><line x1="677" y1="531" x2="732.5" y2="475.5"/><line x1="682" y1="531" x2="737.5" y2="475.5"/><line x1="687" y1="531" x2="742.5" y2="475.5"/><line x1="692" y1="531" x2="747.5" y2="475.5"/><line x1="697" y1="531" x2="752.5" y2="475.5"/><line x1="702" y1="531" x2="757.5" y2="475.5"/><line x1="707" y1="531" x2="762.5" y2="475.5"/><line x1="712" y1="531" x2="767.5" y2="475.5"/><line x1="717" y1="531" x2="772.5" y2="475.5"/><line x1="722" y1="531" x2="777.5" y2="475.5"/><line x1="727" y1="531" x2="782.5" y2="475.5"/><line x1="732" y1="531" x2="787.5" y2="475.5"/><line x1="737" y1="531" x2="792.5" y2="475.5"/><line x1="742" y1="531" x2="797.5" y2="475.5"/><line x1="747" y1="531" x2="802.5" y2="475.5"/><line x1="752" y1="531" x2="807.5" y2="475.5"/><line x1="757" y1="531" x2="812.5" y2="475.5"/></g></g>
    <g transform="translate(335 501) scale(0.25000)" fill="#DCD2BA" opacity=".5"><ellipse cx="160" cy="320" rx="20" ry="26"/><path d="M160 346 C138 350 126 360 124 380 L118 500 L130 502 L138 410 L140 520 L142 690 L156 690 L160 540 L164 690 L178 690 L180 520 L182 410 L190 502 L202 500 L196 380 C194 360 182 350 160 346 Z"/></g>
    <rect x="800" y="170" width="360" height="360" fill="#1B1813" stroke="#635C4C" stroke-width="1"/>
    <g stroke="#635C4C" stroke-width="1"><line x1="800" y1="530" x2="800" y2="536"/><line x1="800" y1="530" x2="794" y2="530"/><line x1="830" y1="530" x2="830" y2="533"/><line x1="800" y1="500" x2="797" y2="500"/><line x1="860" y1="530" x2="860" y2="533"/><line x1="800" y1="470" x2="797" y2="470"/><line x1="890" y1="530" x2="890" y2="533"/><line x1="800" y1="440" x2="797" y2="440"/><line x1="920" y1="530" x2="920" y2="533"/><line x1="800" y1="410" x2="797" y2="410"/><line x1="950" y1="530" x2="950" y2="533"/><line x1="800" y1="380" x2="797" y2="380"/><line x1="980" y1="530" x2="980" y2="536"/><line x1="800" y1="350" x2="794" y2="350"/><line x1="1010" y1="530" x2="1010" y2="533"/><line x1="800" y1="320" x2="797" y2="320"/><line x1="1040" y1="530" x2="1040" y2="533"/><line x1="800" y1="290" x2="797" y2="290"/><line x1="1070" y1="530" x2="1070" y2="533"/><line x1="800" y1="260" x2="797" y2="260"/><line x1="1100" y1="530" x2="1100" y2="533"/><line x1="800" y1="230" x2="797" y2="230"/><line x1="1130" y1="530" x2="1130" y2="533"/><line x1="800" y1="200" x2="797" y2="200"/><line x1="1160" y1="530" x2="1160" y2="536"/><line x1="800" y1="170" x2="794" y2="170"/></g>
    <path d="M1187 180 l6 16 l-6 -4 l-6 4 z" fill="#9A9078"/>
    <rect x="800" y="170" width="360" height="360" fill="#34302A"/>
    <rect x="800" y="170" width="360" height="15" fill="#3A332A" stroke="#24201A" stroke-width="0.8"/>
    <rect x="800" y="515" width="360" height="15" fill="#3A332A" stroke="#24201A" stroke-width="0.8"/>
    <rect x="800" y="185" width="15" height="330" fill="#3A332A" stroke="#24201A" stroke-width="0.8"/>
    <rect x="1145" y="185" width="15" height="330" fill="#3A332A" stroke="#24201A" stroke-width="0.8"/>
    <rect x="800" y="170" width="360" height="3.6" fill="#8A5A3C"/>
    <rect x="800" y="526.4" width="360" height="3.6" fill="#8A5A3C"/>
    <rect x="941" y="170" width="78" height="15.6" fill="#34302A"/>
    <rect x="941" y="514.4" width="78" height="15.6" fill="#34302A"/>
    <rect x="800" y="311" width="15.6" height="78" fill="#34302A"/>
    <rect x="1144.4" y="311" width="15.6" height="78" fill="#34302A"/>
    <rect x="932" y="185" width="96" height="330" fill="#9A9078" fill-opacity=".05" stroke="#9A9078" stroke-opacity=".35" stroke-width=".8" stroke-dasharray="4 4"/>
    <rect x="815" y="302" width="330" height="96" fill="#9A9078" fill-opacity=".05" stroke="#9A9078" stroke-opacity=".35" stroke-width=".8" stroke-dasharray="4 4"/>
    <rect x="815" y="485" width="30" height="30" fill="#3A352D" opacity="0.6"/>
    <rect x="815" y="425" width="30" height="30" fill="#3A352D" opacity="0.6"/>
    <rect x="815" y="365" width="30" height="30" fill="#3A352D" opacity="0.6"/>
    <rect x="815" y="305" width="30" height="30" fill="#3A352D" opacity="0.6"/>
    <rect x="815" y="245" width="30" height="30" fill="#3A352D" opacity="0.6"/>
    <rect x="815" y="185" width="30" height="30" fill="#3A352D" opacity="0.6"/>
    <rect x="845" y="455" width="30" height="30" fill="#3A352D" opacity="0.6"/>
    <rect x="845" y="395" width="30" height="30" fill="#3A352D" opacity="0.6"/>
    <rect x="845" y="335" width="30" height="30" fill="#3A352D" opacity="0.6"/>
    <rect x="845" y="275" width="30" height="30" fill="#3A352D" opacity="0.6"/>
    <rect x="845" y="215" width="30" height="30" fill="#3A352D" opacity="0.6"/>
    <rect x="875" y="485" width="30" height="30" fill="#3A352D" opacity="0.6"/>
    <rect x="875" y="425" width="30" height="30" fill="#3A352D" opacity="0.6"/>
    <rect x="875" y="365" width="30" height="30" fill="#3A352D" opacity="0.6"/>
    <rect x="875" y="305" width="30" height="30" fill="#3A352D" opacity="0.6"/>
    <rect x="875" y="245" width="30" height="30" fill="#3A352D" opacity="0.6"/>
    <rect x="875" y="185" width="30" height="30" fill="#3A352D" opacity="0.6"/>
    <rect x="905" y="455" width="30" height="30" fill="#3A352D" opacity="0.6"/>
    <rect x="905" y="395" width="30" height="30" fill="#3A352D" opacity="0.6"/>
    <rect x="905" y="335" width="30" height="30" fill="#3A352D" opacity="0.6"/>
    <rect x="905" y="275" width="30" height="30" fill="#3A352D" opacity="0.6"/>
    <rect x="905" y="215" width="30" height="30" fill="#3A352D" opacity="0.6"/>
    <rect x="935" y="485" width="30" height="30" fill="#3A352D" opacity="0.6"/>
    <rect x="935" y="425" width="30" height="30" fill="#3A352D" opacity="0.6"/>
    <rect x="935" y="365" width="30" height="30" fill="#3A352D" opacity="0.6"/>
    <rect x="935" y="305" width="30" height="30" fill="#3A352D" opacity="0.6"/>
    <rect x="935" y="245" width="30" height="30" fill="#3A352D" opacity="0.6"/>
    <rect x="935" y="185" width="30" height="30" fill="#3A352D" opacity="0.6"/>
    <rect x="965" y="455" width="30" height="30" fill="#3A352D" opacity="0.6"/>
    <rect x="965" y="395" width="30" height="30" fill="#3A352D" opacity="0.6"/>
    <rect x="965" y="335" width="30" height="30" fill="#3A352D" opacity="0.6"/>
    <rect x="965" y="275" width="30" height="30" fill="#3A352D" opacity="0.6"/>
    <rect x="965" y="215" width="30" height="30" fill="#3A352D" opacity="0.6"/>
    <rect x="995" y="485" width="30" height="30" fill="#3A352D" opacity="0.6"/>
    <rect x="995" y="425" width="30" height="30" fill="#3A352D" opacity="0.6"/>
    <rect x="995" y="365" width="30" height="30" fill="#3A352D" opacity="0.6"/>
    <rect x="995" y="305" width="30" height="30" fill="#3A352D" opacity="0.6"/>
    <rect x="995" y="245" width="30" height="30" fill="#3A352D" opacity="0.6"/>
    <rect x="995" y="185" width="30" height="30" fill="#3A352D" opacity="0.6"/>
    <rect x="1025" y="455" width="30" height="30" fill="#3A352D" opacity="0.6"/>
    <rect x="1025" y="395" width="30" height="30" fill="#3A352D" opacity="0.6"/>
    <rect x="1025" y="335" width="30" height="30" fill="#3A352D" opacity="0.6"/>
    <rect x="1025" y="275" width="30" height="30" fill="#3A352D" opacity="0.6"/>
    <rect x="1025" y="215" width="30" height="30" fill="#3A352D" opacity="0.6"/>
    <rect x="1055" y="485" width="30" height="30" fill="#3A352D" opacity="0.6"/>
    <rect x="1055" y="425" width="30" height="30" fill="#3A352D" opacity="0.6"/>
    <rect x="1055" y="365" width="30" height="30" fill="#3A352D" opacity="0.6"/>
    <rect x="1055" y="305" width="30" height="30" fill="#3A352D" opacity="0.6"/>
    <rect x="1055" y="245" width="30" height="30" fill="#3A352D" opacity="0.6"/>
    <rect x="1055" y="185" width="30" height="30" fill="#3A352D" opacity="0.6"/>
    <rect x="1085" y="455" width="30" height="30" fill="#3A352D" opacity="0.6"/>
    <rect x="1085" y="395" width="30" height="30" fill="#3A352D" opacity="0.6"/>
    <rect x="1085" y="335" width="30" height="30" fill="#3A352D" opacity="0.6"/>
    <rect x="1085" y="275" width="30" height="30" fill="#3A352D" opacity="0.6"/>
    <rect x="1085" y="215" width="30" height="30" fill="#3A352D" opacity="0.6"/>
    <rect x="1115" y="485" width="30" height="30" fill="#3A352D" opacity="0.6"/>
    <rect x="1115" y="425" width="30" height="30" fill="#3A352D" opacity="0.6"/>
    <rect x="1115" y="365" width="30" height="30" fill="#3A352D" opacity="0.6"/>
    <rect x="1115" y="305" width="30" height="30" fill="#3A352D" opacity="0.6"/>
    <rect x="1115" y="245" width="30" height="30" fill="#3A352D" opacity="0.6"/>
    <rect x="1115" y="185" width="30" height="30" fill="#3A352D" opacity="0.6"/>
    <circle cx="1088" cy="458" r="33" fill="#8C7F68" stroke="#0E0C09" stroke-width="1"/>
    <circle cx="1088" cy="458" r="25.5" fill="#5E8A96" stroke="#0E0C09" stroke-width="0.8"/>
    <rect x="1064" y="428" width="48" height="24" fill="#968A72" stroke="#0E0C09" stroke-width="0.6"/>
    <rect x="1055.9" y="455.9" width="4.2" height="4.2" fill="#5A3E28" stroke="#0E0C09" stroke-width="0.6"/>
    <rect x="1115.9" y="455.9" width="4.2" height="4.2" fill="#5A3E28" stroke="#0E0C09" stroke-width="0.6"/>
    <rect x="1056.5" y="456.2" width="63" height="3.6" fill="#5A3E28" stroke="#0E0C09" stroke-width="0.6"/>
    <circle cx="1046" cy="494" r="6" fill="#5A3E28" stroke="#0E0C09" stroke-width="0.6"/>
    <circle cx="1088" cy="458" r="30" fill="none" stroke="#665C4C" stroke-width="3"/>
    <rect x="842" y="195.5" width="48" height="15" fill="#5A3E28" stroke="#0E0C09" stroke-width="0.6"/>
    <circle cx="849.5" cy="203" r="6" fill="#A0603E" stroke="#573624" stroke-width="0.7"/>
    <circle cx="849.5" cy="203" r="2.6" fill="#5E3A26"/>
    <circle cx="882.5" cy="203" r="6" fill="#A0603E" stroke="#573624" stroke-width="0.7"/>
    <circle cx="882.5" cy="203" r="2.6" fill="#5E3A26"/>
    <circle cx="1094" cy="224" r="16.5" fill="#A0603E" stroke="#0E0C09" stroke-width="0.8"/>
    <circle cx="1094" cy="224" r="12.6" fill="#5E8A96"/>
    <rect x="833" y="489.5" width="66" height="21" fill="#8C7F68" stroke="#0E0C09" stroke-width="0.6"/>
    <rect x="836" y="492.5" width="60" height="15" fill="#5E8A96" stroke="#0E0C09" stroke-width="0.6"/>
    <path d="M1088 432 l5 5 l-5 5 l-5 -5 z" fill="#C9A227" stroke="#14120E" stroke-width=".8"/>
    <text x="1095" y="440.5" font-family="Overpass Mono, monospace" font-size="8.5" fill="#C9A227" stroke="#14120E" stroke-width="2.4" paint-order="stroke">L1</text>
    <path d="M866 198 l5 5 l-5 5 l-5 -5 z" fill="#C9A227" stroke="#14120E" stroke-width=".8"/>
    <text x="873" y="206.5" font-family="Overpass Mono, monospace" font-size="8.5" fill="#C9A227" stroke="#14120E" stroke-width="2.4" paint-order="stroke">L2</text>
    <path d="M1094 219 l5 5 l-5 5 l-5 -5 z" fill="#C9A227" stroke="#14120E" stroke-width=".8"/>
    <text x="1101" y="227.5" font-family="Overpass Mono, monospace" font-size="8.5" fill="#C9A227" stroke="#14120E" stroke-width="2.4" paint-order="stroke">L3</text>
    <path d="M1046 489 l5 5 l-5 5 l-5 -5 z" fill="#C9A227" stroke="#14120E" stroke-width=".8"/>
    <text x="1053" y="497.5" font-family="Overpass Mono, monospace" font-size="8.5" fill="#C9A227" stroke="#14120E" stroke-width="2.4" paint-order="stroke">L4</text>
    <line x1="782" y1="350" x2="1178" y2="350" stroke="#9A9078" stroke-width="0.8" stroke-linecap="round" stroke-dasharray="8 3 2 3"/>
    <path d="M782 350 l0 -10 l-4 5 m4 -5 l4 5" fill="none" stroke="#9A9078" stroke-width="1" stroke-linejoin="round" stroke-linecap="round"/>
    <path d="M1178 350 l0 -10 l-4 5 m4 -5 l4 5" fill="none" stroke="#9A9078" stroke-width="1" stroke-linejoin="round" stroke-linecap="round"/>
  </g>
  <g id="callouts" font-family="Overpass Mono, monospace">
    <text x="430" y="526" font-family="Overpass Mono, monospace" font-size="8.5" fill="#635C4C" text-anchor="middle">ARCHWAY 2.60 × 2.59</text>
    <text x="628" y="536" font-family="Overpass Mono, monospace" font-size="8.5" fill="#9A9078" text-anchor="middle">WINCH BEAM (BEYOND, SE)</text>
    <text x="375" y="568.5" font-family="Overpass Mono, monospace" font-size="9" fill="#9A9078" text-anchor="middle">1.80 m</text>
    <path d="M628 547 L590 226 L604 226" fill="none" stroke="#9A9078" stroke-width=".8" opacity=".85"/>
    <circle cx="628" cy="547" r="2.6" fill="#DCD2BA" stroke="#14120E" stroke-width="1"/>
    <text x="610" y="230" font-family="Overpass Mono, monospace" font-size="12" fill="#DCD2BA">CISTERN WINCH</text>
    <text x="610" y="244" font-family="Overpass Mono, monospace" font-size="10.5" fill="#9A9078">posts on the rim, beam</text>
    <text x="610" y="257" font-family="Overpass Mono, monospace" font-size="10.5" fill="#9A9078">2.35 m</text>
    <path d="M639 621.2 L590 306 L604 306" fill="none" stroke="#9A9078" stroke-width=".8" opacity=".85"/>
    <circle cx="639" cy="621.2" r="2.6" fill="#DCD2BA" stroke="#14120E" stroke-width="1"/>
    <text x="610" y="310" font-family="Overpass Mono, monospace" font-size="12" fill="#DCD2BA">CLAY BASIN</text>
    <text x="610" y="324" font-family="Overpass Mono, monospace" font-size="10.5" fill="#9A9078">on a pedestal · loot</text>
    <path d="M190.8 629.5 L350 226 L336 226" fill="none" stroke="#9A9078" stroke-width=".8" opacity=".85"/>
    <circle cx="190.8" cy="629.5" r="2.6" fill="#DCD2BA" stroke="#14120E" stroke-width="1"/>
    <text x="330" y="230" font-family="Overpass Mono, monospace" font-size="12" fill="#DCD2BA" text-anchor="end">HYDRIAE</text>
    <text x="330" y="244" font-family="Overpass Mono, monospace" font-size="10.5" fill="#9A9078" text-anchor="end">water jars on a cypress stand</text>
    <path d="M265 668 L350 296 L336 296" fill="none" stroke="#9A9078" stroke-width=".8" opacity=".85"/>
    <circle cx="265" cy="668" r="2.6" fill="#DCD2BA" stroke="#14120E" stroke-width="1"/>
    <text x="330" y="300" font-family="Overpass Mono, monospace" font-size="12" fill="#DCD2BA" text-anchor="end">PAVED COURT</text>
    <text x="330" y="314" font-family="Overpass Mono, monospace" font-size="10.5" fill="#9A9078" text-anchor="end">limestone flags</text>
    <text x="430" y="509.6" font-family="Overpass Mono, monospace" font-size="9" fill="#DCD2BA" text-anchor="middle">3.60 clear · open to the sky</text>
    <text x="800" y="548" font-family="Overpass Mono, monospace" font-size="9" fill="#635C4C" text-anchor="middle">0</text>
    <text x="980" y="548" font-family="Overpass Mono, monospace" font-size="9" fill="#635C4C" text-anchor="middle">6</text>
    <text x="1160" y="548" font-family="Overpass Mono, monospace" font-size="9" fill="#635C4C" text-anchor="middle">12 m</text>
    <text x="1187" y="210" font-family="Overpass Mono, monospace" font-size="10" fill="#9A9078" text-anchor="middle">N</text>
    <text x="782" y="362" font-family="Overpass Mono, monospace" font-size="9" fill="#9A9078" text-anchor="middle">A</text>
    <text x="1178" y="362" font-family="Overpass Mono, monospace" font-size="9" fill="#9A9078" text-anchor="middle">A</text>
    <text x="980" y="213.5" font-family="Overpass Mono, monospace" font-size="9.5" fill="#DCD2BA" text-anchor="middle" letter-spacing="1">ARCHWAY N 2.60 × 2.59</text>
    <text x="962" y="495.5" font-family="Overpass Mono, monospace" font-size="9.5" fill="#DCD2BA" text-anchor="middle" letter-spacing="1">ARCHWAY S 2.60 × 2.59</text>
    <text x="1088" y="407" font-family="Overpass Mono, monospace" font-size="9.5" fill="#DCD2BA" text-anchor="middle" letter-spacing="1">CISTERN</text>
    <text x="866" y="476" font-family="Overpass Mono, monospace" font-size="9.5" fill="#DCD2BA" text-anchor="middle" letter-spacing="1">TROUGH</text>
    <text x="800" y="585" font-family="Overpass Mono, monospace" font-size="9.5" fill="#DCD2BA" letter-spacing="1">ARCHWAYS</text>
    <text x="892" y="585" font-family="Overpass Mono, monospace" font-size="9.5" fill="#9A9078">4, centred · 2.60 × 2.59 · all open</text>
    <text x="800" y="600" font-family="Overpass Mono, monospace" font-size="9.5" fill="#DCD2BA" letter-spacing="1">CLEAR CROSS</text>
    <text x="892" y="600" font-family="Overpass Mono, monospace" font-size="9.5" fill="#9A9078">dashed · |x|,|y| &lt; 1.6 m kept free to 2 m</text>
    <text x="800" y="615" font-family="Overpass Mono, monospace" font-size="9.5" fill="#DCD2BA" letter-spacing="1">CISTERN</text>
    <text x="892" y="615" font-family="Overpass Mono, monospace" font-size="9.5" fill="#9A9078">SE, 2.20 m drum, lid half drawn, winch</text>
    <text x="800" y="630" font-family="Overpass Mono, monospace" font-size="9.5" fill="#DCD2BA" letter-spacing="1">WATER</text>
    <text x="892" y="630" font-family="Overpass Mono, monospace" font-size="9.5" fill="#9A9078">hydriae NW · basin NE · trough SW</text>
    <text x="800" y="645" font-family="Overpass Mono, monospace" font-size="9.5" fill="#DCD2BA" letter-spacing="1">LOOT</text>
    <text x="892" y="645" font-family="Overpass Mono, monospace" font-size="9.5" fill="#9A9078">L1–L4: cistern lid, jar stand, basin, bucket</text>
  </g>
  <g id="palette" font-family="Overpass Mono, monospace" font-size="10" fill="#9A9078">
    <rect x="40" y="748" width="34" height="18" fill="#B7803E" stroke="#332D22" stroke-width=".6"/><text x="80" y="761">#B7803E plaster</text>
    <rect x="200" y="748" width="34" height="18" fill="#8C7F68" stroke="#332D22" stroke-width=".6"/><text x="240" y="761">#8C7F68 limestone</text>
    <rect x="360" y="748" width="34" height="18" fill="#A0603E" stroke="#332D22" stroke-width=".6"/><text x="400" y="761">#A0603E clay</text>
    <rect x="520" y="748" width="34" height="18" fill="#5E8A96" stroke="#332D22" stroke-width=".6"/><text x="560" y="761">#5E8A96 water</text>
    <rect x="680" y="748" width="34" height="18" fill="#5A3E28" stroke="#332D22" stroke-width=".6"/><text x="720" y="761">#5A3E28 cypress</text>
    <rect x="840" y="748" width="34" height="18" fill="#D8CDB2" stroke="#332D22" stroke-width=".6"/><text x="880" y="761">#D8CDB2 gypsum</text>
    <rect x="1000" y="748" width="34" height="18" fill="#8A5A3C" stroke="#332D22" stroke-width=".6"/><text x="1040" y="761">#8A5A3C mud-brick</text>
  </g>
</svg>
