<svg xmlns="http://www.w3.org/2000/svg" viewBox="0 0 1200 800" width="1200" height="800">
  <!-- Plunderspell castle room sheet · THE BRONZE AGE · CASTLE ROOM · KEEP · generated. Rules: docs/art/rooms/README.md -->
  <defs>
    <pattern id="grid" width="55" height="55" patternUnits="userSpaceOnUse" x="0" y="690"><path d="M55 0 H0 V55" fill="none" stroke="#262119" stroke-width="1"/></pattern>
    <radialGradient id="glow" cx="50%" cy="70%" r="60%"><stop offset="0" stop-color="#2A2012" stop-opacity=".9"/><stop offset="1" stop-color="#14120E" stop-opacity="0"/></radialGradient>
    <radialGradient id="r1" cx="0.5" cy="0.5" r="0.5"><stop offset="0" stop-color="#C4542E" stop-opacity="0.35"/><stop offset="0.35" stop-color="#72341D" stop-opacity="0.26249999999999996"/><stop offset="1" stop-color="#14120E" stop-opacity="0"/></radialGradient>
    <linearGradient id="g2" x1="0" y1="0" x2="0" y2="1"><stop offset="0" stop-color="#867764"/><stop offset="0.38" stop-color="#7A6A58"/><stop offset="1" stop-color="#4F4438"/></linearGradient>
    <linearGradient id="g3" x1="0" y1="0" x2="0" y2="1"><stop offset="0" stop-color="#CDAE83"/><stop offset="0.38" stop-color="#C9A77A"/><stop offset="1" stop-color="#6C5A42"/></linearGradient>
    <linearGradient id="g4" x1="0" y1="0" x2="0" y2="1"><stop offset="0" stop-color="#2B231B"/><stop offset="0.45" stop-color="#2B231B"/><stop offset="1" stop-color="#C9A77A"/></linearGradient>
    <clipPath id="c5"><path d="M127.5 673.5 L732.5 673.5 L732.5 420.5 L127.5 420.5 Z"/></clipPath>
    <linearGradient id="g6" x1="0" y1="0" x2="0" y2="1"><stop offset="0" stop-color="#A2614D"/><stop offset="0.38" stop-color="#8E3F2C"/><stop offset="1" stop-color="#4E261A"/></linearGradient>
    <linearGradient id="g7" x1="0" y1="0" x2="0" y2="1"><stop offset="0" stop-color="#806852"/><stop offset="0.38" stop-color="#5A3E28"/><stop offset="1" stop-color="#342518"/></linearGradient>
    <linearGradient id="g8" x1="0" y1="0" x2="1" y2="0"><stop offset="0" stop-color="#806852"/><stop offset="0.38" stop-color="#5A3E28"/><stop offset="1" stop-color="#342518"/></linearGradient>
    <clipPath id="c9"><path d="M100 491.5 L127.5 491.5 L127.5 420.5 L100 420.5 Z"/></clipPath>
    <clipPath id="c10"><path d="M732.5 491.5 L760 491.5 L760 420.5 L732.5 420.5 Z"/></clipPath>
  </defs>
  <rect width="1200" height="800" fill="#14120E"/>
  <rect width="1200" height="800" fill="url(#glow)"/>
  <rect x="0" y="120" width="1200" height="570" fill="url(#grid)"/>
  <ellipse cx="661" cy="610.5" rx="260" ry="180" fill="url(#r1)"/>
  <line x1="40" y1="690" x2="1160" y2="690" stroke="#635C4C" stroke-width="1.5"/>
  <rect x="12" y="12" width="1176" height="776" fill="none" stroke="#332D22" stroke-width="1"/>
  <text x="40" y="54" font-family="Overpass Mono, monospace" font-size="12" letter-spacing="3" fill="#635C4C">THE BRONZE AGE · CASTLE ROOM · KEEP</text>
  <text x="40" y="96" font-family="Eczar, Georgia, serif" font-size="38" font-weight="700" fill="#DCD2BA">The Queen's Hall</text>
  <text x="1160" y="54" text-anchor="end" font-family="Overpass Mono, monospace" font-size="12" fill="#9A9078">12 × 12 m cell · clear 4.60 m · ≤ 1.8k tris (kit)</text>
  <text x="1160" y="76" text-anchor="end" font-family="Overpass Mono, monospace" font-size="12" fill="#9A9078">section 1 m = 55 px · plan 1 m = 30 px</text>
  <g font-family="Overpass Mono, monospace" font-size="10" fill="#635C4C" stroke="#635C4C"><line x1="60" y1="690" x2="60" y2="332" stroke-width="1"/><line x1="54" y1="673.5" x2="66" y2="673.5"/><text x="30" y="677.5" stroke="none">0</text><line x1="54" y1="618.5" x2="66" y2="618.5"/><text x="30" y="622.5" stroke="none">1</text><line x1="54" y1="563.5" x2="66" y2="563.5"/><text x="30" y="567.5" stroke="none">2</text><line x1="54" y1="508.5" x2="66" y2="508.5"/><text x="30" y="512.5" stroke="none">3</text><line x1="54" y1="453.5" x2="66" y2="453.5"/><text x="30" y="457.5" stroke="none">4</text><line x1="54" y1="398.5" x2="66" y2="398.5"/><text x="30" y="402.5" stroke="none">5</text><line x1="54" y1="343.5" x2="66" y2="343.5"/><text x="30" y="347.5" stroke="none">6</text><text x="24" y="319" stroke="none">m</text></g>
  <text x="430" y="730" text-anchor="middle" font-family="Overpass Mono, monospace" font-size="11" letter-spacing="3" fill="#635C4C">SECTION A–A · E–W THROUGH THE ROOM, LOOKING NORTH</text>
  <text x="980" y="156" text-anchor="middle" font-family="Overpass Mono, monospace" font-size="11" letter-spacing="3" fill="#635C4C">PLAN · 12 × 12 m CELL</text>
  <g id="drawing">
    <rect x="100" y="673.5" width="660" height="16.5" fill="url(#g2)" stroke="#393229" stroke-width="1"/>
    <path d="M127.5 673.5 L732.5 673.5 L732.5 420.5 L127.5 420.5 Z" fill="url(#g3)" stroke="#594A36" stroke-width="1" stroke-linejoin="round" stroke-linecap="round"/>
    <g clip-path="url(#c5)"><rect x="127.5" y="420.5" width="605" height="66" fill="url(#g4)" opacity=".55"/></g>
    <rect x="358.5" y="491.5" width="143" height="182" fill="#14120E"/>
    <rect x="100" y="420.5" width="660" height="24.7" fill="url(#g6)" stroke="#412017" stroke-width="0.8"/>
    <rect x="127.5" y="497.5" width="231" height="88" fill="#8B8E7F" stroke="#6C5A42" stroke-width="0.8"/>
    <path d="M131.2 577.2 q5 -6 10 0 t10 0" fill="none" stroke="#3F6F86" stroke-width="1.2" stroke-linejoin="round" stroke-linecap="round" opacity="0.7"/>
    <path d="M158.8 577.2 q5 -6 10 0 t10 0" fill="none" stroke="#3F6F86" stroke-width="1.2" stroke-linejoin="round" stroke-linecap="round" opacity="0.7"/>
    <path d="M186.2 577.2 q5 -6 10 0 t10 0" fill="none" stroke="#3F6F86" stroke-width="1.2" stroke-linejoin="round" stroke-linecap="round" opacity="0.7"/>
    <path d="M213.8 577.2 q5 -6 10 0 t10 0" fill="none" stroke="#3F6F86" stroke-width="1.2" stroke-linejoin="round" stroke-linecap="round" opacity="0.7"/>
    <path d="M241.2 577.2 q5 -6 10 0 t10 0" fill="none" stroke="#3F6F86" stroke-width="1.2" stroke-linejoin="round" stroke-linecap="round" opacity="0.7"/>
    <path d="M268.8 577.2 q5 -6 10 0 t10 0" fill="none" stroke="#3F6F86" stroke-width="1.2" stroke-linejoin="round" stroke-linecap="round" opacity="0.7"/>
    <path d="M296.2 577.2 q5 -6 10 0 t10 0" fill="none" stroke="#3F6F86" stroke-width="1.2" stroke-linejoin="round" stroke-linecap="round" opacity="0.7"/>
    <path d="M323.8 577.2 q5 -6 10 0 t10 0" fill="none" stroke="#3F6F86" stroke-width="1.2" stroke-linejoin="round" stroke-linecap="round" opacity="0.7"/>
    <rect x="127.5" y="487.6" width="231" height="9.9" fill="#8E3F2C"/><path d="M127.9 495.4 C129.8 496.4 129.5 489.4 133 489.4 A3.2 3.2 0 1 1 132.4 494.5 A1.6 1.6 0 1 1 134 492.6" fill="none" stroke="#3F6F86" stroke-width="1"/><path d="M138.9 495.4 C140.8 496.4 140.5 489.4 144 489.4 A3.2 3.2 0 1 1 143.4 494.5 A1.6 1.6 0 1 1 145 492.6" fill="none" stroke="#3F6F86" stroke-width="1"/><path d="M149.9 495.4 C151.8 496.4 151.5 489.4 155 489.4 A3.2 3.2 0 1 1 154.4 494.5 A1.6 1.6 0 1 1 156 492.6" fill="none" stroke="#3F6F86" stroke-width="1"/><path d="M160.9 495.4 C162.8 496.4 162.5 489.4 166 489.4 A3.2 3.2 0 1 1 165.4 494.5 A1.6 1.6 0 1 1 167 492.6" fill="none" stroke="#3F6F86" stroke-width="1"/><path d="M171.9 495.4 C173.8 496.4 173.5 489.4 177 489.4 A3.2 3.2 0 1 1 176.4 494.5 A1.6 1.6 0 1 1 178 492.6" fill="none" stroke="#3F6F86" stroke-width="1"/><path d="M182.9 495.4 C184.8 496.4 184.5 489.4 188 489.4 A3.2 3.2 0 1 1 187.4 494.5 A1.6 1.6 0 1 1 189 492.6" fill="none" stroke="#3F6F86" stroke-width="1"/><path d="M193.9 495.4 C195.8 496.4 195.5 489.4 199 489.4 A3.2 3.2 0 1 1 198.4 494.5 A1.6 1.6 0 1 1 200 492.6" fill="none" stroke="#3F6F86" stroke-width="1"/><path d="M204.9 495.4 C206.8 496.4 206.5 489.4 210 489.4 A3.2 3.2 0 1 1 209.4 494.5 A1.6 1.6 0 1 1 211 492.6" fill="none" stroke="#3F6F86" stroke-width="1"/><path d="M215.9 495.4 C217.8 496.4 217.5 489.4 221 489.4 A3.2 3.2 0 1 1 220.4 494.5 A1.6 1.6 0 1 1 222 492.6" fill="none" stroke="#3F6F86" stroke-width="1"/><path d="M226.9 495.4 C228.8 496.4 228.5 489.4 232 489.4 A3.2 3.2 0 1 1 231.4 494.5 A1.6 1.6 0 1 1 233 492.6" fill="none" stroke="#3F6F86" stroke-width="1"/><path d="M237.9 495.4 C239.8 496.4 239.5 489.4 243 489.4 A3.2 3.2 0 1 1 242.4 494.5 A1.6 1.6 0 1 1 244 492.6" fill="none" stroke="#3F6F86" stroke-width="1"/><path d="M248.9 495.4 C250.8 496.4 250.5 489.4 254 489.4 A3.2 3.2 0 1 1 253.4 494.5 A1.6 1.6 0 1 1 255 492.6" fill="none" stroke="#3F6F86" stroke-width="1"/><path d="M259.9 495.4 C261.8 496.4 261.5 489.4 265 489.4 A3.2 3.2 0 1 1 264.4 494.5 A1.6 1.6 0 1 1 266 492.6" fill="none" stroke="#3F6F86" stroke-width="1"/><path d="M270.9 495.4 C272.8 496.4 272.5 489.4 276 489.4 A3.2 3.2 0 1 1 275.4 494.5 A1.6 1.6 0 1 1 277 492.6" fill="none" stroke="#3F6F86" stroke-width="1"/><path d="M281.9 495.4 C283.8 496.4 283.5 489.4 287 489.4 A3.2 3.2 0 1 1 286.4 494.5 A1.6 1.6 0 1 1 288 492.6" fill="none" stroke="#3F6F86" stroke-width="1"/><path d="M292.9 495.4 C294.8 496.4 294.5 489.4 298 489.4 A3.2 3.2 0 1 1 297.4 494.5 A1.6 1.6 0 1 1 299 492.6" fill="none" stroke="#3F6F86" stroke-width="1"/><path d="M303.9 495.4 C305.8 496.4 305.5 489.4 309 489.4 A3.2 3.2 0 1 1 308.4 494.5 A1.6 1.6 0 1 1 310 492.6" fill="none" stroke="#3F6F86" stroke-width="1"/><path d="M314.9 495.4 C316.8 496.4 316.5 489.4 320 489.4 A3.2 3.2 0 1 1 319.4 494.5 A1.6 1.6 0 1 1 321 492.6" fill="none" stroke="#3F6F86" stroke-width="1"/><path d="M325.9 495.4 C327.8 496.4 327.5 489.4 331 489.4 A3.2 3.2 0 1 1 330.4 494.5 A1.6 1.6 0 1 1 332 492.6" fill="none" stroke="#3F6F86" stroke-width="1"/><path d="M336.9 495.4 C338.8 496.4 338.5 489.4 342 489.4 A3.2 3.2 0 1 1 341.4 494.5 A1.6 1.6 0 1 1 343 492.6" fill="none" stroke="#3F6F86" stroke-width="1"/><path d="M347.9 495.4 C349.8 496.4 349.5 489.4 353 489.4 A3.2 3.2 0 1 1 352.4 494.5 A1.6 1.6 0 1 1 354 492.6" fill="none" stroke="#3F6F86" stroke-width="1"/>
    <rect x="501.5" y="497.5" width="231" height="88" fill="#8B8E7F" stroke="#6C5A42" stroke-width="0.8"/>
    <path d="M505.2 577.2 q5 -6 10 0 t10 0" fill="none" stroke="#3F6F86" stroke-width="1.2" stroke-linejoin="round" stroke-linecap="round" opacity="0.7"/>
    <path d="M532.8 577.2 q5 -6 10 0 t10 0" fill="none" stroke="#3F6F86" stroke-width="1.2" stroke-linejoin="round" stroke-linecap="round" opacity="0.7"/>
    <path d="M560.2 577.2 q5 -6 10 0 t10 0" fill="none" stroke="#3F6F86" stroke-width="1.2" stroke-linejoin="round" stroke-linecap="round" opacity="0.7"/>
    <path d="M587.8 577.2 q5 -6 10 0 t10 0" fill="none" stroke="#3F6F86" stroke-width="1.2" stroke-linejoin="round" stroke-linecap="round" opacity="0.7"/>
    <path d="M615.2 577.2 q5 -6 10 0 t10 0" fill="none" stroke="#3F6F86" stroke-width="1.2" stroke-linejoin="round" stroke-linecap="round" opacity="0.7"/>
    <path d="M642.8 577.2 q5 -6 10 0 t10 0" fill="none" stroke="#3F6F86" stroke-width="1.2" stroke-linejoin="round" stroke-linecap="round" opacity="0.7"/>
    <path d="M670.2 577.2 q5 -6 10 0 t10 0" fill="none" stroke="#3F6F86" stroke-width="1.2" stroke-linejoin="round" stroke-linecap="round" opacity="0.7"/>
    <path d="M697.8 577.2 q5 -6 10 0 t10 0" fill="none" stroke="#3F6F86" stroke-width="1.2" stroke-linejoin="round" stroke-linecap="round" opacity="0.7"/>
    <rect x="501.5" y="487.6" width="231" height="9.9" fill="#8E3F2C"/><path d="M501.9 495.4 C503.8 496.4 503.5 489.4 507 489.4 A3.2 3.2 0 1 1 506.4 494.5 A1.6 1.6 0 1 1 508 492.6" fill="none" stroke="#3F6F86" stroke-width="1"/><path d="M512.9 495.4 C514.8 496.4 514.5 489.4 518 489.4 A3.2 3.2 0 1 1 517.4 494.5 A1.6 1.6 0 1 1 519 492.6" fill="none" stroke="#3F6F86" stroke-width="1"/><path d="M523.9 495.4 C525.8 496.4 525.5 489.4 529 489.4 A3.2 3.2 0 1 1 528.4 494.5 A1.6 1.6 0 1 1 530 492.6" fill="none" stroke="#3F6F86" stroke-width="1"/><path d="M534.9 495.4 C536.8 496.4 536.5 489.4 540 489.4 A3.2 3.2 0 1 1 539.4 494.5 A1.6 1.6 0 1 1 541 492.6" fill="none" stroke="#3F6F86" stroke-width="1"/><path d="M545.9 495.4 C547.8 496.4 547.5 489.4 551 489.4 A3.2 3.2 0 1 1 550.4 494.5 A1.6 1.6 0 1 1 552 492.6" fill="none" stroke="#3F6F86" stroke-width="1"/><path d="M556.9 495.4 C558.8 496.4 558.5 489.4 562 489.4 A3.2 3.2 0 1 1 561.4 494.5 A1.6 1.6 0 1 1 563 492.6" fill="none" stroke="#3F6F86" stroke-width="1"/><path d="M567.9 495.4 C569.8 496.4 569.5 489.4 573 489.4 A3.2 3.2 0 1 1 572.4 494.5 A1.6 1.6 0 1 1 574 492.6" fill="none" stroke="#3F6F86" stroke-width="1"/><path d="M578.9 495.4 C580.8 496.4 580.5 489.4 584 489.4 A3.2 3.2 0 1 1 583.4 494.5 A1.6 1.6 0 1 1 585 492.6" fill="none" stroke="#3F6F86" stroke-width="1"/><path d="M589.9 495.4 C591.8 496.4 591.5 489.4 595 489.4 A3.2 3.2 0 1 1 594.4 494.5 A1.6 1.6 0 1 1 596 492.6" fill="none" stroke="#3F6F86" stroke-width="1"/><path d="M600.9 495.4 C602.8 496.4 602.5 489.4 606 489.4 A3.2 3.2 0 1 1 605.4 494.5 A1.6 1.6 0 1 1 607 492.6" fill="none" stroke="#3F6F86" stroke-width="1"/><path d="M611.9 495.4 C613.8 496.4 613.5 489.4 617 489.4 A3.2 3.2 0 1 1 616.4 494.5 A1.6 1.6 0 1 1 618 492.6" fill="none" stroke="#3F6F86" stroke-width="1"/><path d="M622.9 495.4 C624.8 496.4 624.5 489.4 628 489.4 A3.2 3.2 0 1 1 627.4 494.5 A1.6 1.6 0 1 1 629 492.6" fill="none" stroke="#3F6F86" stroke-width="1"/><path d="M633.9 495.4 C635.8 496.4 635.5 489.4 639 489.4 A3.2 3.2 0 1 1 638.4 494.5 A1.6 1.6 0 1 1 640 492.6" fill="none" stroke="#3F6F86" stroke-width="1"/><path d="M644.9 495.4 C646.8 496.4 646.5 489.4 650 489.4 A3.2 3.2 0 1 1 649.4 494.5 A1.6 1.6 0 1 1 651 492.6" fill="none" stroke="#3F6F86" stroke-width="1"/><path d="M655.9 495.4 C657.8 496.4 657.5 489.4 661 489.4 A3.2 3.2 0 1 1 660.4 494.5 A1.6 1.6 0 1 1 662 492.6" fill="none" stroke="#3F6F86" stroke-width="1"/><path d="M666.9 495.4 C668.8 496.4 668.5 489.4 672 489.4 A3.2 3.2 0 1 1 671.4 494.5 A1.6 1.6 0 1 1 673 492.6" fill="none" stroke="#3F6F86" stroke-width="1"/><path d="M677.9 495.4 C679.8 496.4 679.5 489.4 683 489.4 A3.2 3.2 0 1 1 682.4 494.5 A1.6 1.6 0 1 1 684 492.6" fill="none" stroke="#3F6F86" stroke-width="1"/><path d="M688.9 495.4 C690.8 496.4 690.5 489.4 694 489.4 A3.2 3.2 0 1 1 693.4 494.5 A1.6 1.6 0 1 1 695 492.6" fill="none" stroke="#3F6F86" stroke-width="1"/><path d="M699.9 495.4 C701.8 496.4 701.5 489.4 705 489.4 A3.2 3.2 0 1 1 704.4 494.5 A1.6 1.6 0 1 1 706 492.6" fill="none" stroke="#3F6F86" stroke-width="1"/><path d="M710.9 495.4 C712.8 496.4 712.5 489.4 716 489.4 A3.2 3.2 0 1 1 715.4 494.5 A1.6 1.6 0 1 1 717 492.6" fill="none" stroke="#3F6F86" stroke-width="1"/><path d="M721.9 495.4 C723.8 496.4 723.5 489.4 727 489.4 A3.2 3.2 0 1 1 726.4 494.5 A1.6 1.6 0 1 1 728 492.6" fill="none" stroke="#3F6F86" stroke-width="1"/>
    <path d="M215.5 530.5 C215.2 529.3 208.5 525.4 205 524.5 C201.5 523.6 190.1 522.6 185.5 523 C180.9 523.4 169.5 526.1 166 527.5 C162.5 528.9 157.8 534.6 155.5 535 C153.2 535.4 147.2 530 146.5 530.5 C145.8 531 147.9 538.3 149.5 539.5 C151.1 540.7 157.2 541.4 160 541 C162.8 540.6 170.2 537 173.5 536.5 C176.8 536 185.9 535.8 188.5 536.5 C191.1 537.2 194.8 542.5 196 542.5 C197.2 542.5 197.6 537.4 199 536.5 C200.4 535.6 206.1 535.7 208 535 C209.9 534.3 215.8 531.7 215.5 530.5 Z" fill="#3F6F86" stroke="#263E48" stroke-width="0.8" stroke-linejoin="round" stroke-linecap="round" opacity="0.95"/>
    <path d="M211 532 C208.6 532.2 198.4 533.5 193 533.5 C187.6 533.5 173.5 532.2 170.5 532" fill="none" stroke="#90A5A7" stroke-width="1.2" stroke-linejoin="round" stroke-linecap="round" opacity="0.8"/>
    <circle cx="209.5" cy="529" r="1.2" fill="#14120E"/>
    <path d="M336.5 514 C336.1 512.8 329.5 508.9 326 508 C322.5 507.1 311.1 506.1 306.5 506.5 C301.9 506.9 290.5 509.6 287 511 C283.5 512.4 278.8 518.1 276.5 518.5 C274.2 518.9 268.2 513.5 267.5 514 C266.8 514.5 268.9 521.8 270.5 523 C272.1 524.2 278.2 524.9 281 524.5 C283.8 524.1 291.2 520.5 294.5 520 C297.8 519.5 306.9 519.3 309.5 520 C312.1 520.7 315.8 526 317 526 C318.2 526 318.6 520.9 320 520 C321.4 519.1 327.1 519.2 329 518.5 C330.9 517.8 336.9 515.2 336.5 514 Z" fill="#3F6F86" stroke="#263E48" stroke-width="0.8" stroke-linejoin="round" stroke-linecap="round" opacity="0.95"/>
    <path d="M332 515.5 C329.6 515.7 319.4 517 314 517 C308.6 517 294.5 515.7 291.5 515.5" fill="none" stroke="#90A5A7" stroke-width="1.2" stroke-linejoin="round" stroke-linecap="round" opacity="0.8"/>
    <circle cx="330.5" cy="512.5" r="1.2" fill="#14120E"/>
    <path d="M551 525 C551.4 523.8 558 519.9 561.5 519 C565 518.1 576.5 517.1 581 517.5 C585.5 517.9 597 520.6 600.5 522 C604 523.4 608.7 529.1 611 529.5 C613.3 529.9 619.3 524.5 620 525 C620.7 525.5 618.6 532.8 617 534 C615.4 535.2 609.3 535.9 606.5 535.5 C603.7 535.1 596.3 531.5 593 531 C589.7 530.5 580.6 530.3 578 531 C575.4 531.7 571.7 537 570.5 537 C569.3 537 568.9 531.9 567.5 531 C566.1 530.1 560.4 530.2 558.5 529.5 C556.6 528.8 550.6 526.2 551 525 Z" fill="#3F6F86" stroke="#263E48" stroke-width="0.8" stroke-linejoin="round" stroke-linecap="round" opacity="0.95"/>
    <path d="M555.5 526.5 C557.9 526.7 568.1 528 573.5 528 C578.9 528 593 526.7 596 526.5" fill="none" stroke="#90A5A7" stroke-width="1.2" stroke-linejoin="round" stroke-linecap="round" opacity="0.8"/>
    <circle cx="557" cy="523.5" r="1.2" fill="#14120E"/>
    <rect x="138.5" y="646" width="5.5" height="27.5" fill="#5A3E28" stroke="#2C2015" stroke-width="0.6"/>
    <rect x="210" y="646" width="5.5" height="27.5" fill="#5A3E28" stroke="#2C2015" stroke-width="0.6"/>
    <rect x="135.8" y="646" width="82.5" height="8.2" fill="url(#g7)" stroke="#2C2015" stroke-width="0.7"/>
    <rect x="138.5" y="639.4" width="77" height="6.6" fill="#CFC3A2" stroke="#6E6856" stroke-width="0.7"/>
    <rect x="149.5" y="635" width="38.5" height="4.4" fill="#B8AC8E" stroke="#6E6856" stroke-width="0.6"/>
    <rect x="128.6" y="602" width="9.9" height="52.2" fill="#5A3E28" stroke="#2C2015" stroke-width="0.7"/>
    <rect x="569.7" y="547" width="6.6" height="126.5" fill="url(#g8)" stroke="#2C2015" stroke-width="0.7"/>
    <rect x="690.7" y="547" width="6.6" height="126.5" fill="url(#g8)" stroke="#2C2015" stroke-width="0.7"/>
    <rect x="567.5" y="547" width="132" height="6.6" fill="#5A3E28" stroke="#2C2015" stroke-width="0.7"/>
    <path d="M579.6 553.6 L687.4 553.6 L687.4 629.5 L579.6 629.5 Z" fill="#CFC3A2" stroke="#6E6856" stroke-width="0.6" stroke-linejoin="round" stroke-linecap="round" opacity="0.9"/>
    <rect x="579.6" y="561.3" width="107.8" height="-3.3" fill="#6E4A3A" opacity="0.85"/>
    <rect x="579.6" y="569" width="107.8" height="-3.3" fill="#8E3F2C" opacity="0.85"/>
    <rect x="579.6" y="576.7" width="107.8" height="-3.3" fill="#6E4A3A" opacity="0.85"/>
    <rect x="579.6" y="584.4" width="107.8" height="-3.3" fill="#8E3F2C" opacity="0.85"/>
    <line x1="584" y1="591" x2="584" y2="629.5" stroke="#8B836C" stroke-width="0.6" stroke-linecap="round" opacity="0.8"/>
    <path d="M581 627.8 l6 0 l1.5 9 l-9 0 z" fill="#A0603E" stroke="#573624" stroke-width="0.5" stroke-linejoin="round" stroke-linecap="round"/>
    <line x1="591.4" y1="591" x2="591.4" y2="629.5" stroke="#8B836C" stroke-width="0.6" stroke-linecap="round" opacity="0.8"/>
    <path d="M588.4 627.8 l6 0 l1.5 9 l-9 0 z" fill="#A0603E" stroke="#573624" stroke-width="0.5" stroke-linejoin="round" stroke-linecap="round"/>
    <line x1="598.9" y1="591" x2="598.9" y2="629.5" stroke="#8B836C" stroke-width="0.6" stroke-linecap="round" opacity="0.8"/>
    <path d="M595.9 627.8 l6 0 l1.5 9 l-9 0 z" fill="#A0603E" stroke="#573624" stroke-width="0.5" stroke-linejoin="round" stroke-linecap="round"/>
    <line x1="606.3" y1="591" x2="606.3" y2="629.5" stroke="#8B836C" stroke-width="0.6" stroke-linecap="round" opacity="0.8"/>
    <path d="M603.3 627.8 l6 0 l1.5 9 l-9 0 z" fill="#A0603E" stroke="#573624" stroke-width="0.5" stroke-linejoin="round" stroke-linecap="round"/>
    <line x1="613.7" y1="591" x2="613.7" y2="629.5" stroke="#8B836C" stroke-width="0.6" stroke-linecap="round" opacity="0.8"/>
    <path d="M610.7 627.8 l6 0 l1.5 9 l-9 0 z" fill="#A0603E" stroke="#573624" stroke-width="0.5" stroke-linejoin="round" stroke-linecap="round"/>
    <line x1="621.1" y1="591" x2="621.1" y2="629.5" stroke="#8B836C" stroke-width="0.6" stroke-linecap="round" opacity="0.8"/>
    <path d="M618.1 627.8 l6 0 l1.5 9 l-9 0 z" fill="#A0603E" stroke="#573624" stroke-width="0.5" stroke-linejoin="round" stroke-linecap="round"/>
    <line x1="628.5" y1="591" x2="628.5" y2="629.5" stroke="#8B836C" stroke-width="0.6" stroke-linecap="round" opacity="0.8"/>
    <path d="M625.5 627.8 l6 0 l1.5 9 l-9 0 z" fill="#A0603E" stroke="#573624" stroke-width="0.5" stroke-linejoin="round" stroke-linecap="round"/>
    <line x1="636" y1="591" x2="636" y2="629.5" stroke="#8B836C" stroke-width="0.6" stroke-linecap="round" opacity="0.8"/>
    <path d="M633 627.8 l6 0 l1.5 9 l-9 0 z" fill="#A0603E" stroke="#573624" stroke-width="0.5" stroke-linejoin="round" stroke-linecap="round"/>
    <line x1="643.4" y1="591" x2="643.4" y2="629.5" stroke="#8B836C" stroke-width="0.6" stroke-linecap="round" opacity="0.8"/>
    <path d="M640.4 627.8 l6 0 l1.5 9 l-9 0 z" fill="#A0603E" stroke="#573624" stroke-width="0.5" stroke-linejoin="round" stroke-linecap="round"/>
    <line x1="650.8" y1="591" x2="650.8" y2="629.5" stroke="#8B836C" stroke-width="0.6" stroke-linecap="round" opacity="0.8"/>
    <path d="M647.8 627.8 l6 0 l1.5 9 l-9 0 z" fill="#A0603E" stroke="#573624" stroke-width="0.5" stroke-linejoin="round" stroke-linecap="round"/>
    <line x1="658.2" y1="591" x2="658.2" y2="629.5" stroke="#8B836C" stroke-width="0.6" stroke-linecap="round" opacity="0.8"/>
    <path d="M655.2 627.8 l6 0 l1.5 9 l-9 0 z" fill="#A0603E" stroke="#573624" stroke-width="0.5" stroke-linejoin="round" stroke-linecap="round"/>
    <line x1="665.7" y1="591" x2="665.7" y2="629.5" stroke="#8B836C" stroke-width="0.6" stroke-linecap="round" opacity="0.8"/>
    <path d="M662.7 627.8 l6 0 l1.5 9 l-9 0 z" fill="#A0603E" stroke="#573624" stroke-width="0.5" stroke-linejoin="round" stroke-linecap="round"/>
    <line x1="673.1" y1="591" x2="673.1" y2="629.5" stroke="#8B836C" stroke-width="0.6" stroke-linecap="round" opacity="0.8"/>
    <path d="M670.1 627.8 l6 0 l1.5 9 l-9 0 z" fill="#A0603E" stroke="#573624" stroke-width="0.5" stroke-linejoin="round" stroke-linecap="round"/>
    <line x1="680.5" y1="591" x2="680.5" y2="629.5" stroke="#8B836C" stroke-width="0.6" stroke-linecap="round" opacity="0.8"/>
    <path d="M677.5 627.8 l6 0 l1.5 9 l-9 0 z" fill="#A0603E" stroke="#573624" stroke-width="0.5" stroke-linejoin="round" stroke-linecap="round"/>
    <rect x="619.8" y="648.8" width="27.5" height="24.8" fill="url(#g7)" stroke="#2C2015" stroke-width="0.7"/>
    <path d="M100 491.5 L127.5 491.5 L127.5 420.5 L100 420.5 Z" fill="#3A332A" stroke="#0E0C09" stroke-width="1.2" stroke-linejoin="round" stroke-linecap="round"/>
    <g clip-path="url(#c9)"><g stroke="#635C4C" stroke-width=".8" opacity="0.7"><line x1="29.1" y1="491.5" x2="100" y2="420.5"/><line x1="34.1" y1="491.5" x2="105" y2="420.5"/><line x1="39.1" y1="491.5" x2="110" y2="420.5"/><line x1="44.1" y1="491.5" x2="115" y2="420.5"/><line x1="49.1" y1="491.5" x2="120" y2="420.5"/><line x1="54.1" y1="491.5" x2="125" y2="420.5"/><line x1="59.1" y1="491.5" x2="130" y2="420.5"/><line x1="64.1" y1="491.5" x2="135" y2="420.5"/><line x1="69.1" y1="491.5" x2="140" y2="420.5"/><line x1="74.1" y1="491.5" x2="145" y2="420.5"/><line x1="79.1" y1="491.5" x2="150" y2="420.5"/><line x1="84.1" y1="491.5" x2="155" y2="420.5"/><line x1="89.1" y1="491.5" x2="160" y2="420.5"/><line x1="94.1" y1="491.5" x2="165" y2="420.5"/><line x1="99.1" y1="491.5" x2="170" y2="420.5"/><line x1="104.1" y1="491.5" x2="175" y2="420.5"/><line x1="109.1" y1="491.5" x2="180" y2="420.5"/><line x1="114.1" y1="491.5" x2="185" y2="420.5"/><line x1="119.1" y1="491.5" x2="190" y2="420.5"/><line x1="124.1" y1="491.5" x2="195" y2="420.5"/></g></g>
    <path d="M732.5 491.5 L760 491.5 L760 420.5 L732.5 420.5 Z" fill="#3A332A" stroke="#0E0C09" stroke-width="1.2" stroke-linejoin="round" stroke-linecap="round"/>
    <g clip-path="url(#c10)"><g stroke="#635C4C" stroke-width=".8" opacity="0.7"><line x1="661.5" y1="491.5" x2="732.5" y2="420.5"/><line x1="666.5" y1="491.5" x2="737.5" y2="420.5"/><line x1="671.5" y1="491.5" x2="742.5" y2="420.5"/><line x1="676.5" y1="491.5" x2="747.5" y2="420.5"/><line x1="681.5" y1="491.5" x2="752.5" y2="420.5"/><line x1="686.5" y1="491.5" x2="757.5" y2="420.5"/><line x1="691.5" y1="491.5" x2="762.5" y2="420.5"/><line x1="696.5" y1="491.5" x2="767.5" y2="420.5"/><line x1="701.5" y1="491.5" x2="772.5" y2="420.5"/><line x1="706.5" y1="491.5" x2="777.5" y2="420.5"/><line x1="711.5" y1="491.5" x2="782.5" y2="420.5"/><line x1="716.5" y1="491.5" x2="787.5" y2="420.5"/><line x1="721.5" y1="491.5" x2="792.5" y2="420.5"/><line x1="726.5" y1="491.5" x2="797.5" y2="420.5"/><line x1="731.5" y1="491.5" x2="802.5" y2="420.5"/><line x1="736.5" y1="491.5" x2="807.5" y2="420.5"/><line x1="741.5" y1="491.5" x2="812.5" y2="420.5"/><line x1="746.5" y1="491.5" x2="817.5" y2="420.5"/><line x1="751.5" y1="491.5" x2="822.5" y2="420.5"/><line x1="756.5" y1="491.5" x2="827.5" y2="420.5"/></g></g>
    <g transform="translate(340.5 501) scale(0.25000)" fill="#DCD2BA" opacity=".5"><ellipse cx="160" cy="320" rx="20" ry="26"/><path d="M160 346 C138 350 126 360 124 380 L118 500 L130 502 L138 410 L140 520 L142 690 L156 690 L160 540 L164 690 L178 690 L180 520 L182 410 L190 502 L202 500 L196 380 C194 360 182 350 160 346 Z"/></g>
    <rect x="800" y="170" width="360" height="360" fill="#1B1813" stroke="#635C4C" stroke-width="1"/>
    <g stroke="#635C4C" stroke-width="1"><line x1="800" y1="530" x2="800" y2="536"/><line x1="800" y1="530" x2="794" y2="530"/><line x1="830" y1="530" x2="830" y2="533"/><line x1="800" y1="500" x2="797" y2="500"/><line x1="860" y1="530" x2="860" y2="533"/><line x1="800" y1="470" x2="797" y2="470"/><line x1="890" y1="530" x2="890" y2="533"/><line x1="800" y1="440" x2="797" y2="440"/><line x1="920" y1="530" x2="920" y2="533"/><line x1="800" y1="410" x2="797" y2="410"/><line x1="950" y1="530" x2="950" y2="533"/><line x1="800" y1="380" x2="797" y2="380"/><line x1="980" y1="530" x2="980" y2="536"/><line x1="800" y1="350" x2="794" y2="350"/><line x1="1010" y1="530" x2="1010" y2="533"/><line x1="800" y1="320" x2="797" y2="320"/><line x1="1040" y1="530" x2="1040" y2="533"/><line x1="800" y1="290" x2="797" y2="290"/><line x1="1070" y1="530" x2="1070" y2="533"/><line x1="800" y1="260" x2="797" y2="260"/><line x1="1100" y1="530" x2="1100" y2="533"/><line x1="800" y1="230" x2="797" y2="230"/><line x1="1130" y1="530" x2="1130" y2="533"/><line x1="800" y1="200" x2="797" y2="200"/><line x1="1160" y1="530" x2="1160" y2="536"/><line x1="800" y1="170" x2="794" y2="170"/></g>
    <path d="M1187 180 l6 16 l-6 -4 l-6 4 z" fill="#9A9078"/>
    <rect x="800" y="170" width="360" height="360" fill="#2E2719"/>
    <rect x="800" y="170" width="360" height="15" fill="#3A332A" stroke="#24201A" stroke-width="0.8"/>
    <rect x="800" y="515" width="360" height="15" fill="#3A332A" stroke="#24201A" stroke-width="0.8"/>
    <rect x="800" y="185" width="15" height="330" fill="#3A332A" stroke="#24201A" stroke-width="0.8"/>
    <rect x="1145" y="185" width="15" height="330" fill="#3A332A" stroke="#24201A" stroke-width="0.8"/>
    <rect x="800" y="170" width="360" height="3.6" fill="#8E3F2C"/>
    <rect x="800" y="526.4" width="360" height="3.6" fill="#8E3F2C"/>
    <rect x="941" y="170" width="78" height="15.6" fill="#2E2719"/>
    <rect x="941" y="514.4" width="78" height="15.6" fill="#2E2719"/>
    <rect x="800" y="311" width="15.6" height="78" fill="#2E2719"/>
    <rect x="1144.4" y="311" width="15.6" height="78" fill="#2E2719"/>
    <rect x="932" y="185" width="96" height="330" fill="#9A9078" fill-opacity=".05" stroke="#9A9078" stroke-opacity=".35" stroke-width=".8" stroke-dasharray="4 4"/>
    <rect x="815" y="302" width="330" height="96" fill="#9A9078" fill-opacity=".05" stroke="#9A9078" stroke-opacity=".35" stroke-width=".8" stroke-dasharray="4 4"/>
    <rect x="872" y="212" width="48" height="72" fill="#6E4A3A" opacity="0.7"/>
    <rect x="821" y="200" width="42" height="66" fill="#5A3E28" stroke="#0E0C09" stroke-width="0.6"/>
    <rect x="822.5" y="207.5" width="39" height="57" fill="#CFC3A2" stroke="#0E0C09" stroke-width="0.6"/>
    <rect x="828.5" y="204.5" width="27" height="15" fill="#B8AC8E" stroke="#0E0C09" stroke-width="0.6"/>
    <rect x="815" y="200" width="6" height="66" fill="#4B3422"/>
    <rect x="1056.5" y="189.5" width="69" height="9" fill="#CFC3A2" stroke="#0E0C09" stroke-width="0.6"/>
    <rect x="1055.9" y="191.9" width="4.2" height="4.2" fill="#5A3E28" stroke="#0E0C09" stroke-width="0.6"/>
    <rect x="1121.9" y="191.9" width="4.2" height="4.2" fill="#5A3E28" stroke="#0E0C09" stroke-width="0.6"/>
    <rect x="1083.5" y="216.5" width="15" height="15" fill="#5A3E28" stroke="#0E0C09" stroke-width="0.6"/>
    <circle cx="1049" cy="224" r="7.5" fill="#6E4A3A" stroke="#0E0C09" stroke-width="0.6"/>
    <circle cx="1106" cy="476" r="18" fill="#A0603E" stroke="#0E0C09" stroke-width="0.8"/>
    <circle cx="1106" cy="476" r="12" fill="#C4542E" opacity="0.85"/>
    <rect x="1130" y="404" width="15" height="48" fill="#D8CDB2" stroke="#0E0C09" stroke-width="0.6"/>
    <rect x="830" y="488" width="30" height="18" fill="#5A3E28" stroke="#0E0C09" stroke-width="0.6"/>
    <rect x="830" y="496.1" width="30" height="1.8" fill="#9B6A38"/>
    <rect x="888.5" y="486.5" width="27" height="15" fill="#7A6A58" stroke="#0E0C09" stroke-width="0.6"/>
    <circle cx="894.5" cy="494" r="1.8" fill="#3F6F86"/>
    <circle cx="902" cy="494" r="1.8" fill="#3F6F86"/>
    <circle cx="909.5" cy="494" r="1.8" fill="#3F6F86"/>
    <path d="M842 228 l5 5 l-5 5 l-5 -5 z" fill="#C9A227" stroke="#14120E" stroke-width=".8"/>
    <text x="849" y="236.5" font-family="Overpass Mono, monospace" font-size="8.5" fill="#C9A227" stroke="#14120E" stroke-width="2.4" paint-order="stroke">L1</text>
    <path d="M1091 219 l5 5 l-5 5 l-5 -5 z" fill="#C9A227" stroke="#14120E" stroke-width=".8"/>
    <text x="1098" y="227.5" font-family="Overpass Mono, monospace" font-size="8.5" fill="#C9A227" stroke="#14120E" stroke-width="2.4" paint-order="stroke">L2</text>
    <path d="M845 492 l5 5 l-5 5 l-5 -5 z" fill="#C9A227" stroke="#14120E" stroke-width=".8"/>
    <text x="852" y="500.5" font-family="Overpass Mono, monospace" font-size="8.5" fill="#C9A227" stroke="#14120E" stroke-width="2.4" paint-order="stroke">L3</text>
    <path d="M902 489 l5 5 l-5 5 l-5 -5 z" fill="#C9A227" stroke="#14120E" stroke-width=".8"/>
    <text x="909" y="497.5" font-family="Overpass Mono, monospace" font-size="8.5" fill="#C9A227" stroke="#14120E" stroke-width="2.4" paint-order="stroke">L4</text>
    <path d="M1137.5 423 l5 5 l-5 5 l-5 -5 z" fill="#C9A227" stroke="#14120E" stroke-width=".8"/>
    <text x="1144.5" y="431.5" font-family="Overpass Mono, monospace" font-size="8.5" fill="#C9A227" stroke="#14120E" stroke-width="2.4" paint-order="stroke">L5</text>
    <line x1="782" y1="350" x2="1178" y2="350" stroke="#9A9078" stroke-width="0.8" stroke-linecap="round" stroke-dasharray="8 3 2 3"/>
    <path d="M782 350 l0 -10 l-4 5 m4 -5 l4 5" fill="none" stroke="#9A9078" stroke-width="1" stroke-linejoin="round" stroke-linecap="round"/>
    <path d="M1178 350 l0 -10 l-4 5 m4 -5 l4 5" fill="none" stroke="#9A9078" stroke-width="1" stroke-linejoin="round" stroke-linecap="round"/>
  </g>
  <g id="callouts" font-family="Overpass Mono, monospace">
    <text x="430" y="486.5" font-family="Overpass Mono, monospace" font-size="8.5" fill="#635C4C" text-anchor="middle">ARCHWAY 2.60 × 3.31</text>
    <text x="380.5" y="568.5" font-family="Overpass Mono, monospace" font-size="9" fill="#9A9078" text-anchor="middle">1.80 m</text>
    <path d="M551 525 L590 186 L604 186" fill="none" stroke="#9A9078" stroke-width=".8" opacity=".85"/>
    <circle cx="551" cy="525" r="2.6" fill="#DCD2BA" stroke="#14120E" stroke-width="1"/>
    <text x="610" y="190" font-family="Overpass Mono, monospace" font-size="12" fill="#DCD2BA">DOLPHIN FRESCO</text>
    <text x="610" y="204" font-family="Overpass Mono, monospace" font-size="10.5" fill="#9A9078">1.60–3.20 m, sea band</text>
    <path d="M633.5 585.5 L590 256 L604 256" fill="none" stroke="#9A9078" stroke-width=".8" opacity=".85"/>
    <circle cx="633.5" cy="585.5" r="2.6" fill="#DCD2BA" stroke="#14120E" stroke-width="1"/>
    <text x="610" y="260" font-family="Overpass Mono, monospace" font-size="12" fill="#DCD2BA">WARP-WEIGHTED LOOM</text>
    <text x="610" y="274" font-family="Overpass Mono, monospace" font-size="10.5" fill="#9A9078">2.30 m frame, clay weights</text>
    <path d="M633.5 657 L590 326 L604 326" fill="none" stroke="#9A9078" stroke-width=".8" opacity=".85"/>
    <circle cx="633.5" cy="657" r="2.6" fill="#DCD2BA" stroke="#14120E" stroke-width="1"/>
    <text x="610" y="330" font-family="Overpass Mono, monospace" font-size="12" fill="#DCD2BA">WEAVER'S STOOL</text>
    <text x="610" y="344" font-family="Overpass Mono, monospace" font-size="10.5" fill="#9A9078">0.45 m · loot</text>
    <path d="M130.2 613 L350 216 L336 216" fill="none" stroke="#9A9078" stroke-width=".8" opacity=".85"/>
    <circle cx="130.2" cy="613" r="2.6" fill="#DCD2BA" stroke="#14120E" stroke-width="1"/>
    <text x="330" y="220" font-family="Overpass Mono, monospace" font-size="12" fill="#DCD2BA" text-anchor="end">HEADBOARD</text>
    <text x="330" y="234" font-family="Overpass Mono, monospace" font-size="10.5" fill="#9A9078" text-anchor="end">cypress, against the west wall</text>
    <path d="M177 640.5 L350 296 L336 296" fill="none" stroke="#9A9078" stroke-width=".8" opacity=".85"/>
    <circle cx="177" cy="640.5" r="2.6" fill="#DCD2BA" stroke="#14120E" stroke-width="1"/>
    <text x="330" y="300" font-family="Overpass Mono, monospace" font-size="12" fill="#DCD2BA" text-anchor="end">THE QUEEN'S BED</text>
    <text x="330" y="314" font-family="Overpass Mono, monospace" font-size="10.5" fill="#9A9078" text-anchor="end">1.40 × 2.20 m, linen, fleece</text>
    <text x="496" y="454.6" font-family="Overpass Mono, monospace" font-size="9" fill="#DCD2BA" text-anchor="middle">4.60 clear · open roof</text>
    <text x="800" y="548" font-family="Overpass Mono, monospace" font-size="9" fill="#635C4C" text-anchor="middle">0</text>
    <text x="980" y="548" font-family="Overpass Mono, monospace" font-size="9" fill="#635C4C" text-anchor="middle">6</text>
    <text x="1160" y="548" font-family="Overpass Mono, monospace" font-size="9" fill="#635C4C" text-anchor="middle">12 m</text>
    <text x="1187" y="210" font-family="Overpass Mono, monospace" font-size="10" fill="#9A9078" text-anchor="middle">N</text>
    <text x="782" y="362" font-family="Overpass Mono, monospace" font-size="9" fill="#9A9078" text-anchor="middle">A</text>
    <text x="1178" y="362" font-family="Overpass Mono, monospace" font-size="9" fill="#9A9078" text-anchor="middle">A</text>
    <text x="980" y="213.5" font-family="Overpass Mono, monospace" font-size="9.5" fill="#DCD2BA" text-anchor="middle" letter-spacing="1">ARCHWAY N 2.60 × 3.31</text>
    <text x="980" y="495.5" font-family="Overpass Mono, monospace" font-size="9.5" fill="#DCD2BA" text-anchor="middle" letter-spacing="1">ARCHWAY S 2.60 × 3.31</text>
    <text x="1091" y="248" font-family="Overpass Mono, monospace" font-size="9.5" fill="#DCD2BA" text-anchor="middle" letter-spacing="1">LOOM</text>
    <text x="1106" y="446" font-family="Overpass Mono, monospace" font-size="9.5" fill="#DCD2BA" text-anchor="middle" letter-spacing="1">HEARTH</text>
    <text x="842" y="279.5" font-family="Overpass Mono, monospace" font-size="9.5" fill="#DCD2BA" text-anchor="middle" letter-spacing="1">BED</text>
    <text x="800" y="585" font-family="Overpass Mono, monospace" font-size="9.5" fill="#DCD2BA" letter-spacing="1">ARCHWAYS</text>
    <text x="892" y="585" font-family="Overpass Mono, monospace" font-size="9.5" fill="#9A9078">4, centred · 2.60 × 3.31 · all open</text>
    <text x="800" y="600" font-family="Overpass Mono, monospace" font-size="9.5" fill="#DCD2BA" letter-spacing="1">CLEAR CROSS</text>
    <text x="892" y="600" font-family="Overpass Mono, monospace" font-size="9.5" fill="#9A9078">dashed · |x|,|y| &lt; 1.6 m kept free to 2 m</text>
    <text x="800" y="615" font-family="Overpass Mono, monospace" font-size="9.5" fill="#DCD2BA" letter-spacing="1">BED</text>
    <text x="892" y="615" font-family="Overpass Mono, monospace" font-size="9.5" fill="#9A9078">NW, head to the west wall · rug before it</text>
    <text x="800" y="630" font-family="Overpass Mono, monospace" font-size="9.5" fill="#DCD2BA" letter-spacing="1">LOOM</text>
    <text x="892" y="630" font-family="Overpass Mono, monospace" font-size="9.5" fill="#9A9078">NE, against the north wall · stool, wool</text>
    <text x="800" y="645" font-family="Overpass Mono, monospace" font-size="9.5" fill="#DCD2BA" letter-spacing="1">LOOT</text>
    <text x="892" y="645" font-family="Overpass Mono, monospace" font-size="9.5" fill="#9A9078">L1–L5: bed, stool, chest, dressing table, bench</text>
  </g>
  <g id="palette" font-family="Overpass Mono, monospace" font-size="10" fill="#9A9078">
    <rect x="40" y="748" width="34" height="18" fill="#C9A77A" stroke="#332D22" stroke-width=".6"/><text x="80" y="761">#C9A77A plaster</text>
    <rect x="200" y="748" width="34" height="18" fill="#3F6F86" stroke="#332D22" stroke-width=".6"/><text x="240" y="761">#3F6F86 fresco</text>
    <rect x="360" y="748" width="34" height="18" fill="#8E3F2C" stroke="#332D22" stroke-width=".6"/><text x="400" y="761">#8E3F2C haematite</text>
    <rect x="520" y="748" width="34" height="18" fill="#5A3E28" stroke="#332D22" stroke-width=".6"/><text x="560" y="761">#5A3E28 cypress</text>
    <rect x="680" y="748" width="34" height="18" fill="#CFC3A2" stroke="#332D22" stroke-width=".6"/><text x="720" y="761">#CFC3A2 linen</text>
    <rect x="840" y="748" width="34" height="18" fill="#6E4A3A" stroke="#332D22" stroke-width=".6"/><text x="880" y="761">#6E4A3A wool</text>
    <rect x="1000" y="748" width="34" height="18" fill="#A0603E" stroke="#332D22" stroke-width=".6"/><text x="1040" y="761">#A0603E clay</text>
  </g>
</svg>
