<svg xmlns="http://www.w3.org/2000/svg" viewBox="0 0 1200 800" width="1200" height="800">
  <!-- Plunderspell castle room sheet · THE BRONZE AGE · CASTLE ROOM · KEEP · generated. Rules: docs/art/rooms/README.md -->
  <defs>
    <pattern id="grid" width="55" height="55" patternUnits="userSpaceOnUse" x="0" y="690"><path d="M55 0 H0 V55" fill="none" stroke="#262119" stroke-width="1"/></pattern>
    <radialGradient id="glow" cx="50%" cy="70%" r="60%"><stop offset="0" stop-color="#2A2012" stop-opacity=".9"/><stop offset="1" stop-color="#14120E" stop-opacity="0"/></radialGradient>
    <radialGradient id="r1" cx="0.5" cy="0.5" r="0.5"><stop offset="0" stop-color="#C4542E" stop-opacity="0.35"/><stop offset="0.35" stop-color="#72341D" stop-opacity="0.26249999999999996"/><stop offset="1" stop-color="#14120E" stop-opacity="0"/></radialGradient>
    <linearGradient id="g2" x1="0" y1="0" x2="0" y2="1"><stop offset="0" stop-color="#867764"/><stop offset="0.38" stop-color="#7A6A58"/><stop offset="1" stop-color="#4F4438"/></linearGradient>
    <linearGradient id="g3" x1="0" y1="0" x2="0" y2="1"><stop offset="0" stop-color="#BD8A4D"/><stop offset="0.38" stop-color="#B7803E"/><stop offset="1" stop-color="#624624"/></linearGradient>
    <linearGradient id="g4" x1="0" y1="0" x2="0" y2="1"><stop offset="0" stop-color="#2B231B"/><stop offset="0.45" stop-color="#2B231B"/><stop offset="1" stop-color="#B7803E"/></linearGradient>
    <clipPath id="c5"><path d="M127.5 673.5 L732.5 673.5 L732.5 420.5 L127.5 420.5 Z"/></clipPath>
    <linearGradient id="g6" x1="0" y1="0" x2="0" y2="1"><stop offset="0" stop-color="#A2614D"/><stop offset="0.38" stop-color="#8E3F2C"/><stop offset="1" stop-color="#4E261A"/></linearGradient>
    <linearGradient id="g7" x1="0" y1="0" x2="0" y2="1"><stop offset="0" stop-color="#806852"/><stop offset="0.38" stop-color="#5A3E28"/><stop offset="1" stop-color="#342518"/></linearGradient>
    <linearGradient id="g8" x1="0" y1="0" x2="1" y2="0"><stop offset="0" stop-color="#806852"/><stop offset="0.38" stop-color="#5A3E28"/><stop offset="1" stop-color="#342518"/></linearGradient>
    <linearGradient id="g9" x1="0" y1="0" x2="1" y2="0"><stop offset="0" stop-color="#E0D5BB"/><stop offset="0.38" stop-color="#D8CDB2"/><stop offset="1" stop-color="#736C5E"/></linearGradient>
    <clipPath id="c10"><path d="M127.5 541.5 L210 541.5 L210 530.5 L127.5 530.5 Z"/></clipPath>
    <linearGradient id="g11" x1="0" y1="0" x2="1" y2="0"><stop offset="0" stop-color="#B9966D"/><stop offset="0.38" stop-color="#9B6A38"/><stop offset="1" stop-color="#543B20"/></linearGradient>
    <clipPath id="c12"><path d="M100 491.5 L127.5 491.5 L127.5 420.5 L100 420.5 Z"/></clipPath>
    <clipPath id="c13"><path d="M732.5 491.5 L760 491.5 L760 420.5 L732.5 420.5 Z"/></clipPath>
  </defs>
  <rect width="1200" height="800" fill="#14120E"/>
  <rect width="1200" height="800" fill="url(#glow)"/>
  <rect x="0" y="120" width="1200" height="570" fill="url(#grid)"/>
  <ellipse cx="639" cy="572" rx="260" ry="200" fill="url(#r1)"/>
  <line x1="40" y1="690" x2="1160" y2="690" stroke="#635C4C" stroke-width="1.5"/>
  <rect x="12" y="12" width="1176" height="776" fill="none" stroke="#332D22" stroke-width="1"/>
  <text x="40" y="54" font-family="Overpass Mono, monospace" font-size="12" letter-spacing="3" fill="#635C4C">THE BRONZE AGE · CASTLE ROOM · KEEP</text>
  <text x="40" y="96" font-family="Eczar, Georgia, serif" font-size="38" font-weight="700" fill="#DCD2BA">The Megaron Stair</text>
  <text x="1160" y="54" text-anchor="end" font-family="Overpass Mono, monospace" font-size="12" fill="#9A9078">12 × 12 m cell · clear 4.60 m · ≤ 1.6k tris (kit)</text>
  <text x="1160" y="76" text-anchor="end" font-family="Overpass Mono, monospace" font-size="12" fill="#9A9078">section 1 m = 55 px · plan 1 m = 30 px</text>
  <g font-family="Overpass Mono, monospace" font-size="10" fill="#635C4C" stroke="#635C4C"><line x1="60" y1="690" x2="60" y2="332" stroke-width="1"/><line x1="54" y1="673.5" x2="66" y2="673.5"/><text x="30" y="677.5" stroke="none">0</text><line x1="54" y1="618.5" x2="66" y2="618.5"/><text x="30" y="622.5" stroke="none">1</text><line x1="54" y1="563.5" x2="66" y2="563.5"/><text x="30" y="567.5" stroke="none">2</text><line x1="54" y1="508.5" x2="66" y2="508.5"/><text x="30" y="512.5" stroke="none">3</text><line x1="54" y1="453.5" x2="66" y2="453.5"/><text x="30" y="457.5" stroke="none">4</text><line x1="54" y1="398.5" x2="66" y2="398.5"/><text x="30" y="402.5" stroke="none">5</text><line x1="54" y1="343.5" x2="66" y2="343.5"/><text x="30" y="347.5" stroke="none">6</text><text x="24" y="319" stroke="none">m</text></g>
  <text x="430" y="730" text-anchor="middle" font-family="Overpass Mono, monospace" font-size="11" letter-spacing="3" fill="#635C4C">SECTION A–A · E–W THROUGH THE BRIDGE, LOOKING NORTH</text>
  <text x="980" y="156" text-anchor="middle" font-family="Overpass Mono, monospace" font-size="11" letter-spacing="3" fill="#635C4C">PLAN · 12 × 12 m CELL</text>
  <g id="drawing">
    <rect x="100" y="673.5" width="660" height="16.5" fill="url(#g2)" stroke="#393229" stroke-width="1"/>
    <path d="M127.5 673.5 L732.5 673.5 L732.5 420.5 L127.5 420.5 Z" fill="url(#g3)" stroke="#523A1E" stroke-width="1" stroke-linejoin="round" stroke-linecap="round"/>
    <g clip-path="url(#c5)"><rect x="127.5" y="420.5" width="605" height="66" fill="url(#g4)" opacity=".55"/></g>
    <rect x="358.5" y="491.5" width="143" height="182" fill="#14120E"/>
    <rect x="100" y="420.5" width="660" height="24.7" fill="url(#g6)" stroke="#412017" stroke-width="0.8"/>
    <rect x="501.5" y="508.5" width="231" height="88" fill="#D0B185" stroke="#6C5A42" stroke-width="0.8"/>
    <rect x="501.5" y="498.6" width="231" height="9.9" fill="#8E3F2C"/><path d="M501.9 506.4 C503.8 507.4 503.5 500.4 507 500.4 A3.2 3.2 0 1 1 506.4 505.5 A1.6 1.6 0 1 1 508 503.6" fill="none" stroke="#3F6F86" stroke-width="1"/><path d="M512.9 506.4 C514.8 507.4 514.5 500.4 518 500.4 A3.2 3.2 0 1 1 517.4 505.5 A1.6 1.6 0 1 1 519 503.6" fill="none" stroke="#3F6F86" stroke-width="1"/><path d="M523.9 506.4 C525.8 507.4 525.5 500.4 529 500.4 A3.2 3.2 0 1 1 528.4 505.5 A1.6 1.6 0 1 1 530 503.6" fill="none" stroke="#3F6F86" stroke-width="1"/><path d="M534.9 506.4 C536.8 507.4 536.5 500.4 540 500.4 A3.2 3.2 0 1 1 539.4 505.5 A1.6 1.6 0 1 1 541 503.6" fill="none" stroke="#3F6F86" stroke-width="1"/><path d="M545.9 506.4 C547.8 507.4 547.5 500.4 551 500.4 A3.2 3.2 0 1 1 550.4 505.5 A1.6 1.6 0 1 1 552 503.6" fill="none" stroke="#3F6F86" stroke-width="1"/><path d="M556.9 506.4 C558.8 507.4 558.5 500.4 562 500.4 A3.2 3.2 0 1 1 561.4 505.5 A1.6 1.6 0 1 1 563 503.6" fill="none" stroke="#3F6F86" stroke-width="1"/><path d="M567.9 506.4 C569.8 507.4 569.5 500.4 573 500.4 A3.2 3.2 0 1 1 572.4 505.5 A1.6 1.6 0 1 1 574 503.6" fill="none" stroke="#3F6F86" stroke-width="1"/><path d="M578.9 506.4 C580.8 507.4 580.5 500.4 584 500.4 A3.2 3.2 0 1 1 583.4 505.5 A1.6 1.6 0 1 1 585 503.6" fill="none" stroke="#3F6F86" stroke-width="1"/><path d="M589.9 506.4 C591.8 507.4 591.5 500.4 595 500.4 A3.2 3.2 0 1 1 594.4 505.5 A1.6 1.6 0 1 1 596 503.6" fill="none" stroke="#3F6F86" stroke-width="1"/><path d="M600.9 506.4 C602.8 507.4 602.5 500.4 606 500.4 A3.2 3.2 0 1 1 605.4 505.5 A1.6 1.6 0 1 1 607 503.6" fill="none" stroke="#3F6F86" stroke-width="1"/><path d="M611.9 506.4 C613.8 507.4 613.5 500.4 617 500.4 A3.2 3.2 0 1 1 616.4 505.5 A1.6 1.6 0 1 1 618 503.6" fill="none" stroke="#3F6F86" stroke-width="1"/><path d="M622.9 506.4 C624.8 507.4 624.5 500.4 628 500.4 A3.2 3.2 0 1 1 627.4 505.5 A1.6 1.6 0 1 1 629 503.6" fill="none" stroke="#3F6F86" stroke-width="1"/><path d="M633.9 506.4 C635.8 507.4 635.5 500.4 639 500.4 A3.2 3.2 0 1 1 638.4 505.5 A1.6 1.6 0 1 1 640 503.6" fill="none" stroke="#3F6F86" stroke-width="1"/><path d="M644.9 506.4 C646.8 507.4 646.5 500.4 650 500.4 A3.2 3.2 0 1 1 649.4 505.5 A1.6 1.6 0 1 1 651 503.6" fill="none" stroke="#3F6F86" stroke-width="1"/><path d="M655.9 506.4 C657.8 507.4 657.5 500.4 661 500.4 A3.2 3.2 0 1 1 660.4 505.5 A1.6 1.6 0 1 1 662 503.6" fill="none" stroke="#3F6F86" stroke-width="1"/><path d="M666.9 506.4 C668.8 507.4 668.5 500.4 672 500.4 A3.2 3.2 0 1 1 671.4 505.5 A1.6 1.6 0 1 1 673 503.6" fill="none" stroke="#3F6F86" stroke-width="1"/><path d="M677.9 506.4 C679.8 507.4 679.5 500.4 683 500.4 A3.2 3.2 0 1 1 682.4 505.5 A1.6 1.6 0 1 1 684 503.6" fill="none" stroke="#3F6F86" stroke-width="1"/><path d="M688.9 506.4 C690.8 507.4 690.5 500.4 694 500.4 A3.2 3.2 0 1 1 693.4 505.5 A1.6 1.6 0 1 1 695 503.6" fill="none" stroke="#3F6F86" stroke-width="1"/><path d="M699.9 506.4 C701.8 507.4 701.5 500.4 705 500.4 A3.2 3.2 0 1 1 704.4 505.5 A1.6 1.6 0 1 1 706 503.6" fill="none" stroke="#3F6F86" stroke-width="1"/><path d="M710.9 506.4 C712.8 507.4 712.5 500.4 716 500.4 A3.2 3.2 0 1 1 715.4 505.5 A1.6 1.6 0 1 1 717 503.6" fill="none" stroke="#3F6F86" stroke-width="1"/><path d="M721.9 506.4 C723.8 507.4 723.5 500.4 727 500.4 A3.2 3.2 0 1 1 726.4 505.5 A1.6 1.6 0 1 1 728 503.6" fill="none" stroke="#3F6F86" stroke-width="1"/>
    <rect x="501.5" y="584.4" width="231" height="12.1" fill="#848B80"/><path d="M502.1 593.9 C504.4 595.1 504 586.6 508.3 586.6 A3.9 3.9 0 1 1 507.5 592.8 A1.9 1.9 0 1 1 509.5 590.4" fill="none" stroke="#3F6F86" stroke-width="1"/><path d="M515.7 593.9 C518 595.1 517.6 586.6 521.9 586.6 A3.9 3.9 0 1 1 521.1 592.8 A1.9 1.9 0 1 1 523 590.4" fill="none" stroke="#3F6F86" stroke-width="1"/><path d="M529.3 593.9 C531.6 595.1 531.2 586.6 535.5 586.6 A3.9 3.9 0 1 1 534.7 592.8 A1.9 1.9 0 1 1 536.6 590.4" fill="none" stroke="#3F6F86" stroke-width="1"/><path d="M542.9 593.9 C545.2 595.1 544.8 586.6 549.1 586.6 A3.9 3.9 0 1 1 548.3 592.8 A1.9 1.9 0 1 1 550.2 590.4" fill="none" stroke="#3F6F86" stroke-width="1"/><path d="M556.5 593.9 C558.8 595.1 558.4 586.6 562.6 586.6 A3.9 3.9 0 1 1 561.9 592.8 A1.9 1.9 0 1 1 563.8 590.4" fill="none" stroke="#3F6F86" stroke-width="1"/><path d="M570 593.9 C572.4 595.1 572 586.6 576.2 586.6 A3.9 3.9 0 1 1 575.5 592.8 A1.9 1.9 0 1 1 577.4 590.4" fill="none" stroke="#3F6F86" stroke-width="1"/><path d="M583.6 593.9 C586 595.1 585.6 586.6 589.8 586.6 A3.9 3.9 0 1 1 589 592.8 A1.9 1.9 0 1 1 591 590.4" fill="none" stroke="#3F6F86" stroke-width="1"/><path d="M597.2 593.9 C599.5 595.1 599.2 586.6 603.4 586.6 A3.9 3.9 0 1 1 602.6 592.8 A1.9 1.9 0 1 1 604.6 590.4" fill="none" stroke="#3F6F86" stroke-width="1"/><path d="M610.8 593.9 C613.1 595.1 612.7 586.6 617 586.6 A3.9 3.9 0 1 1 616.2 592.8 A1.9 1.9 0 1 1 618.2 590.4" fill="none" stroke="#3F6F86" stroke-width="1"/><path d="M624.4 593.9 C626.7 595.1 626.3 586.6 630.6 586.6 A3.9 3.9 0 1 1 629.8 592.8 A1.9 1.9 0 1 1 631.7 590.4" fill="none" stroke="#3F6F86" stroke-width="1"/><path d="M638 593.9 C640.3 595.1 639.9 586.6 644.2 586.6 A3.9 3.9 0 1 1 643.4 592.8 A1.9 1.9 0 1 1 645.3 590.4" fill="none" stroke="#3F6F86" stroke-width="1"/><path d="M651.6 593.9 C653.9 595.1 653.5 586.6 657.8 586.6 A3.9 3.9 0 1 1 657 592.8 A1.9 1.9 0 1 1 658.9 590.4" fill="none" stroke="#3F6F86" stroke-width="1"/><path d="M665.2 593.9 C667.5 595.1 667.1 586.6 671.4 586.6 A3.9 3.9 0 1 1 670.6 592.8 A1.9 1.9 0 1 1 672.5 590.4" fill="none" stroke="#3F6F86" stroke-width="1"/><path d="M678.7 593.9 C681.1 595.1 680.7 586.6 684.9 586.6 A3.9 3.9 0 1 1 684.2 592.8 A1.9 1.9 0 1 1 686.1 590.4" fill="none" stroke="#3F6F86" stroke-width="1"/><path d="M692.3 593.9 C694.7 595.1 694.3 586.6 698.5 586.6 A3.9 3.9 0 1 1 697.8 592.8 A1.9 1.9 0 1 1 699.7 590.4" fill="none" stroke="#3F6F86" stroke-width="1"/><path d="M705.9 593.9 C708.2 595.1 707.9 586.6 712.1 586.6 A3.9 3.9 0 1 1 711.3 592.8 A1.9 1.9 0 1 1 713.3 590.4" fill="none" stroke="#3F6F86" stroke-width="1"/><path d="M719.5 593.9 C721.8 595.1 721.4 586.6 725.7 586.6 A3.9 3.9 0 1 1 724.9 592.8 A1.9 1.9 0 1 1 726.9 590.4" fill="none" stroke="#3F6F86" stroke-width="1"/>
    <rect x="127.5" y="530.5" width="203.5" height="11" fill="url(#g7)" stroke="#2C2015" stroke-width="0.8"/>
    <rect x="133" y="541.5" width="11" height="132" fill="url(#g8)" stroke="#2C2015" stroke-width="0.7"/>
    <rect x="320" y="541.5" width="11" height="132" fill="url(#g8)" stroke="#2C2015" stroke-width="0.7"/>
    <rect x="326.1" y="481" width="4.4" height="49.5" fill="#5A3E28" stroke="#2C2015" stroke-width="0.6"/>
    <rect x="210" y="481" width="121" height="4.4" fill="#5A3E28" stroke="#2C2015" stroke-width="0.6"/>
    <rect x="218.2" y="474.1" width="27.5" height="6.9" fill="#D8CDB2" stroke="#736C5E" stroke-width="0.8"/>
    <path d="M228.8 474.1 Q221.8 465.9 218.2 457.6 Q215.8 471.9 216.8 474.1 Z" fill="url(#g9)" stroke="#736C5E" stroke-width="0.8" stroke-linejoin="round" stroke-linecap="round"/>
    <path d="M235.2 474.1 Q242.2 465.9 245.8 457.6 Q248.2 471.9 247.2 474.1 Z" fill="url(#g9)" stroke="#736C5E" stroke-width="0.8" stroke-linejoin="round" stroke-linecap="round"/>
    <rect x="284.2" y="474.1" width="27.5" height="6.9" fill="#D8CDB2" stroke="#736C5E" stroke-width="0.8"/>
    <path d="M294.8 474.1 Q287.8 465.9 284.2 457.6 Q281.8 471.9 282.8 474.1 Z" fill="url(#g9)" stroke="#736C5E" stroke-width="0.8" stroke-linejoin="round" stroke-linecap="round"/>
    <path d="M301.2 474.1 Q308.2 465.9 311.8 457.6 Q314.2 471.9 313.2 474.1 Z" fill="url(#g9)" stroke="#736C5E" stroke-width="0.8" stroke-linejoin="round" stroke-linecap="round"/>
    <rect x="166" y="500.2" width="55" height="30.2" fill="url(#g7)" stroke="#2C2015" stroke-width="0.8"/>
    <rect x="166" y="498.6" width="55" height="4.4" fill="#9B6A38" stroke="#543B20" stroke-width="0.6"/>
    <rect x="174.1" y="500.2" width="2.2" height="30.2" fill="#9B6A38" opacity="0.8"/>
    <rect x="210.7" y="500.2" width="2.2" height="30.2" fill="#9B6A38" opacity="0.8"/>
    <path d="M127.5 541.5 L210 541.5 L210 530.5 L127.5 530.5 Z" fill="#5A3E28" stroke="#0E0C09" stroke-width="1.2" stroke-linejoin="round" stroke-linecap="round"/>
    <g clip-path="url(#c10)"><g stroke="#635C4C" stroke-width=".8" opacity="0.8"><line x1="116.5" y1="541.5" x2="127.5" y2="530.5"/><line x1="120.5" y1="541.5" x2="131.5" y2="530.5"/><line x1="124.5" y1="541.5" x2="135.5" y2="530.5"/><line x1="128.5" y1="541.5" x2="139.5" y2="530.5"/><line x1="132.5" y1="541.5" x2="143.5" y2="530.5"/><line x1="136.5" y1="541.5" x2="147.5" y2="530.5"/><line x1="140.5" y1="541.5" x2="151.5" y2="530.5"/><line x1="144.5" y1="541.5" x2="155.5" y2="530.5"/><line x1="148.5" y1="541.5" x2="159.5" y2="530.5"/><line x1="152.5" y1="541.5" x2="163.5" y2="530.5"/><line x1="156.5" y1="541.5" x2="167.5" y2="530.5"/><line x1="160.5" y1="541.5" x2="171.5" y2="530.5"/><line x1="164.5" y1="541.5" x2="175.5" y2="530.5"/><line x1="168.5" y1="541.5" x2="179.5" y2="530.5"/><line x1="172.5" y1="541.5" x2="183.5" y2="530.5"/><line x1="176.5" y1="541.5" x2="187.5" y2="530.5"/><line x1="180.5" y1="541.5" x2="191.5" y2="530.5"/><line x1="184.5" y1="541.5" x2="195.5" y2="530.5"/><line x1="188.5" y1="541.5" x2="199.5" y2="530.5"/><line x1="192.5" y1="541.5" x2="203.5" y2="530.5"/><line x1="196.5" y1="541.5" x2="207.5" y2="530.5"/><line x1="200.5" y1="541.5" x2="211.5" y2="530.5"/><line x1="204.5" y1="541.5" x2="215.5" y2="530.5"/><line x1="208.5" y1="541.5" x2="219.5" y2="530.5"/></g></g>
    <path d="M622.5 618.5 a16.5 9.1 0 0 0 33 0 z" fill="url(#g11)" stroke="#46321C" stroke-width="1" stroke-linejoin="round" stroke-linecap="round"/>
    <line x1="622.5" y1="618.5" x2="655.5" y2="618.5" stroke="#B59066" stroke-width="1.4" stroke-linecap="round"/>
    <line x1="632.1" y1="622.5" x2="625.1" y2="673.5" stroke="#9B6A38" stroke-width="1.8" stroke-linecap="round"/>
    <line x1="639" y1="622.5" x2="639" y2="673.5" stroke="#9B6A38" stroke-width="1.8" stroke-linecap="round"/>
    <line x1="645.9" y1="622.5" x2="652.9" y2="673.5" stroke="#9B6A38" stroke-width="1.8" stroke-linecap="round"/>
    <path d="M629.6 617.4 Q630.6 607.8 634.6 598.1 Q639.6 607.8 639.6 617.4 Z" fill="#C4542E" opacity="0.9"/>
    <path d="M636.8 617.4 Q637.8 603.6 641.8 589.9 Q646.8 603.6 646.8 617.4 Z" fill="#C4542E" opacity="0.9"/>
    <path d="M642.2 617.4 Q643.2 609.1 647.2 600.9 Q652.2 609.1 652.2 617.4 Z" fill="#C4542E" opacity="0.9"/>
    <path d="M100 491.5 L127.5 491.5 L127.5 420.5 L100 420.5 Z" fill="#3A332A" stroke="#0E0C09" stroke-width="1.2" stroke-linejoin="round" stroke-linecap="round"/>
    <g clip-path="url(#c12)"><g stroke="#635C4C" stroke-width=".8" opacity="0.7"><line x1="29.1" y1="491.5" x2="100" y2="420.5"/><line x1="34.1" y1="491.5" x2="105" y2="420.5"/><line x1="39.1" y1="491.5" x2="110" y2="420.5"/><line x1="44.1" y1="491.5" x2="115" y2="420.5"/><line x1="49.1" y1="491.5" x2="120" y2="420.5"/><line x1="54.1" y1="491.5" x2="125" y2="420.5"/><line x1="59.1" y1="491.5" x2="130" y2="420.5"/><line x1="64.1" y1="491.5" x2="135" y2="420.5"/><line x1="69.1" y1="491.5" x2="140" y2="420.5"/><line x1="74.1" y1="491.5" x2="145" y2="420.5"/><line x1="79.1" y1="491.5" x2="150" y2="420.5"/><line x1="84.1" y1="491.5" x2="155" y2="420.5"/><line x1="89.1" y1="491.5" x2="160" y2="420.5"/><line x1="94.1" y1="491.5" x2="165" y2="420.5"/><line x1="99.1" y1="491.5" x2="170" y2="420.5"/><line x1="104.1" y1="491.5" x2="175" y2="420.5"/><line x1="109.1" y1="491.5" x2="180" y2="420.5"/><line x1="114.1" y1="491.5" x2="185" y2="420.5"/><line x1="119.1" y1="491.5" x2="190" y2="420.5"/><line x1="124.1" y1="491.5" x2="195" y2="420.5"/></g></g>
    <path d="M732.5 491.5 L760 491.5 L760 420.5 L732.5 420.5 Z" fill="#3A332A" stroke="#0E0C09" stroke-width="1.2" stroke-linejoin="round" stroke-linecap="round"/>
    <g clip-path="url(#c13)"><g stroke="#635C4C" stroke-width=".8" opacity="0.7"><line x1="661.5" y1="491.5" x2="732.5" y2="420.5"/><line x1="666.5" y1="491.5" x2="737.5" y2="420.5"/><line x1="671.5" y1="491.5" x2="742.5" y2="420.5"/><line x1="676.5" y1="491.5" x2="747.5" y2="420.5"/><line x1="681.5" y1="491.5" x2="752.5" y2="420.5"/><line x1="686.5" y1="491.5" x2="757.5" y2="420.5"/><line x1="691.5" y1="491.5" x2="762.5" y2="420.5"/><line x1="696.5" y1="491.5" x2="767.5" y2="420.5"/><line x1="701.5" y1="491.5" x2="772.5" y2="420.5"/><line x1="706.5" y1="491.5" x2="777.5" y2="420.5"/><line x1="711.5" y1="491.5" x2="782.5" y2="420.5"/><line x1="716.5" y1="491.5" x2="787.5" y2="420.5"/><line x1="721.5" y1="491.5" x2="792.5" y2="420.5"/><line x1="726.5" y1="491.5" x2="797.5" y2="420.5"/><line x1="731.5" y1="491.5" x2="802.5" y2="420.5"/><line x1="736.5" y1="491.5" x2="807.5" y2="420.5"/><line x1="741.5" y1="491.5" x2="812.5" y2="420.5"/><line x1="746.5" y1="491.5" x2="817.5" y2="420.5"/><line x1="751.5" y1="491.5" x2="822.5" y2="420.5"/><line x1="756.5" y1="491.5" x2="827.5" y2="420.5"/></g></g>
    <g transform="translate(439.5 501) scale(0.25000)" fill="#DCD2BA" opacity=".5"><ellipse cx="160" cy="320" rx="20" ry="26"/><path d="M160 346 C138 350 126 360 124 380 L118 500 L130 502 L138 410 L140 520 L142 690 L156 690 L160 540 L164 690 L178 690 L180 520 L182 410 L190 502 L202 500 L196 380 C194 360 182 350 160 346 Z"/></g>
    <rect x="800" y="170" width="360" height="360" fill="#1B1813" stroke="#635C4C" stroke-width="1"/>
    <g stroke="#635C4C" stroke-width="1"><line x1="800" y1="530" x2="800" y2="536"/><line x1="800" y1="530" x2="794" y2="530"/><line x1="830" y1="530" x2="830" y2="533"/><line x1="800" y1="500" x2="797" y2="500"/><line x1="860" y1="530" x2="860" y2="533"/><line x1="800" y1="470" x2="797" y2="470"/><line x1="890" y1="530" x2="890" y2="533"/><line x1="800" y1="440" x2="797" y2="440"/><line x1="920" y1="530" x2="920" y2="533"/><line x1="800" y1="410" x2="797" y2="410"/><line x1="950" y1="530" x2="950" y2="533"/><line x1="800" y1="380" x2="797" y2="380"/><line x1="980" y1="530" x2="980" y2="536"/><line x1="800" y1="350" x2="794" y2="350"/><line x1="1010" y1="530" x2="1010" y2="533"/><line x1="800" y1="320" x2="797" y2="320"/><line x1="1040" y1="530" x2="1040" y2="533"/><line x1="800" y1="290" x2="797" y2="290"/><line x1="1070" y1="530" x2="1070" y2="533"/><line x1="800" y1="260" x2="797" y2="260"/><line x1="1100" y1="530" x2="1100" y2="533"/><line x1="800" y1="230" x2="797" y2="230"/><line x1="1130" y1="530" x2="1130" y2="533"/><line x1="800" y1="200" x2="797" y2="200"/><line x1="1160" y1="530" x2="1160" y2="536"/><line x1="800" y1="170" x2="794" y2="170"/></g>
    <path d="M1187 180 l6 16 l-6 -4 l-6 4 z" fill="#9A9078"/>
    <rect x="800" y="170" width="360" height="360" fill="#2E2719"/>
    <rect x="800" y="170" width="360" height="15" fill="#3A332A" stroke="#24201A" stroke-width="0.8"/>
    <rect x="800" y="515" width="360" height="15" fill="#3A332A" stroke="#24201A" stroke-width="0.8"/>
    <rect x="800" y="185" width="15" height="330" fill="#3A332A" stroke="#24201A" stroke-width="0.8"/>
    <rect x="1145" y="185" width="15" height="330" fill="#3A332A" stroke="#24201A" stroke-width="0.8"/>
    <rect x="800" y="170" width="360" height="3.6" fill="#8E3F2C"/>
    <rect x="800" y="526.4" width="360" height="3.6" fill="#8E3F2C"/>
    <rect x="941" y="170" width="78" height="15.6" fill="#2E2719"/>
    <rect x="941" y="514.4" width="78" height="15.6" fill="#2E2719"/>
    <rect x="800" y="311" width="15.6" height="78" fill="#2E2719"/>
    <rect x="1144.4" y="311" width="15.6" height="78" fill="#2E2719"/>
    <rect x="932" y="185" width="96" height="330" fill="#9A9078" fill-opacity=".05" stroke="#9A9078" stroke-opacity=".35" stroke-width=".8" stroke-dasharray="4 4"/>
    <rect x="815" y="302" width="330" height="96" fill="#9A9078" fill-opacity=".05" stroke="#9A9078" stroke-opacity=".35" stroke-width=".8" stroke-dasharray="4 4"/>
    <rect x="907.2" y="470" width="15.8" height="45" fill="#807968" stroke="#0E0C09" stroke-width="0.6"/>
    <rect x="891.5" y="470" width="15.8" height="45" fill="#8C8472" stroke="#0E0C09" stroke-width="0.6"/>
    <rect x="875.8" y="470" width="15.8" height="45" fill="#978F7C" stroke="#0E0C09" stroke-width="0.6"/>
    <rect x="860" y="470" width="15.8" height="45" fill="#A39B86" stroke="#0E0C09" stroke-width="0.6"/>
    <rect x="815" y="470" width="45" height="45" fill="#BBB199" stroke="#0E0C09" stroke-width="0.6"/>
    <rect x="815" y="455" width="45" height="15" fill="#C4BAA2" stroke="#0E0C09" stroke-width="0.6"/>
    <rect x="815" y="440" width="45" height="15" fill="#C8BEA5" stroke="#0E0C09" stroke-width="0.6"/>
    <rect x="815" y="425" width="45" height="15" fill="#CCC2A8" stroke="#0E0C09" stroke-width="0.6"/>
    <rect x="815" y="410" width="45" height="15" fill="#D0C6AB" stroke="#0E0C09" stroke-width="0.6"/>
    <rect x="815" y="290" width="45" height="120" fill="#5A3E28" stroke="#0E0C09" stroke-width="0.6"/>
    <rect x="815" y="185" width="111" height="111" fill="#694F39" stroke="#0E0C09" stroke-width="0.8"/>
    <rect x="920" y="290" width="6" height="6" fill="#432F1F" stroke="#0E0C09" stroke-width="0.6"/>
    <rect x="920" y="188" width="6" height="6" fill="#432F1F" stroke="#0E0C09" stroke-width="0.6"/>
    <rect x="818" y="290" width="6" height="6" fill="#432F1F" stroke="#0E0C09" stroke-width="0.6"/>
    <rect x="923" y="185" width="3" height="111" fill="#DCD2BA"/>
    <rect x="860" y="293" width="66" height="3" fill="#DCD2BA"/>
    <rect x="836" y="209" width="30" height="18" fill="#5A3E28" stroke="#0E0C09" stroke-width="0.6"/>
    <path d="M893 492.5 L842 492.5 L837.5 488 L837.5 428" fill="none" stroke="#DCD2BA" stroke-width="1" stroke-linejoin="round" stroke-linecap="round"stroke-dasharray="3 2"/>
    <circle cx="1094" cy="236" r="9" fill="#9B6A38" stroke="#0E0C09" stroke-width="0.8"/>
    <circle cx="1094" cy="236" r="4.8" fill="#C4542E"/>
    <circle cx="1094" cy="464" r="9" fill="#9B6A38" stroke="#0E0C09" stroke-width="0.8"/>
    <circle cx="1094" cy="464" r="4.8" fill="#C4542E"/>
    <rect x="1109" y="413" width="18" height="18" fill="#7A6A58" stroke="#0E0C09" stroke-width="0.6"/>
    <g id="loot-anchors" data-xy="-4.30,4.40;3.80,3.80;3.80,-3.80;4.60,-2.40"/>
    <path d="M851 213 l5 5 l-5 5 l-5 -5 z" fill="#C9A227" stroke="#14120E" stroke-width=".8"/>
    <text x="858" y="221.5" font-family="Overpass Mono, monospace" font-size="8.5" fill="#C9A227" stroke="#14120E" stroke-width="2.4" paint-order="stroke">L1</text>
    <path d="M1094 231 l5 5 l-5 5 l-5 -5 z" fill="#C9A227" stroke="#14120E" stroke-width=".8"/>
    <text x="1101" y="239.5" font-family="Overpass Mono, monospace" font-size="8.5" fill="#C9A227" stroke="#14120E" stroke-width="2.4" paint-order="stroke">L2</text>
    <path d="M1094 459 l5 5 l-5 5 l-5 -5 z" fill="#C9A227" stroke="#14120E" stroke-width=".8"/>
    <text x="1101" y="467.5" font-family="Overpass Mono, monospace" font-size="8.5" fill="#C9A227" stroke="#14120E" stroke-width="2.4" paint-order="stroke">L3</text>
    <path d="M1118 417 l5 5 l-5 5 l-5 -5 z" fill="#C9A227" stroke="#14120E" stroke-width=".8"/>
    <text x="1125" y="425.5" font-family="Overpass Mono, monospace" font-size="8.5" fill="#C9A227" stroke="#14120E" stroke-width="2.4" paint-order="stroke">L4</text>
    <line x1="782" y1="350" x2="1178" y2="350" stroke="#9A9078" stroke-width="0.8" stroke-linecap="round" stroke-dasharray="8 3 2 3"/>
    <path d="M782 350 l0 -10 l-4 5 m4 -5 l4 5" fill="none" stroke="#9A9078" stroke-width="1" stroke-linejoin="round" stroke-linecap="round"/>
    <path d="M1178 350 l0 -10 l-4 5 m4 -5 l4 5" fill="none" stroke="#9A9078" stroke-width="1" stroke-linejoin="round" stroke-linecap="round"/>
  </g>
  <g id="callouts" font-family="Overpass Mono, monospace">
    <text x="430" y="486.5" font-family="Overpass Mono, monospace" font-size="8.5" fill="#635C4C" text-anchor="middle">ARCHWAY 2.60 × 3.31</text>
    <text x="265" y="516.8" font-family="Overpass Mono, monospace" font-size="9" fill="#DCD2BA" text-anchor="middle">GALLERY +2.60</text>
    <text x="479.5" y="568.5" font-family="Overpass Mono, monospace" font-size="9" fill="#9A9078" text-anchor="middle">1.80 m</text>
    <path d="M650 552.5 L590 226 L604 226" fill="none" stroke="#9A9078" stroke-width=".8" opacity=".85"/>
    <circle cx="650" cy="552.5" r="2.6" fill="#DCD2BA" stroke="#14120E" stroke-width="1"/>
    <text x="610" y="230" font-family="Overpass Mono, monospace" font-size="12" fill="#DCD2BA">FRESCO BAND</text>
    <text x="610" y="244" font-family="Overpass Mono, monospace" font-size="10.5" fill="#9A9078">east half of the north wall</text>
    <path d="M639 607.5 L590 306 L604 306" fill="none" stroke="#9A9078" stroke-width=".8" opacity=".85"/>
    <circle cx="639" cy="607.5" r="2.6" fill="#DCD2BA" stroke="#14120E" stroke-width="1"/>
    <text x="610" y="310" font-family="Overpass Mono, monospace" font-size="12" fill="#DCD2BA">TRIPOD BRAZIER</text>
    <text x="610" y="324" font-family="Overpass Mono, monospace" font-size="10.5" fill="#9A9078">NE and SE, fire in the bowl</text>
    <path d="M265 470 L350 176 L336 176" fill="none" stroke="#9A9078" stroke-width=".8" opacity=".85"/>
    <circle cx="265" cy="470" r="2.6" fill="#DCD2BA" stroke="#14120E" stroke-width="1"/>
    <text x="330" y="180" font-family="Overpass Mono, monospace" font-size="12" fill="#DCD2BA" text-anchor="end">HORNS OF CONSECRATION</text>
    <text x="330" y="194" font-family="Overpass Mono, monospace" font-size="10.5" fill="#9A9078" text-anchor="end">gypsum, on the gallery rail</text>
    <path d="M193.5 508.5 L350 251 L336 251" fill="none" stroke="#9A9078" stroke-width=".8" opacity=".85"/>
    <circle cx="193.5" cy="508.5" r="2.6" fill="#DCD2BA" stroke="#14120E" stroke-width="1"/>
    <text x="330" y="255" font-family="Overpass Mono, monospace" font-size="12" fill="#DCD2BA" text-anchor="end">CHEST ON THE GALLERY</text>
    <text x="330" y="269" font-family="Overpass Mono, monospace" font-size="10.5" fill="#9A9078" text-anchor="end">the reason to climb · loot</text>
    <path d="M168.8 536 L350 326 L336 326" fill="none" stroke="#9A9078" stroke-width=".8" opacity=".85"/>
    <circle cx="168.8" cy="536" r="2.6" fill="#DCD2BA" stroke="#14120E" stroke-width="1"/>
    <text x="330" y="330" font-family="Overpass Mono, monospace" font-size="12" fill="#DCD2BA" text-anchor="end">BRIDGE</text>
    <text x="330" y="344" font-family="Overpass Mono, monospace" font-size="10.5" fill="#9A9078" text-anchor="end">over the walkway, 2.40 m clear</text>
    <text x="529" y="454.6" font-family="Overpass Mono, monospace" font-size="9" fill="#DCD2BA" text-anchor="middle">4.60 clear · open roof</text>
    <text x="800" y="548" font-family="Overpass Mono, monospace" font-size="9" fill="#635C4C" text-anchor="middle">0</text>
    <text x="980" y="548" font-family="Overpass Mono, monospace" font-size="9" fill="#635C4C" text-anchor="middle">6</text>
    <text x="1160" y="548" font-family="Overpass Mono, monospace" font-size="9" fill="#635C4C" text-anchor="middle">12 m</text>
    <text x="1187" y="210" font-family="Overpass Mono, monospace" font-size="10" fill="#9A9078" text-anchor="middle">N</text>
    <text x="782" y="362" font-family="Overpass Mono, monospace" font-size="9" fill="#9A9078" text-anchor="middle">A</text>
    <text x="1178" y="362" font-family="Overpass Mono, monospace" font-size="9" fill="#9A9078" text-anchor="middle">A</text>
    <text x="980" y="213.5" font-family="Overpass Mono, monospace" font-size="9.5" fill="#DCD2BA" text-anchor="middle" letter-spacing="1">ARCHWAY N 2.60 × 3.31</text>
    <text x="980" y="495.5" font-family="Overpass Mono, monospace" font-size="9.5" fill="#DCD2BA" text-anchor="middle" letter-spacing="1">ARCHWAY S 2.60 × 3.31</text>
    <text x="884" y="458" font-family="Overpass Mono, monospace" font-size="9.5" fill="#DCD2BA" text-anchor="middle" letter-spacing="1">STAIR UP</text>
    <text x="872" y="260" font-family="Overpass Mono, monospace" font-size="9.5" fill="#DCD2BA" text-anchor="middle" letter-spacing="1">GALLERY +2.60</text>
    <text x="800" y="585" font-family="Overpass Mono, monospace" font-size="9.5" fill="#DCD2BA" letter-spacing="1">ARCHWAYS</text>
    <text x="892" y="585" font-family="Overpass Mono, monospace" font-size="9.5" fill="#9A9078">4, centred · 2.60 × 3.31 · all open</text>
    <text x="800" y="600" font-family="Overpass Mono, monospace" font-size="9.5" fill="#DCD2BA" letter-spacing="1">CLEAR CROSS</text>
    <text x="892" y="600" font-family="Overpass Mono, monospace" font-size="9.5" fill="#9A9078">dashed · the bridge crosses it at 2.40 m</text>
    <text x="800" y="615" font-family="Overpass Mono, monospace" font-size="9.5" fill="#DCD2BA" letter-spacing="1">STAIR</text>
    <text x="892" y="615" font-family="Overpass Mono, monospace" font-size="9.5" fill="#9A9078">2 × 4 steps, foot facing open floor (SW)</text>
    <text x="800" y="630" font-family="Overpass Mono, monospace" font-size="9.5" fill="#DCD2BA" letter-spacing="1">GALLERY</text>
    <text x="892" y="630" font-family="Overpass Mono, monospace" font-size="9.5" fill="#9A9078">NW quadrant at 2.60 m · railed, horns</text>
    <text x="800" y="645" font-family="Overpass Mono, monospace" font-size="9.5" fill="#DCD2BA" letter-spacing="1">LOOT</text>
    <text x="892" y="645" font-family="Overpass Mono, monospace" font-size="9.5" fill="#9A9078">L1–L4: gallery chest, tripods, stand</text>
  </g>
  <g id="palette" font-family="Overpass Mono, monospace" font-size="10" fill="#9A9078">
    <rect x="40" y="748" width="34" height="18" fill="#B7803E" stroke="#332D22" stroke-width=".6"/><text x="80" y="761">#B7803E plaster</text>
    <rect x="200" y="748" width="34" height="18" fill="#D8CDB2" stroke="#332D22" stroke-width=".6"/><text x="240" y="761">#D8CDB2 gypsum</text>
    <rect x="360" y="748" width="34" height="18" fill="#5A3E28" stroke="#332D22" stroke-width=".6"/><text x="400" y="761">#5A3E28 cypress</text>
    <rect x="520" y="748" width="34" height="18" fill="#8E3F2C" stroke="#332D22" stroke-width=".6"/><text x="560" y="761">#8E3F2C haematite</text>
    <rect x="680" y="748" width="34" height="18" fill="#3F6F86" stroke="#332D22" stroke-width=".6"/><text x="720" y="761">#3F6F86 fresco</text>
    <rect x="840" y="748" width="34" height="18" fill="#9B6A38" stroke="#332D22" stroke-width=".6"/><text x="880" y="761">#9B6A38 bronze</text>
    <rect x="1000" y="748" width="34" height="18" fill="#C4542E" stroke="#332D22" stroke-width=".6"/><text x="1040" y="761">#C4542E fire</text>
  </g>
</svg>
