{
	"asset":{
		"generator":"Khronos glTF Blender I/O v5.0.21",
		"version":"2.0"
	},
	"extensionsUsed":[
		"KHR_materials_emissive_strength"
	],
	"scene":0,
	"scenes":[
		{
			"name":"Scene",
			"nodes":[
				29
			]
		}
	],
	"nodes":[
		{
			"name":"BandanaTail.L",
			"rotation":[
				-0.9779581427574158,
				-0.11044604331254959,
				-0.11044599860906601,
				0.13856858015060425
			],
			"scale":[
				0.9999998807907104,
				1,
				0.9999999403953552
			],
			"translation":[
				0.012000000104308128,
				0.10531997680664062,
				-0.1329600065946579
			]
		},
		{
			"name":"BandanaTail.R",
			"rotation":[
				-0.9779581427574158,
				0.11044604331254959,
				0.11044599860906601,
				0.13856858015060425
			],
			"scale":[
				0.9999998807907104,
				1,
				0.9999999403953552
			],
			"translation":[
				-0.012000000104308128,
				0.10531997680664062,
				-0.1329600065946579
			]
		},
		{
			"children":[
				0,
				1
			],
			"name":"Head",
			"translation":[
				0,
				0.07451999187469482,
				0
			]
		},
		{
			"children":[
				2
			],
			"name":"Neck",
			"translation":[
				0,
				0.20412003993988037,
				0
			]
		},
		{
			"name":"Hand.L",
			"rotation":[
				-1.600012183189392e-05,
				-1.5541911125183105e-05,
				8.013099431991577e-06,
				1
			],
			"translation":[
				1.30385160446167e-08,
				0.2349017709493637,
				0
			]
		},
		{
			"children":[
				4
			],
			"name":"LowerArm.L",
			"rotation":[
				-0.15356332063674927,
				1.2428320587787312e-05,
				-0.02985965646803379,
				0.9876875877380371
			],
			"scale":[
				1,
				1.0000001192092896,
				1.0000001192092896
			],
			"translation":[
				1.2456439435482025e-08,
				0.27863505482673645,
				6.28642737865448e-09
			]
		},
		{
			"children":[
				5
			],
			"name":"UpperArm.L",
			"rotation":[
				-0.46931618452072144,
				-0.49244675040245056,
				0.393237829208374,
				0.6185487508773804
			],
			"scale":[
				1,
				0.9999999403953552,
				1
			],
			"translation":[
				3.0379734838881234e-10,
				0.10614798963069916,
				-1.3129233877862134e-07
			]
		},
		{
			"children":[
				6
			],
			"name":"Shoulder.L",
			"rotation":[
				-0.5305233597755432,
				-0.49906736612319946,
				-0.499067485332489,
				0.4694766402244568
			],
			"scale":[
				0.9999998211860657,
				0.9999998807907104,
				0.9999998807907104
			],
			"translation":[
				0.04859999939799309,
				0.18792009353637695,
				0
			]
		},
		{
			"name":"Sling4",
			"rotation":[
				0.004137358628213406,
				0.008478001691401005,
				-0.008439196273684502,
				0.9999198913574219
			],
			"scale":[
				1.0000001192092896,
				0.9999999403953552,
				1
			],
			"translation":[
				-5.774199962615967e-08,
				0.13835011422634125,
				1.7695128917694092e-08
			]
		},
		{
			"children":[
				8
			],
			"name":"Sling3",
			"rotation":[
				-1.6132836435645004e-06,
				-3.565219458323554e-06,
				3.5401899367570877e-06,
				1
			],
			"scale":[
				1,
				1,
				0.9999999403953552
			],
			"translation":[
				-2.421438694000244e-08,
				0.13836003839969635,
				-1.6763806343078613e-08
			]
		},
		{
			"children":[
				9
			],
			"name":"Sling2",
			"rotation":[
				1.6486737877130508e-06,
				3.467896021902561e-06,
				-3.41818667948246e-06,
				1
			],
			"translation":[
				-4.6566128730773926e-09,
				0.13835018873214722,
				-3.725290298461914e-09
			]
		},
		{
			"children":[
				10
			],
			"name":"Sling1",
			"rotation":[
				0.11063960194587708,
				0.06914625316858292,
				-0.07581618428230286,
				0.9885492324829102
			],
			"scale":[
				0.9999998211860657,
				0.9999998211860657,
				0.9999998807907104
			],
			"translation":[
				0.009198164567351341,
				0.10564589500427246,
				0.008285053074359894
			]
		},
		{
			"children":[
				11
			],
			"name":"Hand.R",
			"rotation":[
				-4.752539098262787e-06,
				6.791669875383377e-05,
				-5.037616938352585e-05,
				1
			],
			"scale":[
				1,
				1,
				1.0000001192092896
			],
			"translation":[
				-9.313225746154785e-09,
				0.23489506542682648,
				-2.9802322387695312e-08
			]
		},
		{
			"children":[
				12
			],
			"name":"LowerArm.R",
			"rotation":[
				-0.11921397596597672,
				-2.5552630177116953e-05,
				0.0253627747297287,
				0.9925446510314941
			],
			"scale":[
				1.0000001192092896,
				1,
				1
			],
			"translation":[
				-3.748573362827301e-08,
				0.2786417603492737,
				1.257285475730896e-08
			]
		},
		{
			"children":[
				13
			],
			"name":"UpperArm.R",
			"rotation":[
				-0.47199350595474243,
				0.494262158870697,
				-0.37920066714286804,
				0.6238060593605042
			],
			"scale":[
				1,
				0.9999998807907104,
				1
			],
			"translation":[
				-3.0379734838881234e-10,
				0.10614798963069916,
				-1.3129233877862134e-07
			]
		},
		{
			"children":[
				14
			],
			"name":"Shoulder.R",
			"rotation":[
				-0.5305233597755432,
				0.49906736612319946,
				0.499067485332489,
				0.4694766402244568
			],
			"scale":[
				0.9999998211860657,
				0.9999998807907104,
				0.9999998807907104
			],
			"translation":[
				-0.04859999939799309,
				0.18792009353637695,
				0
			]
		},
		{
			"children":[
				3,
				7,
				15
			],
			"name":"Chest",
			"translation":[
				0,
				0.17819994688034058,
				0
			]
		},
		{
			"children":[
				16
			],
			"name":"Spine",
			"translation":[
				0,
				0.10044002532958984,
				0
			]
		},
		{
			"name":"Foot.L",
			"rotation":[
				-0.5514097213745117,
				0.11921309679746628,
				-0.14658516645431519,
				0.8125566840171814
			],
			"scale":[
				1,
				0.9999999403953552,
				0.9999998807907104
			],
			"translation":[
				-1.5188383883923962e-09,
				0.36983978748321533,
				-2.3645618796308554e-10
			]
		},
		{
			"children":[
				18
			],
			"name":"LowerLeg.L",
			"rotation":[
				0.025102399289608,
				7.806775101926178e-06,
				0.0010881262132897973,
				0.9996842741966248
			],
			"scale":[
				1,
				1.0000001192092896,
				0.9999999403953552
			],
			"translation":[
				4.394678398966789e-09,
				0.40550222992897034,
				1.3969838619232178e-09
			]
		},
		{
			"children":[
				19
			],
			"name":"UpperLeg.L",
			"rotation":[
				0.9994467496871948,
				0.022066207602620125,
				0.022065917029976845,
				0.011504575610160828
			],
			"scale":[
				1.000001311302185,
				0.9999998211860657,
				1.0000003576278687
			],
			"translation":[
				0.08675000071525574,
				0,
				0
			]
		},
		{
			"name":"Foot.R",
			"rotation":[
				-0.5514097213745117,
				-0.11921309679746628,
				0.14658516645431519,
				0.8125566840171814
			],
			"scale":[
				1,
				0.9999999403953552,
				0.9999998807907104
			],
			"translation":[
				1.5188383883923962e-09,
				0.36983978748321533,
				-2.3645618796308554e-10
			]
		},
		{
			"children":[
				21
			],
			"name":"LowerLeg.R",
			"rotation":[
				0.025102399289608,
				-7.806775101926178e-06,
				-0.0010881262132897973,
				0.9996842741966248
			],
			"scale":[
				1,
				1.0000001192092896,
				0.9999999403953552
			],
			"translation":[
				-4.394678398966789e-09,
				0.40550222992897034,
				1.3969838619232178e-09
			]
		},
		{
			"children":[
				22
			],
			"name":"UpperLeg.R",
			"rotation":[
				0.9994467496871948,
				-0.022066207602620125,
				-0.022065917029976845,
				0.011504575610160828
			],
			"scale":[
				1.000001311302185,
				0.9999998211860657,
				1.0000003576278687
			],
			"translation":[
				-0.08675000071525574,
				0,
				0
			]
		},
		{
			"name":"Pouch.R",
			"rotation":[
				1,
				0,
				-4.371138828673793e-08,
				0
			],
			"translation":[
				-0.1798200011253357,
				0.07234001159667969,
				0.09171000123023987
			]
		},
		{
			"name":"Pouch.L",
			"rotation":[
				1,
				0,
				-4.371138828673793e-08,
				0
			],
			"translation":[
				0.18485000729560852,
				0.06234002113342285,
				0.0737299993634224
			]
		},
		{
			"children":[
				17,
				20,
				23,
				24,
				25
			],
			"name":"Hips",
			"translation":[
				0,
				0.8553599715232849,
				0
			]
		},
		{
			"children":[
				26
			],
			"name":"Root"
		},
		{
			"mesh":0,
			"name":"WallSlinger",
			"skin":0
		},
		{
			"children":[
				28,
				27
			],
			"name":"WallSlinger_Rig"
		}
	],
	"materials":[
		{
			"doubleSided":true,
			"emissiveFactor":[
				1,
				1,
				1
			],
			"emissiveTexture":{
				"index":0
			},
			"extensions":{
				"KHR_materials_emissive_strength":{
					"emissiveStrength":9
				}
			},
			"name":"WallSlinger",
			"pbrMetallicRoughness":{
				"baseColorTexture":{
					"index":1
				},
				"metallicRoughnessTexture":{
					"index":2
				}
			}
		}
	],
	"meshes":[
		{
			"name":"WallSlinger",
			"primitives":[
				{
					"attributes":{
						"POSITION":0,
						"NORMAL":1,
						"TEXCOORD_0":2,
						"JOINTS_0":3,
						"WEIGHTS_0":4
					},
					"indices":5,
					"material":0
				}
			]
		}
	],
	"textures":[
		{
			"sampler":0,
			"source":0
		},
		{
			"sampler":0,
			"source":1
		},
		{
			"sampler":0,
			"source":2
		}
	],
	"images":[
		{
			"mimeType":"image/png",
			"name":"WallSlinger_Emission",
			"uri":"WallSlinger_Emission.png"
		},
		{
			"mimeType":"image/png",
			"name":"WallSlinger_BaseMap",
			"uri":"WallSlinger_BaseMap.png"
		},
		{
			"mimeType":"image/png",
			"name":"WallSlinger_ORM",
			"uri":"WallSlinger_ORM.png"
		}
	],
	"skins":[
		{
			"inverseBindMatrices":6,
			"joints":[
				27,
				26,
				17,
				16,
				3,
				2,
				0,
				1,
				7,
				6,
				5,
				4,
				15,
				14,
				13,
				12,
				11,
				10,
				9,
				8,
				20,
				19,
				18,
				23,
				22,
				21,
				24,
				25
			],
			"name":"WallSlinger_Rig"
		}
	],
	"accessors":[
		{
			"bufferView":0,
			"componentType":5126,
			"count":4468,
			"max":[
				0.29403963685035706,
				1.6613469123840332,
				0.17710000276565552
			],
			"min":[
				-0.3828650116920471,
				0,
				-0.18749016523361206
			],
			"type":"VEC3"
		},
		{
			"bufferView":1,
			"componentType":5126,
			"count":4468,
			"type":"VEC3"
		},
		{
			"bufferView":2,
			"componentType":5126,
			"count":4468,
			"type":"VEC2"
		},
		{
			"bufferView":3,
			"componentType":5121,
			"count":4468,
			"type":"VEC4"
		},
		{
			"bufferView":4,
			"componentType":5126,
			"count":4468,
			"type":"VEC4"
		},
		{
			"bufferView":5,
			"componentType":5123,
			"count":13128,
			"type":"SCALAR"
		},
		{
			"bufferView":6,
			"componentType":5126,
			"count":28,
			"type":"MAT4"
		}
	],
	"bufferViews":[
		{
			"buffer":0,
			"byteLength":53616,
			"byteOffset":0,
			"target":34962
		},
		{
			"buffer":0,
			"byteLength":53616,
			"byteOffset":53616,
			"target":34962
		},
		{
			"buffer":0,
			"byteLength":35744,
			"byteOffset":107232,
			"target":34962
		},
		{
			"buffer":0,
			"byteLength":17872,
			"byteOffset":142976,
			"target":34962
		},
		{
			"buffer":0,
			"byteLength":71488,
			"byteOffset":160848,
			"target":34962
		},
		{
			"buffer":0,
			"byteLength":26256,
			"byteOffset":232336,
			"target":34963
		},
		{
			"buffer":0,
			"byteLength":1792,
			"byteOffset":258592
		}
	],
	"samplers":[
		{
			"magFilter":9729,
			"minFilter":9987
		}
	],
	"buffers":[
		{
			"byteLength":260384,
			"uri":"WallSlinger.bin"
		}
	]
}
