{
	"asset":{
		"generator":"Khronos glTF Blender I/O v5.0.21",
		"version":"2.0"
	},
	"extensionsUsed":[
		"KHR_materials_emissive_strength"
	],
	"scene":0,
	"scenes":[
		{
			"name":"Scene",
			"nodes":[
				0
			]
		}
	],
	"nodes":[
		{
			"mesh":0,
			"name":"GildedNef"
		}
	],
	"materials":[
		{
			"doubleSided":true,
			"emissiveFactor":[
				1,
				1,
				1
			],
			"emissiveTexture":{
				"index":0
			},
			"extensions":{
				"KHR_materials_emissive_strength":{
					"emissiveStrength":9
				}
			},
			"name":"GildedNef",
			"pbrMetallicRoughness":{
				"baseColorTexture":{
					"index":1
				},
				"metallicRoughnessTexture":{
					"index":2
				}
			}
		}
	],
	"meshes":[
		{
			"name":"GildedNef",
			"primitives":[
				{
					"attributes":{
						"POSITION":0,
						"NORMAL":1,
						"TEXCOORD_0":2
					},
					"indices":3,
					"material":0
				}
			]
		}
	],
	"textures":[
		{
			"sampler":0,
			"source":0
		},
		{
			"sampler":0,
			"source":1
		},
		{
			"sampler":0,
			"source":2
		}
	],
	"images":[
		{
			"mimeType":"image/png",
			"name":"GildedNef_Emission",
			"uri":"GildedNef_Emission.png"
		},
		{
			"mimeType":"image/png",
			"name":"GildedNef_BaseMap",
			"uri":"GildedNef_BaseMap.png"
		},
		{
			"mimeType":"image/png",
			"name":"GildedNef_ORM",
			"uri":"GildedNef_ORM.png"
		}
	],
	"accessors":[
		{
			"bufferView":0,
			"componentType":5126,
			"count":3571,
			"max":[
				0.2938251495361328,
				0.5600000023841858,
				0.10000000149011612
			],
			"min":[
				-0.21400000154972076,
				0,
				-0.10000000149011612
			],
			"type":"VEC3"
		},
		{
			"bufferView":1,
			"componentType":5126,
			"count":3571,
			"type":"VEC3"
		},
		{
			"bufferView":2,
			"componentType":5126,
			"count":3571,
			"type":"VEC2"
		},
		{
			"bufferView":3,
			"componentType":5123,
			"count":8010,
			"type":"SCALAR"
		}
	],
	"bufferViews":[
		{
			"buffer":0,
			"byteLength":42852,
			"byteOffset":0,
			"target":34962
		},
		{
			"buffer":0,
			"byteLength":42852,
			"byteOffset":42852,
			"target":34962
		},
		{
			"buffer":0,
			"byteLength":28568,
			"byteOffset":85704,
			"target":34962
		},
		{
			"buffer":0,
			"byteLength":16020,
			"byteOffset":114272,
			"target":34963
		}
	],
	"samplers":[
		{
			"magFilter":9729,
			"minFilter":9987
		}
	],
	"buffers":[
		{
			"byteLength":130292,
			"uri":"GildedNef.bin"
		}
	]
}
