{
	"asset":{
		"generator":"Khronos glTF Blender I/O v5.0.21",
		"version":"2.0"
	},
	"extensionsUsed":[
		"KHR_materials_emissive_strength"
	],
	"scene":0,
	"scenes":[
		{
			"name":"Scene",
			"nodes":[
				0
			]
		}
	],
	"nodes":[
		{
			"mesh":0,
			"name":"GildedAltarpiece"
		}
	],
	"materials":[
		{
			"doubleSided":true,
			"emissiveFactor":[
				1,
				1,
				1
			],
			"emissiveTexture":{
				"index":0
			},
			"extensions":{
				"KHR_materials_emissive_strength":{
					"emissiveStrength":9
				}
			},
			"name":"GildedAltarpiece",
			"pbrMetallicRoughness":{
				"baseColorTexture":{
					"index":1
				},
				"metallicRoughnessTexture":{
					"index":2
				}
			}
		}
	],
	"meshes":[
		{
			"name":"GildedAltarpiece",
			"primitives":[
				{
					"attributes":{
						"POSITION":0,
						"NORMAL":1,
						"TEXCOORD_0":2
					},
					"indices":3,
					"material":0
				}
			]
		}
	],
	"textures":[
		{
			"sampler":0,
			"source":0
		},
		{
			"sampler":0,
			"source":1
		},
		{
			"sampler":0,
			"source":2
		}
	],
	"images":[
		{
			"mimeType":"image/png",
			"name":"GildedAltarpiece_Emission",
			"uri":"GildedAltarpiece_Emission.png"
		},
		{
			"mimeType":"image/png",
			"name":"GildedAltarpiece_BaseMap",
			"uri":"GildedAltarpiece_BaseMap.png"
		},
		{
			"mimeType":"image/png",
			"name":"GildedAltarpiece_ORM",
			"uri":"GildedAltarpiece_ORM.png"
		}
	],
	"accessors":[
		{
			"bufferView":0,
			"componentType":5126,
			"count":3885,
			"max":[
				0.5649999976158142,
				1.6460000276565552,
				0.10600000619888306
			],
			"min":[
				-0.5649999976158142,
				0,
				-0.11156217753887177
			],
			"type":"VEC3"
		},
		{
			"bufferView":1,
			"componentType":5126,
			"count":3885,
			"type":"VEC3"
		},
		{
			"bufferView":2,
			"componentType":5126,
			"count":3885,
			"type":"VEC2"
		},
		{
			"bufferView":3,
			"componentType":5123,
			"count":7344,
			"type":"SCALAR"
		}
	],
	"bufferViews":[
		{
			"buffer":0,
			"byteLength":46620,
			"byteOffset":0,
			"target":34962
		},
		{
			"buffer":0,
			"byteLength":46620,
			"byteOffset":46620,
			"target":34962
		},
		{
			"buffer":0,
			"byteLength":31080,
			"byteOffset":93240,
			"target":34962
		},
		{
			"buffer":0,
			"byteLength":14688,
			"byteOffset":124320,
			"target":34963
		}
	],
	"samplers":[
		{
			"magFilter":9729,
			"minFilter":9987
		}
	],
	"buffers":[
		{
			"byteLength":139008,
			"uri":"GildedAltarpiece.bin"
		}
	]
}
