{
	"asset":{
		"generator":"Khronos glTF Blender I/O v5.0.21",
		"version":"2.0"
	},
	"extensionsUsed":[
		"KHR_materials_emissive_strength"
	],
	"scene":0,
	"scenes":[
		{
			"name":"Scene",
			"nodes":[
				34
			]
		}
	],
	"nodes":[
		{
			"name":"Polos",
			"translation":[
				0,
				0.17480015754699707,
				-0.009600000455975533
			]
		},
		{
			"children":[
				0
			],
			"name":"Head",
			"translation":[
				0,
				0.073600172996521,
				0
			]
		},
		{
			"children":[
				1
			],
			"name":"Neck",
			"translation":[
				0,
				0.2016000747680664,
				0
			]
		},
		{
			"name":"Hand.L",
			"rotation":[
				4.218891263008118e-06,
				2.894643876061309e-05,
				3.832019865512848e-05,
				1
			],
			"scale":[
				0.9999999403953552,
				1,
				1
			],
			"translation":[
				-1.6996636986732483e-08,
				0.23199886083602905,
				2.0489096641540527e-08
			]
		},
		{
			"children":[
				3
			],
			"name":"LowerArm.L",
			"rotation":[
				0.8514741659164429,
				0.3779792785644531,
				0.2774038314819336,
				0.2348840981721878
			],
			"scale":[
				1.0000001192092896,
				1,
				1.000000238418579
			],
			"translation":[
				-3.5390257835388184e-08,
				0.2752007246017456,
				-7.450580596923828e-08
			]
		},
		{
			"children":[
				4
			],
			"name":"UpperArm.L",
			"rotation":[
				-0.3978792428970337,
				-0.40395694971084595,
				0.1117115244269371,
				0.8161075115203857
			],
			"scale":[
				0.9999999403953552,
				0.9999998807907104,
				1
			],
			"translation":[
				6.461050361394882e-09,
				0.10483551025390625,
				2.7008354663848877e-08
			]
		},
		{
			"children":[
				5
			],
			"name":"Shoulder.L",
			"rotation":[
				-0.530523955821991,
				-0.4990674555301666,
				-0.4990674555301666,
				0.4694760739803314
			],
			"scale":[
				1,
				0.9999999403953552,
				1
			],
			"translation":[
				0.04800000041723251,
				0.1856001615524292,
				0
			]
		},
		{
			"name":"Censer3",
			"rotation":[
				0.031859103590250015,
				0.006469449028372765,
				-0.006266260519623756,
				0.999451756477356
			],
			"scale":[
				0.9999998807907104,
				0.9999998211860657,
				0.9999999403953552
			],
			"translation":[
				1.30385160446167e-08,
				0.19956982135772705,
				-9.313225746154785e-09
			]
		},
		{
			"children":[
				7
			],
			"name":"Censer2",
			"rotation":[
				-5.5407872423529625e-06,
				-3.4686876460909843e-05,
				2.6418829293106683e-05,
				1
			],
			"scale":[
				1,
				0.9999999403953552,
				1
			],
			"translation":[
				1.862645149230957e-09,
				0.19957903027534485,
				-1.0244548320770264e-08
			]
		},
		{
			"children":[
				8
			],
			"name":"Censer1",
			"rotation":[
				0.41989925503730774,
				0.12856075167655945,
				-0.11522387713193893,
				0.8909995555877686
			],
			"translation":[
				0.011671772226691246,
				0.08335089683532715,
				0.025198183953762054
			]
		},
		{
			"children":[
				9
			],
			"name":"Hand.R",
			"rotation":[
				2.760905772447586e-06,
				0.00023954082280397415,
				-4.970841109752655e-05,
				1
			],
			"translation":[
				2.60770320892334e-08,
				0.23199492692947388,
				-5.21540641784668e-08
			]
		},
		{
			"children":[
				10
			],
			"name":"LowerArm.R",
			"rotation":[
				-0.4716928005218506,
				0.10671214014291763,
				0.07792215794324875,
				0.8718065023422241
			],
			"translation":[
				-5.587935447692871e-09,
				0.2752009332180023,
				-5.122274160385132e-09
			]
		},
		{
			"children":[
				11
			],
			"name":"UpperArm.R",
			"rotation":[
				-0.4825170934200287,
				0.4978027045726776,
				-0.2651301920413971,
				0.6701310873031616
			],
			"scale":[
				1,
				1,
				0.9999999403953552
			],
			"translation":[
				-6.461050361394882e-09,
				0.10483551025390625,
				2.7008354663848877e-08
			]
		},
		{
			"children":[
				12
			],
			"name":"Shoulder.R",
			"rotation":[
				-0.530523955821991,
				0.4990674555301666,
				0.4990674555301666,
				0.4694760739803314
			],
			"scale":[
				1,
				0.9999999403953552,
				1
			],
			"translation":[
				-0.04800000041723251,
				0.1856001615524292,
				0
			]
		},
		{
			"name":"Pot1.L",
			"rotation":[
				0.07088901102542877,
				0,
				0,
				0.9974842071533203
			],
			"scale":[
				1,
				1,
				0.9999999403953552
			],
			"translation":[
				2.9802322387695312e-08,
				0.3535534739494324,
				1.1175870895385742e-08
			]
		},
		{
			"children":[
				14
			],
			"name":"PotCord1.L",
			"rotation":[
				-0.9687135815620422,
				0,
				0,
				0.2481812983751297
			],
			"scale":[
				1,
				0.9999999403953552,
				0.9999991655349731
			],
			"translation":[
				0.47999998927116394,
				0.04983176290988922,
				0.03577391058206558
			]
		},
		{
			"name":"Pot2.L",
			"rotation":[
				-0.09853760153055191,
				0,
				0,
				0.9951333403587341
			],
			"translation":[
				0,
				0.3569314777851105,
				0
			]
		},
		{
			"children":[
				16
			],
			"name":"PotCord2.L",
			"rotation":[
				-0.9129059314727783,
				0,
				0,
				0.4081699550151825
			],
			"scale":[
				1,
				1,
				0.9999997019767761
			],
			"translation":[
				0.6200000047683716,
				0.0558977909386158,
				0.03958600014448166
			]
		},
		{
			"name":"Pot1.R",
			"rotation":[
				0.07088901102542877,
				0,
				0,
				0.9974842071533203
			],
			"scale":[
				1,
				1,
				0.9999999403953552
			],
			"translation":[
				-2.9802322387695312e-08,
				0.3535534739494324,
				1.1175870895385742e-08
			]
		},
		{
			"children":[
				18
			],
			"name":"PotCord1.R",
			"rotation":[
				-0.9687135815620422,
				0,
				0,
				0.2481812983751297
			],
			"scale":[
				1,
				0.9999999403953552,
				0.9999991655349731
			],
			"translation":[
				-0.47999998927116394,
				0.04983176290988922,
				0.03577391058206558
			]
		},
		{
			"name":"Pot2.R",
			"rotation":[
				-0.09853760153055191,
				0,
				0,
				0.9951333403587341
			],
			"translation":[
				0,
				0.3569314777851105,
				0
			]
		},
		{
			"children":[
				20
			],
			"name":"PotCord2.R",
			"rotation":[
				-0.9129059314727783,
				0,
				0,
				0.4081699550151825
			],
			"scale":[
				1,
				1,
				0.9999997019767761
			],
			"translation":[
				-0.6200000047683716,
				0.0558977909386158,
				0.03958600014448166
			]
		},
		{
			"children":[
				15,
				17,
				19,
				21
			],
			"name":"Yoke",
			"rotation":[
				-0.3162279427051544,
				0,
				0,
				0.9486832618713379
			],
			"scale":[
				1,
				1,
				0.9999999403953552
			],
			"translation":[
				0,
				0.192000150680542,
				-0.02800000086426735
			]
		},
		{
			"children":[
				2,
				6,
				13,
				22
			],
			"name":"Chest",
			"scale":[
				1,
				0.9999999403953552,
				1
			],
			"translation":[
				0,
				0.17599999904632568,
				0
			]
		},
		{
			"children":[
				23
			],
			"name":"Spine",
			"translation":[
				0,
				0.09920006990432739,
				0
			]
		},
		{
			"name":"Foot.L",
			"rotation":[
				-0.5514094829559326,
				0.11923301964998245,
				-0.14658911526203156,
				0.8125531673431396
			],
			"scale":[
				1.0000001192092896,
				1,
				1
			],
			"translation":[
				1.0125036364883044e-09,
				0.3652733266353607,
				-9.289079505592213e-10
			]
		},
		{
			"children":[
				25
			],
			"name":"LowerLeg.L",
			"rotation":[
				0.025101318955421448,
				-1.7246582501684316e-05,
				0.0011131555074825883,
				0.9996843338012695
			],
			"scale":[
				1,
				0.9999999403953552,
				1
			],
			"translation":[
				1.6880221664905548e-09,
				0.4004964232444763,
				-4.656612873077393e-10
			]
		},
		{
			"children":[
				26
			],
			"name":"UpperLeg.L",
			"rotation":[
				0.9994462728500366,
				0.02207663282752037,
				0.02207629568874836,
				0.011504111811518669
			],
			"scale":[
				1.000001311302185,
				1.0000001192092896,
				1.0000004768371582
			],
			"translation":[
				0.0849900022149086,
				5.960464477539063e-08,
				0
			]
		},
		{
			"name":"Foot.R",
			"rotation":[
				-0.5514094829559326,
				-0.11923301964998245,
				0.14658911526203156,
				0.8125531673431396
			],
			"scale":[
				1.0000001192092896,
				1,
				1
			],
			"translation":[
				-1.0125036364883044e-09,
				0.3652733266353607,
				-9.289079505592213e-10
			]
		},
		{
			"children":[
				28
			],
			"name":"LowerLeg.R",
			"rotation":[
				0.025101318955421448,
				1.7246582501684316e-05,
				-0.0011131555074825883,
				0.9996843338012695
			],
			"scale":[
				1,
				0.9999999403953552,
				1
			],
			"translation":[
				-1.6880221664905548e-09,
				0.4004964232444763,
				-4.656612873077393e-10
			]
		},
		{
			"children":[
				29
			],
			"name":"UpperLeg.R",
			"rotation":[
				0.9994462728500366,
				-0.02207663282752037,
				-0.02207629568874836,
				0.011504111811518669
			],
			"scale":[
				1.000001311302185,
				1.0000001192092896,
				1.0000004768371582
			],
			"translation":[
				-0.0849900022149086,
				5.960464477539063e-08,
				0
			]
		},
		{
			"children":[
				24,
				27,
				30
			],
			"name":"Hips",
			"scale":[
				1,
				0.9999999403953552,
				1
			],
			"translation":[
				0,
				0.8447999954223633,
				0
			]
		},
		{
			"children":[
				31
			],
			"name":"Root"
		},
		{
			"mesh":0,
			"name":"KeeperOfTheFlame",
			"skin":0
		},
		{
			"children":[
				33,
				32
			],
			"name":"KeeperOfTheFlame_Rig"
		}
	],
	"materials":[
		{
			"doubleSided":true,
			"emissiveFactor":[
				1,
				1,
				1
			],
			"emissiveTexture":{
				"index":0
			},
			"extensions":{
				"KHR_materials_emissive_strength":{
					"emissiveStrength":9
				}
			},
			"name":"KeeperOfTheFlame",
			"pbrMetallicRoughness":{
				"baseColorTexture":{
					"index":1
				},
				"metallicRoughnessTexture":{
					"index":2
				}
			}
		}
	],
	"meshes":[
		{
			"name":"KeeperOfTheFlame",
			"primitives":[
				{
					"attributes":{
						"POSITION":0,
						"NORMAL":1,
						"TEXCOORD_0":2,
						"JOINTS_0":3,
						"WEIGHTS_0":4
					},
					"indices":5,
					"material":0
				}
			]
		}
	],
	"textures":[
		{
			"sampler":0,
			"source":0
		},
		{
			"sampler":0,
			"source":1
		},
		{
			"sampler":0,
			"source":2
		}
	],
	"images":[
		{
			"mimeType":"image/png",
			"name":"KeeperOfTheFlame_Emission",
			"uri":"KeeperOfTheFlame_Emission.png"
		},
		{
			"mimeType":"image/png",
			"name":"KeeperOfTheFlame_BaseMap",
			"uri":"KeeperOfTheFlame_BaseMap.png"
		},
		{
			"mimeType":"image/png",
			"name":"KeeperOfTheFlame_ORM",
			"uri":"KeeperOfTheFlame_ORM.png"
		}
	],
	"skins":[
		{
			"inverseBindMatrices":6,
			"joints":[
				32,
				31,
				24,
				23,
				2,
				1,
				0,
				6,
				5,
				4,
				3,
				13,
				12,
				11,
				10,
				9,
				8,
				7,
				22,
				15,
				14,
				17,
				16,
				19,
				18,
				21,
				20,
				27,
				26,
				25,
				30,
				29,
				28
			],
			"name":"KeeperOfTheFlame_Rig"
		}
	],
	"accessors":[
		{
			"bufferView":0,
			"componentType":5126,
			"count":7930,
			"max":[
				0.7100000381469727,
				1.7200000286102295,
				0.578197717666626
			],
			"min":[
				-0.7100000381469727,
				0,
				-0.4299600124359131
			],
			"type":"VEC3"
		},
		{
			"bufferView":1,
			"componentType":5126,
			"count":7930,
			"type":"VEC3"
		},
		{
			"bufferView":2,
			"componentType":5126,
			"count":7930,
			"type":"VEC2"
		},
		{
			"bufferView":3,
			"componentType":5121,
			"count":7930,
			"type":"VEC4"
		},
		{
			"bufferView":4,
			"componentType":5126,
			"count":7930,
			"type":"VEC4"
		},
		{
			"bufferView":5,
			"componentType":5123,
			"count":23514,
			"type":"SCALAR"
		},
		{
			"bufferView":6,
			"componentType":5126,
			"count":33,
			"type":"MAT4"
		}
	],
	"bufferViews":[
		{
			"buffer":0,
			"byteLength":95160,
			"byteOffset":0,
			"target":34962
		},
		{
			"buffer":0,
			"byteLength":95160,
			"byteOffset":95160,
			"target":34962
		},
		{
			"buffer":0,
			"byteLength":63440,
			"byteOffset":190320,
			"target":34962
		},
		{
			"buffer":0,
			"byteLength":31720,
			"byteOffset":253760,
			"target":34962
		},
		{
			"buffer":0,
			"byteLength":126880,
			"byteOffset":285480,
			"target":34962
		},
		{
			"buffer":0,
			"byteLength":47028,
			"byteOffset":412360,
			"target":34963
		},
		{
			"buffer":0,
			"byteLength":2112,
			"byteOffset":459388
		}
	],
	"samplers":[
		{
			"magFilter":9729,
			"minFilter":9987
		}
	],
	"buffers":[
		{
			"byteLength":461500,
			"uri":"KeeperOfTheFlame.bin"
		}
	]
}
