{
	"asset":{
		"generator":"Khronos glTF Blender I/O v5.0.21",
		"version":"2.0"
	},
	"extensionsUsed":[
		"KHR_materials_emissive_strength"
	],
	"scene":0,
	"scenes":[
		{
			"name":"Scene",
			"nodes":[
				0
			]
		}
	],
	"nodes":[
		{
			"mesh":0,
			"name":"SealedAmphora"
		}
	],
	"materials":[
		{
			"doubleSided":true,
			"emissiveFactor":[
				1,
				1,
				1
			],
			"emissiveTexture":{
				"index":0
			},
			"extensions":{
				"KHR_materials_emissive_strength":{
					"emissiveStrength":9
				}
			},
			"name":"SealedAmphora",
			"pbrMetallicRoughness":{
				"baseColorTexture":{
					"index":1
				},
				"metallicRoughnessTexture":{
					"index":2
				}
			}
		}
	],
	"meshes":[
		{
			"name":"SealedAmphora",
			"primitives":[
				{
					"attributes":{
						"POSITION":0,
						"NORMAL":1,
						"TEXCOORD_0":2
					},
					"indices":3,
					"material":0
				}
			]
		}
	],
	"textures":[
		{
			"sampler":0,
			"source":0
		},
		{
			"sampler":0,
			"source":1
		},
		{
			"sampler":0,
			"source":2
		}
	],
	"images":[
		{
			"mimeType":"image/png",
			"name":"SealedAmphora_Emission",
			"uri":"SealedAmphora_Emission.png"
		},
		{
			"mimeType":"image/png",
			"name":"SealedAmphora_BaseMap",
			"uri":"SealedAmphora_BaseMap.png"
		},
		{
			"mimeType":"image/png",
			"name":"SealedAmphora_ORM",
			"uri":"SealedAmphora_ORM.png"
		}
	],
	"accessors":[
		{
			"bufferView":0,
			"componentType":5126,
			"count":1514,
			"max":[
				0.25832322239875793,
				0.6200000047683716,
				0.17000000178813934
			],
			"min":[
				-0.25832322239875793,
				0,
				-0.17000000178813934
			],
			"type":"VEC3"
		},
		{
			"bufferView":1,
			"componentType":5126,
			"count":1514,
			"type":"VEC3"
		},
		{
			"bufferView":2,
			"componentType":5126,
			"count":1514,
			"type":"VEC2"
		},
		{
			"bufferView":3,
			"componentType":5123,
			"count":4320,
			"type":"SCALAR"
		}
	],
	"bufferViews":[
		{
			"buffer":0,
			"byteLength":18168,
			"byteOffset":0,
			"target":34962
		},
		{
			"buffer":0,
			"byteLength":18168,
			"byteOffset":18168,
			"target":34962
		},
		{
			"buffer":0,
			"byteLength":12112,
			"byteOffset":36336,
			"target":34962
		},
		{
			"buffer":0,
			"byteLength":8640,
			"byteOffset":48448,
			"target":34963
		}
	],
	"samplers":[
		{
			"magFilter":9729,
			"minFilter":9987
		}
	],
	"buffers":[
		{
			"byteLength":57088,
			"uri":"SealedAmphora.bin"
		}
	]
}
