{
	"asset":{
		"generator":"Khronos glTF Blender I/O v5.0.21",
		"version":"2.0"
	},
	"extensionsUsed":[
		"KHR_materials_emissive_strength"
	],
	"scene":0,
	"scenes":[
		{
			"name":"Scene",
			"nodes":[
				25
			]
		}
	],
	"nodes":[
		{
			"name":"Sallet",
			"rotation":[
				-3.552713678800501e-15,
				0,
				0,
				1
			],
			"translation":[
				0,
				0.0626600980758667,
				-0.007050000596791506
			]
		},
		{
			"children":[
				0
			],
			"name":"Head",
			"rotation":[
				-3.552713678800501e-15,
				0,
				0,
				1
			],
			"translation":[
				0,
				0.0811002254486084,
				0
			]
		},
		{
			"children":[
				1
			],
			"name":"Neck",
			"rotation":[
				-3.552713678800501e-15,
				0,
				0,
				1
			],
			"translation":[
				0,
				0.22214019298553467,
				0
			]
		},
		{
			"name":"PaviseProp",
			"rotation":[
				0.17212213575839996,
				-2.7897593568582124e-08,
				3.5128373099269083e-08,
				0.9850756525993347
			],
			"translation":[
				6.064773572234117e-08,
				0.3599999248981476,
				0.009999983012676239
			]
		},
		{
			"children":[
				3
			],
			"name":"Pavise",
			"rotation":[
				0.7302308678627014,
				0.1929311454296112,
				-0.19293099641799927,
				0.6263530254364014
			],
			"scale":[
				0.9999999403953552,
				0.9999998211860657,
				0.9999998807907104
			],
			"translation":[
				0.21219177544116974,
				0.09214182943105698,
				-0.016979629173874855
			]
		},
		{
			"children":[
				4
			],
			"name":"Hand.L",
			"rotation":[
				-2.017756924033165e-05,
				0.0001890544081106782,
				2.0262785255908966e-05,
				1
			],
			"translation":[
				6.05359673500061e-08,
				0.25563669204711914,
				-9.778887033462524e-09
			]
		},
		{
			"children":[
				5
			],
			"name":"LowerArm.L",
			"rotation":[
				-0.8956353068351746,
				-0.3558657765388489,
				0.22769345343112946,
				0.13911373913288116
			],
			"scale":[
				1.0000003576278687,
				1.0000003576278687,
				1.000000238418579
			],
			"translation":[
				2.9802322387695312e-08,
				0.3032398223876953,
				2.60770320892334e-08
			]
		},
		{
			"children":[
				6
			],
			"name":"UpperArm.L",
			"rotation":[
				-0.17024502158164978,
				-0.19680030643939972,
				0.4403165280818939,
				0.8593064546585083
			],
			"scale":[
				1.0000001192092896,
				1,
				0.9999998807907104
			],
			"translation":[
				1.521427250850138e-08,
				0.1155153140425682,
				8.565541520511033e-08
			]
		},
		{
			"children":[
				7
			],
			"name":"Shoulder.L",
			"rotation":[
				-0.5305150747299194,
				-0.49906790256500244,
				-0.4990679621696472,
				0.4694848954677582
			],
			"scale":[
				0.9999998807907104,
				0.9999998211860657,
				1
			],
			"translation":[
				0.052889999002218246,
				0.20451009273529053,
				0
			]
		},
		{
			"name":"Hand.R",
			"rotation":[
				9.043142199516296e-07,
				3.097578655797406e-06,
				-2.3646280169487e-06,
				1
			],
			"scale":[
				1.0000001192092896,
				1,
				1
			],
			"translation":[
				2.9802322387695312e-08,
				0.2556253671646118,
				0
			]
		},
		{
			"children":[
				9
			],
			"name":"LowerArm.R",
			"rotation":[
				-0.1370668113231659,
				5.305696049617836e-06,
				0.02416362054646015,
				0.9902670383453369
			],
			"scale":[
				1.0000001192092896,
				1,
				1.0000001192092896
			],
			"translation":[
				-5.122274160385132e-09,
				0.3032445013523102,
				-5.587935447692871e-09
			]
		},
		{
			"children":[
				10
			],
			"name":"UpperArm.R",
			"rotation":[
				-0.4798542261123657,
				0.5028560161590576,
				-0.39154794812202454,
				0.6029643416404724
			],
			"scale":[
				1.0000001192092896,
				0.9999999403953552,
				1
			],
			"translation":[
				-1.521427250850138e-08,
				0.1155153140425682,
				8.565541520511033e-08
			]
		},
		{
			"children":[
				11
			],
			"name":"Shoulder.R",
			"rotation":[
				-0.5305150747299194,
				0.49906790256500244,
				0.4990679621696472,
				0.4694848954677582
			],
			"scale":[
				0.9999998807907104,
				0.9999998211860657,
				1
			],
			"translation":[
				-0.052889999002218246,
				0.20451009273529053,
				0
			]
		},
		{
			"children":[
				2,
				8,
				12
			],
			"name":"Chest",
			"rotation":[
				-3.552713678800501e-15,
				0,
				0,
				1
			],
			"translation":[
				0,
				0.19393014907836914,
				0
			]
		},
		{
			"children":[
				13
			],
			"name":"Spine",
			"rotation":[
				-3.552713678800501e-15,
				0,
				0,
				1
			],
			"translation":[
				0,
				0.10930997133255005,
				0
			]
		},
		{
			"name":"Foot.L",
			"rotation":[
				-0.5514717102050781,
				0.11327992379665375,
				-0.1453632414340973,
				0.8135823011398315
			],
			"scale":[
				1,
				0.9999999403953552,
				0.9999999403953552
			],
			"translation":[
				5.2197428601630236e-09,
				0.4026508629322052,
				7.016884850941096e-10
			]
		},
		{
			"children":[
				15
			],
			"name":"LowerLeg.L",
			"rotation":[
				0.02508608065545559,
				3.801024604399572e-06,
				0.0013111340813338757,
				0.9996844530105591
			],
			"scale":[
				0.9999998807907104,
				1,
				0.9999999403953552
			],
			"translation":[
				-1.7345882952213287e-08,
				0.4414815902709961,
				-4.656612873077393e-10
			]
		},
		{
			"children":[
				16
			],
			"name":"UpperLeg.L",
			"rotation":[
				0.9992347359657288,
				0.026481160894036293,
				0.026480527594685555,
				0.011289753019809723
			],
			"scale":[
				1.000002145767212,
				1.0000001192092896,
				1.0000004768371582
			],
			"translation":[
				0.09940999746322632,
				5.960464477539063e-08,
				0
			]
		},
		{
			"name":"Foot.R",
			"rotation":[
				-0.5514717102050781,
				-0.11327992379665375,
				0.1453632414340973,
				0.8135823011398315
			],
			"scale":[
				1,
				0.9999999403953552,
				0.9999999403953552
			],
			"translation":[
				-5.2197428601630236e-09,
				0.4026508629322052,
				7.016884850941096e-10
			]
		},
		{
			"children":[
				18
			],
			"name":"LowerLeg.R",
			"rotation":[
				0.02508608065545559,
				-3.801024604399572e-06,
				-0.0013111340813338757,
				0.9996844530105591
			],
			"scale":[
				0.9999998807907104,
				1,
				0.9999999403953552
			],
			"translation":[
				1.7345882952213287e-08,
				0.4414815902709961,
				-4.656612873077393e-10
			]
		},
		{
			"children":[
				19
			],
			"name":"UpperLeg.R",
			"rotation":[
				0.9992347359657288,
				-0.026481160894036293,
				-0.026480527594685555,
				0.011289753019809723
			],
			"scale":[
				1.000002145767212,
				1.0000001192092896,
				1.0000004768371582
			],
			"translation":[
				-0.09940999746322632,
				5.960464477539063e-08,
				0
			]
		},
		{
			"name":"Falchion",
			"rotation":[
				-0.9778823256492615,
				-0.025440949946641922,
				-0.025441011413931847,
				0.20603801310062408
			],
			"scale":[
				1,
				1.0000001192092896,
				1.0000009536743164
			],
			"translation":[
				0.149399995803833,
				0.1779300421476364,
				0.11870000511407852
			]
		},
		{
			"children":[
				14,
				17,
				20,
				21
			],
			"name":"Hips",
			"rotation":[
				-3.552713678800501e-15,
				0,
				0,
				1
			],
			"translation":[
				0,
				0.9308600425720215,
				0
			]
		},
		{
			"children":[
				22
			],
			"name":"Root",
			"rotation":[
				-2.980232594040899e-08,
				0,
				0,
				1
			],
			"scale":[
				1,
				0.9999999403953552,
				0.9999999403953552
			]
		},
		{
			"mesh":0,
			"name":"Pavisier",
			"skin":0
		},
		{
			"children":[
				24,
				23
			],
			"name":"Pavisier_Rig"
		}
	],
	"materials":[
		{
			"doubleSided":true,
			"emissiveFactor":[
				1,
				1,
				1
			],
			"emissiveTexture":{
				"index":0
			},
			"extensions":{
				"KHR_materials_emissive_strength":{
					"emissiveStrength":9
				}
			},
			"name":"Pavisier",
			"pbrMetallicRoughness":{
				"baseColorTexture":{
					"index":1
				},
				"metallicRoughnessTexture":{
					"index":2
				}
			}
		}
	],
	"meshes":[
		{
			"name":"Pavisier",
			"primitives":[
				{
					"attributes":{
						"POSITION":0,
						"NORMAL":1,
						"TEXCOORD_0":2,
						"JOINTS_0":3,
						"WEIGHTS_0":4
					},
					"indices":5,
					"material":0
				}
			]
		}
	],
	"textures":[
		{
			"sampler":0,
			"source":0
		},
		{
			"sampler":0,
			"source":1
		},
		{
			"sampler":0,
			"source":2
		}
	],
	"images":[
		{
			"mimeType":"image/png",
			"name":"Pavisier_Emission",
			"uri":"Pavisier_Emission.png"
		},
		{
			"mimeType":"image/png",
			"name":"Pavisier_BaseMap",
			"uri":"Pavisier_BaseMap.png"
		},
		{
			"mimeType":"image/png",
			"name":"Pavisier_ORM",
			"uri":"Pavisier_ORM.png"
		}
	],
	"skins":[
		{
			"inverseBindMatrices":6,
			"joints":[
				23,
				22,
				14,
				13,
				2,
				1,
				0,
				8,
				7,
				6,
				5,
				4,
				3,
				12,
				11,
				10,
				9,
				17,
				16,
				15,
				20,
				19,
				18,
				21
			],
			"name":"Pavisier_Rig"
		}
	],
	"accessors":[
		{
			"bufferView":0,
			"componentType":5126,
			"count":4495,
			"max":[
				0.976351261138916,
				1.8063592910766602,
				0.4197986125946045
			],
			"min":[
				-0.3086598813533783,
				0,
				-0.24288490414619446
			],
			"type":"VEC3"
		},
		{
			"bufferView":1,
			"componentType":5126,
			"count":4495,
			"type":"VEC3"
		},
		{
			"bufferView":2,
			"componentType":5126,
			"count":4495,
			"type":"VEC2"
		},
		{
			"bufferView":3,
			"componentType":5121,
			"count":4495,
			"type":"VEC4"
		},
		{
			"bufferView":4,
			"componentType":5126,
			"count":4495,
			"type":"VEC4"
		},
		{
			"bufferView":5,
			"componentType":5123,
			"count":15456,
			"type":"SCALAR"
		},
		{
			"bufferView":6,
			"componentType":5126,
			"count":24,
			"type":"MAT4"
		}
	],
	"bufferViews":[
		{
			"buffer":0,
			"byteLength":53940,
			"byteOffset":0,
			"target":34962
		},
		{
			"buffer":0,
			"byteLength":53940,
			"byteOffset":53940,
			"target":34962
		},
		{
			"buffer":0,
			"byteLength":35960,
			"byteOffset":107880,
			"target":34962
		},
		{
			"buffer":0,
			"byteLength":17980,
			"byteOffset":143840,
			"target":34962
		},
		{
			"buffer":0,
			"byteLength":71920,
			"byteOffset":161820,
			"target":34962
		},
		{
			"buffer":0,
			"byteLength":30912,
			"byteOffset":233740,
			"target":34963
		},
		{
			"buffer":0,
			"byteLength":1536,
			"byteOffset":264652
		}
	],
	"samplers":[
		{
			"magFilter":9729,
			"minFilter":9987
		}
	],
	"buffers":[
		{
			"byteLength":266188,
			"uri":"Pavisier.bin"
		}
	]
}
