{
	"asset":{
		"generator":"Khronos glTF Blender I/O v5.0.21",
		"version":"2.0"
	},
	"extensionsUsed":[
		"KHR_materials_emissive_strength"
	],
	"scene":0,
	"scenes":[
		{
			"name":"Scene",
			"nodes":[
				0
			]
		}
	],
	"nodes":[
		{
			"mesh":0,
			"name":"BankersLedger"
		}
	],
	"materials":[
		{
			"doubleSided":true,
			"emissiveFactor":[
				1,
				1,
				1
			],
			"emissiveTexture":{
				"index":0
			},
			"extensions":{
				"KHR_materials_emissive_strength":{
					"emissiveStrength":9
				}
			},
			"name":"BankersLedger",
			"pbrMetallicRoughness":{
				"baseColorTexture":{
					"index":1
				},
				"metallicRoughnessTexture":{
					"index":2
				}
			}
		}
	],
	"meshes":[
		{
			"name":"BankersLedger",
			"primitives":[
				{
					"attributes":{
						"POSITION":0,
						"NORMAL":1,
						"TEXCOORD_0":2
					},
					"indices":3,
					"material":0
				}
			]
		}
	],
	"textures":[
		{
			"sampler":0,
			"source":0
		},
		{
			"sampler":0,
			"source":1
		},
		{
			"sampler":0,
			"source":2
		}
	],
	"images":[
		{
			"mimeType":"image/png",
			"name":"BankersLedger_Emission",
			"uri":"BankersLedger_Emission.png"
		},
		{
			"mimeType":"image/png",
			"name":"BankersLedger_BaseMap",
			"uri":"BankersLedger_BaseMap.png"
		},
		{
			"mimeType":"image/png",
			"name":"BankersLedger_ORM",
			"uri":"BankersLedger_ORM.png"
		}
	],
	"accessors":[
		{
			"bufferView":0,
			"componentType":5126,
			"count":2317,
			"max":[
				0.15000000596046448,
				0.09549999982118607,
				0.22999796271324158
			],
			"min":[
				-0.3672288656234741,
				-0.0020000003278255463,
				-0.12299999594688416
			],
			"type":"VEC3"
		},
		{
			"bufferView":1,
			"componentType":5126,
			"count":2317,
			"type":"VEC3"
		},
		{
			"bufferView":2,
			"componentType":5126,
			"count":2317,
			"type":"VEC2"
		},
		{
			"bufferView":3,
			"componentType":5123,
			"count":4302,
			"type":"SCALAR"
		}
	],
	"bufferViews":[
		{
			"buffer":0,
			"byteLength":27804,
			"byteOffset":0,
			"target":34962
		},
		{
			"buffer":0,
			"byteLength":27804,
			"byteOffset":27804,
			"target":34962
		},
		{
			"buffer":0,
			"byteLength":18536,
			"byteOffset":55608,
			"target":34962
		},
		{
			"buffer":0,
			"byteLength":8604,
			"byteOffset":74144,
			"target":34963
		}
	],
	"samplers":[
		{
			"magFilter":9729,
			"minFilter":9987
		}
	],
	"buffers":[
		{
			"byteLength":82748,
			"uri":"BankersLedger.bin"
		}
	]
}
