{
	"asset":{
		"generator":"Khronos glTF Blender I/O v5.0.21",
		"version":"2.0"
	},
	"extensionsUsed":[
		"KHR_materials_emissive_strength"
	],
	"scene":0,
	"scenes":[
		{
			"name":"Scene",
			"nodes":[
				26
			]
		}
	],
	"nodes":[
		{
			"name":"SkullCap",
			"rotation":[
				-3.552713678800501e-15,
				0,
				0,
				1
			],
			"translation":[
				0,
				0.17144012451171875,
				-0.003460000269114971
			]
		},
		{
			"children":[
				0
			],
			"name":"Head",
			"rotation":[
				-3.552713678800501e-15,
				0,
				0,
				1
			],
			"translation":[
				0,
				0.07958006858825684,
				0
			]
		},
		{
			"children":[
				1
			],
			"name":"Neck",
			"rotation":[
				-3.552713678800501e-15,
				0,
				0,
				1
			],
			"translation":[
				0,
				0.2179802656173706,
				0
			]
		},
		{
			"name":"Hand.L",
			"rotation":[
				1.963600516319275e-05,
				-7.918104529380798e-05,
				3.129243850708008e-05,
				1
			],
			"translation":[
				7.636845111846924e-08,
				0.25085175037384033,
				4.470348358154297e-08
			]
		},
		{
			"children":[
				3
			],
			"name":"LowerArm.L",
			"rotation":[
				-0.008394813165068626,
				-0.18614980578422546,
				0.09961892664432526,
				0.9774220585823059
			],
			"scale":[
				1.0000001192092896,
				0.9999998807907104,
				1
			],
			"translation":[
				-1.1175870895385742e-08,
				0.29755929112434387,
				1.862645149230957e-08
			]
		},
		{
			"children":[
				4
			],
			"name":"UpperArm.L",
			"rotation":[
				-0.595213770866394,
				-0.6218541860580444,
				0.4545625150203705,
				0.2288905829191208
			],
			"scale":[
				0.9999998807907104,
				1,
				1
			],
			"translation":[
				-3.050640573487584e-10,
				0.11335141211748123,
				-1.3944060128778801e-08
			]
		},
		{
			"children":[
				5
			],
			"name":"Shoulder.L",
			"rotation":[
				-0.5305244326591492,
				-0.4990673065185547,
				-0.49906742572784424,
				0.46947556734085083
			],
			"scale":[
				1,
				0.9999998807907104,
				1
			],
			"translation":[
				0.051899999380111694,
				0.20068025588989258,
				0
			]
		},
		{
			"name":"CrossbowString",
			"rotation":[
				0.01665920950472355,
				-1.3359534989376698e-07,
				3.203238208016046e-08,
				0.9998612403869629
			],
			"scale":[
				1,
				0.9999999403953552,
				1
			],
			"translation":[
				4.0292761127602716e-08,
				0.16999554634094238,
				-0.02799864113330841
			]
		},
		{
			"children":[
				7
			],
			"name":"Crossbow",
			"rotation":[
				-0.37932878732681274,
				-0.8118711113929749,
				0.21753980219364166,
				0.3868480622768402
			],
			"scale":[
				1,
				0.9999999403953552,
				1
			],
			"translation":[
				-0.021298782899975777,
				0.037707846611738205,
				0.04898112639784813
			]
		},
		{
			"children":[
				8
			],
			"name":"Hand.R",
			"rotation":[
				-8.158385753631592e-07,
				-3.181397687512799e-06,
				3.2559039482293883e-06,
				1
			],
			"scale":[
				1,
				0.9999999403953552,
				1.0000001192092896
			],
			"translation":[
				5.21540641784668e-08,
				0.2508544325828552,
				1.3224780559539795e-07
			]
		},
		{
			"children":[
				9
			],
			"name":"LowerArm.R",
			"rotation":[
				0.1325165182352066,
				0.64238440990448,
				-0.6835415363311768,
				0.32023850083351135
			],
			"scale":[
				0.9999999403953552,
				0.9999998211860657,
				0.9999998211860657
			],
			"translation":[
				9.313225746154785e-09,
				0.2975635826587677,
				-4.6566128730773926e-09
			]
		},
		{
			"children":[
				10
			],
			"name":"UpperArm.R",
			"rotation":[
				-0.4582121968269348,
				0.47719094157218933,
				-0.32487577199935913,
				0.6758595108985901
			],
			"scale":[
				0.9999998807907104,
				0.9999996423721313,
				1
			],
			"translation":[
				3.050640573487584e-10,
				0.11335141211748123,
				-1.3944060128778801e-08
			]
		},
		{
			"children":[
				11
			],
			"name":"Shoulder.R",
			"rotation":[
				-0.5305244326591492,
				0.4990673065185547,
				0.49906742572784424,
				0.46947556734085083
			],
			"scale":[
				1,
				0.9999998807907104,
				1
			],
			"translation":[
				-0.051899999380111694,
				0.20068025588989258,
				0
			]
		},
		{
			"children":[
				2,
				6,
				12
			],
			"name":"Chest",
			"scale":[
				1,
				0.9999999403953552,
				1
			],
			"translation":[
				0,
				0.19029998779296875,
				0
			]
		},
		{
			"children":[
				13
			],
			"name":"Spine",
			"rotation":[
				-3.552713678800501e-15,
				0,
				0,
				1
			],
			"translation":[
				0,
				0.10725998878479004,
				0
			]
		},
		{
			"name":"Foot.L",
			"rotation":[
				-0.5514096021652222,
				0.1192220151424408,
				-0.14658693969249725,
				0.8125551342964172
			],
			"scale":[
				0.9999999403953552,
				1,
				1
			],
			"translation":[
				-6.752088665962219e-09,
				0.39495202898979187,
				1.1641532182693481e-09
			]
		},
		{
			"children":[
				15
			],
			"name":"LowerLeg.L",
			"rotation":[
				0.025102153420448303,
				1.7777010725694709e-06,
				0.0010940214851871133,
				0.9996842741966248
			],
			"scale":[
				1,
				0.9999998211860657,
				0.9999998807907104
			],
			"translation":[
				-4.3655745685100555e-09,
				0.43303632736206055,
				9.313225746154785e-10
			]
		},
		{
			"children":[
				16
			],
			"name":"UpperLeg.L",
			"rotation":[
				0.9994467496871948,
				0.022065632045269012,
				0.022065315395593643,
				0.011504602618515491
			],
			"scale":[
				1.0000011920928955,
				1.0000003576278687,
				1.0000003576278687
			],
			"translation":[
				0.09516000002622604,
				5.960464477539063e-08,
				0
			]
		},
		{
			"name":"Foot.R",
			"rotation":[
				-0.5514096021652222,
				-0.1192220151424408,
				0.14658693969249725,
				0.8125551342964172
			],
			"scale":[
				0.9999999403953552,
				1,
				1
			],
			"translation":[
				6.752088665962219e-09,
				0.39495202898979187,
				1.1641532182693481e-09
			]
		},
		{
			"children":[
				18
			],
			"name":"LowerLeg.R",
			"rotation":[
				0.025102153420448303,
				-1.7777010725694709e-06,
				-0.0010940214851871133,
				0.9996842741966248
			],
			"scale":[
				1,
				0.9999998211860657,
				0.9999998807907104
			],
			"translation":[
				4.3655745685100555e-09,
				0.43303632736206055,
				9.313225746154785e-10
			]
		},
		{
			"children":[
				19
			],
			"name":"UpperLeg.R",
			"rotation":[
				0.9994467496871948,
				-0.022065632045269012,
				-0.022065315395593643,
				0.011504602618515491
			],
			"scale":[
				1.0000011920928955,
				1.0000003576278687,
				1.0000003576278687
			],
			"translation":[
				-0.09516000002622604,
				5.960464477539063e-08,
				0
			]
		},
		{
			"name":"BeltHook",
			"rotation":[
				1,
				-2.117582368135751e-22,
				-4.371138828673793e-08,
				3.552713678800501e-15
			],
			"translation":[
				-0.09206999838352203,
				0.08361004292964935,
				0.11240001022815704
			]
		},
		{
			"name":"Quiver",
			"rotation":[
				1,
				-2.117582368135751e-22,
				-4.371138828673793e-08,
				3.552713678800501e-15
			],
			"translation":[
				-0.2157299965620041,
				0.13861000537872314,
				0.009060000069439411
			]
		},
		{
			"children":[
				14,
				17,
				20,
				21,
				22
			],
			"name":"Hips",
			"rotation":[
				-3.552713678800501e-15,
				0,
				0,
				1
			],
			"translation":[
				0,
				0.9134400486946106,
				0
			]
		},
		{
			"children":[
				23
			],
			"name":"Root",
			"rotation":[
				-2.980232594040899e-08,
				0,
				0,
				1
			],
			"scale":[
				1,
				0.9999999403953552,
				0.9999999403953552
			]
		},
		{
			"mesh":0,
			"name":"CastleCrossbowman",
			"skin":0
		},
		{
			"children":[
				25,
				24
			],
			"name":"CastleCrossbowman_Rig"
		}
	],
	"materials":[
		{
			"doubleSided":true,
			"emissiveFactor":[
				1,
				1,
				1
			],
			"emissiveTexture":{
				"index":0
			},
			"extensions":{
				"KHR_materials_emissive_strength":{
					"emissiveStrength":9
				}
			},
			"name":"CastleCrossbowman",
			"pbrMetallicRoughness":{
				"baseColorTexture":{
					"index":1
				},
				"metallicRoughnessTexture":{
					"index":2
				}
			}
		}
	],
	"meshes":[
		{
			"name":"CastleCrossbowman",
			"primitives":[
				{
					"attributes":{
						"POSITION":0,
						"NORMAL":1,
						"TEXCOORD_0":2,
						"JOINTS_0":3,
						"WEIGHTS_0":4
					},
					"indices":5,
					"material":0
				}
			]
		}
	],
	"textures":[
		{
			"sampler":0,
			"source":0
		},
		{
			"sampler":0,
			"source":1
		},
		{
			"sampler":0,
			"source":2
		}
	],
	"images":[
		{
			"mimeType":"image/png",
			"name":"CastleCrossbowman_Emission",
			"uri":"CastleCrossbowman_Emission.png"
		},
		{
			"mimeType":"image/png",
			"name":"CastleCrossbowman_BaseMap",
			"uri":"CastleCrossbowman_BaseMap.png"
		},
		{
			"mimeType":"image/png",
			"name":"CastleCrossbowman_ORM",
			"uri":"CastleCrossbowman_ORM.png"
		}
	],
	"skins":[
		{
			"inverseBindMatrices":6,
			"joints":[
				24,
				23,
				14,
				13,
				2,
				1,
				0,
				6,
				5,
				4,
				3,
				12,
				11,
				10,
				9,
				8,
				7,
				17,
				16,
				15,
				20,
				19,
				18,
				21,
				22
			],
			"name":"CastleCrossbowman_Rig"
		}
	],
	"accessors":[
		{
			"bufferView":0,
			"componentType":5126,
			"count":7206,
			"max":[
				0.38356924057006836,
				1.7799999713897705,
				0.7815383076667786
			],
			"min":[
				-0.38356924057006836,
				0,
				-0.1433524340391159
			],
			"type":"VEC3"
		},
		{
			"bufferView":1,
			"componentType":5126,
			"count":7206,
			"type":"VEC3"
		},
		{
			"bufferView":2,
			"componentType":5126,
			"count":7206,
			"type":"VEC2"
		},
		{
			"bufferView":3,
			"componentType":5121,
			"count":7206,
			"type":"VEC4"
		},
		{
			"bufferView":4,
			"componentType":5126,
			"count":7206,
			"type":"VEC4"
		},
		{
			"bufferView":5,
			"componentType":5123,
			"count":18792,
			"type":"SCALAR"
		},
		{
			"bufferView":6,
			"componentType":5126,
			"count":25,
			"type":"MAT4"
		}
	],
	"bufferViews":[
		{
			"buffer":0,
			"byteLength":86472,
			"byteOffset":0,
			"target":34962
		},
		{
			"buffer":0,
			"byteLength":86472,
			"byteOffset":86472,
			"target":34962
		},
		{
			"buffer":0,
			"byteLength":57648,
			"byteOffset":172944,
			"target":34962
		},
		{
			"buffer":0,
			"byteLength":28824,
			"byteOffset":230592,
			"target":34962
		},
		{
			"buffer":0,
			"byteLength":115296,
			"byteOffset":259416,
			"target":34962
		},
		{
			"buffer":0,
			"byteLength":37584,
			"byteOffset":374712,
			"target":34963
		},
		{
			"buffer":0,
			"byteLength":1600,
			"byteOffset":412296
		}
	],
	"samplers":[
		{
			"magFilter":9729,
			"minFilter":9987
		}
	],
	"buffers":[
		{
			"byteLength":413896,
			"uri":"CastleCrossbowman.bin"
		}
	]
}
