{
	"asset":{
		"generator":"Khronos glTF Blender I/O v5.0.21",
		"version":"2.0"
	},
	"extensionsUsed":[
		"KHR_materials_emissive_strength"
	],
	"scene":0,
	"scenes":[
		{
			"name":"Scene",
			"nodes":[
				0
			]
		}
	],
	"nodes":[
		{
			"mesh":0,
			"name":"ArmReliquary"
		}
	],
	"materials":[
		{
			"doubleSided":true,
			"emissiveFactor":[
				1,
				1,
				1
			],
			"emissiveTexture":{
				"index":0
			},
			"extensions":{
				"KHR_materials_emissive_strength":{
					"emissiveStrength":9
				}
			},
			"name":"ArmReliquary",
			"pbrMetallicRoughness":{
				"baseColorTexture":{
					"index":1
				},
				"metallicRoughnessTexture":{
					"index":2
				}
			}
		}
	],
	"meshes":[
		{
			"name":"ArmReliquary",
			"primitives":[
				{
					"attributes":{
						"POSITION":0,
						"NORMAL":1,
						"TEXCOORD_0":2
					},
					"indices":3,
					"material":0
				}
			]
		}
	],
	"textures":[
		{
			"sampler":0,
			"source":0
		},
		{
			"sampler":0,
			"source":1
		},
		{
			"sampler":0,
			"source":2
		}
	],
	"images":[
		{
			"mimeType":"image/png",
			"name":"ArmReliquary_Emission",
			"uri":"ArmReliquary_Emission.png"
		},
		{
			"mimeType":"image/png",
			"name":"ArmReliquary_BaseMap",
			"uri":"ArmReliquary_BaseMap.png"
		},
		{
			"mimeType":"image/png",
			"name":"ArmReliquary_ORM",
			"uri":"ArmReliquary_ORM.png"
		}
	],
	"accessors":[
		{
			"bufferView":0,
			"componentType":5126,
			"count":1953,
			"max":[
				0.07999999821186066,
				0.5199999809265137,
				0.07400000095367432
			],
			"min":[
				-0.07999999821186066,
				0,
				-0.07000000029802322
			],
			"type":"VEC3"
		},
		{
			"bufferView":1,
			"componentType":5126,
			"count":1953,
			"type":"VEC3"
		},
		{
			"bufferView":2,
			"componentType":5126,
			"count":1953,
			"type":"VEC2"
		},
		{
			"bufferView":3,
			"componentType":5123,
			"count":4386,
			"type":"SCALAR"
		}
	],
	"bufferViews":[
		{
			"buffer":0,
			"byteLength":23436,
			"byteOffset":0,
			"target":34962
		},
		{
			"buffer":0,
			"byteLength":23436,
			"byteOffset":23436,
			"target":34962
		},
		{
			"buffer":0,
			"byteLength":15624,
			"byteOffset":46872,
			"target":34962
		},
		{
			"buffer":0,
			"byteLength":8772,
			"byteOffset":62496,
			"target":34963
		}
	],
	"samplers":[
		{
			"magFilter":9729,
			"minFilter":9987
		}
	],
	"buffers":[
		{
			"byteLength":71268,
			"uri":"ArmReliquary.bin"
		}
	]
}
