{
	"asset":{
		"generator":"Khronos glTF Blender I/O v5.0.21",
		"version":"2.0"
	},
	"extensionsUsed":[
		"KHR_materials_emissive_strength"
	],
	"scene":0,
	"scenes":[
		{
			"name":"Scene",
			"nodes":[
				29
			]
		}
	],
	"nodes":[
		{
			"name":"Cap",
			"rotation":[
				-0.06975368410348892,
				0,
				0,
				0.9975642561912537
			],
			"scale":[
				1,
				0.9999999403953552,
				1
			],
			"translation":[
				0,
				0.13354037702083588,
				5.558133125305176e-06
			]
		},
		{
			"children":[
				0
			],
			"name":"Head",
			"rotation":[
				-9.637326911615673e-06,
				0,
				0,
				1
			],
			"scale":[
				1,
				0.9999998807907104,
				0.9999999403953552
			],
			"translation":[
				0,
				0.08082681894302368,
				7.450580596923828e-09
			]
		},
		{
			"children":[
				1
			],
			"name":"Neck",
			"rotation":[
				1.1704862117767334e-05,
				0,
				0,
				1
			],
			"translation":[
				0,
				0.22139418125152588,
				0
			]
		},
		{
			"name":"Grenado.5",
			"rotation":[
				-0.6246374249458313,
				-0.16730275750160217,
				-0.10650419443845749,
				0.7553110718727112
			],
			"scale":[
				1,
				0.9999999403953552,
				0.9999998807907104
			],
			"translation":[
				4.492700099945068e-06,
				0.07830020785331726,
				2.779066562652588e-06
			]
		},
		{
			"children":[
				3
			],
			"name":"Hand.L",
			"rotation":[
				2.4154081984306686e-05,
				-3.5773380659520626e-05,
				7.83521682024002e-06,
				1
			],
			"scale":[
				1,
				1,
				1.0000001192092896
			],
			"translation":[
				3.91155481338501e-08,
				0.2522919774055481,
				1.1175870895385742e-08
			]
		},
		{
			"children":[
				4
			],
			"name":"LowerArm.L",
			"rotation":[
				-0.5630406141281128,
				4.8893056373344734e-05,
				-0.10947007685899734,
				0.8191468715667725
			],
			"scale":[
				1,
				1.0000001192092896,
				1
			],
			"translation":[
				-3.5390257835388184e-08,
				0.29928046464920044,
				0
			]
		},
		{
			"children":[
				5
			],
			"name":"UpperArm.L",
			"rotation":[
				-0.5063794255256653,
				-0.5221673250198364,
				0.34793195128440857,
				0.5914934873580933
			],
			"scale":[
				1,
				0.9999999403953552,
				0.9999998807907104
			],
			"translation":[
				-1.792795956134796e-08,
				0.11401684582233429,
				5.122274160385132e-09
			]
		},
		{
			"children":[
				6
			],
			"name":"Shoulder.L",
			"rotation":[
				-0.5641442537307739,
				-0.5303686261177063,
				-0.46104696393013,
				0.4334583878517151
			],
			"scale":[
				1.0000001192092896,
				1.0000001192092896,
				1
			],
			"translation":[
				0.05220000073313713,
				0.20382386445999146,
				5.1818788051605225e-06
			]
		},
		{
			"name":"Linstock",
			"rotation":[
				-0.8584365844726562,
				0.13709492981433868,
				0.11462029069662094,
				0.4807846248149872
			],
			"scale":[
				0.9999998807907104,
				0.9999998807907104,
				0.9999998211860657
			],
			"translation":[
				-9.797513484954834e-07,
				0.07829329371452332,
				-1.2665987014770508e-07
			]
		},
		{
			"children":[
				8
			],
			"name":"Hand.R",
			"rotation":[
				-3.671274043881567e-06,
				6.419047713279724e-05,
				-2.373568895563949e-05,
				1
			],
			"scale":[
				1,
				0.9999998807907104,
				0.9999999403953552
			],
			"translation":[
				-2.9802322387695312e-08,
				0.2523043155670166,
				1.043081283569336e-07
			]
		},
		{
			"children":[
				9
			],
			"name":"LowerArm.R",
			"rotation":[
				-0.37566637992858887,
				-4.46038757218048e-05,
				0.07305561751127243,
				0.9238710403442383
			],
			"scale":[
				1,
				0.9999999403953552,
				1
			],
			"translation":[
				5.587935447692871e-09,
				0.2992824912071228,
				3.3527612686157227e-08
			]
		},
		{
			"children":[
				10
			],
			"name":"UpperArm.R",
			"rotation":[
				-0.4805047810077667,
				0.49851444363594055,
				-0.3801928162574768,
				0.61323082447052
			],
			"scale":[
				1,
				1,
				0.9999999403953552
			],
			"translation":[
				1.792795956134796e-08,
				0.11401684582233429,
				5.122274160385132e-09
			]
		},
		{
			"children":[
				11
			],
			"name":"Shoulder.R",
			"rotation":[
				-0.5641442537307739,
				0.5303686261177063,
				0.46104696393013,
				0.4334583878517151
			],
			"scale":[
				1.0000001192092896,
				1.0000001192092896,
				1
			],
			"translation":[
				-0.05220000073313713,
				0.20382386445999146,
				5.1818788051605225e-06
			]
		},
		{
			"name":"Madrier",
			"rotation":[
				7.420778274536133e-06,
				0,
				0,
				1
			],
			"translation":[
				0,
				-0.14107468724250793,
				-0.19438907504081726
			]
		},
		{
			"children":[
				2,
				7,
				12,
				13
			],
			"name":"Chest",
			"rotation":[
				-6.064772605895996e-06,
				0,
				0,
				1
			],
			"translation":[
				0,
				0.1932811141014099,
				1.1175870895385742e-08
			]
		},
		{
			"children":[
				14
			],
			"name":"Spine",
			"rotation":[
				0.06975769996643066,
				0,
				0,
				0.9975639581680298
			],
			"translation":[
				0,
				0.10787999629974365,
				0
			]
		},
		{
			"name":"Foot.L",
			"rotation":[
				-0.5514096617698669,
				0.1192212775349617,
				-0.1465868353843689,
				0.8125552535057068
			],
			"scale":[
				0.9999999403953552,
				1.0000001192092896,
				1
			],
			"translation":[
				7.066133012045839e-09,
				0.3972351551055908,
				-4.6324533098385245e-10
			]
		},
		{
			"children":[
				16
			],
			"name":"LowerLeg.L",
			"rotation":[
				0.02510160580277443,
				-1.0067078619613312e-05,
				0.0011062165722250938,
				0.9996842741966248
			],
			"scale":[
				1,
				0.9999999403953552,
				1
			],
			"translation":[
				2.735760062932968e-09,
				0.43553978204727173,
				-2.3283064365386963e-09
			]
		},
		{
			"children":[
				17
			],
			"name":"UpperLeg.L",
			"rotation":[
				0.9994462728500366,
				0.02207823470234871,
				0.022077901288866997,
				0.011504039168357849
			],
			"scale":[
				1.0000011920928955,
				1,
				1.0000003576278687
			],
			"translation":[
				0.09977000206708908,
				0,
				0
			]
		},
		{
			"name":"Foot.R",
			"rotation":[
				-0.5514096617698669,
				-0.1192212775349617,
				0.1465868353843689,
				0.8125552535057068
			],
			"scale":[
				0.9999999403953552,
				1.0000001192092896,
				1
			],
			"translation":[
				-7.066133012045839e-09,
				0.3972351551055908,
				-4.6324533098385245e-10
			]
		},
		{
			"children":[
				19
			],
			"name":"LowerLeg.R",
			"rotation":[
				0.02510160580277443,
				1.0067078619613312e-05,
				-0.0011062165722250938,
				0.9996842741966248
			],
			"scale":[
				1,
				0.9999999403953552,
				1
			],
			"translation":[
				-2.735760062932968e-09,
				0.43553978204727173,
				-2.3283064365386963e-09
			]
		},
		{
			"children":[
				20
			],
			"name":"UpperLeg.R",
			"rotation":[
				0.9994462728500366,
				-0.02207823470234871,
				-0.022077901288866997,
				0.011504039168357849
			],
			"scale":[
				1.0000011920928955,
				1,
				1.0000003576278687
			],
			"translation":[
				-0.09977000206708908,
				0,
				0
			]
		},
		{
			"name":"Grenado.1",
			"translation":[
				0.15387000143527985,
				0.06418001651763916,
				0.1783600002527237
			]
		},
		{
			"name":"Grenado.2",
			"translation":[
				0.08004999905824661,
				0.06418001651763916,
				0.20010000467300415
			]
		},
		{
			"name":"Grenado.3",
			"translation":[
				-0.08004999905824661,
				0.06418001651763916,
				0.20010000467300415
			]
		},
		{
			"name":"Grenado.4",
			"translation":[
				-0.15387000143527985,
				0.06418001651763916,
				0.1783600002527237
			]
		},
		{
			"children":[
				15,
				18,
				21,
				22,
				23,
				24,
				25
			],
			"name":"Hips",
			"translation":[
				0,
				0.918720006942749,
				0
			]
		},
		{
			"children":[
				26
			],
			"name":"Root"
		},
		{
			"mesh":0,
			"name":"Petardier",
			"skin":0
		},
		{
			"children":[
				28,
				27
			],
			"name":"Petardier_Rig"
		}
	],
	"materials":[
		{
			"doubleSided":true,
			"emissiveFactor":[
				1,
				1,
				1
			],
			"emissiveTexture":{
				"index":0
			},
			"extensions":{
				"KHR_materials_emissive_strength":{
					"emissiveStrength":9
				}
			},
			"name":"Petardier",
			"pbrMetallicRoughness":{
				"baseColorTexture":{
					"index":1
				},
				"metallicRoughnessTexture":{
					"index":2
				}
			}
		}
	],
	"meshes":[
		{
			"name":"Petardier",
			"primitives":[
				{
					"attributes":{
						"POSITION":0,
						"NORMAL":1,
						"TEXCOORD_0":2,
						"JOINTS_0":3,
						"WEIGHTS_0":4
					},
					"indices":5,
					"material":0
				}
			]
		}
	],
	"textures":[
		{
			"sampler":0,
			"source":0
		},
		{
			"sampler":0,
			"source":1
		},
		{
			"sampler":0,
			"source":2
		}
	],
	"images":[
		{
			"mimeType":"image/png",
			"name":"Petardier_Emission",
			"uri":"Petardier_Emission.png"
		},
		{
			"mimeType":"image/png",
			"name":"Petardier_BaseMap",
			"uri":"Petardier_BaseMap.png"
		},
		{
			"mimeType":"image/png",
			"name":"Petardier_ORM",
			"uri":"Petardier_ORM.png"
		}
	],
	"skins":[
		{
			"inverseBindMatrices":6,
			"joints":[
				27,
				26,
				15,
				14,
				2,
				1,
				0,
				7,
				6,
				5,
				4,
				3,
				12,
				11,
				10,
				9,
				8,
				13,
				18,
				17,
				16,
				21,
				20,
				19,
				22,
				23,
				24,
				25
			],
			"name":"Petardier_Rig"
		}
	],
	"accessors":[
		{
			"bufferView":0,
			"componentType":5126,
			"count":6642,
			"max":[
				0.3059999942779541,
				1.7519999742507935,
				0.5113032460212708
			],
			"min":[
				-0.3059999942779541,
				0,
				-0.5508553385734558
			],
			"type":"VEC3"
		},
		{
			"bufferView":1,
			"componentType":5126,
			"count":6642,
			"type":"VEC3"
		},
		{
			"bufferView":2,
			"componentType":5126,
			"count":6642,
			"type":"VEC2"
		},
		{
			"bufferView":3,
			"componentType":5121,
			"count":6642,
			"type":"VEC4"
		},
		{
			"bufferView":4,
			"componentType":5126,
			"count":6642,
			"type":"VEC4"
		},
		{
			"bufferView":5,
			"componentType":5123,
			"count":18150,
			"type":"SCALAR"
		},
		{
			"bufferView":6,
			"componentType":5126,
			"count":28,
			"type":"MAT4"
		}
	],
	"bufferViews":[
		{
			"buffer":0,
			"byteLength":79704,
			"byteOffset":0,
			"target":34962
		},
		{
			"buffer":0,
			"byteLength":79704,
			"byteOffset":79704,
			"target":34962
		},
		{
			"buffer":0,
			"byteLength":53136,
			"byteOffset":159408,
			"target":34962
		},
		{
			"buffer":0,
			"byteLength":26568,
			"byteOffset":212544,
			"target":34962
		},
		{
			"buffer":0,
			"byteLength":106272,
			"byteOffset":239112,
			"target":34962
		},
		{
			"buffer":0,
			"byteLength":36300,
			"byteOffset":345384,
			"target":34963
		},
		{
			"buffer":0,
			"byteLength":1792,
			"byteOffset":381684
		}
	],
	"samplers":[
		{
			"magFilter":9729,
			"minFilter":9987
		}
	],
	"buffers":[
		{
			"byteLength":383476,
			"uri":"Petardier.bin"
		}
	]
}
