{
	"asset":{
		"generator":"Khronos glTF Blender I/O v5.0.21",
		"version":"2.0"
	},
	"extensionsUsed":[
		"KHR_materials_emissive_strength"
	],
	"scene":0,
	"scenes":[
		{
			"name":"Scene",
			"nodes":[
				0
			]
		}
	],
	"nodes":[
		{
			"mesh":0,
			"name":"FaienceHippopotamus"
		}
	],
	"materials":[
		{
			"doubleSided":true,
			"emissiveFactor":[
				1,
				1,
				1
			],
			"emissiveTexture":{
				"index":0
			},
			"extensions":{
				"KHR_materials_emissive_strength":{
					"emissiveStrength":9
				}
			},
			"name":"FaienceHippopotamus",
			"pbrMetallicRoughness":{
				"baseColorTexture":{
					"index":1
				},
				"metallicRoughnessTexture":{
					"index":2
				}
			}
		}
	],
	"meshes":[
		{
			"name":"FaienceHippopotamus",
			"primitives":[
				{
					"attributes":{
						"POSITION":0,
						"NORMAL":1,
						"TEXCOORD_0":2
					},
					"indices":3,
					"material":0
				}
			]
		}
	],
	"textures":[
		{
			"sampler":0,
			"source":0
		},
		{
			"sampler":0,
			"source":1
		},
		{
			"sampler":0,
			"source":2
		}
	],
	"images":[
		{
			"mimeType":"image/png",
			"name":"FaienceHippopotamus_Emission",
			"uri":"FaienceHippopotamus_Emission.png"
		},
		{
			"mimeType":"image/png",
			"name":"FaienceHippopotamus_BaseMap",
			"uri":"FaienceHippopotamus_BaseMap.png"
		},
		{
			"mimeType":"image/png",
			"name":"FaienceHippopotamus_ORM",
			"uri":"FaienceHippopotamus_ORM.png"
		}
	],
	"accessors":[
		{
			"bufferView":0,
			"componentType":5126,
			"count":1854,
			"max":[
				0.10634415596723557,
				0.1070530116558075,
				0.0411890484392643
			],
			"min":[
				-0.10350000113248825,
				0,
				-0.0411890484392643
			],
			"type":"VEC3"
		},
		{
			"bufferView":1,
			"componentType":5126,
			"count":1854,
			"type":"VEC3"
		},
		{
			"bufferView":2,
			"componentType":5126,
			"count":1854,
			"type":"VEC2"
		},
		{
			"bufferView":3,
			"componentType":5123,
			"count":4374,
			"type":"SCALAR"
		}
	],
	"bufferViews":[
		{
			"buffer":0,
			"byteLength":22248,
			"byteOffset":0,
			"target":34962
		},
		{
			"buffer":0,
			"byteLength":22248,
			"byteOffset":22248,
			"target":34962
		},
		{
			"buffer":0,
			"byteLength":14832,
			"byteOffset":44496,
			"target":34962
		},
		{
			"buffer":0,
			"byteLength":8748,
			"byteOffset":59328,
			"target":34963
		}
	],
	"samplers":[
		{
			"magFilter":9729,
			"minFilter":9987
		}
	],
	"buffers":[
		{
			"byteLength":68076,
			"uri":"FaienceHippopotamus.bin"
		}
	]
}
