{
	"asset":{
		"generator":"Khronos glTF Blender I/O v5.0.21",
		"version":"2.0"
	},
	"extensionsUsed":[
		"KHR_materials_emissive_strength"
	],
	"scene":0,
	"scenes":[
		{
			"name":"Scene",
			"nodes":[
				24
			]
		}
	],
	"nodes":[
		{
			"name":"Morion",
			"translation":[
				0,
				0.14960002899169922,
				-0.007040000054985285
			]
		},
		{
			"children":[
				0
			],
			"name":"Head",
			"translation":[
				0,
				0.08095991611480713,
				0
			]
		},
		{
			"children":[
				1
			],
			"name":"Neck",
			"translation":[
				0,
				0.22176003456115723,
				0
			]
		},
		{
			"name":"Hand.L",
			"rotation":[
				8.260831236839294e-06,
				-2.0114704966545105e-05,
				1.0499731615709607e-05,
				1
			],
			"scale":[
				0.9999999403953552,
				0.9999999403953552,
				1
			],
			"translation":[
				-3.3527612686157227e-08,
				0.2551960051059723,
				1.4901161193847656e-08
			]
		},
		{
			"children":[
				3
			],
			"name":"LowerArm.L",
			"rotation":[
				-0.39463862776756287,
				1.1315923984511755e-05,
				-0.09840621799230576,
				0.9135516285896301
			],
			"scale":[
				0.9999999403953552,
				1,
				0.9999999403953552
			],
			"translation":[
				-6.030313670635223e-08,
				0.3027205765247345,
				-1.30385160446167e-08
			]
		},
		{
			"children":[
				4
			],
			"name":"UpperArm.L",
			"rotation":[
				-0.44555798172950745,
				-0.46846720576286316,
				0.388865202665329,
				0.6563538908958435
			],
			"scale":[
				1,
				0.9999998211860657,
				0.9999999403953552
			],
			"translation":[
				5.15915443699555e-09,
				0.11531510949134827,
				9.315848359392476e-08
			]
		},
		{
			"children":[
				5
			],
			"name":"Shoulder.L",
			"rotation":[
				-0.5305252075195312,
				-0.4990673065185547,
				-0.4990673065185547,
				0.46947482228279114
			],
			"scale":[
				0.9999998807907104,
				0.9999999403953552,
				0.9999999403953552
			],
			"translation":[
				0.052799999713897705,
				0.20415997505187988,
				0
			]
		},
		{
			"name":"Partisan",
			"rotation":[
				-0.9426523447036743,
				0.1298401653766632,
				0.12984026968479156,
				0.2787284851074219
			],
			"scale":[
				1.0000001192092896,
				1.0000001192092896,
				1.0000001192092896
			],
			"translation":[
				6.213784217834473e-06,
				0.07920494675636292,
				8.866190910339355e-07
			]
		},
		{
			"children":[
				7
			],
			"name":"Hand.R",
			"rotation":[
				-4.405156346365402e-07,
				-3.639981514425017e-05,
				1.9840897948597558e-05,
				1
			],
			"scale":[
				0.9999999403953552,
				0.9999999403953552,
				0.9999998807907104
			],
			"translation":[
				7.450580596923828e-09,
				0.255204975605011,
				-2.9802322387695312e-08
			]
		},
		{
			"children":[
				8
			],
			"name":"LowerArm.R",
			"rotation":[
				-0.2696230113506317,
				-3.53729774360545e-06,
				0.05731381103396416,
				0.9612588286399841
			],
			"scale":[
				0.9999999403953552,
				1,
				1
			],
			"translation":[
				-9.546056389808655e-09,
				0.3027152717113495,
				0
			]
		},
		{
			"children":[
				9
			],
			"name":"UpperArm.R",
			"rotation":[
				-0.4675430655479431,
				0.49014678597450256,
				-0.38453128933906555,
				0.6271326541900635
			],
			"scale":[
				1,
				1.0000001192092896,
				0.9999999403953552
			],
			"translation":[
				-5.15915443699555e-09,
				0.11531510949134827,
				9.315848359392476e-08
			]
		},
		{
			"children":[
				10
			],
			"name":"Shoulder.R",
			"rotation":[
				-0.5305252075195312,
				0.4990673065185547,
				0.4990673065185547,
				0.46947482228279114
			],
			"scale":[
				0.9999998807907104,
				0.9999999403953552,
				0.9999999403953552
			],
			"translation":[
				-0.052799999713897705,
				0.20415997505187988,
				0
			]
		},
		{
			"children":[
				2,
				6,
				11
			],
			"name":"Chest",
			"translation":[
				0,
				0.19359993934631348,
				0
			]
		},
		{
			"children":[
				12
			],
			"name":"Spine",
			"translation":[
				0,
				0.10912007093429565,
				0
			]
		},
		{
			"name":"Foot.L",
			"rotation":[
				-0.5514096617698669,
				0.1192195937037468,
				-0.14658638834953308,
				0.8125555515289307
			],
			"scale":[
				1.0000001192092896,
				1,
				1
			],
			"translation":[
				2.013443811677007e-08,
				0.40180113911628723,
				-7.021154768693805e-10
			]
		},
		{
			"children":[
				14
			],
			"name":"LowerLeg.L",
			"rotation":[
				0.02510209009051323,
				5.555346547225781e-07,
				0.001095347455702722,
				0.9996842741966248
			],
			"scale":[
				0.9999999403953552,
				0.9999998807907104,
				0.9999998807907104
			],
			"translation":[
				6.752088665962219e-09,
				0.44054579734802246,
				9.313225746154785e-10
			]
		},
		{
			"children":[
				15
			],
			"name":"UpperLeg.L",
			"rotation":[
				0.9994466304779053,
				0.02206861600279808,
				0.02206837199628353,
				0.01150447130203247
			],
			"scale":[
				1.0000009536743164,
				0.9999997615814209,
				1.0000001192092896
			],
			"translation":[
				0.0968099981546402,
				0,
				0
			]
		},
		{
			"name":"Foot.R",
			"rotation":[
				-0.5514096617698669,
				-0.1192195937037468,
				0.14658638834953308,
				0.8125555515289307
			],
			"scale":[
				1.0000001192092896,
				1,
				1
			],
			"translation":[
				-2.013443811677007e-08,
				0.40180113911628723,
				-7.021154768693805e-10
			]
		},
		{
			"children":[
				17
			],
			"name":"LowerLeg.R",
			"rotation":[
				0.02510209009051323,
				-5.555346547225781e-07,
				-0.001095347455702722,
				0.9996842741966248
			],
			"scale":[
				0.9999999403953552,
				0.9999998807907104,
				0.9999998807907104
			],
			"translation":[
				-6.752088665962219e-09,
				0.44054579734802246,
				9.313225746154785e-10
			]
		},
		{
			"children":[
				18
			],
			"name":"UpperLeg.R",
			"rotation":[
				0.9994466304779053,
				-0.02206861600279808,
				-0.02206837199628353,
				0.01150447130203247
			],
			"scale":[
				1.0000009536743164,
				0.9999997615814209,
				1.0000001192092896
			],
			"translation":[
				-0.0968099981546402,
				0,
				0
			]
		},
		{
			"name":"Lantern",
			"rotation":[
				1,
				0,
				-4.371138828673793e-08,
				0
			],
			"translation":[
				-0.20212000608444214,
				0.06032001972198486,
				0.09845999628305435
			]
		},
		{
			"children":[
				13,
				16,
				19,
				20
			],
			"name":"Hips",
			"translation":[
				0,
				0.9292799830436707,
				0
			]
		},
		{
			"children":[
				21
			],
			"name":"Root"
		},
		{
			"mesh":0,
			"name":"PalaceGuard",
			"skin":0
		},
		{
			"children":[
				23,
				22
			],
			"name":"PalaceGuard_Rig"
		}
	],
	"materials":[
		{
			"doubleSided":true,
			"emissiveFactor":[
				1,
				1,
				1
			],
			"emissiveTexture":{
				"index":0
			},
			"extensions":{
				"KHR_materials_emissive_strength":{
					"emissiveStrength":9
				}
			},
			"name":"PalaceGuard",
			"pbrMetallicRoughness":{
				"baseColorTexture":{
					"index":1
				},
				"metallicRoughnessTexture":{
					"index":2
				}
			}
		}
	],
	"meshes":[
		{
			"name":"PalaceGuard",
			"primitives":[
				{
					"attributes":{
						"POSITION":0,
						"NORMAL":1,
						"TEXCOORD_0":2,
						"JOINTS_0":3,
						"WEIGHTS_0":4
					},
					"indices":5,
					"material":0
				}
			]
		}
	],
	"textures":[
		{
			"sampler":0,
			"source":0
		},
		{
			"sampler":0,
			"source":1
		},
		{
			"sampler":0,
			"source":2
		}
	],
	"images":[
		{
			"mimeType":"image/png",
			"name":"PalaceGuard_Emission",
			"uri":"PalaceGuard_Emission.png"
		},
		{
			"mimeType":"image/png",
			"name":"PalaceGuard_BaseMap",
			"uri":"PalaceGuard_BaseMap.png"
		},
		{
			"mimeType":"image/png",
			"name":"PalaceGuard_ORM",
			"uri":"PalaceGuard_ORM.png"
		}
	],
	"skins":[
		{
			"inverseBindMatrices":6,
			"joints":[
				22,
				21,
				13,
				12,
				2,
				1,
				0,
				6,
				5,
				4,
				3,
				11,
				10,
				9,
				8,
				7,
				16,
				15,
				14,
				19,
				18,
				17,
				20
			],
			"name":"PalaceGuard_Rig"
		}
	],
	"accessors":[
		{
			"bufferView":0,
			"componentType":5126,
			"count":9107,
			"max":[
				0.330709844827652,
				2.617058277130127,
				0.28810811042785645
			],
			"min":[
				-0.3932303190231323,
				0,
				-0.41258302330970764
			],
			"type":"VEC3"
		},
		{
			"bufferView":1,
			"componentType":5126,
			"count":9107,
			"type":"VEC3"
		},
		{
			"bufferView":2,
			"componentType":5126,
			"count":9107,
			"type":"VEC2"
		},
		{
			"bufferView":3,
			"componentType":5121,
			"count":9107,
			"type":"VEC4"
		},
		{
			"bufferView":4,
			"componentType":5126,
			"count":9107,
			"type":"VEC4"
		},
		{
			"bufferView":5,
			"componentType":5123,
			"count":22254,
			"type":"SCALAR"
		},
		{
			"bufferView":6,
			"componentType":5126,
			"count":23,
			"type":"MAT4"
		}
	],
	"bufferViews":[
		{
			"buffer":0,
			"byteLength":109284,
			"byteOffset":0,
			"target":34962
		},
		{
			"buffer":0,
			"byteLength":109284,
			"byteOffset":109284,
			"target":34962
		},
		{
			"buffer":0,
			"byteLength":72856,
			"byteOffset":218568,
			"target":34962
		},
		{
			"buffer":0,
			"byteLength":36428,
			"byteOffset":291424,
			"target":34962
		},
		{
			"buffer":0,
			"byteLength":145712,
			"byteOffset":327852,
			"target":34962
		},
		{
			"buffer":0,
			"byteLength":44508,
			"byteOffset":473564,
			"target":34963
		},
		{
			"buffer":0,
			"byteLength":1472,
			"byteOffset":518072
		}
	],
	"samplers":[
		{
			"magFilter":9729,
			"minFilter":9987
		}
	],
	"buffers":[
		{
			"byteLength":519544,
			"uri":"PalaceGuard.bin"
		}
	]
}
