{
	"asset":{
		"generator":"Khronos glTF Blender I/O v5.0.21",
		"version":"2.0"
	},
	"extensionsUsed":[
		"KHR_materials_emissive_strength"
	],
	"scene":0,
	"scenes":[
		{
			"name":"Scene",
			"nodes":[
				0
			]
		}
	],
	"nodes":[
		{
			"mesh":0,
			"name":"IlluminatedPsalter"
		}
	],
	"materials":[
		{
			"doubleSided":true,
			"emissiveFactor":[
				1,
				1,
				1
			],
			"emissiveTexture":{
				"index":0
			},
			"extensions":{
				"KHR_materials_emissive_strength":{
					"emissiveStrength":9
				}
			},
			"name":"IlluminatedPsalter",
			"pbrMetallicRoughness":{
				"baseColorTexture":{
					"index":1
				},
				"metallicRoughnessTexture":{
					"index":2
				}
			}
		}
	],
	"meshes":[
		{
			"name":"IlluminatedPsalter",
			"primitives":[
				{
					"attributes":{
						"POSITION":0,
						"NORMAL":1,
						"TEXCOORD_0":2
					},
					"indices":3,
					"material":0
				}
			]
		}
	],
	"textures":[
		{
			"sampler":0,
			"source":0
		},
		{
			"sampler":0,
			"source":1
		},
		{
			"sampler":0,
			"source":2
		}
	],
	"images":[
		{
			"mimeType":"image/png",
			"name":"IlluminatedPsalter_Emission",
			"uri":"IlluminatedPsalter_Emission.png"
		},
		{
			"mimeType":"image/png",
			"name":"IlluminatedPsalter_BaseMap",
			"uri":"IlluminatedPsalter_BaseMap.png"
		},
		{
			"mimeType":"image/png",
			"name":"IlluminatedPsalter_ORM",
			"uri":"IlluminatedPsalter_ORM.png"
		}
	],
	"accessors":[
		{
			"bufferView":0,
			"componentType":5126,
			"count":2856,
			"max":[
				0.09780000150203705,
				0.08870000392198563,
				0.12999999523162842
			],
			"min":[
				-0.10379032045602798,
				-0.001499999314546585,
				-0.12999999523162842
			],
			"type":"VEC3"
		},
		{
			"bufferView":1,
			"componentType":5126,
			"count":2856,
			"type":"VEC3"
		},
		{
			"bufferView":2,
			"componentType":5126,
			"count":2856,
			"type":"VEC2"
		},
		{
			"bufferView":3,
			"componentType":5123,
			"count":6036,
			"type":"SCALAR"
		}
	],
	"bufferViews":[
		{
			"buffer":0,
			"byteLength":34272,
			"byteOffset":0,
			"target":34962
		},
		{
			"buffer":0,
			"byteLength":34272,
			"byteOffset":34272,
			"target":34962
		},
		{
			"buffer":0,
			"byteLength":22848,
			"byteOffset":68544,
			"target":34962
		},
		{
			"buffer":0,
			"byteLength":12072,
			"byteOffset":91392,
			"target":34963
		}
	],
	"samplers":[
		{
			"magFilter":9729,
			"minFilter":9987
		}
	],
	"buffers":[
		{
			"byteLength":103464,
			"uri":"IlluminatedPsalter.bin"
		}
	]
}
