{
	"asset":{
		"generator":"Khronos glTF Blender I/O v5.0.21",
		"version":"2.0"
	},
	"extensionsUsed":[
		"KHR_materials_emissive_strength"
	],
	"scene":0,
	"scenes":[
		{
			"name":"Scene",
			"nodes":[
				0
			]
		}
	],
	"nodes":[
		{
			"mesh":0,
			"name":"Astrolabe"
		}
	],
	"materials":[
		{
			"doubleSided":true,
			"emissiveFactor":[
				1,
				1,
				1
			],
			"emissiveTexture":{
				"index":0
			},
			"extensions":{
				"KHR_materials_emissive_strength":{
					"emissiveStrength":9
				}
			},
			"name":"Astrolabe",
			"pbrMetallicRoughness":{
				"baseColorTexture":{
					"index":1
				},
				"metallicRoughnessTexture":{
					"index":2
				}
			}
		}
	],
	"meshes":[
		{
			"name":"Astrolabe",
			"primitives":[
				{
					"attributes":{
						"POSITION":0,
						"NORMAL":1,
						"TEXCOORD_0":2
					},
					"indices":3,
					"material":0
				}
			]
		}
	],
	"textures":[
		{
			"sampler":0,
			"source":0
		},
		{
			"sampler":0,
			"source":1
		},
		{
			"sampler":0,
			"source":2
		}
	],
	"images":[
		{
			"mimeType":"image/png",
			"name":"Astrolabe_Emission",
			"uri":"Astrolabe_Emission.png"
		},
		{
			"mimeType":"image/png",
			"name":"Astrolabe_BaseMap",
			"uri":"Astrolabe_BaseMap.png"
		},
		{
			"mimeType":"image/png",
			"name":"Astrolabe_ORM",
			"uri":"Astrolabe_ORM.png"
		}
	],
	"accessors":[
		{
			"bufferView":0,
			"componentType":5126,
			"count":2308,
			"max":[
				0.10999999940395355,
				0.30000001192092896,
				0.016599999740719795
			],
			"min":[
				-0.10999999940395355,
				0,
				-0.015200000256299973
			],
			"type":"VEC3"
		},
		{
			"bufferView":1,
			"componentType":5126,
			"count":2308,
			"type":"VEC3"
		},
		{
			"bufferView":2,
			"componentType":5126,
			"count":2308,
			"type":"VEC2"
		},
		{
			"bufferView":3,
			"componentType":5123,
			"count":5688,
			"type":"SCALAR"
		}
	],
	"bufferViews":[
		{
			"buffer":0,
			"byteLength":27696,
			"byteOffset":0,
			"target":34962
		},
		{
			"buffer":0,
			"byteLength":27696,
			"byteOffset":27696,
			"target":34962
		},
		{
			"buffer":0,
			"byteLength":18464,
			"byteOffset":55392,
			"target":34962
		},
		{
			"buffer":0,
			"byteLength":11376,
			"byteOffset":73856,
			"target":34963
		}
	],
	"samplers":[
		{
			"magFilter":9729,
			"minFilter":9987
		}
	],
	"buffers":[
		{
			"byteLength":85232,
			"uri":"Astrolabe.bin"
		}
	]
}
