{
	"asset":{
		"generator":"Khronos glTF Blender I/O v5.0.21",
		"version":"2.0"
	},
	"extensionsUsed":[
		"KHR_materials_emissive_strength"
	],
	"scene":0,
	"scenes":[
		{
			"name":"Scene",
			"nodes":[
				0
			]
		}
	],
	"nodes":[
		{
			"mesh":0,
			"name":"GoldDeathMask"
		}
	],
	"materials":[
		{
			"doubleSided":true,
			"emissiveFactor":[
				1,
				1,
				1
			],
			"emissiveTexture":{
				"index":0
			},
			"extensions":{
				"KHR_materials_emissive_strength":{
					"emissiveStrength":9
				}
			},
			"name":"GoldDeathMask",
			"pbrMetallicRoughness":{
				"baseColorTexture":{
					"index":1
				},
				"metallicRoughnessTexture":{
					"index":2
				}
			}
		}
	],
	"meshes":[
		{
			"name":"GoldDeathMask",
			"primitives":[
				{
					"attributes":{
						"POSITION":0,
						"NORMAL":1,
						"TEXCOORD_0":2
					},
					"indices":3,
					"material":0
				}
			]
		}
	],
	"textures":[
		{
			"sampler":0,
			"source":0
		},
		{
			"sampler":0,
			"source":1
		},
		{
			"sampler":0,
			"source":2
		}
	],
	"images":[
		{
			"mimeType":"image/png",
			"name":"GoldDeathMask_Emission",
			"uri":"GoldDeathMask_Emission.png"
		},
		{
			"mimeType":"image/png",
			"name":"GoldDeathMask_BaseMap",
			"uri":"GoldDeathMask_BaseMap.png"
		},
		{
			"mimeType":"image/png",
			"name":"GoldDeathMask_ORM",
			"uri":"GoldDeathMask_ORM.png"
		}
	],
	"accessors":[
		{
			"bufferView":0,
			"componentType":5126,
			"count":1748,
			"max":[
				0.16300000250339508,
				0.3096719980239868,
				0.041942521929740906
			],
			"min":[
				-0.16300000250339508,
				0,
				-0.039500001817941666
			],
			"type":"VEC3"
		},
		{
			"bufferView":1,
			"componentType":5126,
			"count":1748,
			"type":"VEC3"
		},
		{
			"bufferView":2,
			"componentType":5126,
			"count":1748,
			"type":"VEC2"
		},
		{
			"bufferView":3,
			"componentType":5123,
			"count":4092,
			"type":"SCALAR"
		}
	],
	"bufferViews":[
		{
			"buffer":0,
			"byteLength":20976,
			"byteOffset":0,
			"target":34962
		},
		{
			"buffer":0,
			"byteLength":20976,
			"byteOffset":20976,
			"target":34962
		},
		{
			"buffer":0,
			"byteLength":13984,
			"byteOffset":41952,
			"target":34962
		},
		{
			"buffer":0,
			"byteLength":8184,
			"byteOffset":55936,
			"target":34963
		}
	],
	"samplers":[
		{
			"magFilter":9729,
			"minFilter":9987
		}
	],
	"buffers":[
		{
			"byteLength":64120,
			"uri":"GoldDeathMask.bin"
		}
	]
}
