{
	"asset":{
		"generator":"Khronos glTF Blender I/O v5.0.21",
		"version":"2.0"
	},
	"extensionsUsed":[
		"KHR_materials_emissive_strength"
	],
	"scene":0,
	"scenes":[
		{
			"name":"Scene",
			"nodes":[
				23
			]
		}
	],
	"nodes":[
		{
			"name":"Visor",
			"rotation":[
				3.0908619663705394e-08,
				0.7071067690849304,
				0.7071067690849304,
				3.0908619663705394e-08
			],
			"translation":[
				0,
				0.18813002109527588,
				0.009999999776482582
			]
		},
		{
			"children":[
				0
			],
			"name":"Helm",
			"translation":[
				0,
				-0.025479912757873535,
				-0.01092000026255846
			]
		},
		{
			"children":[
				1
			],
			"name":"Head",
			"translation":[
				0,
				0.08372008800506592,
				0
			]
		},
		{
			"children":[
				2
			],
			"name":"Neck",
			"scale":[
				1,
				0.9999999403953552,
				1
			],
			"translation":[
				0,
				0.22932004928588867,
				0
			]
		},
		{
			"name":"Hand.L",
			"rotation":[
				1.4696272046421655e-05,
				5.323812729329802e-05,
				-3.285706043243408e-05,
				1
			],
			"scale":[
				1,
				0.9999999403953552,
				0.9999999403953552
			],
			"translation":[
				2.9802322387695312e-08,
				0.26390042901039124,
				2.2351741790771484e-08
			]
		},
		{
			"children":[
				4
			],
			"name":"LowerArm.L",
			"rotation":[
				-0.1631910502910614,
				-1.7673553884378634e-05,
				-0.05937868729233742,
				0.9848060011863708
			],
			"scale":[
				1,
				0.9999999403953552,
				0.9999999403953552
			],
			"translation":[
				2.6309862732887268e-08,
				0.3130374252796173,
				1.862645149230957e-09
			]
		},
		{
			"children":[
				5
			],
			"name":"UpperArm.L",
			"rotation":[
				-0.450761079788208,
				-0.4676003158092499,
				0.31648004055023193,
				0.6913789510726929
			],
			"scale":[
				0.9999998807907104,
				0.9999997615814209,
				0.9999997615814209
			],
			"translation":[
				-2.6786711737614155e-10,
				0.1314217746257782,
				-5.124986302007528e-08
			]
		},
		{
			"children":[
				6
			],
			"name":"Shoulder.L",
			"rotation":[
				-0.5276974439620972,
				-0.4992322623729706,
				-0.49923238158226013,
				0.47230252623558044
			],
			"scale":[
				1.0000001192092896,
				1.0000001192092896,
				1.0000001192092896
			],
			"translation":[
				0.05460000038146973,
				0.21112000942230225,
				0
			]
		},
		{
			"name":"Hand.R",
			"rotation":[
				1.4696272046421655e-05,
				-5.323812729329802e-05,
				3.285706043243408e-05,
				1
			],
			"scale":[
				1,
				0.9999999403953552,
				0.9999999403953552
			],
			"translation":[
				-2.9802322387695312e-08,
				0.26390042901039124,
				2.2351741790771484e-08
			]
		},
		{
			"children":[
				8
			],
			"name":"LowerArm.R",
			"rotation":[
				-0.1631910502910614,
				1.7673553884378634e-05,
				0.05937868729233742,
				0.9848060011863708
			],
			"scale":[
				1,
				0.9999999403953552,
				0.9999999403953552
			],
			"translation":[
				-2.6309862732887268e-08,
				0.3130374252796173,
				1.862645149230957e-09
			]
		},
		{
			"children":[
				9
			],
			"name":"UpperArm.R",
			"rotation":[
				-0.450761079788208,
				0.4676003158092499,
				-0.31648004055023193,
				0.6913789510726929
			],
			"scale":[
				0.9999998807907104,
				0.9999997615814209,
				0.9999997615814209
			],
			"translation":[
				2.6786711737614155e-10,
				0.1314217746257782,
				-5.124986302007528e-08
			]
		},
		{
			"children":[
				10
			],
			"name":"Shoulder.R",
			"rotation":[
				-0.5276974439620972,
				0.4992322623729706,
				0.49923238158226013,
				0.47230252623558044
			],
			"scale":[
				1.0000001192092896,
				1.0000001192092896,
				1.0000001192092896
			],
			"translation":[
				-0.05460000038146973,
				0.21112000942230225,
				0
			]
		},
		{
			"children":[
				3,
				7,
				11
			],
			"name":"Chest",
			"translation":[
				0,
				0.20020008087158203,
				0
			]
		},
		{
			"children":[
				12
			],
			"name":"Spine",
			"scale":[
				1,
				0.9999999403953552,
				1
			],
			"translation":[
				0,
				0.11283999681472778,
				0
			]
		},
		{
			"name":"Foot.L",
			"rotation":[
				-0.5514096021652222,
				0.1192314401268959,
				-0.14658880233764648,
				0.8125534057617188
			],
			"scale":[
				0.9999999403953552,
				0.9999998807907104,
				1
			],
			"translation":[
				3.1401614641879405e-10,
				0.4154984652996063,
				2.4145130339547904e-12
			]
		},
		{
			"children":[
				14
			],
			"name":"LowerLeg.L",
			"rotation":[
				0.025101477280259132,
				-1.3794709047942888e-05,
				0.0011096287053078413,
				0.9996843338012695
			],
			"scale":[
				1,
				0.9999998807907104,
				0.9999999403953552
			],
			"translation":[
				1.3096723705530167e-08,
				0.4555644989013672,
				-3.259629011154175e-09
			]
		},
		{
			"children":[
				15
			],
			"name":"UpperLeg.L",
			"rotation":[
				0.9994463920593262,
				0.022074291482567787,
				0.022074008360505104,
				0.011504216119647026
			],
			"scale":[
				1.0000011920928955,
				1,
				1.000000238418579
			],
			"translation":[
				0.1070299968123436,
				0,
				0
			]
		},
		{
			"name":"Foot.R",
			"rotation":[
				-0.5514096021652222,
				-0.1192314401268959,
				0.14658880233764648,
				0.8125534057617188
			],
			"scale":[
				0.9999999403953552,
				0.9999998807907104,
				1
			],
			"translation":[
				-3.1401614641879405e-10,
				0.4154984652996063,
				2.4145130339547904e-12
			]
		},
		{
			"children":[
				17
			],
			"name":"LowerLeg.R",
			"rotation":[
				0.025101477280259132,
				1.3794709047942888e-05,
				-0.0011096287053078413,
				0.9996843338012695
			],
			"scale":[
				1,
				0.9999998807907104,
				0.9999999403953552
			],
			"translation":[
				-1.3096723705530167e-08,
				0.4555644989013672,
				-3.259629011154175e-09
			]
		},
		{
			"children":[
				18
			],
			"name":"UpperLeg.R",
			"rotation":[
				0.9994463920593262,
				-0.022074291482567787,
				-0.022074008360505104,
				0.011504216119647026
			],
			"scale":[
				1.0000011920928955,
				1,
				1.000000238418579
			],
			"translation":[
				-0.1070299968123436,
				0,
				0
			]
		},
		{
			"children":[
				13,
				16,
				19
			],
			"name":"Hips",
			"translation":[
				0,
				0.9609599709510803,
				0
			]
		},
		{
			"children":[
				20
			],
			"name":"Root"
		},
		{
			"mesh":0,
			"name":"Cuirassier",
			"skin":0
		},
		{
			"children":[
				22,
				21
			],
			"name":"Cuirassier_Rig"
		}
	],
	"materials":[
		{
			"doubleSided":true,
			"emissiveFactor":[
				1,
				1,
				1
			],
			"emissiveTexture":{
				"index":0
			},
			"extensions":{
				"KHR_materials_emissive_strength":{
					"emissiveStrength":9
				}
			},
			"name":"Cuirassier",
			"pbrMetallicRoughness":{
				"baseColorTexture":{
					"index":1
				},
				"metallicRoughnessTexture":{
					"index":2
				}
			}
		}
	],
	"meshes":[
		{
			"name":"Cuirassier",
			"primitives":[
				{
					"attributes":{
						"POSITION":0,
						"NORMAL":1,
						"TEXCOORD_0":2,
						"JOINTS_0":3,
						"WEIGHTS_0":4
					},
					"indices":5,
					"material":0
				}
			]
		}
	],
	"textures":[
		{
			"sampler":0,
			"source":0
		},
		{
			"sampler":0,
			"source":1
		},
		{
			"sampler":0,
			"source":2
		}
	],
	"images":[
		{
			"mimeType":"image/png",
			"name":"Cuirassier_Emission",
			"uri":"Cuirassier_Emission.png"
		},
		{
			"mimeType":"image/png",
			"name":"Cuirassier_BaseMap",
			"uri":"Cuirassier_BaseMap.png"
		},
		{
			"mimeType":"image/png",
			"name":"Cuirassier_ORM",
			"uri":"Cuirassier_ORM.png"
		}
	],
	"skins":[
		{
			"inverseBindMatrices":6,
			"joints":[
				21,
				20,
				13,
				12,
				3,
				2,
				1,
				0,
				7,
				6,
				5,
				4,
				11,
				10,
				9,
				8,
				16,
				15,
				14,
				19,
				18,
				17
			],
			"name":"Cuirassier_Rig"
		}
	],
	"accessors":[
		{
			"bufferView":0,
			"componentType":5126,
			"count":8511,
			"max":[
				0.4427940845489502,
				1.9149999618530273,
				0.2744433283805847
			],
			"min":[
				-0.4427940845489502,
				0,
				-0.721991777420044
			],
			"type":"VEC3"
		},
		{
			"bufferView":1,
			"componentType":5126,
			"count":8511,
			"type":"VEC3"
		},
		{
			"bufferView":2,
			"componentType":5126,
			"count":8511,
			"type":"VEC2"
		},
		{
			"bufferView":3,
			"componentType":5121,
			"count":8511,
			"type":"VEC4"
		},
		{
			"bufferView":4,
			"componentType":5126,
			"count":8511,
			"type":"VEC4"
		},
		{
			"bufferView":5,
			"componentType":5123,
			"count":23220,
			"type":"SCALAR"
		},
		{
			"bufferView":6,
			"componentType":5126,
			"count":22,
			"type":"MAT4"
		}
	],
	"bufferViews":[
		{
			"buffer":0,
			"byteLength":102132,
			"byteOffset":0,
			"target":34962
		},
		{
			"buffer":0,
			"byteLength":102132,
			"byteOffset":102132,
			"target":34962
		},
		{
			"buffer":0,
			"byteLength":68088,
			"byteOffset":204264,
			"target":34962
		},
		{
			"buffer":0,
			"byteLength":34044,
			"byteOffset":272352,
			"target":34962
		},
		{
			"buffer":0,
			"byteLength":136176,
			"byteOffset":306396,
			"target":34962
		},
		{
			"buffer":0,
			"byteLength":46440,
			"byteOffset":442572,
			"target":34963
		},
		{
			"buffer":0,
			"byteLength":1408,
			"byteOffset":489012
		}
	],
	"samplers":[
		{
			"magFilter":9729,
			"minFilter":9987
		}
	],
	"buffers":[
		{
			"byteLength":490420,
			"uri":"Cuirassier.bin"
		}
	]
}
