<svg xmlns="http://www.w3.org/2000/svg" viewBox="0 0 1200 800" width="1200" height="800">
<defs>
<pattern id="grid" width="55" height="55" patternUnits="userSpaceOnUse" x="0" y="690"><path d="M55 0 H0 V55" fill="none" stroke="#262119" stroke-width="1"/></pattern>
<radialGradient id="glow" cx="35%" cy="60%" r="60%"><stop offset="0" stop-color="#2A2012" stop-opacity=".9"/><stop offset="1" stop-color="#14120E" stop-opacity="0"/></radialGradient>
<linearGradient id="g1" x1="0" y1="0" x2="1" y2="0"><stop offset="0" stop-color="#C5BEAE"/><stop offset=".5" stop-color="#B8B4A8"/><stop offset="1" stop-color="#535149"/></linearGradient>
<linearGradient id="g2" x1="0" y1="0" x2="1" y2="0"><stop offset="0" stop-color="#65635A"/><stop offset=".5" stop-color="#C3BDAD"/><stop offset="1" stop-color="#4A4841"/></linearGradient>
<linearGradient id="g3" x1="0" y1="0" x2="1" y2="0"><stop offset="0" stop-color="#D0B35A"/><stop offset=".5" stop-color="#C9A227"/><stop offset="1" stop-color="#645113"/></linearGradient>
<linearGradient id="g4" x1="0" y1="0" x2="0" y2="1"><stop offset="0" stop-color="#CFB053"/><stop offset=".5" stop-color="#C9A227"/><stop offset="1" stop-color="#645113"/></linearGradient>
<radialGradient id="r5" cx="0.35" cy="0.3" r="0.7"><stop offset="0" stop-color="#FFFFFF" stop-opacity="0.9"/><stop offset="1" stop-color="#CBD3CF" stop-opacity="1"/></radialGradient>
<radialGradient id="r6" cx="0.35" cy="0.3" r="0.6"><stop offset="0" stop-color="#B08A80" stop-opacity="1"/><stop offset="1" stop-color="#6E1F2A" stop-opacity="1"/></radialGradient>
<radialGradient id="r7" cx="0.5" cy="0.5" r="0.5"><stop offset="0" stop-color="#C9A227" stop-opacity="0.25"/><stop offset="1" stop-color="#C9A227" stop-opacity="0"/></radialGradient>
<clipPath id="slhero"><path d="M313.0,593.0 C311.9,460.0 320.8,365.0 329.0,289.0 L411.0,289.0 C419.2,365.0 428.1,460.0 427.0,593.0 Z"/></clipPath>
<clipPath id="slfront"><path d="M770.0,660.0 C769.4,590.0 774.1,540.0 778.4,500.0 L821.6,500.0 C825.9,540.0 830.6,590.0 830.0,660.0 Z"/></clipPath>
<clipPath id="slside"><path d="M1015.0,660.0 C1014.5,590.0 1018.4,540.0 1022.0,500.0 L1058.0,500.0 C1061.6,540.0 1065.5,590.0 1065.0,660.0 Z"/></clipPath>
</defs>
<rect width="1200" height="800" fill="#14120E"/>
<rect width="1200" height="800" fill="url(#glow)"/>
<rect x="0" y="120" width="1200" height="570" fill="url(#grid)"/>
<line x1="40" y1="690" x2="1160" y2="690" stroke="#635C4C" stroke-width="1.5"/>
<rect x="12" y="12" width="1176" height="776" fill="none" stroke="#332D22" stroke-width="1"/>
<text x="40" y="54" font-family="Overpass Mono, monospace" font-size="12" fill="#635C4C" text-anchor="start" letter-spacing="3">THE HIGH MEDIEVAL · PLUNDER · 600 COIN · 1 ST</text>
<text x="40" y="96" font-family="Eczar, Georgia, serif" font-size="38" font-weight="700" fill="#DCD2BA">Arm Reliquary</text>
<text x="1160" y="54" font-family="Overpass Mono, monospace" font-size="12" fill="#9A9078" text-anchor="end">0.16 × 0.14 × 0.52 m · ARTIFACT · ≤ 1.5k tris · 1024²</text>
<text x="1160" y="76" font-family="Overpass Mono, monospace" font-size="12" fill="#9A9078" text-anchor="end">orthos 1 m = 500 px · fragility 3 m/s</text>
<ellipse cx="370" cy="654" rx="120" ry="16" fill="#0B0A08" opacity=".7"/>
<circle cx="370" cy="410" r="230" fill="url(#r7)"/>
<rect x="294.0" y="621.5" width="152.0" height="28.5" fill="url(#g3)" stroke="#2A2622" stroke-width="1"/><ellipse cx="370" cy="621.5" rx="76.0" ry="22.8" fill="#CDAC44" stroke="#2A2622" stroke-width=".8"/><rect x="308.2" y="593.0" width="123.5" height="28.5" fill="url(#g2)" stroke="#2A2622" stroke-width="1"/><ellipse cx="370" cy="593.0" rx="61.8" ry="18.5" fill="#C1BCAC" stroke="#2A2622" stroke-width=".8"/><circle cx="313.0" cy="635.8" r="4.8" fill="url(#r6)" stroke="#2A2622" stroke-width=".6"/><circle cx="332.0" cy="635.8" r="4.8" fill="url(#r6)" stroke="#2A2622" stroke-width=".6"/><circle cx="351.0" cy="635.8" r="4.8" fill="url(#r6)" stroke="#2A2622" stroke-width=".6"/><circle cx="370.0" cy="635.8" r="4.8" fill="url(#r6)" stroke="#2A2622" stroke-width=".6"/><circle cx="389.0" cy="635.8" r="4.8" fill="url(#r6)" stroke="#2A2622" stroke-width=".6"/><circle cx="408.0" cy="635.8" r="4.8" fill="url(#r6)" stroke="#2A2622" stroke-width=".6"/><circle cx="427.0" cy="635.8" r="4.8" fill="url(#r6)" stroke="#2A2622" stroke-width=".6"/><path d="M313.0,593.0 C311.9,460.0 320.8,365.0 329.0,289.0 L411.0,289.0 C419.2,365.0 428.1,460.0 427.0,593.0 Z" fill="url(#g2)" stroke="#2A2622" stroke-width="1.1"/><g clip-path="url(#slhero)"><path d="M319.7,593.0 C323.5,479.0 314.0,384.0 333.8,289.0" fill="none" stroke="#5C5A51" stroke-width="1.1" opacity=".7"/><path d="M321.7,593.0 C325.5,479.0 316.0,384.0 335.3,289.0" fill="none" stroke="#C6C0AF" stroke-width=".7" opacity=".6"/><path d="M336.5,593.0 C340.3,479.0 330.8,384.0 345.9,289.0" fill="none" stroke="#5C5A51" stroke-width="1.1" opacity=".7"/><path d="M338.5,593.0 C342.3,479.0 332.8,384.0 347.4,289.0" fill="none" stroke="#C6C0AF" stroke-width=".7" opacity=".6"/><path d="M353.2,593.0 C357.0,479.0 347.5,384.0 357.9,289.0" fill="none" stroke="#5C5A51" stroke-width="1.1" opacity=".7"/><path d="M355.2,593.0 C359.0,479.0 349.5,384.0 359.4,289.0" fill="none" stroke="#C6C0AF" stroke-width=".7" opacity=".6"/><path d="M370.0,593.0 C373.8,479.0 364.3,384.0 370.0,289.0" fill="none" stroke="#5C5A51" stroke-width="1.1" opacity=".7"/><path d="M372.0,593.0 C375.8,479.0 366.3,384.0 371.5,289.0" fill="none" stroke="#C6C0AF" stroke-width=".7" opacity=".6"/><path d="M386.8,593.0 C390.6,479.0 381.1,384.0 382.1,289.0" fill="none" stroke="#5C5A51" stroke-width="1.1" opacity=".7"/><path d="M388.8,593.0 C392.6,479.0 383.1,384.0 383.6,289.0" fill="none" stroke="#C6C0AF" stroke-width=".7" opacity=".6"/><path d="M403.5,593.0 C407.3,479.0 397.8,384.0 394.1,289.0" fill="none" stroke="#5C5A51" stroke-width="1.1" opacity=".7"/><path d="M405.5,593.0 C409.3,479.0 399.8,384.0 395.6,289.0" fill="none" stroke="#C6C0AF" stroke-width=".7" opacity=".6"/><path d="M420.3,593.0 C424.1,479.0 414.6,384.0 406.2,289.0" fill="none" stroke="#5C5A51" stroke-width="1.1" opacity=".7"/><path d="M422.3,593.0 C426.1,479.0 416.6,384.0 407.7,289.0" fill="none" stroke="#C6C0AF" stroke-width=".7" opacity=".6"/><g fill="#2A2622" opacity="0.45"><circle cx="372.0" cy="442.7" r="0.82"/><circle cx="331.3" cy="366.8" r="0.31"/><circle cx="402.9" cy="591.6" r="1.08"/><circle cx="404.8" cy="343.2" r="0.45"/><circle cx="387.5" cy="407.9" r="0.90"/><circle cx="313.7" cy="319.9" r="0.66"/><circle cx="423.0" cy="309.5" r="0.49"/><circle cx="419.2" cy="432.9" r="1.02"/><circle cx="328.3" cy="555.1" r="0.33"/><circle cx="370.6" cy="321.6" r="0.83"/><circle cx="344.7" cy="503.7" r="0.84"/><circle cx="373.7" cy="455.4" r="0.84"/><circle cx="374.4" cy="291.6" r="0.52"/><circle cx="387.3" cy="537.4" r="0.74"/><circle cx="362.6" cy="589.1" r="0.71"/><circle cx="330.7" cy="469.2" r="0.83"/><circle cx="374.0" cy="348.6" r="0.87"/><circle cx="344.1" cy="289.4" r="0.73"/><circle cx="379.8" cy="332.6" r="0.54"/><circle cx="405.4" cy="473.9" r="0.73"/><circle cx="419.0" cy="430.0" r="0.67"/><circle cx="347.6" cy="373.4" r="0.99"/><circle cx="356.9" cy="415.2" r="0.98"/><circle cx="314.5" cy="376.3" r="0.63"/><circle cx="423.9" cy="591.4" r="0.52"/><circle cx="341.0" cy="333.4" r="0.51"/><circle cx="350.9" cy="360.1" r="1.07"/><circle cx="388.6" cy="522.3" r="0.73"/><circle cx="426.3" cy="333.2" r="0.83"/><circle cx="352.3" cy="312.0" r="1.06"/><circle cx="403.2" cy="374.3" r="0.42"/><circle cx="411.2" cy="543.0" r="0.60"/><circle cx="319.9" cy="512.9" r="1.05"/><circle cx="421.6" cy="485.5" r="0.98"/><circle cx="365.7" cy="358.3" r="0.86"/><circle cx="350.4" cy="393.0" r="0.81"/><circle cx="395.2" cy="499.7" r="0.95"/><circle cx="378.7" cy="424.5" r="0.88"/><circle cx="350.3" cy="498.0" r="0.41"/><circle cx="342.8" cy="411.5" r="0.57"/><circle cx="323.0" cy="411.4" r="0.55"/><circle cx="338.5" cy="384.9" r="0.90"/><circle cx="396.3" cy="396.7" r="0.95"/><circle cx="386.4" cy="338.6" r="0.79"/><circle cx="335.5" cy="387.1" r="0.52"/><circle cx="426.1" cy="486.1" r="0.93"/><circle cx="414.8" cy="512.5" r="0.45"/><circle cx="339.6" cy="464.3" r="0.32"/><circle cx="317.7" cy="324.9" r="0.82"/><circle cx="371.1" cy="577.1" r="1.08"/><circle cx="316.1" cy="495.6" r="0.84"/><circle cx="331.5" cy="441.2" r="0.96"/><circle cx="401.3" cy="425.4" r="0.99"/><circle cx="367.1" cy="366.8" r="0.70"/><circle cx="379.2" cy="414.9" r="0.98"/><circle cx="374.9" cy="514.7" r="0.86"/><circle cx="361.9" cy="408.4" r="0.75"/><circle cx="399.8" cy="551.6" r="1.01"/><circle cx="329.5" cy="496.0" r="0.70"/><circle cx="333.1" cy="381.6" r="1.05"/></g></g><path d="M316.8,593.0 C316.8,460.0 324.6,365.0 331.8,289.0" fill="none" stroke="#C9A227" stroke-width="5.7"/><path d="M423.2,593.0 C423.2,460.0 415.4,365.0 408.2,289.0" fill="none" stroke="#C9A227" stroke-width="5.7"/><ellipse cx="358.6" cy="450.5" rx="26.6" ry="50.4" fill="url(#g3)" stroke="#2A2622" stroke-width="1"/><circle cx="385.2" cy="450.5" r="3.3" fill="#CFB053" stroke="#2A2622" stroke-width=".4"/><circle cx="381.6" cy="475.7" r="3.3" fill="#CFB053" stroke="#2A2622" stroke-width=".4"/><circle cx="371.9" cy="494.1" r="3.3" fill="#CFB053" stroke="#2A2622" stroke-width=".4"/><circle cx="358.6" cy="500.9" r="3.3" fill="#CFB053" stroke="#2A2622" stroke-width=".4"/><circle cx="345.3" cy="494.1" r="3.3" fill="#CFB053" stroke="#2A2622" stroke-width=".4"/><circle cx="335.6" cy="475.7" r="3.3" fill="#CFB053" stroke="#2A2622" stroke-width=".4"/><circle cx="332.0" cy="450.5" r="3.3" fill="#CFB053" stroke="#2A2622" stroke-width=".4"/><circle cx="335.6" cy="425.3" r="3.3" fill="#CFB053" stroke="#2A2622" stroke-width=".4"/><circle cx="345.3" cy="406.9" r="3.3" fill="#CFB053" stroke="#2A2622" stroke-width=".4"/><circle cx="358.6" cy="400.1" r="3.3" fill="#CFB053" stroke="#2A2622" stroke-width=".4"/><circle cx="371.9" cy="406.9" r="3.3" fill="#CFB053" stroke="#2A2622" stroke-width=".4"/><circle cx="381.6" cy="425.3" r="3.3" fill="#CFB053" stroke="#2A2622" stroke-width=".4"/><ellipse cx="358.6" cy="450.5" rx="19.0" ry="42.8" fill="#DCD2BA" stroke="#2A2622" stroke-width=".8"/><path d="M352.0,417.2 C349.1,450.5 366.2,460.0 362.4,486.6" fill="none" stroke="#847E6C" stroke-width="11.4" stroke-linecap="round"/><path d="M341.5,469.5 L375.7,460.0" stroke="#6E1F2A" stroke-width="5.7" opacity=".7"/><ellipse cx="358.6" cy="450.5" rx="19.0" ry="42.8" fill="url(#r5)" opacity=".55"/><path d="M347.2,426.8 Q352.9,412.5 358.6,415.4" stroke="#FFFFFF" stroke-width="1.4" fill="none" opacity=".8"/><rect x="318.7" y="274.8" width="102.6" height="38.0" rx="5.7" fill="url(#g3)" stroke="#2A2622" stroke-width="1"/><ellipse cx="331.0" cy="293.8" rx="5.2" ry="7.6" fill="url(#r6)" stroke="#645113" stroke-width="1"/><ellipse cx="350.5" cy="293.8" rx="5.2" ry="7.6" fill="url(#r6)" stroke="#645113" stroke-width="1"/><ellipse cx="370.0" cy="293.8" rx="5.2" ry="7.6" fill="url(#r6)" stroke="#645113" stroke-width="1"/><ellipse cx="389.5" cy="293.8" rx="5.2" ry="7.6" fill="url(#r6)" stroke="#645113" stroke-width="1"/><ellipse cx="409.0" cy="293.8" rx="5.2" ry="7.6" fill="url(#r6)" stroke="#645113" stroke-width="1"/><path d="M318.7,279.5 L421.3,279.5" stroke="#D1B562" stroke-width=".8"/><path d="M330.1,274.8 L328.1,232.0 Q334.1,208.2 351.0,211.1 L409.9,213.0 L409.9,274.8 Z" fill="url(#g2)" stroke="#2A2622" stroke-width="1"/><path d="M332.0,217.8 q17.1,-17.1 34.2,0" fill="#939082" stroke="#2A2622" stroke-width=".8"/><rect x="366.2" y="156.0" width="18.1" height="61.8" rx="8.5" fill="url(#g2)" stroke="#2A2622" stroke-width="1"/><path d="M369.1,179.8 h12.3 M369.1,198.7 h12.3" stroke="#5C5A51" stroke-width=".8"/><rect x="386.1" y="160.8" width="18.1" height="57.0" rx="8.5" fill="url(#g2)" stroke="#2A2622" stroke-width="1"/><path d="M389.0,184.5 h12.3 M389.0,203.5 h12.3" stroke="#5C5A51" stroke-width=".8"/><path d="M409.9,241.5 C427.0,232.0 431.8,208.2 419.4,203.5 C412.8,213.0 410.9,222.5 409.9,227.2 Z" fill="url(#g2)" stroke="#2A2622" stroke-width="1"/><rect x="365.2" y="198.8" width="20.0" height="5.7" fill="#C9A227"/>
<path d="M352,451 l-14,-10 M358,429 l-10,-16 M366,454 l8,14 M360,470 l-4,18" fill="none" stroke="#C4542E" stroke-width="1.6" stroke-dasharray="5 4" stroke-linecap="round"/>
<path d="M362,219 l30,0" fill="none" stroke="#C4542E" stroke-width="1.8" stroke-dasharray="5 4" stroke-linecap="round"/>
<rect x="760.0" y="675.0" width="80.0" height="15.0" fill="url(#g3)" stroke="#2A2622" stroke-width="1"/><rect x="767.5" y="660.0" width="65.0" height="15.0" fill="url(#g1)" stroke="#2A2622" stroke-width="1"/><circle cx="770.0" cy="682.5" r="2.5" fill="url(#r6)" stroke="#2A2622" stroke-width=".6"/><circle cx="780.0" cy="682.5" r="2.5" fill="url(#r6)" stroke="#2A2622" stroke-width=".6"/><circle cx="790.0" cy="682.5" r="2.5" fill="url(#r6)" stroke="#2A2622" stroke-width=".6"/><circle cx="800.0" cy="682.5" r="2.5" fill="url(#r6)" stroke="#2A2622" stroke-width=".6"/><circle cx="810.0" cy="682.5" r="2.5" fill="url(#r6)" stroke="#2A2622" stroke-width=".6"/><circle cx="820.0" cy="682.5" r="2.5" fill="url(#r6)" stroke="#2A2622" stroke-width=".6"/><circle cx="830.0" cy="682.5" r="2.5" fill="url(#r6)" stroke="#2A2622" stroke-width=".6"/><path d="M770.0,660.0 C769.4,590.0 774.1,540.0 778.4,500.0 L821.6,500.0 C825.9,540.0 830.6,590.0 830.0,660.0 Z" fill="url(#g1)" stroke="#2A2622" stroke-width="1.1"/><g clip-path="url(#slfront)"><path d="M773.5,660.0 C775.5,600.0 770.5,550.0 780.9,500.0" fill="none" stroke="#5C5A51" stroke-width="1.1" opacity=".7"/><path d="M775.5,660.0 C777.5,600.0 772.5,550.0 782.4,500.0" fill="none" stroke="#C6C0AF" stroke-width=".7" opacity=".6"/><path d="M782.4,660.0 C784.4,600.0 779.4,550.0 787.3,500.0" fill="none" stroke="#5C5A51" stroke-width="1.1" opacity=".7"/><path d="M784.4,660.0 C786.4,600.0 781.4,550.0 788.8,500.0" fill="none" stroke="#C6C0AF" stroke-width=".7" opacity=".6"/><path d="M791.2,660.0 C793.2,600.0 788.2,550.0 793.6,500.0" fill="none" stroke="#5C5A51" stroke-width="1.1" opacity=".7"/><path d="M793.2,660.0 C795.2,600.0 790.2,550.0 795.1,500.0" fill="none" stroke="#C6C0AF" stroke-width=".7" opacity=".6"/><path d="M800.0,660.0 C802.0,600.0 797.0,550.0 800.0,500.0" fill="none" stroke="#5C5A51" stroke-width="1.1" opacity=".7"/><path d="M802.0,660.0 C804.0,600.0 799.0,550.0 801.5,500.0" fill="none" stroke="#C6C0AF" stroke-width=".7" opacity=".6"/><path d="M808.8,660.0 C810.8,600.0 805.8,550.0 806.4,500.0" fill="none" stroke="#5C5A51" stroke-width="1.1" opacity=".7"/><path d="M810.8,660.0 C812.8,600.0 807.8,550.0 807.9,500.0" fill="none" stroke="#C6C0AF" stroke-width=".7" opacity=".6"/><path d="M817.6,660.0 C819.6,600.0 814.6,550.0 812.7,500.0" fill="none" stroke="#5C5A51" stroke-width="1.1" opacity=".7"/><path d="M819.6,660.0 C821.6,600.0 816.6,550.0 814.2,500.0" fill="none" stroke="#C6C0AF" stroke-width=".7" opacity=".6"/><path d="M826.5,660.0 C828.5,600.0 823.5,550.0 819.1,500.0" fill="none" stroke="#5C5A51" stroke-width="1.1" opacity=".7"/><path d="M828.5,660.0 C830.5,600.0 825.5,550.0 820.6,500.0" fill="none" stroke="#C6C0AF" stroke-width=".7" opacity=".6"/><g fill="#2A2622" opacity="0.45"><circle cx="823.7" cy="515.5" r="0.49"/><circle cx="804.0" cy="552.9" r="0.48"/><circle cx="776.3" cy="604.3" r="0.55"/><circle cx="815.5" cy="608.9" r="1.07"/><circle cx="825.7" cy="544.6" r="0.88"/><circle cx="789.6" cy="614.1" r="0.52"/><circle cx="773.1" cy="639.8" r="0.50"/><circle cx="781.1" cy="573.8" r="1.02"/><circle cx="804.0" cy="615.8" r="0.76"/><circle cx="785.3" cy="656.7" r="0.95"/><circle cx="813.3" cy="581.4" r="0.32"/><circle cx="797.4" cy="560.1" r="0.92"/><circle cx="822.4" cy="618.5" r="0.57"/><circle cx="814.0" cy="644.2" r="0.42"/><circle cx="771.5" cy="613.5" r="0.50"/><circle cx="773.9" cy="525.4" r="0.34"/><circle cx="773.9" cy="537.3" r="0.49"/><circle cx="795.2" cy="601.0" r="0.94"/><circle cx="796.1" cy="577.5" r="0.54"/><circle cx="789.6" cy="623.5" r="0.47"/><circle cx="802.0" cy="562.9" r="1.02"/><circle cx="798.5" cy="605.5" r="0.51"/><circle cx="818.9" cy="567.2" r="0.46"/><circle cx="771.3" cy="593.5" r="0.52"/><circle cx="779.0" cy="641.6" r="0.72"/><circle cx="771.3" cy="574.9" r="0.61"/><circle cx="828.6" cy="572.8" r="0.75"/><circle cx="821.3" cy="603.2" r="0.87"/><circle cx="827.8" cy="593.3" r="1.02"/><circle cx="774.0" cy="599.7" r="0.55"/><circle cx="825.1" cy="551.4" r="0.45"/><circle cx="770.8" cy="597.7" r="1.05"/><circle cx="780.5" cy="547.8" r="0.56"/><circle cx="791.7" cy="513.8" r="0.42"/><circle cx="785.7" cy="550.2" r="0.87"/><circle cx="826.3" cy="552.0" r="0.71"/><circle cx="788.4" cy="577.2" r="0.58"/><circle cx="814.3" cy="655.2" r="0.77"/><circle cx="800.2" cy="590.3" r="1.09"/><circle cx="774.3" cy="521.4" r="0.53"/><circle cx="798.2" cy="560.9" r="0.79"/><circle cx="794.6" cy="640.1" r="0.85"/><circle cx="785.6" cy="508.2" r="0.61"/><circle cx="786.6" cy="656.8" r="0.80"/><circle cx="786.2" cy="516.6" r="0.63"/><circle cx="797.9" cy="508.1" r="0.67"/><circle cx="796.1" cy="594.7" r="0.97"/><circle cx="783.3" cy="624.3" r="0.87"/><circle cx="812.8" cy="551.6" r="1.08"/><circle cx="811.7" cy="611.7" r="0.47"/><circle cx="786.6" cy="607.1" r="0.48"/><circle cx="808.6" cy="554.4" r="1.02"/><circle cx="781.8" cy="532.5" r="0.47"/><circle cx="791.2" cy="652.3" r="0.41"/><circle cx="776.6" cy="641.0" r="0.54"/><circle cx="820.2" cy="615.6" r="0.67"/><circle cx="805.1" cy="532.0" r="0.97"/><circle cx="826.6" cy="530.0" r="0.62"/><circle cx="798.7" cy="640.7" r="0.70"/><circle cx="781.2" cy="559.1" r="0.59"/></g></g><path d="M772.0,660.0 C772.0,590.0 776.1,540.0 779.9,500.0" fill="none" stroke="#C9A227" stroke-width="3.0"/><path d="M828.0,660.0 C828.0,590.0 823.9,540.0 820.1,500.0" fill="none" stroke="#C9A227" stroke-width="3.0"/><ellipse cx="800.0" cy="585.0" rx="16.5" ry="26.5" fill="url(#g3)" stroke="#2A2622" stroke-width="1"/><circle cx="816.5" cy="585.0" r="1.8" fill="#CFB053" stroke="#2A2622" stroke-width=".4"/><circle cx="814.3" cy="598.2" r="1.8" fill="#CFB053" stroke="#2A2622" stroke-width=".4"/><circle cx="808.2" cy="607.9" r="1.8" fill="#CFB053" stroke="#2A2622" stroke-width=".4"/><circle cx="800.0" cy="611.5" r="1.8" fill="#CFB053" stroke="#2A2622" stroke-width=".4"/><circle cx="791.8" cy="607.9" r="1.8" fill="#CFB053" stroke="#2A2622" stroke-width=".4"/><circle cx="785.7" cy="598.2" r="1.8" fill="#CFB053" stroke="#2A2622" stroke-width=".4"/><circle cx="783.5" cy="585.0" r="1.8" fill="#CFB053" stroke="#2A2622" stroke-width=".4"/><circle cx="785.7" cy="571.8" r="1.8" fill="#CFB053" stroke="#2A2622" stroke-width=".4"/><circle cx="791.8" cy="562.1" r="1.8" fill="#CFB053" stroke="#2A2622" stroke-width=".4"/><circle cx="800.0" cy="558.5" r="1.8" fill="#CFB053" stroke="#2A2622" stroke-width=".4"/><circle cx="808.2" cy="562.1" r="1.8" fill="#CFB053" stroke="#2A2622" stroke-width=".4"/><circle cx="814.3" cy="571.8" r="1.8" fill="#CFB053" stroke="#2A2622" stroke-width=".4"/><ellipse cx="800.0" cy="585.0" rx="12.5" ry="22.5" fill="#DCD2BA" stroke="#2A2622" stroke-width=".8"/><path d="M795.6,567.5 C793.8,585.0 805.0,590.0 802.5,604.0" fill="none" stroke="#847E6C" stroke-width="6.0" stroke-linecap="round"/><path d="M788.8,595.0 L811.2,590.0" stroke="#6E1F2A" stroke-width="3.0" opacity=".7"/><ellipse cx="800.0" cy="585.0" rx="12.5" ry="22.5" fill="url(#r5)" opacity=".55"/><path d="M792.5,572.5 Q796.2,565.0 800.0,566.5" stroke="#FFFFFF" stroke-width="1.4" fill="none" opacity=".8"/><rect x="773.0" y="492.5" width="54.0" height="20.0" rx="3.0" fill="url(#g3)" stroke="#2A2622" stroke-width="1"/><ellipse cx="779.5" cy="502.5" rx="2.8" ry="4.0" fill="url(#r6)" stroke="#645113" stroke-width="1"/><ellipse cx="789.7" cy="502.5" rx="2.8" ry="4.0" fill="url(#r6)" stroke="#645113" stroke-width="1"/><ellipse cx="800.0" cy="502.5" rx="2.8" ry="4.0" fill="url(#r6)" stroke="#645113" stroke-width="1"/><ellipse cx="810.3" cy="502.5" rx="2.8" ry="4.0" fill="url(#r6)" stroke="#645113" stroke-width="1"/><ellipse cx="820.5" cy="502.5" rx="2.8" ry="4.0" fill="url(#r6)" stroke="#645113" stroke-width="1"/><path d="M773.0,495.0 L827.0,495.0" stroke="#D1B562" stroke-width=".8"/><path d="M779.0,492.5 L778.0,470.0 Q781.1,457.5 790.0,459.0 L821.0,460.0 L821.0,492.5 Z" fill="url(#g1)" stroke="#2A2622" stroke-width="1"/><path d="M780.0,462.5 q9.0,-9.0 18.0,0" fill="#939082" stroke="#2A2622" stroke-width=".8"/><rect x="798.0" y="430.0" width="9.5" height="32.5" rx="4.5" fill="url(#g1)" stroke="#2A2622" stroke-width="1"/><path d="M799.5,442.5 h6.5 M799.5,452.5 h6.5" stroke="#5C5A51" stroke-width=".8"/><rect x="808.5" y="432.5" width="9.5" height="30.0" rx="4.5" fill="url(#g1)" stroke="#2A2622" stroke-width="1"/><path d="M810.0,445.0 h6.5 M810.0,455.0 h6.5" stroke="#5C5A51" stroke-width=".8"/><path d="M821.0,475.0 C830.0,470.0 832.5,457.5 826.0,455.0 C822.5,460.0 821.5,465.0 821.0,467.5 Z" fill="url(#g1)" stroke="#2A2622" stroke-width="1"/><rect x="797.5" y="452.5" width="10.5" height="3.0" fill="#C9A227"/>
<rect x="1004.8" y="675.0" width="70.4" height="15.0" fill="url(#g3)" stroke="#2A2622" stroke-width="1"/><rect x="1011.4" y="660.0" width="57.2" height="15.0" fill="url(#g1)" stroke="#2A2622" stroke-width="1"/><circle cx="1010.0" cy="682.5" r="2.5" fill="url(#r6)" stroke="#2A2622" stroke-width=".6"/><circle cx="1020.0" cy="682.5" r="2.5" fill="url(#r6)" stroke="#2A2622" stroke-width=".6"/><circle cx="1030.0" cy="682.5" r="2.5" fill="url(#r6)" stroke="#2A2622" stroke-width=".6"/><circle cx="1040.0" cy="682.5" r="2.5" fill="url(#r6)" stroke="#2A2622" stroke-width=".6"/><circle cx="1050.0" cy="682.5" r="2.5" fill="url(#r6)" stroke="#2A2622" stroke-width=".6"/><circle cx="1060.0" cy="682.5" r="2.5" fill="url(#r6)" stroke="#2A2622" stroke-width=".6"/><circle cx="1070.0" cy="682.5" r="2.5" fill="url(#r6)" stroke="#2A2622" stroke-width=".6"/><path d="M1015.0,660.0 C1014.5,590.0 1018.4,540.0 1022.0,500.0 L1058.0,500.0 C1061.6,540.0 1065.5,590.0 1065.0,660.0 Z" fill="url(#g1)" stroke="#2A2622" stroke-width="1.1"/><g clip-path="url(#slside)"><path d="M1017.9,660.0 C1019.9,600.0 1014.9,550.0 1024.1,500.0" fill="none" stroke="#5C5A51" stroke-width="1.1" opacity=".7"/><path d="M1019.9,660.0 C1021.9,600.0 1016.9,550.0 1025.6,500.0" fill="none" stroke="#C6C0AF" stroke-width=".7" opacity=".6"/><path d="M1025.3,660.0 C1027.3,600.0 1022.3,550.0 1029.4,500.0" fill="none" stroke="#5C5A51" stroke-width="1.1" opacity=".7"/><path d="M1027.3,660.0 C1029.3,600.0 1024.3,550.0 1030.9,500.0" fill="none" stroke="#C6C0AF" stroke-width=".7" opacity=".6"/><path d="M1032.6,660.0 C1034.6,600.0 1029.6,550.0 1034.7,500.0" fill="none" stroke="#5C5A51" stroke-width="1.1" opacity=".7"/><path d="M1034.6,660.0 C1036.6,600.0 1031.6,550.0 1036.2,500.0" fill="none" stroke="#C6C0AF" stroke-width=".7" opacity=".6"/><path d="M1040.0,660.0 C1042.0,600.0 1037.0,550.0 1040.0,500.0" fill="none" stroke="#5C5A51" stroke-width="1.1" opacity=".7"/><path d="M1042.0,660.0 C1044.0,600.0 1039.0,550.0 1041.5,500.0" fill="none" stroke="#C6C0AF" stroke-width=".7" opacity=".6"/><path d="M1047.4,660.0 C1049.4,600.0 1044.4,550.0 1045.3,500.0" fill="none" stroke="#5C5A51" stroke-width="1.1" opacity=".7"/><path d="M1049.4,660.0 C1051.4,600.0 1046.4,550.0 1046.8,500.0" fill="none" stroke="#C6C0AF" stroke-width=".7" opacity=".6"/><path d="M1054.7,660.0 C1056.7,600.0 1051.7,550.0 1050.6,500.0" fill="none" stroke="#5C5A51" stroke-width="1.1" opacity=".7"/><path d="M1056.7,660.0 C1058.7,600.0 1053.7,550.0 1052.1,500.0" fill="none" stroke="#C6C0AF" stroke-width=".7" opacity=".6"/><path d="M1062.1,660.0 C1064.1,600.0 1059.1,550.0 1055.9,500.0" fill="none" stroke="#5C5A51" stroke-width="1.1" opacity=".7"/><path d="M1064.1,660.0 C1066.1,600.0 1061.1,550.0 1057.4,500.0" fill="none" stroke="#C6C0AF" stroke-width=".7" opacity=".6"/><g fill="#2A2622" opacity="0.45"><circle cx="1022.7" cy="605.1" r="0.92"/><circle cx="1027.0" cy="603.9" r="0.74"/><circle cx="1033.4" cy="505.8" r="1.00"/><circle cx="1050.3" cy="511.7" r="1.05"/><circle cx="1029.4" cy="560.5" r="0.93"/><circle cx="1022.6" cy="513.2" r="0.45"/><circle cx="1027.3" cy="554.3" r="0.75"/><circle cx="1020.9" cy="568.7" r="0.76"/><circle cx="1046.1" cy="549.0" r="0.63"/><circle cx="1048.9" cy="612.7" r="0.91"/><circle cx="1053.4" cy="510.7" r="0.95"/><circle cx="1047.9" cy="575.3" r="0.40"/><circle cx="1030.3" cy="608.3" r="0.73"/><circle cx="1052.1" cy="641.4" r="1.02"/><circle cx="1020.6" cy="565.4" r="0.54"/><circle cx="1046.4" cy="544.5" r="0.56"/><circle cx="1043.5" cy="576.5" r="0.53"/><circle cx="1041.9" cy="604.7" r="1.01"/><circle cx="1016.9" cy="616.1" r="0.51"/><circle cx="1061.5" cy="597.9" r="0.72"/><circle cx="1029.8" cy="564.3" r="1.02"/><circle cx="1061.6" cy="649.0" r="1.08"/><circle cx="1049.4" cy="501.5" r="1.07"/><circle cx="1058.9" cy="548.5" r="0.91"/><circle cx="1058.2" cy="656.7" r="0.52"/><circle cx="1059.7" cy="556.5" r="0.52"/><circle cx="1057.3" cy="550.0" r="1.02"/><circle cx="1034.0" cy="600.0" r="0.49"/><circle cx="1035.6" cy="599.0" r="0.36"/><circle cx="1040.6" cy="611.6" r="0.58"/><circle cx="1029.1" cy="521.8" r="0.65"/><circle cx="1023.0" cy="645.5" r="0.59"/><circle cx="1046.4" cy="598.9" r="0.51"/><circle cx="1039.8" cy="617.3" r="0.51"/><circle cx="1033.8" cy="653.2" r="0.84"/><circle cx="1061.0" cy="555.1" r="0.68"/><circle cx="1044.2" cy="535.8" r="0.86"/><circle cx="1021.7" cy="540.3" r="0.80"/><circle cx="1044.2" cy="600.4" r="1.02"/><circle cx="1033.4" cy="531.1" r="0.64"/><circle cx="1028.5" cy="579.5" r="1.02"/><circle cx="1060.8" cy="623.9" r="0.71"/><circle cx="1022.0" cy="640.3" r="0.76"/><circle cx="1031.3" cy="559.7" r="0.99"/><circle cx="1045.6" cy="589.3" r="0.43"/><circle cx="1041.3" cy="565.8" r="0.99"/><circle cx="1020.5" cy="641.6" r="0.94"/><circle cx="1064.9" cy="538.8" r="0.66"/><circle cx="1060.6" cy="632.0" r="0.41"/><circle cx="1035.0" cy="636.5" r="0.32"/><circle cx="1060.4" cy="527.8" r="0.69"/><circle cx="1020.5" cy="616.7" r="0.35"/><circle cx="1022.7" cy="541.7" r="0.79"/><circle cx="1016.6" cy="578.6" r="0.58"/><circle cx="1062.2" cy="611.4" r="0.32"/><circle cx="1049.1" cy="615.7" r="0.87"/><circle cx="1024.0" cy="659.0" r="0.91"/><circle cx="1060.3" cy="541.7" r="0.55"/><circle cx="1064.2" cy="541.2" r="0.59"/><circle cx="1037.2" cy="517.0" r="0.41"/></g></g><path d="M1017.0,660.0 C1017.0,590.0 1020.4,540.0 1023.5,500.0" fill="none" stroke="#C9A227" stroke-width="3.0"/><path d="M1063.0,660.0 C1063.0,590.0 1059.6,540.0 1056.5,500.0" fill="none" stroke="#C9A227" stroke-width="3.0"/><path d="M1064.5,560.0 Q1069.0,585.0 1064.5,610.0" fill="url(#g3)" stroke="#2A2622" stroke-width="1"/><rect x="1017.5" y="492.5" width="45.0" height="20.0" rx="3.0" fill="url(#g3)" stroke="#2A2622" stroke-width="1"/><ellipse cx="1022.9" cy="502.5" rx="2.8" ry="4.0" fill="url(#r6)" stroke="#645113" stroke-width="1"/><ellipse cx="1031.5" cy="502.5" rx="2.8" ry="4.0" fill="url(#r6)" stroke="#645113" stroke-width="1"/><ellipse cx="1040.0" cy="502.5" rx="2.8" ry="4.0" fill="url(#r6)" stroke="#645113" stroke-width="1"/><ellipse cx="1048.5" cy="502.5" rx="2.8" ry="4.0" fill="url(#r6)" stroke="#645113" stroke-width="1"/><ellipse cx="1057.1" cy="502.5" rx="2.8" ry="4.0" fill="url(#r6)" stroke="#645113" stroke-width="1"/><path d="M1017.5,495.0 L1062.5,495.0" stroke="#D1B562" stroke-width=".8"/><path d="M1025.0,492.5 L1026.0,457.5 C1028.0,440.0 1031.0,430.0 1037.0,430.0 C1042.0,432.5 1043.0,445.0 1045.0,457.5 C1055.0,459.0 1062.5,465.0 1060.0,472.5 L1055.0,492.5 Z" fill="url(#g1)" stroke="#2A2622" stroke-width="1"/><path d="M1035.0,440.0 h6.0 M1034.0,450.0 h7.0" stroke="#5C5A51" stroke-width=".8"/>
<path d="M794,461 l22,0" fill="none" stroke="#C4542E" stroke-width="1.4" stroke-dasharray="5 4" stroke-linecap="round"/>
<text x="370" y="730" font-family="Overpass Mono, monospace" font-size="11" fill="#635C4C" text-anchor="middle" letter-spacing="3">HERO 3/4 · 1 m = 950 px</text>
<text x="800" y="730" font-family="Overpass Mono, monospace" font-size="11" fill="#635C4C" text-anchor="middle" letter-spacing="3">FRONT</text>
<text x="1040" y="730" font-family="Overpass Mono, monospace" font-size="11" fill="#635C4C" text-anchor="middle" letter-spacing="3">SIDE</text>
<g stroke="#9A9078" stroke-width="1"><line x1="880" y1="370" x2="930" y2="370"/><line x1="880.0" y1="364" x2="880.0" y2="376"/><line x1="890.0" y1="367" x2="890.0" y2="373"/><line x1="900.0" y1="367" x2="900.0" y2="373"/><line x1="910.0" y1="367" x2="910.0" y2="373"/><line x1="920.0" y1="367" x2="920.0" y2="373"/><line x1="930.0" y1="364" x2="930.0" y2="376"/><rect x="880" y="368" width="25.0" height="4" fill="#9A9078" stroke="none"/></g><text x="940" y="374" font-family="Overpass Mono, monospace" font-size="10.5" fill="#9A9078" text-anchor="start">0.1 m = 50 px (orthos)</text>
<circle cx="320" cy="540" r="7" fill="none" stroke="#5FA288" stroke-width="2"/><circle cx="320" cy="540" r="2.2" fill="#5FA288"/><text x="308" y="528" font-family="Overpass Mono, monospace" font-size="10" fill="#5FA288" text-anchor="end" letter-spacing="1.5">GRAB · ONE HAND</text>
<circle cx="446" cy="630" r="7" fill="none" stroke="#5FA288" stroke-width="2"/><circle cx="446" cy="630" r="2.2" fill="#5FA288"/><text x="458" y="634" font-family="Overpass Mono, monospace" font-size="10" fill="#5FA288" text-anchor="start" letter-spacing="1.5">GRAB · PLINTH</text>
<circle cx="838" cy="635" r="7" fill="none" stroke="#5FA288" stroke-width="2"/><circle cx="838" cy="635" r="2.2" fill="#5FA288"/><text x="838" y="635" font-family="Overpass Mono, monospace" font-size="10" fill="#5FA288" text-anchor="start" letter-spacing="1.5"></text>
<path d="M392,145 L540,171 L554,171" fill="none" stroke="#9A9078" stroke-width=".8"/><circle cx="392" cy="145" r="2.6" fill="#DCD2BA" stroke="#14120E" stroke-width="1"/><text x="560" y="175" font-family="Overpass Mono, monospace" font-size="12" fill="#DCD2BA" text-anchor="start">Hand of blessing</text><text x="560" y="189" font-family="Overpass Mono, monospace" font-size="10.5" fill="#9A9078" text-anchor="start">cast silver, 2 raised fingers</text>
<path d="M402,290 L540,231 L554,231" fill="none" stroke="#9A9078" stroke-width=".8"/><circle cx="402" cy="290" r="2.6" fill="#DCD2BA" stroke="#14120E" stroke-width="1"/><text x="560" y="235" font-family="Overpass Mono, monospace" font-size="12" fill="#DCD2BA" text-anchor="start">Cuff band + 5 garnets</text><text x="560" y="249" font-family="Overpass Mono, monospace" font-size="10.5" fill="#9A9078" text-anchor="start">silver-gilt, cabochon set</text>
<path d="M358,420 L540,296 L554,296" fill="none" stroke="#9A9078" stroke-width=".8"/><circle cx="358" cy="420" r="2.6" fill="#DCD2BA" stroke="#14120E" stroke-width="1"/><text x="560" y="300" font-family="Overpass Mono, monospace" font-size="12" fill="#DCD2BA" text-anchor="start">Rock-crystal window</text><text x="560" y="314" font-family="Overpass Mono, monospace" font-size="10.5" fill="#9A9078" text-anchor="start">9 × 5 cm, FRAGILE: 3 m/s</text>
<path d="M425,500 L540,361 L554,361" fill="none" stroke="#9A9078" stroke-width=".8"/><circle cx="425" cy="500" r="2.6" fill="#DCD2BA" stroke="#14120E" stroke-width="1"/><text x="560" y="365" font-family="Overpass Mono, monospace" font-size="12" fill="#DCD2BA" text-anchor="start">Silver sleeve, chased folds</text><text x="560" y="379" font-family="Overpass Mono, monospace" font-size="10.5" fill="#9A9078" text-anchor="start">0.8 mm sheet on oak core</text>
<path d="M300,635 L282,556 L268,556" fill="none" stroke="#9A9078" stroke-width=".8"/><circle cx="300" cy="635" r="2.6" fill="#DCD2BA" stroke="#14120E" stroke-width="1"/><text x="262" y="560" font-family="Overpass Mono, monospace" font-size="12" fill="#DCD2BA" text-anchor="end">Stepped plinth, gilt</text><text x="262" y="574" font-family="Overpass Mono, monospace" font-size="10.5" fill="#9A9078" text-anchor="end">garnet row, felt underside</text>
<path d="M348,450 L282,246 L268,246" fill="none" stroke="#9A9078" stroke-width=".8"/><circle cx="348" cy="450" r="2.6" fill="#DCD2BA" stroke="#14120E" stroke-width="1"/><text x="262" y="250" font-family="Overpass Mono, monospace" font-size="12" fill="#DCD2BA" text-anchor="end">The relic: a forearm bone</text><text x="262" y="264" font-family="Overpass Mono, monospace" font-size="10.5" fill="#9A9078" text-anchor="end">wrapped in red silk</text>
<text x="560" y="440" font-family="Overpass Mono, monospace" font-size="10.5" fill="#C4542E" text-anchor="start">Fracture (madder, dashed):</text>
<text x="560" y="455" font-family="Overpass Mono, monospace" font-size="10.5" fill="#9A9078" text-anchor="start">window stars; the raised</text>
<text x="560" y="470" font-family="Overpass Mono, monospace" font-size="10.5" fill="#9A9078" text-anchor="start">fingers snap at the knuckle</text>
<g id="palette" font-family="Overpass Mono, monospace" font-size="10" fill="#9A9078"><rect x="40" y="748" width="34" height="18" fill="#B8B4A8" stroke="#332D22" stroke-width=".6"/><text x="80" y="756">#B8B4A8</text><text x="80" y="767" fill="#635C4C">silver</text><rect x="210" y="748" width="34" height="18" fill="#C9A227" stroke="#332D22" stroke-width=".6"/><text x="250" y="756">#C9A227</text><text x="250" y="767" fill="#635C4C">gilt (orpiment)</text><rect x="380" y="748" width="34" height="18" fill="#CBD3CF" stroke="#332D22" stroke-width=".6"/><text x="420" y="756">#CBD3CF</text><text x="420" y="767" fill="#635C4C">rock crystal</text><rect x="550" y="748" width="34" height="18" fill="#6E1F2A" stroke="#332D22" stroke-width=".6"/><text x="590" y="756">#6E1F2A</text><text x="590" y="767" fill="#635C4C">garnet</text><rect x="720" y="748" width="34" height="18" fill="#DCD2BA" stroke="#332D22" stroke-width=".6"/><text x="760" y="756">#DCD2BA</text><text x="760" y="767" fill="#635C4C">relic bone</text><rect x="890" y="748" width="34" height="18" fill="#2A2622" stroke="#332D22" stroke-width=".6"/><text x="930" y="756">#2A2622</text><text x="930" y="767" fill="#635C4C">niello / soot</text></g>
</svg>
