<svg xmlns="http://www.w3.org/2000/svg" viewBox="0 0 1200 800" width="1200" height="800">
<defs>
<pattern id="grid" width="55" height="55" patternUnits="userSpaceOnUse" x="0" y="690"><path d="M55 0 H0 V55" fill="none" stroke="#262119" stroke-width="1"/></pattern>
<radialGradient id="glow" cx="35%" cy="60%" r="60%"><stop offset="0" stop-color="#2A2012" stop-opacity=".9"/><stop offset="1" stop-color="#14120E" stop-opacity="0"/></radialGradient>
<linearGradient id="g1" x1="0" y1="0" x2="1" y2="1"><stop offset="0" stop-color="#D0B35A"/><stop offset=".5" stop-color="#C9A227"/><stop offset="1" stop-color="#645113"/></linearGradient>
<linearGradient id="g2" x1="0" y1="0" x2="1" y2="1"><stop offset="0" stop-color="#D9CEB2"/><stop offset="1" stop-color="#8C856F"/></linearGradient>
<linearGradient id="g3" x1="0" y1="0" x2="1" y2="1"><stop offset="0" stop-color="#775847"/><stop offset="1" stop-color="#382318"/></linearGradient>
<radialGradient id="r4" cx="0.35" cy="0.3" r="0.6"><stop offset="0" stop-color="#C6AE9D" stop-opacity="1"/><stop offset="1" stop-color="#6E1F2A" stop-opacity="1"/></radialGradient>
<radialGradient id="r5" cx="0.35" cy="0.3" r="0.6"><stop offset="0" stop-color="#BCB9AB" stop-opacity="1"/><stop offset="1" stop-color="#3E5470" stop-opacity="1"/></radialGradient>
<linearGradient id="g6" x1="0" y1="0" x2="0" y2="1"><stop offset="0" stop-color="#DCD2BA"/><stop offset="1" stop-color="#9A937E"/></linearGradient>
<radialGradient id="r7" cx="0.5" cy="0.5" r="0.5"><stop offset="0" stop-color="#C9A227" stop-opacity="0.22"/><stop offset="1" stop-color="#C9A227" stop-opacity="0"/></radialGradient>
</defs>
<rect width="1200" height="800" fill="#14120E"/>
<rect width="1200" height="800" fill="url(#glow)"/>
<rect x="0" y="120" width="1200" height="570" fill="url(#grid)"/>
<line x1="40" y1="690" x2="1160" y2="690" stroke="#635C4C" stroke-width="1.5"/>
<rect x="12" y="12" width="1176" height="776" fill="none" stroke="#332D22" stroke-width="1"/>
<text x="40" y="54" font-family="Overpass Mono, monospace" font-size="12" fill="#635C4C" text-anchor="start" letter-spacing="3">THE HIGH MEDIEVAL · PLUNDER · 350 COIN · 1 ST</text>
<text x="40" y="96" font-family="Eczar, Georgia, serif" font-size="38" font-weight="700" fill="#DCD2BA">Illuminated Psalter</text>
<text x="1160" y="54" font-family="Overpass Mono, monospace" font-size="12" fill="#9A9078" text-anchor="end">0.19 × 0.26 × 0.08 m · ≤ 1.5k tris · 1024²</text>
<text x="1160" y="76" font-family="Overpass Mono, monospace" font-size="12" fill="#9A9078" text-anchor="end">orthos 1 m = 900 px · fragility 5 m/s</text>
<circle cx="330" cy="430" r="260" fill="url(#r7)"/>
<ellipse cx="345" cy="600" rx="230" ry="40" fill="#0B0A08" opacity=".7"/>
<path d="M141.6,616.2 L359.7,687.6 L359.7,675.3 L141.6,603.9 Z" fill="url(#g3)" stroke="#14120E" stroke-width="0.8" stroke-linejoin="round"/><path d="M359.7,687.6 L518.4,503.8 L518.4,491.5 L359.7,675.3 Z" fill="url(#g3)" stroke="#14120E" stroke-width="0.8" stroke-linejoin="round"/><path d="M141.6,603.9 L359.7,675.3 L518.4,491.5 L300.3,420.1 Z" fill="url(#g3)" stroke="#14120E" stroke-width="0.8" stroke-linejoin="round"/>
<path d="M150.9,603.3 L357.6,670.9 L357.6,613.6 L150.9,545.9 Z" fill="url(#g6)" stroke="#14120E" stroke-width="0.8" stroke-linejoin="round"/><path d="M357.6,670.9 L511.4,492.9 L511.4,435.5 L357.6,613.6 Z" fill="url(#g6)" stroke="#14120E" stroke-width="0.8" stroke-linejoin="round"/><path d="M150.9,545.9 L357.6,613.6 L511.4,435.5 L304.7,367.9 Z" fill="#DCD2BA" stroke="#14120E" stroke-width="0.8" stroke-linejoin="round"/>
<path d="M150.9,599.2 L357.6,666.8 L511.4,488.8" fill="none" stroke="#847E6C" stroke-width=".6" opacity=".7"/>
<path d="M150.9,595.1 L357.6,662.7 L511.4,484.7" fill="none" stroke="#847E6C" stroke-width=".6" opacity=".7"/>
<path d="M150.9,591.0 L357.6,658.6 L511.4,480.6" fill="none" stroke="#847E6C" stroke-width=".6" opacity=".7"/>
<path d="M150.9,586.9 L357.6,654.6 L511.4,476.5" fill="none" stroke="#847E6C" stroke-width=".6" opacity=".7"/>
<path d="M150.9,582.8 L357.6,650.5 L511.4,472.4" fill="none" stroke="#847E6C" stroke-width=".6" opacity=".7"/>
<path d="M150.9,578.7 L357.6,646.4 L511.4,468.3" fill="none" stroke="#847E6C" stroke-width=".6" opacity=".7"/>
<path d="M150.9,574.6 L357.6,642.3 L511.4,464.2" fill="none" stroke="#847E6C" stroke-width=".6" opacity=".7"/>
<path d="M150.9,570.5 L357.6,638.2 L511.4,460.1" fill="none" stroke="#847E6C" stroke-width=".6" opacity=".7"/>
<path d="M150.9,566.4 L357.6,634.1 L511.4,456.0" fill="none" stroke="#847E6C" stroke-width=".6" opacity=".7"/>
<path d="M150.9,562.3 L357.6,630.0 L511.4,451.9" fill="none" stroke="#847E6C" stroke-width=".6" opacity=".7"/>
<path d="M150.9,558.2 L357.6,625.9 L511.4,447.8" fill="none" stroke="#847E6C" stroke-width=".6" opacity=".7"/>
<path d="M150.9,554.1 L357.6,621.8 L511.4,443.7" fill="none" stroke="#847E6C" stroke-width=".6" opacity=".7"/>
<path d="M150.9,550.0 L357.6,617.7 L511.4,439.6" fill="none" stroke="#847E6C" stroke-width=".6" opacity=".7"/>
<path d="M141.6,546.5 L359.7,617.9 L359.7,605.6 L141.6,534.2 Z" fill="url(#g3)" stroke="#14120E" stroke-width="0.8" stroke-linejoin="round"/><path d="M359.7,617.9 L518.4,434.2 L518.4,421.9 L359.7,605.6 Z" fill="url(#g3)" stroke="#14120E" stroke-width="0.8" stroke-linejoin="round"/><path d="M141.6,534.2 L359.7,605.6 L518.4,421.9 L300.3,350.5 Z" fill="url(#g3)" stroke="#14120E" stroke-width="0.8" stroke-linejoin="round"/>
<g transform="matrix(1.14783,0.37575,-0.61031,0.70668,300.30,350.48)"><rect x="0" y="0" width="190" height="260" rx="4" fill="url(#g3)" stroke="#14120E" stroke-width="1.5"/><rect x="8" y="8" width="174" height="244" rx="3" fill="url(#g1)" stroke="#14120E" stroke-width="1"/><rect x="30" y="30" width="130" height="200" fill="#5E3A2A" stroke="#14120E" stroke-width="1"/><path d="M14,20 q5,-6 10,0 q-5,6 -10,0 M166,20 q5,-6 10,0 q-5,6 -10,0" fill="none" stroke="#6F5915" stroke-width="1"/><path d="M14,36 q5,-6 10,0 q-5,6 -10,0 M166,36 q5,-6 10,0 q-5,6 -10,0" fill="none" stroke="#6F5915" stroke-width="1"/><path d="M14,52 q5,-6 10,0 q-5,6 -10,0 M166,52 q5,-6 10,0 q-5,6 -10,0" fill="none" stroke="#6F5915" stroke-width="1"/><path d="M14,68 q5,-6 10,0 q-5,6 -10,0 M166,68 q5,-6 10,0 q-5,6 -10,0" fill="none" stroke="#6F5915" stroke-width="1"/><path d="M14,84 q5,-6 10,0 q-5,6 -10,0 M166,84 q5,-6 10,0 q-5,6 -10,0" fill="none" stroke="#6F5915" stroke-width="1"/><path d="M14,100 q5,-6 10,0 q-5,6 -10,0 M166,100 q5,-6 10,0 q-5,6 -10,0" fill="none" stroke="#6F5915" stroke-width="1"/><path d="M14,116 q5,-6 10,0 q-5,6 -10,0 M166,116 q5,-6 10,0 q-5,6 -10,0" fill="none" stroke="#6F5915" stroke-width="1"/><path d="M14,132 q5,-6 10,0 q-5,6 -10,0 M166,132 q5,-6 10,0 q-5,6 -10,0" fill="none" stroke="#6F5915" stroke-width="1"/><path d="M14,148 q5,-6 10,0 q-5,6 -10,0 M166,148 q5,-6 10,0 q-5,6 -10,0" fill="none" stroke="#6F5915" stroke-width="1"/><path d="M14,164 q5,-6 10,0 q-5,6 -10,0 M166,164 q5,-6 10,0 q-5,6 -10,0" fill="none" stroke="#6F5915" stroke-width="1"/><path d="M14,180 q5,-6 10,0 q-5,6 -10,0 M166,180 q5,-6 10,0 q-5,6 -10,0" fill="none" stroke="#6F5915" stroke-width="1"/><path d="M14,196 q5,-6 10,0 q-5,6 -10,0 M166,196 q5,-6 10,0 q-5,6 -10,0" fill="none" stroke="#6F5915" stroke-width="1"/><path d="M14,212 q5,-6 10,0 q-5,6 -10,0 M166,212 q5,-6 10,0 q-5,6 -10,0" fill="none" stroke="#6F5915" stroke-width="1"/><path d="M14,228 q5,-6 10,0 q-5,6 -10,0 M166,228 q5,-6 10,0 q-5,6 -10,0" fill="none" stroke="#6F5915" stroke-width="1"/><path d="M14,244 q5,-6 10,0 q-5,6 -10,0 M166,244 q5,-6 10,0 q-5,6 -10,0" fill="none" stroke="#6F5915" stroke-width="1"/><path d="M36,14 q6,5 0,10 q-6,-5 0,-10 M36,236 q6,5 0,10 q-6,-5 0,-10" fill="none" stroke="#6F5915" stroke-width="1"/><path d="M52,14 q6,5 0,10 q-6,-5 0,-10 M52,236 q6,5 0,10 q-6,-5 0,-10" fill="none" stroke="#6F5915" stroke-width="1"/><path d="M68,14 q6,5 0,10 q-6,-5 0,-10 M68,236 q6,5 0,10 q-6,-5 0,-10" fill="none" stroke="#6F5915" stroke-width="1"/><path d="M84,14 q6,5 0,10 q-6,-5 0,-10 M84,236 q6,5 0,10 q-6,-5 0,-10" fill="none" stroke="#6F5915" stroke-width="1"/><path d="M100,14 q6,5 0,10 q-6,-5 0,-10 M100,236 q6,5 0,10 q-6,-5 0,-10" fill="none" stroke="#6F5915" stroke-width="1"/><path d="M116,14 q6,5 0,10 q-6,-5 0,-10 M116,236 q6,5 0,10 q-6,-5 0,-10" fill="none" stroke="#6F5915" stroke-width="1"/><path d="M132,14 q6,5 0,10 q-6,-5 0,-10 M132,236 q6,5 0,10 q-6,-5 0,-10" fill="none" stroke="#6F5915" stroke-width="1"/><path d="M148,14 q6,5 0,10 q-6,-5 0,-10 M148,236 q6,5 0,10 q-6,-5 0,-10" fill="none" stroke="#6F5915" stroke-width="1"/><circle cx="19" cy="19" r="10" fill="#CDAC44" stroke="#14120E" stroke-width=".8"/><ellipse cx="19" cy="19" rx="8" ry="8.8" fill="url(#r4)" stroke="#14120E" stroke-width=".6"/><circle cx="16.2" cy="15.8" r="2.0" fill="#FFFFFF" opacity=".7"/><circle cx="171" cy="19" r="10" fill="#CDAC44" stroke="#14120E" stroke-width=".8"/><ellipse cx="171" cy="19" rx="8" ry="8.8" fill="url(#r5)" stroke="#14120E" stroke-width=".6"/><circle cx="168.2" cy="15.8" r="2.0" fill="#FFFFFF" opacity=".7"/><circle cx="19" cy="241" r="10" fill="#CDAC44" stroke="#14120E" stroke-width=".8"/><ellipse cx="19" cy="241" rx="8" ry="8.8" fill="url(#r4)" stroke="#14120E" stroke-width=".6"/><circle cx="16.2" cy="237.8" r="2.0" fill="#FFFFFF" opacity=".7"/><circle cx="171" cy="241" r="10" fill="#CDAC44" stroke="#14120E" stroke-width=".8"/><ellipse cx="171" cy="241" rx="8" ry="8.8" fill="url(#r5)" stroke="#14120E" stroke-width=".6"/><circle cx="168.2" cy="237.8" r="2.0" fill="#FFFFFF" opacity=".7"/><circle cx="95" cy="19" r="7.5" fill="#CDAC44" stroke="#14120E" stroke-width=".8"/><ellipse cx="95" cy="19" rx="5.5" ry="6.1" fill="url(#r4)" stroke="#14120E" stroke-width=".6"/><circle cx="93.1" cy="16.8" r="1.4" fill="#FFFFFF" opacity=".7"/><circle cx="95" cy="241" r="7.5" fill="#CDAC44" stroke="#14120E" stroke-width=".8"/><ellipse cx="95" cy="241" rx="5.5" ry="6.1" fill="url(#r5)" stroke="#14120E" stroke-width=".6"/><circle cx="93.1" cy="238.8" r="1.4" fill="#FFFFFF" opacity=".7"/><circle cx="19" cy="130" r="7.5" fill="#CDAC44" stroke="#14120E" stroke-width=".8"/><ellipse cx="19" cy="130" rx="5.5" ry="6.1" fill="url(#r4)" stroke="#14120E" stroke-width=".6"/><circle cx="17.1" cy="127.8" r="1.4" fill="#FFFFFF" opacity=".7"/><circle cx="171" cy="130" r="7.5" fill="#CDAC44" stroke="#14120E" stroke-width=".8"/><ellipse cx="171" cy="130" rx="5.5" ry="6.1" fill="url(#r5)" stroke="#14120E" stroke-width=".6"/><circle cx="169.1" cy="127.8" r="1.4" fill="#FFFFFF" opacity=".7"/><circle cx="19" cy="75" r="7.5" fill="#CDAC44" stroke="#14120E" stroke-width=".8"/><ellipse cx="19" cy="75" rx="5.5" ry="6.1" fill="url(#r4)" stroke="#14120E" stroke-width=".6"/><circle cx="17.1" cy="72.8" r="1.4" fill="#FFFFFF" opacity=".7"/><circle cx="171" cy="75" r="7.5" fill="#CDAC44" stroke="#14120E" stroke-width=".8"/><ellipse cx="171" cy="75" rx="5.5" ry="6.1" fill="url(#r5)" stroke="#14120E" stroke-width=".6"/><circle cx="169.1" cy="72.8" r="1.4" fill="#FFFFFF" opacity=".7"/><circle cx="19" cy="185" r="7.5" fill="#CDAC44" stroke="#14120E" stroke-width=".8"/><ellipse cx="19" cy="185" rx="5.5" ry="6.1" fill="url(#r4)" stroke="#14120E" stroke-width=".6"/><circle cx="17.1" cy="182.8" r="1.4" fill="#FFFFFF" opacity=".7"/><circle cx="171" cy="185" r="7.5" fill="#CDAC44" stroke="#14120E" stroke-width=".8"/><ellipse cx="171" cy="185" rx="5.5" ry="6.1" fill="url(#r5)" stroke="#14120E" stroke-width=".6"/><circle cx="169.1" cy="182.8" r="1.4" fill="#FFFFFF" opacity=".7"/><circle cx="57" cy="19" r="7.5" fill="#CDAC44" stroke="#14120E" stroke-width=".8"/><ellipse cx="57" cy="19" rx="5.5" ry="6.1" fill="url(#r4)" stroke="#14120E" stroke-width=".6"/><circle cx="55.1" cy="16.8" r="1.4" fill="#FFFFFF" opacity=".7"/><circle cx="133" cy="19" r="7.5" fill="#CDAC44" stroke="#14120E" stroke-width=".8"/><ellipse cx="133" cy="19" rx="5.5" ry="6.1" fill="url(#r5)" stroke="#14120E" stroke-width=".6"/><circle cx="131.1" cy="16.8" r="1.4" fill="#FFFFFF" opacity=".7"/><circle cx="57" cy="241" r="7.5" fill="#CDAC44" stroke="#14120E" stroke-width=".8"/><ellipse cx="57" cy="241" rx="5.5" ry="6.1" fill="url(#r4)" stroke="#14120E" stroke-width=".6"/><circle cx="55.1" cy="238.8" r="1.4" fill="#FFFFFF" opacity=".7"/><circle cx="133" cy="241" r="7.5" fill="#CDAC44" stroke="#14120E" stroke-width=".8"/><ellipse cx="133" cy="241" rx="5.5" ry="6.1" fill="url(#r5)" stroke="#14120E" stroke-width=".6"/><circle cx="131.1" cy="238.8" r="1.4" fill="#FFFFFF" opacity=".7"/><rect x="38" y="40" width="114" height="180" rx="2" fill="url(#g2)" stroke="#14120E" stroke-width="1"/><path d="M95,52 C125,60 132,120 125,170 C120,200 105,210 95,212 C85,210 70,200 65,170 C58,120 65,60 95,52 Z" fill="none" stroke="#77715E" stroke-width="2"/><circle cx="95" cy="82" r="12" fill="none" stroke="#6C6655" stroke-width="2"/><circle cx="95" cy="84" r="7" fill="#B8AE91" stroke="#6C6655" stroke-width="1"/><path d="M80,100 C84,96 106,96 110,100 L114,150 C110,160 80,160 76,150 Z" fill="#C2B89A" stroke="#6C6655" stroke-width="1.4"/><path d="M86,110 L84,148 M95,104 L95,152 M104,110 L106,148 M78,160 C85,172 105,172 112,160 L116,195 L74,195 Z" fill="none" stroke="#77715E" stroke-width="1.2"/><path d="M108,108 l12,-10 M118,96 l4,4 M72,120 c-4,6 -4,10 0,14" fill="none" stroke="#6C6655" stroke-width="1.6"/><path d="M44,50 l12,0 M44,58 l8,0 M146,50 l-12,0 M146,58 l-8,0 M44,210 l12,0 M146,210 l-12,0" stroke="#77715E" stroke-width="1.4"/><path d="M8,110 L8,150 L14,150 L14,110 Z M176,100 L182,100 L182,160 L176,160 Z" fill="#5E3A2A" opacity=".55"/><g fill="#1E1B17" opacity="0.35"><circle cx="55.2" cy="227.8" r="0.93"/><circle cx="47.7" cy="194.9" r="0.61"/><circle cx="170.4" cy="95.0" r="0.77"/><circle cx="45.1" cy="14.4" r="0.34"/><circle cx="174.4" cy="101.6" r="0.35"/><circle cx="147.1" cy="201.1" r="1.20"/><circle cx="85.9" cy="46.0" r="1.02"/><circle cx="122.2" cy="11.2" r="0.76"/><circle cx="66.6" cy="127.2" r="1.11"/><circle cx="38.6" cy="200.8" r="1.10"/><circle cx="138.4" cy="157.2" r="0.32"/><circle cx="69.0" cy="137.1" r="0.35"/><circle cx="13.2" cy="216.5" r="0.95"/><circle cx="30.8" cy="75.6" r="0.84"/><circle cx="133.5" cy="91.5" r="0.71"/><circle cx="92.3" cy="89.0" r="0.80"/><circle cx="83.4" cy="116.6" r="0.95"/><circle cx="87.4" cy="206.6" r="0.49"/><circle cx="116.5" cy="44.2" r="1.02"/><circle cx="100.6" cy="85.6" r="0.35"/><circle cx="51.7" cy="103.8" r="0.87"/><circle cx="161.9" cy="165.5" r="0.50"/><circle cx="39.3" cy="101.0" r="1.06"/><circle cx="75.5" cy="221.1" r="0.77"/><circle cx="19.5" cy="48.6" r="1.12"/><circle cx="139.9" cy="162.9" r="0.94"/><circle cx="164.3" cy="98.3" r="0.88"/><circle cx="134.1" cy="89.9" r="0.75"/><circle cx="66.8" cy="41.9" r="0.36"/><circle cx="170.3" cy="220.4" r="1.18"/><circle cx="109.7" cy="10.2" r="1.01"/><circle cx="165.2" cy="134.7" r="0.32"/><circle cx="127.0" cy="70.2" r="0.76"/><circle cx="95.2" cy="24.4" r="0.53"/><circle cx="98.7" cy="64.3" r="0.52"/><circle cx="100.4" cy="13.5" r="0.72"/><circle cx="93.1" cy="84.0" r="1.03"/><circle cx="178.0" cy="173.7" r="0.92"/><circle cx="106.4" cy="19.4" r="1.10"/><circle cx="73.1" cy="9.2" r="0.78"/><circle cx="16.5" cy="157.2" r="0.93"/><circle cx="23.2" cy="34.4" r="1.05"/><circle cx="157.3" cy="43.1" r="1.00"/><circle cx="147.8" cy="46.8" r="0.84"/><circle cx="131.5" cy="243.9" r="0.60"/><circle cx="85.3" cy="181.0" r="0.83"/><circle cx="143.4" cy="180.7" r="0.67"/><circle cx="135.1" cy="139.2" r="0.34"/><circle cx="149.6" cy="88.6" r="1.07"/><circle cx="74.3" cy="98.7" r="0.90"/><circle cx="71.2" cy="110.6" r="0.36"/><circle cx="37.3" cy="176.7" r="0.50"/><circle cx="163.4" cy="35.5" r="0.62"/><circle cx="15.9" cy="56.6" r="0.75"/><circle cx="153.7" cy="202.5" r="1.05"/><circle cx="163.5" cy="176.6" r="0.42"/><circle cx="133.3" cy="133.1" r="0.41"/><circle cx="173.2" cy="8.8" r="0.57"/><circle cx="90.2" cy="165.0" r="0.32"/><circle cx="45.9" cy="209.3" r="0.96"/><circle cx="78.1" cy="76.9" r="0.70"/><circle cx="47.2" cy="171.9" r="1.13"/><circle cx="46.2" cy="202.5" r="0.71"/><circle cx="54.5" cy="186.4" r="0.48"/><circle cx="163.6" cy="194.3" r="0.67"/><circle cx="154.1" cy="111.7" r="0.90"/><circle cx="22.7" cy="77.5" r="0.78"/><circle cx="71.8" cy="237.6" r="0.39"/><circle cx="142.1" cy="103.0" r="0.40"/><circle cx="95.6" cy="216.2" r="0.37"/><circle cx="113.2" cy="214.1" r="1.19"/><circle cx="167.2" cy="180.4" r="0.54"/><circle cx="160.0" cy="168.7" r="0.86"/><circle cx="130.8" cy="234.6" r="0.77"/><circle cx="133.3" cy="37.4" r="1.06"/><circle cx="33.9" cy="229.1" r="0.54"/><circle cx="37.5" cy="152.6" r="0.63"/><circle cx="176.6" cy="51.2" r="0.55"/><circle cx="32.3" cy="150.6" r="0.87"/><circle cx="99.0" cy="116.2" r="1.19"/></g></g>
<path d="M363.1,550.5 L397.5,561.8 L402.1,604.3 L411.9,593.0 L407.3,550.5 L372.9,539.2 Z" fill="#5E3A2A" stroke="#14120E" stroke-width=".8"/>
<rect x="401.0" y="593.7" width="12" height="16" rx="2" fill="url(#g1)" stroke="#14120E" stroke-width=".8"/>
<path d="M436.3,465.7 L470.8,477.0 L475.4,519.5 L485.1,508.2 L480.5,465.7 L446.1,454.4 Z" fill="#5E3A2A" stroke="#14120E" stroke-width=".8"/>
<rect x="474.3" y="508.9" width="12" height="16" rx="2" fill="url(#g1)" stroke="#14120E" stroke-width=".8"/>
<path d="M141.6,532.2 L300.3,348.5" fill="none" stroke="#C4542E" stroke-width="1.6" stroke-dasharray="5 4" stroke-linecap="round"/>
<g transform="translate(704.5,456.0) scale(0.9)"><rect x="0" y="0" width="190" height="260" rx="4" fill="url(#g3)" stroke="#14120E" stroke-width="1.5"/><rect x="8" y="8" width="174" height="244" rx="3" fill="url(#g1)" stroke="#14120E" stroke-width="1"/><rect x="30" y="30" width="130" height="200" fill="#5E3A2A" stroke="#14120E" stroke-width="1"/><path d="M14,20 q5,-6 10,0 q-5,6 -10,0 M166,20 q5,-6 10,0 q-5,6 -10,0" fill="none" stroke="#6F5915" stroke-width="1"/><path d="M14,36 q5,-6 10,0 q-5,6 -10,0 M166,36 q5,-6 10,0 q-5,6 -10,0" fill="none" stroke="#6F5915" stroke-width="1"/><path d="M14,52 q5,-6 10,0 q-5,6 -10,0 M166,52 q5,-6 10,0 q-5,6 -10,0" fill="none" stroke="#6F5915" stroke-width="1"/><path d="M14,68 q5,-6 10,0 q-5,6 -10,0 M166,68 q5,-6 10,0 q-5,6 -10,0" fill="none" stroke="#6F5915" stroke-width="1"/><path d="M14,84 q5,-6 10,0 q-5,6 -10,0 M166,84 q5,-6 10,0 q-5,6 -10,0" fill="none" stroke="#6F5915" stroke-width="1"/><path d="M14,100 q5,-6 10,0 q-5,6 -10,0 M166,100 q5,-6 10,0 q-5,6 -10,0" fill="none" stroke="#6F5915" stroke-width="1"/><path d="M14,116 q5,-6 10,0 q-5,6 -10,0 M166,116 q5,-6 10,0 q-5,6 -10,0" fill="none" stroke="#6F5915" stroke-width="1"/><path d="M14,132 q5,-6 10,0 q-5,6 -10,0 M166,132 q5,-6 10,0 q-5,6 -10,0" fill="none" stroke="#6F5915" stroke-width="1"/><path d="M14,148 q5,-6 10,0 q-5,6 -10,0 M166,148 q5,-6 10,0 q-5,6 -10,0" fill="none" stroke="#6F5915" stroke-width="1"/><path d="M14,164 q5,-6 10,0 q-5,6 -10,0 M166,164 q5,-6 10,0 q-5,6 -10,0" fill="none" stroke="#6F5915" stroke-width="1"/><path d="M14,180 q5,-6 10,0 q-5,6 -10,0 M166,180 q5,-6 10,0 q-5,6 -10,0" fill="none" stroke="#6F5915" stroke-width="1"/><path d="M14,196 q5,-6 10,0 q-5,6 -10,0 M166,196 q5,-6 10,0 q-5,6 -10,0" fill="none" stroke="#6F5915" stroke-width="1"/><path d="M14,212 q5,-6 10,0 q-5,6 -10,0 M166,212 q5,-6 10,0 q-5,6 -10,0" fill="none" stroke="#6F5915" stroke-width="1"/><path d="M14,228 q5,-6 10,0 q-5,6 -10,0 M166,228 q5,-6 10,0 q-5,6 -10,0" fill="none" stroke="#6F5915" stroke-width="1"/><path d="M14,244 q5,-6 10,0 q-5,6 -10,0 M166,244 q5,-6 10,0 q-5,6 -10,0" fill="none" stroke="#6F5915" stroke-width="1"/><path d="M36,14 q6,5 0,10 q-6,-5 0,-10 M36,236 q6,5 0,10 q-6,-5 0,-10" fill="none" stroke="#6F5915" stroke-width="1"/><path d="M52,14 q6,5 0,10 q-6,-5 0,-10 M52,236 q6,5 0,10 q-6,-5 0,-10" fill="none" stroke="#6F5915" stroke-width="1"/><path d="M68,14 q6,5 0,10 q-6,-5 0,-10 M68,236 q6,5 0,10 q-6,-5 0,-10" fill="none" stroke="#6F5915" stroke-width="1"/><path d="M84,14 q6,5 0,10 q-6,-5 0,-10 M84,236 q6,5 0,10 q-6,-5 0,-10" fill="none" stroke="#6F5915" stroke-width="1"/><path d="M100,14 q6,5 0,10 q-6,-5 0,-10 M100,236 q6,5 0,10 q-6,-5 0,-10" fill="none" stroke="#6F5915" stroke-width="1"/><path d="M116,14 q6,5 0,10 q-6,-5 0,-10 M116,236 q6,5 0,10 q-6,-5 0,-10" fill="none" stroke="#6F5915" stroke-width="1"/><path d="M132,14 q6,5 0,10 q-6,-5 0,-10 M132,236 q6,5 0,10 q-6,-5 0,-10" fill="none" stroke="#6F5915" stroke-width="1"/><path d="M148,14 q6,5 0,10 q-6,-5 0,-10 M148,236 q6,5 0,10 q-6,-5 0,-10" fill="none" stroke="#6F5915" stroke-width="1"/><circle cx="19" cy="19" r="10" fill="#CDAC44" stroke="#14120E" stroke-width=".8"/><ellipse cx="19" cy="19" rx="8" ry="8.8" fill="url(#r4)" stroke="#14120E" stroke-width=".6"/><circle cx="16.2" cy="15.8" r="2.0" fill="#FFFFFF" opacity=".7"/><circle cx="171" cy="19" r="10" fill="#CDAC44" stroke="#14120E" stroke-width=".8"/><ellipse cx="171" cy="19" rx="8" ry="8.8" fill="url(#r5)" stroke="#14120E" stroke-width=".6"/><circle cx="168.2" cy="15.8" r="2.0" fill="#FFFFFF" opacity=".7"/><circle cx="19" cy="241" r="10" fill="#CDAC44" stroke="#14120E" stroke-width=".8"/><ellipse cx="19" cy="241" rx="8" ry="8.8" fill="url(#r4)" stroke="#14120E" stroke-width=".6"/><circle cx="16.2" cy="237.8" r="2.0" fill="#FFFFFF" opacity=".7"/><circle cx="171" cy="241" r="10" fill="#CDAC44" stroke="#14120E" stroke-width=".8"/><ellipse cx="171" cy="241" rx="8" ry="8.8" fill="url(#r5)" stroke="#14120E" stroke-width=".6"/><circle cx="168.2" cy="237.8" r="2.0" fill="#FFFFFF" opacity=".7"/><circle cx="95" cy="19" r="7.5" fill="#CDAC44" stroke="#14120E" stroke-width=".8"/><ellipse cx="95" cy="19" rx="5.5" ry="6.1" fill="url(#r4)" stroke="#14120E" stroke-width=".6"/><circle cx="93.1" cy="16.8" r="1.4" fill="#FFFFFF" opacity=".7"/><circle cx="95" cy="241" r="7.5" fill="#CDAC44" stroke="#14120E" stroke-width=".8"/><ellipse cx="95" cy="241" rx="5.5" ry="6.1" fill="url(#r5)" stroke="#14120E" stroke-width=".6"/><circle cx="93.1" cy="238.8" r="1.4" fill="#FFFFFF" opacity=".7"/><circle cx="19" cy="130" r="7.5" fill="#CDAC44" stroke="#14120E" stroke-width=".8"/><ellipse cx="19" cy="130" rx="5.5" ry="6.1" fill="url(#r4)" stroke="#14120E" stroke-width=".6"/><circle cx="17.1" cy="127.8" r="1.4" fill="#FFFFFF" opacity=".7"/><circle cx="171" cy="130" r="7.5" fill="#CDAC44" stroke="#14120E" stroke-width=".8"/><ellipse cx="171" cy="130" rx="5.5" ry="6.1" fill="url(#r5)" stroke="#14120E" stroke-width=".6"/><circle cx="169.1" cy="127.8" r="1.4" fill="#FFFFFF" opacity=".7"/><circle cx="19" cy="75" r="7.5" fill="#CDAC44" stroke="#14120E" stroke-width=".8"/><ellipse cx="19" cy="75" rx="5.5" ry="6.1" fill="url(#r4)" stroke="#14120E" stroke-width=".6"/><circle cx="17.1" cy="72.8" r="1.4" fill="#FFFFFF" opacity=".7"/><circle cx="171" cy="75" r="7.5" fill="#CDAC44" stroke="#14120E" stroke-width=".8"/><ellipse cx="171" cy="75" rx="5.5" ry="6.1" fill="url(#r5)" stroke="#14120E" stroke-width=".6"/><circle cx="169.1" cy="72.8" r="1.4" fill="#FFFFFF" opacity=".7"/><circle cx="19" cy="185" r="7.5" fill="#CDAC44" stroke="#14120E" stroke-width=".8"/><ellipse cx="19" cy="185" rx="5.5" ry="6.1" fill="url(#r4)" stroke="#14120E" stroke-width=".6"/><circle cx="17.1" cy="182.8" r="1.4" fill="#FFFFFF" opacity=".7"/><circle cx="171" cy="185" r="7.5" fill="#CDAC44" stroke="#14120E" stroke-width=".8"/><ellipse cx="171" cy="185" rx="5.5" ry="6.1" fill="url(#r5)" stroke="#14120E" stroke-width=".6"/><circle cx="169.1" cy="182.8" r="1.4" fill="#FFFFFF" opacity=".7"/><circle cx="57" cy="19" r="7.5" fill="#CDAC44" stroke="#14120E" stroke-width=".8"/><ellipse cx="57" cy="19" rx="5.5" ry="6.1" fill="url(#r4)" stroke="#14120E" stroke-width=".6"/><circle cx="55.1" cy="16.8" r="1.4" fill="#FFFFFF" opacity=".7"/><circle cx="133" cy="19" r="7.5" fill="#CDAC44" stroke="#14120E" stroke-width=".8"/><ellipse cx="133" cy="19" rx="5.5" ry="6.1" fill="url(#r5)" stroke="#14120E" stroke-width=".6"/><circle cx="131.1" cy="16.8" r="1.4" fill="#FFFFFF" opacity=".7"/><circle cx="57" cy="241" r="7.5" fill="#CDAC44" stroke="#14120E" stroke-width=".8"/><ellipse cx="57" cy="241" rx="5.5" ry="6.1" fill="url(#r4)" stroke="#14120E" stroke-width=".6"/><circle cx="55.1" cy="238.8" r="1.4" fill="#FFFFFF" opacity=".7"/><circle cx="133" cy="241" r="7.5" fill="#CDAC44" stroke="#14120E" stroke-width=".8"/><ellipse cx="133" cy="241" rx="5.5" ry="6.1" fill="url(#r5)" stroke="#14120E" stroke-width=".6"/><circle cx="131.1" cy="238.8" r="1.4" fill="#FFFFFF" opacity=".7"/><rect x="38" y="40" width="114" height="180" rx="2" fill="url(#g2)" stroke="#14120E" stroke-width="1"/><path d="M95,52 C125,60 132,120 125,170 C120,200 105,210 95,212 C85,210 70,200 65,170 C58,120 65,60 95,52 Z" fill="none" stroke="#77715E" stroke-width="2"/><circle cx="95" cy="82" r="12" fill="none" stroke="#6C6655" stroke-width="2"/><circle cx="95" cy="84" r="7" fill="#B8AE91" stroke="#6C6655" stroke-width="1"/><path d="M80,100 C84,96 106,96 110,100 L114,150 C110,160 80,160 76,150 Z" fill="#C2B89A" stroke="#6C6655" stroke-width="1.4"/><path d="M86,110 L84,148 M95,104 L95,152 M104,110 L106,148 M78,160 C85,172 105,172 112,160 L116,195 L74,195 Z" fill="none" stroke="#77715E" stroke-width="1.2"/><path d="M108,108 l12,-10 M118,96 l4,4 M72,120 c-4,6 -4,10 0,14" fill="none" stroke="#6C6655" stroke-width="1.6"/><path d="M44,50 l12,0 M44,58 l8,0 M146,50 l-12,0 M146,58 l-8,0 M44,210 l12,0 M146,210 l-12,0" stroke="#77715E" stroke-width="1.4"/><path d="M8,110 L8,150 L14,150 L14,110 Z M176,100 L182,100 L182,160 L176,160 Z" fill="#5E3A2A" opacity=".55"/><g fill="#1E1B17" opacity="0.35"><circle cx="136.7" cy="215.1" r="0.42"/><circle cx="27.7" cy="47.9" r="1.14"/><circle cx="23.6" cy="228.5" r="0.47"/><circle cx="153.1" cy="179.4" r="0.94"/><circle cx="82.4" cy="242.3" r="0.67"/><circle cx="77.1" cy="216.8" r="0.57"/><circle cx="154.3" cy="133.3" r="0.56"/><circle cx="159.1" cy="69.8" r="0.59"/><circle cx="28.4" cy="51.5" r="0.69"/><circle cx="120.2" cy="106.6" r="0.75"/><circle cx="55.7" cy="149.0" r="0.81"/><circle cx="24.2" cy="9.4" r="1.17"/><circle cx="15.1" cy="10.9" r="0.36"/><circle cx="135.6" cy="79.5" r="0.55"/><circle cx="128.0" cy="202.1" r="0.59"/><circle cx="162.1" cy="113.9" r="0.36"/><circle cx="120.0" cy="158.9" r="0.36"/><circle cx="140.1" cy="45.4" r="1.10"/><circle cx="95.1" cy="103.2" r="0.65"/><circle cx="119.0" cy="25.4" r="0.39"/><circle cx="12.3" cy="53.2" r="0.60"/><circle cx="177.3" cy="216.8" r="0.58"/><circle cx="108.2" cy="162.1" r="0.46"/><circle cx="97.3" cy="200.6" r="0.66"/><circle cx="135.9" cy="246.2" r="0.67"/><circle cx="174.8" cy="112.5" r="0.49"/><circle cx="105.0" cy="95.8" r="1.02"/><circle cx="77.0" cy="140.1" r="0.77"/><circle cx="113.4" cy="129.5" r="0.61"/><circle cx="17.2" cy="82.6" r="0.42"/><circle cx="14.0" cy="94.1" r="0.97"/><circle cx="110.1" cy="10.1" r="0.71"/><circle cx="125.9" cy="120.7" r="0.46"/><circle cx="82.9" cy="197.1" r="0.94"/><circle cx="175.8" cy="189.8" r="0.69"/><circle cx="175.5" cy="140.5" r="0.32"/><circle cx="163.3" cy="30.1" r="0.58"/><circle cx="138.8" cy="32.6" r="0.85"/><circle cx="128.6" cy="104.3" r="0.37"/><circle cx="93.6" cy="200.8" r="0.65"/><circle cx="181.7" cy="76.6" r="0.55"/><circle cx="18.9" cy="219.2" r="1.08"/><circle cx="26.6" cy="245.1" r="0.44"/><circle cx="118.9" cy="57.6" r="0.70"/><circle cx="154.5" cy="107.9" r="0.53"/><circle cx="38.4" cy="18.4" r="1.12"/><circle cx="67.7" cy="35.2" r="0.51"/><circle cx="155.6" cy="146.2" r="1.02"/><circle cx="49.5" cy="234.2" r="0.81"/><circle cx="122.6" cy="105.3" r="0.74"/><circle cx="175.1" cy="152.4" r="0.31"/><circle cx="152.2" cy="56.9" r="0.35"/><circle cx="173.8" cy="172.2" r="0.96"/><circle cx="12.8" cy="160.6" r="0.50"/><circle cx="126.8" cy="240.8" r="0.64"/><circle cx="125.9" cy="53.1" r="1.09"/><circle cx="49.0" cy="127.6" r="1.02"/><circle cx="152.6" cy="66.8" r="0.31"/><circle cx="67.1" cy="42.1" r="0.32"/><circle cx="117.3" cy="177.7" r="0.86"/><circle cx="125.8" cy="175.2" r="0.59"/><circle cx="72.5" cy="138.9" r="0.98"/><circle cx="65.9" cy="155.3" r="0.43"/><circle cx="96.6" cy="94.1" r="1.00"/><circle cx="72.6" cy="138.9" r="0.93"/><circle cx="32.9" cy="99.9" r="1.07"/><circle cx="132.4" cy="49.4" r="0.88"/><circle cx="163.1" cy="72.4" r="1.08"/><circle cx="158.1" cy="104.0" r="0.74"/><circle cx="51.6" cy="94.9" r="1.06"/><circle cx="154.4" cy="127.3" r="0.48"/><circle cx="82.9" cy="114.1" r="1.17"/><circle cx="169.0" cy="77.4" r="0.98"/><circle cx="159.4" cy="68.0" r="0.37"/><circle cx="82.1" cy="230.7" r="0.35"/><circle cx="60.2" cy="211.2" r="0.42"/><circle cx="113.4" cy="23.3" r="1.12"/><circle cx="141.3" cy="121.4" r="0.42"/><circle cx="80.2" cy="58.1" r="0.60"/><circle cx="114.9" cy="51.2" r="0.63"/></g></g>
<rect x="1034.0" y="456.0" width="72.0" height="234.0" fill="url(#g6)" stroke="#14120E" stroke-width="1"/>
<path d="M1048.3,458.0 L1048.3,688" stroke="#847E6C" stroke-width=".5"/>
<path d="M1052.7,458.0 L1052.7,688" stroke="#847E6C" stroke-width=".5"/>
<path d="M1057.0,458.0 L1057.0,688" stroke="#847E6C" stroke-width=".5"/>
<path d="M1061.3,458.0 L1061.3,688" stroke="#847E6C" stroke-width=".5"/>
<path d="M1065.7,458.0 L1065.7,688" stroke="#847E6C" stroke-width=".5"/>
<path d="M1070.0,458.0 L1070.0,688" stroke="#847E6C" stroke-width=".5"/>
<path d="M1074.3,458.0 L1074.3,688" stroke="#847E6C" stroke-width=".5"/>
<path d="M1078.7,458.0 L1078.7,688" stroke="#847E6C" stroke-width=".5"/>
<path d="M1083.0,458.0 L1083.0,688" stroke="#847E6C" stroke-width=".5"/>
<path d="M1087.3,458.0 L1087.3,688" stroke="#847E6C" stroke-width=".5"/>
<path d="M1091.7,458.0 L1091.7,688" stroke="#847E6C" stroke-width=".5"/>
<rect x="1034.0" y="456.0" width="10" height="234.0" fill="url(#g3)" stroke="#14120E" stroke-width="1"/>
<rect x="1096.0" y="456.0" width="10" height="234.0" fill="url(#g3)" stroke="#14120E" stroke-width="1"/>
<rect x="1030.0" y="456.0" width="4" height="234.0" fill="url(#g1)"/>
<rect x="1038.0" y="512.0" width="64.0" height="14" fill="#5E3A2A" stroke="#14120E" stroke-width=".8"/><rect x="1063.0" y="511.0" width="14" height="16" rx="2" fill="url(#g1)" stroke="#14120E" stroke-width=".8"/>
<rect x="1038.0" y="620.0" width="64.0" height="14" fill="#5E3A2A" stroke="#14120E" stroke-width=".8"/><rect x="1063.0" y="619.0" width="14" height="16" rx="2" fill="url(#g1)" stroke="#14120E" stroke-width=".8"/>
<path d="M1034.0,450.0 L1034.0,696" fill="none" stroke="#C4542E" stroke-width="1.4" stroke-dasharray="5 4" stroke-linecap="round"/>
<text x="330" y="730" font-family="Overpass Mono, monospace" font-size="11" fill="#635C4C" text-anchor="middle" letter-spacing="3">HERO 3/4 · 1 m = 1300 px</text>
<text x="790" y="730" font-family="Overpass Mono, monospace" font-size="11" fill="#635C4C" text-anchor="middle" letter-spacing="3">FRONT (COVER)</text>
<text x="1070" y="730" font-family="Overpass Mono, monospace" font-size="11" fill="#635C4C" text-anchor="middle" letter-spacing="3">SIDE (FORE-EDGE)</text>
<g stroke="#9A9078" stroke-width="1"><line x1="900" y1="400" x2="990" y2="400"/><line x1="900.0" y1="394" x2="900.0" y2="406"/><line x1="918.0" y1="397" x2="918.0" y2="403"/><line x1="936.0" y1="397" x2="936.0" y2="403"/><line x1="954.0" y1="397" x2="954.0" y2="403"/><line x1="972.0" y1="397" x2="972.0" y2="403"/><line x1="990.0" y1="394" x2="990.0" y2="406"/><rect x="900" y="398" width="45.0" height="4" fill="#9A9078" stroke="none"/></g><text x="1000" y="404" font-family="Overpass Mono, monospace" font-size="10.5" fill="#9A9078" text-anchor="start">0.1 m = 90 px (orthos)</text>
<text x="700" y="160" font-family="Overpass Mono, monospace" font-size="10.5" fill="#C4542E" text-anchor="start" letter-spacing="1">HARD IMPACT &gt; 5 m/s: 24 LEAVES SCATTER</text>
<g transform="translate(730,200) rotate(-14) scale(.36)" opacity="0.95"><rect x="0" y="0" width="180" height="250" fill="#DCD2BA" stroke="#847E6C" stroke-width="1"/><rect x="20" y="22" width="44" height="46" fill="#3E5470"/><rect x="24" y="26" width="36" height="38" fill="#C9A227"/><path d="M32,58 L32,32 L42,32 C54,32 54,46 42,46 L32,46 M42,46 L54,58" fill="none" stroke="#6E1F2A" stroke-width="5"/><path d="M72,30 L160,30" stroke="#2A2418" stroke-width="3" opacity=".7" stroke-dasharray="4 2"/><path d="M72,44 L153,44" stroke="#2A2418" stroke-width="3" opacity=".7" stroke-dasharray="5 2"/><path d="M72,58 L146,58" stroke="#2A2418" stroke-width="3" opacity=".7" stroke-dasharray="6 2"/><path d="M20,72 L139,72" stroke="#2A2418" stroke-width="3" opacity=".7" stroke-dasharray="4 2"/><rect x="20" y="67" width="8" height="8" fill="#6E1F2A"/><path d="M20,86 L155,86" stroke="#2A2418" stroke-width="3" opacity=".7" stroke-dasharray="5 2"/><path d="M20,100 L148,100" stroke="#2A2418" stroke-width="3" opacity=".7" stroke-dasharray="6 2"/><path d="M20,114 L141,114" stroke="#2A2418" stroke-width="3" opacity=".7" stroke-dasharray="4 2"/><path d="M20,128 L157,128" stroke="#2A2418" stroke-width="3" opacity=".7" stroke-dasharray="5 2"/><path d="M20,142 L150,142" stroke="#2A2418" stroke-width="3" opacity=".7" stroke-dasharray="6 2"/><rect x="20" y="137" width="8" height="8" fill="#6E1F2A"/><path d="M20,156 L143,156" stroke="#2A2418" stroke-width="3" opacity=".7" stroke-dasharray="4 2"/><path d="M20,170 L159,170" stroke="#2A2418" stroke-width="3" opacity=".7" stroke-dasharray="5 2"/><path d="M20,184 L152,184" stroke="#2A2418" stroke-width="3" opacity=".7" stroke-dasharray="6 2"/><path d="M20,198 L145,198" stroke="#2A2418" stroke-width="3" opacity=".7" stroke-dasharray="4 2"/><path d="M20,212 L138,212" stroke="#2A2418" stroke-width="3" opacity=".7" stroke-dasharray="5 2"/><rect x="20" y="207" width="8" height="8" fill="#6E1F2A"/><path d="M166,20 C176,60 160,120 172,170 C176,200 166,220 170,236" fill="none" stroke="#3E5470" stroke-width="3"/><circle cx="170" cy="90" r="4" fill="#C9A227"/><circle cx="168" cy="150" r="4" fill="#C9A227"/></g>
<g transform="translate(820,185) rotate(9) scale(.36)" opacity="0.87"><rect x="0" y="0" width="180" height="250" fill="#DCD2BA" stroke="#847E6C" stroke-width="1"/><rect x="20" y="22" width="44" height="46" fill="#3E5470"/><rect x="24" y="26" width="36" height="38" fill="#C9A227"/><path d="M32,58 L32,32 L42,32 C54,32 54,46 42,46 L32,46 M42,46 L54,58" fill="none" stroke="#6E1F2A" stroke-width="5"/><path d="M72,30 L160,30" stroke="#2A2418" stroke-width="3" opacity=".7" stroke-dasharray="4 2"/><path d="M72,44 L153,44" stroke="#2A2418" stroke-width="3" opacity=".7" stroke-dasharray="5 2"/><path d="M72,58 L146,58" stroke="#2A2418" stroke-width="3" opacity=".7" stroke-dasharray="6 2"/><path d="M20,72 L139,72" stroke="#2A2418" stroke-width="3" opacity=".7" stroke-dasharray="4 2"/><rect x="20" y="67" width="8" height="8" fill="#6E1F2A"/><path d="M20,86 L155,86" stroke="#2A2418" stroke-width="3" opacity=".7" stroke-dasharray="5 2"/><path d="M20,100 L148,100" stroke="#2A2418" stroke-width="3" opacity=".7" stroke-dasharray="6 2"/><path d="M20,114 L141,114" stroke="#2A2418" stroke-width="3" opacity=".7" stroke-dasharray="4 2"/><path d="M20,128 L157,128" stroke="#2A2418" stroke-width="3" opacity=".7" stroke-dasharray="5 2"/><path d="M20,142 L150,142" stroke="#2A2418" stroke-width="3" opacity=".7" stroke-dasharray="6 2"/><rect x="20" y="137" width="8" height="8" fill="#6E1F2A"/><path d="M20,156 L143,156" stroke="#2A2418" stroke-width="3" opacity=".7" stroke-dasharray="4 2"/><path d="M20,170 L159,170" stroke="#2A2418" stroke-width="3" opacity=".7" stroke-dasharray="5 2"/><path d="M20,184 L152,184" stroke="#2A2418" stroke-width="3" opacity=".7" stroke-dasharray="6 2"/><path d="M20,198 L145,198" stroke="#2A2418" stroke-width="3" opacity=".7" stroke-dasharray="4 2"/><path d="M20,212 L138,212" stroke="#2A2418" stroke-width="3" opacity=".7" stroke-dasharray="5 2"/><rect x="20" y="207" width="8" height="8" fill="#6E1F2A"/><path d="M166,20 C176,60 160,120 172,170 C176,200 166,220 170,236" fill="none" stroke="#3E5470" stroke-width="3"/><circle cx="170" cy="90" r="4" fill="#C9A227"/><circle cx="168" cy="150" r="4" fill="#C9A227"/></g>
<g transform="translate(905,210) rotate(-4) scale(.36)" opacity="0.79"><rect x="0" y="0" width="180" height="250" fill="#DCD2BA" stroke="#847E6C" stroke-width="1"/><rect x="20" y="22" width="44" height="46" fill="#3E5470"/><rect x="24" y="26" width="36" height="38" fill="#C9A227"/><path d="M32,58 L32,32 L42,32 C54,32 54,46 42,46 L32,46 M42,46 L54,58" fill="none" stroke="#6E1F2A" stroke-width="5"/><path d="M72,30 L160,30" stroke="#2A2418" stroke-width="3" opacity=".7" stroke-dasharray="4 2"/><path d="M72,44 L153,44" stroke="#2A2418" stroke-width="3" opacity=".7" stroke-dasharray="5 2"/><path d="M72,58 L146,58" stroke="#2A2418" stroke-width="3" opacity=".7" stroke-dasharray="6 2"/><path d="M20,72 L139,72" stroke="#2A2418" stroke-width="3" opacity=".7" stroke-dasharray="4 2"/><rect x="20" y="67" width="8" height="8" fill="#6E1F2A"/><path d="M20,86 L155,86" stroke="#2A2418" stroke-width="3" opacity=".7" stroke-dasharray="5 2"/><path d="M20,100 L148,100" stroke="#2A2418" stroke-width="3" opacity=".7" stroke-dasharray="6 2"/><path d="M20,114 L141,114" stroke="#2A2418" stroke-width="3" opacity=".7" stroke-dasharray="4 2"/><path d="M20,128 L157,128" stroke="#2A2418" stroke-width="3" opacity=".7" stroke-dasharray="5 2"/><path d="M20,142 L150,142" stroke="#2A2418" stroke-width="3" opacity=".7" stroke-dasharray="6 2"/><rect x="20" y="137" width="8" height="8" fill="#6E1F2A"/><path d="M20,156 L143,156" stroke="#2A2418" stroke-width="3" opacity=".7" stroke-dasharray="4 2"/><path d="M20,170 L159,170" stroke="#2A2418" stroke-width="3" opacity=".7" stroke-dasharray="5 2"/><path d="M20,184 L152,184" stroke="#2A2418" stroke-width="3" opacity=".7" stroke-dasharray="6 2"/><path d="M20,198 L145,198" stroke="#2A2418" stroke-width="3" opacity=".7" stroke-dasharray="4 2"/><path d="M20,212 L138,212" stroke="#2A2418" stroke-width="3" opacity=".7" stroke-dasharray="5 2"/><rect x="20" y="207" width="8" height="8" fill="#6E1F2A"/><path d="M166,20 C176,60 160,120 172,170 C176,200 166,220 170,236" fill="none" stroke="#3E5470" stroke-width="3"/><circle cx="170" cy="90" r="4" fill="#C9A227"/><circle cx="168" cy="150" r="4" fill="#C9A227"/></g>
<g transform="translate(990,190) rotate(17) scale(.36)" opacity="0.71"><rect x="0" y="0" width="180" height="250" fill="#DCD2BA" stroke="#847E6C" stroke-width="1"/><rect x="20" y="22" width="44" height="46" fill="#3E5470"/><rect x="24" y="26" width="36" height="38" fill="#C9A227"/><path d="M32,58 L32,32 L42,32 C54,32 54,46 42,46 L32,46 M42,46 L54,58" fill="none" stroke="#6E1F2A" stroke-width="5"/><path d="M72,30 L160,30" stroke="#2A2418" stroke-width="3" opacity=".7" stroke-dasharray="4 2"/><path d="M72,44 L153,44" stroke="#2A2418" stroke-width="3" opacity=".7" stroke-dasharray="5 2"/><path d="M72,58 L146,58" stroke="#2A2418" stroke-width="3" opacity=".7" stroke-dasharray="6 2"/><path d="M20,72 L139,72" stroke="#2A2418" stroke-width="3" opacity=".7" stroke-dasharray="4 2"/><rect x="20" y="67" width="8" height="8" fill="#6E1F2A"/><path d="M20,86 L155,86" stroke="#2A2418" stroke-width="3" opacity=".7" stroke-dasharray="5 2"/><path d="M20,100 L148,100" stroke="#2A2418" stroke-width="3" opacity=".7" stroke-dasharray="6 2"/><path d="M20,114 L141,114" stroke="#2A2418" stroke-width="3" opacity=".7" stroke-dasharray="4 2"/><path d="M20,128 L157,128" stroke="#2A2418" stroke-width="3" opacity=".7" stroke-dasharray="5 2"/><path d="M20,142 L150,142" stroke="#2A2418" stroke-width="3" opacity=".7" stroke-dasharray="6 2"/><rect x="20" y="137" width="8" height="8" fill="#6E1F2A"/><path d="M20,156 L143,156" stroke="#2A2418" stroke-width="3" opacity=".7" stroke-dasharray="4 2"/><path d="M20,170 L159,170" stroke="#2A2418" stroke-width="3" opacity=".7" stroke-dasharray="5 2"/><path d="M20,184 L152,184" stroke="#2A2418" stroke-width="3" opacity=".7" stroke-dasharray="6 2"/><path d="M20,198 L145,198" stroke="#2A2418" stroke-width="3" opacity=".7" stroke-dasharray="4 2"/><path d="M20,212 L138,212" stroke="#2A2418" stroke-width="3" opacity=".7" stroke-dasharray="5 2"/><rect x="20" y="207" width="8" height="8" fill="#6E1F2A"/><path d="M166,20 C176,60 160,120 172,170 C176,200 166,220 170,236" fill="none" stroke="#3E5470" stroke-width="3"/><circle cx="170" cy="90" r="4" fill="#C9A227"/><circle cx="168" cy="150" r="4" fill="#C9A227"/></g>
<g transform="translate(1070,205) rotate(-22) scale(.36)" opacity="0.63"><rect x="0" y="0" width="180" height="250" fill="#DCD2BA" stroke="#847E6C" stroke-width="1"/><rect x="20" y="22" width="44" height="46" fill="#3E5470"/><rect x="24" y="26" width="36" height="38" fill="#C9A227"/><path d="M32,58 L32,32 L42,32 C54,32 54,46 42,46 L32,46 M42,46 L54,58" fill="none" stroke="#6E1F2A" stroke-width="5"/><path d="M72,30 L160,30" stroke="#2A2418" stroke-width="3" opacity=".7" stroke-dasharray="4 2"/><path d="M72,44 L153,44" stroke="#2A2418" stroke-width="3" opacity=".7" stroke-dasharray="5 2"/><path d="M72,58 L146,58" stroke="#2A2418" stroke-width="3" opacity=".7" stroke-dasharray="6 2"/><path d="M20,72 L139,72" stroke="#2A2418" stroke-width="3" opacity=".7" stroke-dasharray="4 2"/><rect x="20" y="67" width="8" height="8" fill="#6E1F2A"/><path d="M20,86 L155,86" stroke="#2A2418" stroke-width="3" opacity=".7" stroke-dasharray="5 2"/><path d="M20,100 L148,100" stroke="#2A2418" stroke-width="3" opacity=".7" stroke-dasharray="6 2"/><path d="M20,114 L141,114" stroke="#2A2418" stroke-width="3" opacity=".7" stroke-dasharray="4 2"/><path d="M20,128 L157,128" stroke="#2A2418" stroke-width="3" opacity=".7" stroke-dasharray="5 2"/><path d="M20,142 L150,142" stroke="#2A2418" stroke-width="3" opacity=".7" stroke-dasharray="6 2"/><rect x="20" y="137" width="8" height="8" fill="#6E1F2A"/><path d="M20,156 L143,156" stroke="#2A2418" stroke-width="3" opacity=".7" stroke-dasharray="4 2"/><path d="M20,170 L159,170" stroke="#2A2418" stroke-width="3" opacity=".7" stroke-dasharray="5 2"/><path d="M20,184 L152,184" stroke="#2A2418" stroke-width="3" opacity=".7" stroke-dasharray="6 2"/><path d="M20,198 L145,198" stroke="#2A2418" stroke-width="3" opacity=".7" stroke-dasharray="4 2"/><path d="M20,212 L138,212" stroke="#2A2418" stroke-width="3" opacity=".7" stroke-dasharray="5 2"/><rect x="20" y="207" width="8" height="8" fill="#6E1F2A"/><path d="M166,20 C176,60 160,120 172,170 C176,200 166,220 170,236" fill="none" stroke="#3E5470" stroke-width="3"/><circle cx="170" cy="90" r="4" fill="#C9A227"/><circle cx="168" cy="150" r="4" fill="#C9A227"/></g>
<circle cx="170" cy="535" r="7" fill="none" stroke="#5FA288" stroke-width="2"/><circle cx="170" cy="535" r="2.2" fill="#5FA288"/><text x="158" y="555" font-family="Overpass Mono, monospace" font-size="10" fill="#5FA288" text-anchor="end" letter-spacing="1.5">GRAB · SPINE</text>
<circle cx="430" cy="585" r="7" fill="none" stroke="#5FA288" stroke-width="2"/><circle cx="430" cy="585" r="2.2" fill="#5FA288"/><text x="442" y="601" font-family="Overpass Mono, monospace" font-size="10" fill="#5FA288" text-anchor="start" letter-spacing="1.5">GRAB · FORE-EDGE</text>
<path d="M250,470 L235,176 L221,176" fill="none" stroke="#9A9078" stroke-width=".8"/><circle cx="250" cy="470" r="2.6" fill="#DCD2BA" stroke="#14120E" stroke-width="1"/><text x="215" y="180" font-family="Overpass Mono, monospace" font-size="12" fill="#DCD2BA" text-anchor="end">Ivory plaque, carved</text><text x="215" y="194" font-family="Overpass Mono, monospace" font-size="10.5" fill="#9A9078" text-anchor="end">Christ in Majesty, 11×18 cm</text>
<path d="M208,420 L235,231 L221,231" fill="none" stroke="#9A9078" stroke-width=".8"/><circle cx="208" cy="420" r="2.6" fill="#DCD2BA" stroke="#14120E" stroke-width="1"/><text x="215" y="235" font-family="Overpass Mono, monospace" font-size="12" fill="#DCD2BA" text-anchor="end">Silver-gilt frame, 22 mm</text><text x="215" y="249" font-family="Overpass Mono, monospace" font-size="10.5" fill="#9A9078" text-anchor="end">filigree scrolls, soldered</text>
<path d="M330,322 L510,246 L524,246" fill="none" stroke="#9A9078" stroke-width=".8"/><circle cx="330" cy="322" r="2.6" fill="#DCD2BA" stroke="#14120E" stroke-width="1"/><text x="530" y="250" font-family="Overpass Mono, monospace" font-size="12" fill="#DCD2BA" text-anchor="start">16 cabochons</text><text x="530" y="264" font-family="Overpass Mono, monospace" font-size="10.5" fill="#9A9078" text-anchor="start">garnet + sapphire, collet-set</text>
<path d="M508,470 L540,326 L554,326" fill="none" stroke="#9A9078" stroke-width=".8"/><circle cx="508" cy="470" r="2.6" fill="#DCD2BA" stroke="#14120E" stroke-width="1"/><text x="560" y="330" font-family="Overpass Mono, monospace" font-size="12" fill="#DCD2BA" text-anchor="start">Two clasps, strap + catch</text><text x="560" y="344" font-family="Overpass Mono, monospace" font-size="10.5" fill="#9A9078" text-anchor="start">tawed leather, gilt catch</text>
<path d="M470,545 L540,386 L554,386" fill="none" stroke="#9A9078" stroke-width=".8"/><circle cx="470" cy="545" r="2.6" fill="#DCD2BA" stroke="#14120E" stroke-width="1"/><text x="560" y="390" font-family="Overpass Mono, monospace" font-size="12" fill="#DCD2BA" text-anchor="start">Page block, 180 leaves</text><text x="560" y="404" font-family="Overpass Mono, monospace" font-size="10.5" fill="#9A9078" text-anchor="start">vellum, gilt-edged</text>
<path d="M282,575 L235,286 L221,286" fill="none" stroke="#9A9078" stroke-width=".8"/><circle cx="282" cy="575" r="2.6" fill="#DCD2BA" stroke="#14120E" stroke-width="1"/><text x="215" y="290" font-family="Overpass Mono, monospace" font-size="12" fill="#DCD2BA" text-anchor="end">Oak boards, 12 mm</text><text x="215" y="304" font-family="Overpass Mono, monospace" font-size="10.5" fill="#9A9078" text-anchor="end">red-brown tawed leather</text>
<text x="880" y="432" font-family="Overpass Mono, monospace" font-size="10.5" fill="#C4542E" text-anchor="start">IGNIS or water: pages ruined, 4 s burn;</text>
<text x="880" y="446" font-family="Overpass Mono, monospace" font-size="10.5" fill="#9A9078" text-anchor="start">worth falls to the board (150)</text>
<g id="palette" font-family="Overpass Mono, monospace" font-size="10" fill="#9A9078"><rect x="40" y="748" width="34" height="18" fill="#C9A227" stroke="#332D22" stroke-width=".6"/><text x="80" y="756">#C9A227</text><text x="80" y="767" fill="#635C4C">gilt (orpiment)</text><rect x="210" y="748" width="34" height="18" fill="#D8CDB0" stroke="#332D22" stroke-width=".6"/><text x="250" y="756">#D8CDB0</text><text x="250" y="767" fill="#635C4C">ivory</text><rect x="380" y="748" width="34" height="18" fill="#5E3A2A" stroke="#332D22" stroke-width=".6"/><text x="420" y="756">#5E3A2A</text><text x="420" y="767" fill="#635C4C">tawed leather</text><rect x="550" y="748" width="34" height="18" fill="#DCD2BA" stroke="#332D22" stroke-width=".6"/><text x="590" y="756">#DCD2BA</text><text x="590" y="767" fill="#635C4C">vellum</text><rect x="720" y="748" width="34" height="18" fill="#6E1F2A" stroke="#332D22" stroke-width=".6"/><text x="760" y="756">#6E1F2A</text><text x="760" y="767" fill="#635C4C">garnet</text><rect x="890" y="748" width="34" height="18" fill="#3E5470" stroke="#332D22" stroke-width=".6"/><text x="930" y="756">#3E5470</text><text x="930" y="767" fill="#635C4C">sapphire</text></g>
</svg>
