<svg xmlns="http://www.w3.org/2000/svg" viewBox="0 0 1200 800" width="1200" height="800">
<defs>
<pattern id="grid" width="55" height="55" patternUnits="userSpaceOnUse" x="0" y="690"><path d="M55 0 H0 V55" fill="none" stroke="#262119" stroke-width="1"/></pattern>
<radialGradient id="glow" cx="35%" cy="60%" r="60%"><stop offset="0" stop-color="#2A2012" stop-opacity=".9"/><stop offset="1" stop-color="#14120E" stop-opacity="0"/></radialGradient>
<linearGradient id="g1" x1="0" y1="0" x2="1" y2="0"><stop offset="0" stop-color="#C6C0AF"/><stop offset=".5" stop-color="#B8B4A8"/><stop offset="1" stop-color="#4A4841"/></linearGradient>
<linearGradient id="g2" x1="0" y1="0" x2="1" y2="0"><stop offset="0" stop-color="#817E72"/><stop offset=".5" stop-color="#C8C2B0"/><stop offset="1" stop-color="#46443E"/></linearGradient>
<linearGradient id="g3" x1="0" y1="0" x2="1" y2="0"><stop offset="0" stop-color="#D0B35A"/><stop offset=".5" stop-color="#C9A227"/><stop offset="1" stop-color="#645113"/></linearGradient>
<radialGradient id="r4" cx="0.5" cy="0.5" r="0.5"><stop offset="0" stop-color="#B8B4A8" stop-opacity="0.16"/><stop offset="1" stop-color="#B8B4A8" stop-opacity="0"/></radialGradient>
<clipPath id="ebhero"><path d="M427.5,655.0 C427.5,652.3 430.2,642.8 427.5,638.8 C424.8,634.8 415.8,635.9 411.3,630.7 C406.8,625.5 396.7,617.2 400.5,607.8 C404.3,598.3 423.0,593.1 434.2,574.0 C445.5,554.9 464.2,517.8 468.0,493.0 C471.8,468.2 463.9,445.8 457.2,425.5 C450.4,405.2 436.1,388.4 427.5,371.5 C418.9,354.6 409.0,337.8 405.9,324.2 C402.8,310.8 405.9,302.9 408.6,290.5 C411.3,278.1 419.9,256.8 422.1,250.0 L297.9,250.0 C300.1,256.8 308.7,278.1 311.4,290.5 C314.1,302.9 317.2,310.8 314.1,324.2 C311.0,337.8 301.1,354.6 292.5,371.5 C283.9,388.4 269.6,405.2 262.8,425.5 C256.1,445.8 248.2,468.2 252.0,493.0 C255.8,517.8 274.5,554.9 285.8,574.0 C297.0,593.1 315.7,598.3 319.5,607.8 C323.3,617.2 313.2,625.5 308.7,630.7 C304.2,635.9 295.2,634.8 292.5,638.8 C289.8,642.8 292.5,652.3 292.5,655.0 Z"/></clipPath>
<clipPath id="ebfront"><path d="M835.0,690.0 C835.0,688.6 836.4,683.7 835.0,681.6 C833.6,679.5 828.9,680.1 826.6,677.4 C824.3,674.7 819.0,670.4 821.0,665.5 C823.0,660.6 832.7,657.9 838.5,648.0 C844.3,638.1 854.0,618.8 856.0,606.0 C858.0,593.2 853.9,581.5 850.4,571.0 C846.9,560.5 839.4,551.8 835.0,543.0 C830.6,534.2 825.4,525.5 823.8,518.5 C822.2,511.5 823.8,507.4 825.2,501.0 C826.6,494.6 831.0,483.5 832.2,480.0 L767.8,480.0 C769.0,483.5 773.4,494.6 774.8,501.0 C776.2,507.4 777.8,511.5 776.2,518.5 C774.6,525.5 769.4,534.2 765.0,543.0 C760.6,551.8 753.1,560.5 749.6,571.0 C746.1,581.5 742.0,593.2 744.0,606.0 C746.0,618.8 755.7,638.1 761.5,648.0 C767.3,657.9 777.0,660.6 779.0,665.5 C781.0,670.4 775.7,674.7 773.4,677.4 C771.1,680.1 766.4,679.5 765.0,681.6 C763.6,683.7 765.0,688.6 765.0,690.0 Z"/></clipPath>
<clipPath id="ebside"><path d="M1075.0,690.0 C1075.0,688.6 1076.4,683.7 1075.0,681.6 C1073.6,679.5 1068.9,680.1 1066.6,677.4 C1064.3,674.7 1059.0,670.4 1061.0,665.5 C1063.0,660.6 1072.7,657.9 1078.5,648.0 C1084.3,638.1 1094.0,618.8 1096.0,606.0 C1098.0,593.2 1093.9,581.5 1090.4,571.0 C1086.9,560.5 1079.4,551.8 1075.0,543.0 C1070.6,534.2 1065.4,525.5 1063.8,518.5 C1062.2,511.5 1063.8,507.4 1065.2,501.0 C1066.6,494.6 1071.0,483.5 1072.2,480.0 L1007.8,480.0 C1009.0,483.5 1013.4,494.6 1014.8,501.0 C1016.2,507.4 1017.8,511.5 1016.2,518.5 C1014.6,525.5 1009.4,534.2 1005.0,543.0 C1000.6,551.8 993.1,560.5 989.6,571.0 C986.1,581.5 982.0,593.2 984.0,606.0 C986.0,618.8 995.7,638.1 1001.5,648.0 C1007.3,657.9 1017.0,660.6 1019.0,665.5 C1021.0,670.4 1015.7,674.7 1013.4,677.4 C1011.1,680.1 1006.4,679.5 1005.0,681.6 C1003.6,683.7 1005.0,688.6 1005.0,690.0 Z"/></clipPath>
<clipPath id="ebfronti0"><path d="M775.0,290.0 C775.0,289.4 775.6,287.3 775.0,286.4 C774.4,285.5 772.4,285.8 771.4,284.6 C770.4,283.5 768.1,281.6 769.0,279.5 C769.9,277.4 774.0,276.2 776.5,272.0 C779.0,267.8 783.1,259.5 784.0,254.0 C784.9,248.5 783.1,243.5 781.6,239.0 C780.1,234.5 776.9,230.8 775.0,227.0 C773.1,223.2 770.9,219.5 770.2,216.5 C769.5,213.5 770.2,211.8 770.8,209.0 C771.4,206.2 773.3,201.5 773.8,200.0 L746.2,200.0 C746.7,201.5 748.6,206.2 749.2,209.0 C749.8,211.8 750.5,213.5 749.8,216.5 C749.1,219.5 746.9,223.2 745.0,227.0 C743.1,230.8 739.9,234.5 738.4,239.0 C736.9,243.5 735.1,248.5 736.0,254.0 C736.9,259.5 741.0,267.8 743.5,272.0 C746.0,276.2 750.1,277.4 751.0,279.5 C751.9,281.6 749.6,283.5 748.6,284.6 C747.6,285.8 745.6,285.5 745.0,286.4 C744.4,287.3 745.0,289.4 745.0,290.0 Z"/></clipPath>
<clipPath id="ebfronti1"><path d="M925.0,290.0 C925.0,289.4 925.6,287.3 925.0,286.4 C924.4,285.5 922.4,285.8 921.4,284.6 C920.4,283.5 918.1,281.6 919.0,279.5 C919.9,277.4 924.0,276.2 926.5,272.0 C929.0,267.8 933.1,259.5 934.0,254.0 C934.9,248.5 933.1,243.5 931.6,239.0 C930.1,234.5 926.9,230.8 925.0,227.0 C923.1,223.2 920.9,219.5 920.2,216.5 C919.5,213.5 920.2,211.8 920.8,209.0 C921.4,206.2 923.3,201.5 923.8,200.0 L896.2,200.0 C896.7,201.5 898.6,206.2 899.2,209.0 C899.8,211.8 900.5,213.5 899.8,216.5 C899.1,219.5 896.9,223.2 895.0,227.0 C893.1,230.8 889.9,234.5 888.4,239.0 C886.9,243.5 885.1,248.5 886.0,254.0 C886.9,259.5 891.0,267.8 893.5,272.0 C896.0,276.2 900.1,277.4 901.0,279.5 C901.9,281.6 899.6,283.5 898.6,284.6 C897.6,285.8 895.6,285.5 895.0,286.4 C894.4,287.3 895.0,289.4 895.0,290.0 Z"/></clipPath>
<clipPath id="ebfronti2"><path d="M1075.0,290.0 C1075.0,289.4 1075.6,287.3 1075.0,286.4 C1074.4,285.5 1072.4,285.8 1071.4,284.6 C1070.4,283.5 1068.2,281.6 1069.0,279.5 C1069.8,277.4 1074.0,276.2 1076.5,272.0 C1079.0,267.8 1083.2,259.5 1084.0,254.0 C1084.8,248.5 1083.1,243.5 1081.6,239.0 C1080.1,234.5 1076.9,230.8 1075.0,227.0 C1073.1,223.2 1070.9,219.5 1070.2,216.5 C1069.5,213.5 1070.2,211.8 1070.8,209.0 C1071.4,206.2 1073.3,201.5 1073.8,200.0 L1046.2,200.0 C1046.7,201.5 1048.6,206.2 1049.2,209.0 C1049.8,211.8 1050.5,213.5 1049.8,216.5 C1049.1,219.5 1046.9,223.2 1045.0,227.0 C1043.1,230.8 1039.9,234.5 1038.4,239.0 C1036.9,243.5 1035.2,248.5 1036.0,254.0 C1036.8,259.5 1041.0,267.8 1043.5,272.0 C1046.0,276.2 1050.2,277.4 1051.0,279.5 C1051.8,281.6 1049.6,283.5 1048.6,284.6 C1047.6,285.8 1045.6,285.5 1045.0,286.4 C1044.4,287.3 1045.0,289.4 1045.0,290.0 Z"/></clipPath>
</defs>
<rect width="1200" height="800" fill="#14120E"/>
<rect width="1200" height="800" fill="url(#glow)"/>
<rect x="0" y="120" width="1200" height="570" fill="url(#grid)"/>
<line x1="40" y1="690" x2="1160" y2="690" stroke="#635C4C" stroke-width="1.5"/>
<rect x="12" y="12" width="1176" height="776" fill="none" stroke="#332D22" stroke-width="1"/>
<text x="40" y="54" font-family="Overpass Mono, monospace" font-size="12" fill="#635C4C" text-anchor="start" letter-spacing="3">THE HIGH MEDIEVAL · PLUNDER · 180 COIN · 2 ST</text>
<text x="40" y="96" font-family="Eczar, Georgia, serif" font-size="38" font-weight="700" fill="#DCD2BA">Silver Ewer</text>
<text x="1160" y="54" font-family="Overpass Mono, monospace" font-size="12" fill="#9A9078" text-anchor="end">0.22 × 0.16 × 0.34 m · ≤ 1.5k tris · 1024²</text>
<text x="1160" y="76" font-family="Overpass Mono, monospace" font-size="12" fill="#9A9078" text-anchor="end">orthos 1 m = 700 px · fragility 999 (dents)</text>
<ellipse cx="360" cy="658" rx="130" ry="14" fill="#0B0A08" opacity=".7"/>
<circle cx="360" cy="425" r="260" fill="url(#r4)"/>
<path d="M319.5,290.5 C198.0,250.0 184.5,439.0 265.5,506.5" fill="none" stroke="#2A2622" stroke-width="21.6" stroke-linecap="round"/><path d="M319.5,290.5 C198.0,250.0 184.5,439.0 265.5,506.5" fill="none" stroke="#B8B4A8" stroke-width="14.8" stroke-linecap="round"/><path d="M312.8,287.8 C200.7,254.1 189.9,425.5 252.0,479.5" fill="none" stroke="#FFFFFF" stroke-width="1" opacity=".5"/><circle cx="214.2" cy="331.0" r="10.8" fill="url(#g3)" stroke="#2A2622" stroke-width=".6"/><path d="M427.5,655.0 C427.5,652.3 430.2,642.8 427.5,638.8 C424.8,634.8 415.8,635.9 411.3,630.7 C406.8,625.5 396.7,617.2 400.5,607.8 C404.3,598.3 423.0,593.1 434.2,574.0 C445.5,554.9 464.2,517.8 468.0,493.0 C471.8,468.2 463.9,445.8 457.2,425.5 C450.4,405.2 436.1,388.4 427.5,371.5 C418.9,354.6 409.0,337.8 405.9,324.2 C402.8,310.8 405.9,302.9 408.6,290.5 C411.3,278.1 419.9,256.8 422.1,250.0 L297.9,250.0 C300.1,256.8 308.7,278.1 311.4,290.5 C314.1,302.9 317.2,310.8 314.1,324.2 C311.0,337.8 301.1,354.6 292.5,371.5 C283.9,388.4 269.6,405.2 262.8,425.5 C256.1,445.8 248.2,468.2 252.0,493.0 C255.8,517.8 274.5,554.9 285.8,574.0 C297.0,593.1 315.7,598.3 319.5,607.8 C323.3,617.2 313.2,625.5 308.7,630.7 C304.2,635.9 295.2,634.8 292.5,638.8 C289.8,642.8 292.5,652.3 292.5,655.0 Z" fill="url(#g2)" stroke="#2A2622" stroke-width="1.1"/><g clip-path="url(#ebhero)"><rect x="238.5" y="479.5" width="243.0" height="24.3" fill="#2A2622" opacity=".8"/><path d="M250.7,482.2 l5.4,18.9" stroke="#B8B4A8" stroke-width=".8"/><path d="M262.8,482.2 l5.4,18.9" stroke="#B8B4A8" stroke-width=".8"/><path d="M274.9,482.2 l5.4,18.9" stroke="#B8B4A8" stroke-width=".8"/><path d="M287.1,482.2 l5.4,18.9" stroke="#B8B4A8" stroke-width=".8"/><path d="M299.2,482.2 l5.4,18.9" stroke="#B8B4A8" stroke-width=".8"/><path d="M311.4,482.2 l5.4,18.9" stroke="#B8B4A8" stroke-width=".8"/><path d="M323.6,482.2 l5.4,18.9" stroke="#B8B4A8" stroke-width=".8"/><path d="M335.7,482.2 l5.4,18.9" stroke="#B8B4A8" stroke-width=".8"/><path d="M347.9,482.2 l5.4,18.9" stroke="#B8B4A8" stroke-width=".8"/><path d="M360.0,482.2 l5.4,18.9" stroke="#B8B4A8" stroke-width=".8"/><path d="M372.1,482.2 l5.4,18.9" stroke="#B8B4A8" stroke-width=".8"/><path d="M384.3,482.2 l5.4,18.9" stroke="#B8B4A8" stroke-width=".8"/><path d="M396.4,482.2 l5.4,18.9" stroke="#B8B4A8" stroke-width=".8"/><path d="M408.6,482.2 l5.4,18.9" stroke="#B8B4A8" stroke-width=".8"/><path d="M420.8,482.2 l5.4,18.9" stroke="#B8B4A8" stroke-width=".8"/><path d="M432.9,482.2 l5.4,18.9" stroke="#B8B4A8" stroke-width=".8"/><path d="M445.1,482.2 l5.4,18.9" stroke="#B8B4A8" stroke-width=".8"/><path d="M457.2,482.2 l5.4,18.9" stroke="#B8B4A8" stroke-width=".8"/><path d="M469.3,482.2 l5.4,18.9" stroke="#B8B4A8" stroke-width=".8"/><rect x="238.5" y="614.5" width="243.0" height="8.1" fill="#C9A227"/><path d="M346.5,385.0 C373.5,425.5 376.2,520.0 360.0,574.0" fill="none" stroke="#FFFFFF" stroke-width="13.5" opacity=".45"/><g fill="#5A5850" opacity="0.5"><circle cx="382.4" cy="368.3" r="1.12"/><circle cx="323.9" cy="544.9" r="0.81"/><circle cx="278.2" cy="608.0" r="1.00"/><circle cx="347.9" cy="424.9" r="0.56"/><circle cx="352.8" cy="617.7" r="0.62"/><circle cx="281.5" cy="535.9" r="0.90"/><circle cx="300.1" cy="536.6" r="1.17"/><circle cx="331.2" cy="377.1" r="0.85"/><circle cx="388.7" cy="472.1" r="0.47"/><circle cx="364.3" cy="654.0" r="0.77"/><circle cx="447.0" cy="319.0" r="0.87"/><circle cx="293.8" cy="261.8" r="0.87"/><circle cx="374.9" cy="624.5" r="1.14"/><circle cx="445.4" cy="464.7" r="0.44"/><circle cx="446.6" cy="372.7" r="1.03"/><circle cx="384.8" cy="263.9" r="0.43"/><circle cx="288.5" cy="272.0" r="0.99"/><circle cx="390.4" cy="447.9" r="0.55"/><circle cx="281.8" cy="275.3" r="0.95"/><circle cx="263.6" cy="439.9" r="0.84"/><circle cx="406.3" cy="260.8" r="0.46"/><circle cx="452.7" cy="278.1" r="0.44"/><circle cx="421.0" cy="373.2" r="1.15"/><circle cx="350.2" cy="563.3" r="1.07"/><circle cx="454.8" cy="509.4" r="1.01"/><circle cx="336.0" cy="377.4" r="1.04"/><circle cx="267.6" cy="403.1" r="0.92"/><circle cx="410.2" cy="429.3" r="1.03"/><circle cx="453.5" cy="490.8" r="0.90"/><circle cx="458.9" cy="473.5" r="0.49"/><circle cx="270.3" cy="649.4" r="1.17"/><circle cx="356.2" cy="349.9" r="0.41"/><circle cx="464.2" cy="551.5" r="0.73"/><circle cx="310.2" cy="568.9" r="0.50"/><circle cx="291.4" cy="409.1" r="0.63"/><circle cx="459.9" cy="379.0" r="0.74"/><circle cx="305.5" cy="459.0" r="0.57"/><circle cx="320.7" cy="614.6" r="0.35"/><circle cx="300.9" cy="606.5" r="0.53"/><circle cx="446.4" cy="355.2" r="1.05"/><circle cx="444.0" cy="584.0" r="1.12"/><circle cx="301.2" cy="485.7" r="1.13"/><circle cx="387.0" cy="328.8" r="1.13"/><circle cx="321.6" cy="490.1" r="0.73"/><circle cx="259.9" cy="539.1" r="0.62"/><circle cx="271.2" cy="448.0" r="0.70"/><circle cx="409.8" cy="487.8" r="0.77"/><circle cx="344.8" cy="345.9" r="0.82"/><circle cx="276.4" cy="347.0" r="0.32"/><circle cx="446.2" cy="251.5" r="0.48"/></g><path d="M238.5,574.0 C306.0,601.0 414.0,601.0 481.5,574.0 L481.5,655.0 L238.5,655.0 Z" fill="#5A5850" opacity=".45"/><path d="M382.9,439.0 A24.3,17.0 0 0 1 431.6,439.0" fill="none" stroke="#2A2622" stroke-width="3.8" opacity=".45"/><path d="M382.9,441.0 A24.3,17.0 0 0 0 431.6,441.0" fill="none" stroke="#FFFFFF" stroke-width="2.4" opacity=".4"/><path d="M287.1,533.5 A18.9,13.2 0 0 1 324.9,533.5" fill="none" stroke="#2A2622" stroke-width="3.8" opacity=".45"/><path d="M287.1,535.5 A18.9,13.2 0 0 0 324.9,535.5" fill="none" stroke="#FFFFFF" stroke-width="2.4" opacity=".4"/></g><circle cx="373.5" cy="445.8" r="29.7" fill="url(#g3)" stroke="#2A2622" stroke-width=".8"/><circle cx="373.5" cy="445.8" r="23.0" fill="#3E5470"/><path d="M354.6,455.2 L373.5,430.9 L392.4,455.2" fill="none" stroke="#B8B4A8" stroke-width="6.8"/><path d="M441.0,398.5 C481.5,385.0 495.0,331.0 522.0,283.7 L528.8,293.2 C508.5,351.2 495.0,425.5 454.5,452.5 Z" fill="url(#g1)" stroke="#2A2622" stroke-width="1"/><ellipse cx="525.4" cy="288.5" rx="8.1" ry="5.4" fill="#2A2622"/><path d="M443.7,425.5 q10.8,-13.5 0,-27.0" fill="url(#g3)" stroke="#2A2622" stroke-width=".6"/><rect x="295.2" y="243.2" width="129.6" height="13.5" rx="2" fill="url(#g3)" stroke="#2A2622" stroke-width=".8"/><path d="M297.9,243.2 C306.0,209.5 414.0,209.5 422.1,243.2 Z" fill="url(#g2)" stroke="#2A2622" stroke-width="1"/><circle cx="360.0" cy="206.8" r="10.8" fill="url(#g3)" stroke="#2A2622" stroke-width=".7"/><path d="M297.9,236.5 l-16.2,-18.9 l10.8,-5.4 Z" fill="url(#g3)" stroke="#2A2622" stroke-width=".6"/><ellipse cx="360.0" cy="638.8" rx="67.5" ry="16.2" fill="none" stroke="#C9A227" stroke-width="1.2"/>
<path d="M779.0,501.0 C716.0,480.0 709.0,578.0 751.0,613.0" fill="none" stroke="#2A2622" stroke-width="11.2" stroke-linecap="round"/><path d="M779.0,501.0 C716.0,480.0 709.0,578.0 751.0,613.0" fill="none" stroke="#B8B4A8" stroke-width="7.7" stroke-linecap="round"/><path d="M775.5,499.6 C717.4,482.1 711.8,571.0 744.0,599.0" fill="none" stroke="#FFFFFF" stroke-width="1" opacity=".5"/><circle cx="724.4" cy="522.0" r="5.6" fill="url(#g3)" stroke="#2A2622" stroke-width=".6"/><path d="M835.0,690.0 C835.0,688.6 836.4,683.7 835.0,681.6 C833.6,679.5 828.9,680.1 826.6,677.4 C824.3,674.7 819.0,670.4 821.0,665.5 C823.0,660.6 832.7,657.9 838.5,648.0 C844.3,638.1 854.0,618.8 856.0,606.0 C858.0,593.2 853.9,581.5 850.4,571.0 C846.9,560.5 839.4,551.8 835.0,543.0 C830.6,534.2 825.4,525.5 823.8,518.5 C822.2,511.5 823.8,507.4 825.2,501.0 C826.6,494.6 831.0,483.5 832.2,480.0 L767.8,480.0 C769.0,483.5 773.4,494.6 774.8,501.0 C776.2,507.4 777.8,511.5 776.2,518.5 C774.6,525.5 769.4,534.2 765.0,543.0 C760.6,551.8 753.1,560.5 749.6,571.0 C746.1,581.5 742.0,593.2 744.0,606.0 C746.0,618.8 755.7,638.1 761.5,648.0 C767.3,657.9 777.0,660.6 779.0,665.5 C781.0,670.4 775.7,674.7 773.4,677.4 C771.1,680.1 766.4,679.5 765.0,681.6 C763.6,683.7 765.0,688.6 765.0,690.0 Z" fill="url(#g1)" stroke="#2A2622" stroke-width="1.1"/><g clip-path="url(#ebfront)"><rect x="737.0" y="599.0" width="126.0" height="12.6" fill="#2A2622" opacity=".8"/><path d="M743.3,600.4 l2.8,9.8" stroke="#B8B4A8" stroke-width=".8"/><path d="M749.6,600.4 l2.8,9.8" stroke="#B8B4A8" stroke-width=".8"/><path d="M755.9,600.4 l2.8,9.8" stroke="#B8B4A8" stroke-width=".8"/><path d="M762.2,600.4 l2.8,9.8" stroke="#B8B4A8" stroke-width=".8"/><path d="M768.5,600.4 l2.8,9.8" stroke="#B8B4A8" stroke-width=".8"/><path d="M774.8,600.4 l2.8,9.8" stroke="#B8B4A8" stroke-width=".8"/><path d="M781.1,600.4 l2.8,9.8" stroke="#B8B4A8" stroke-width=".8"/><path d="M787.4,600.4 l2.8,9.8" stroke="#B8B4A8" stroke-width=".8"/><path d="M793.7,600.4 l2.8,9.8" stroke="#B8B4A8" stroke-width=".8"/><path d="M800.0,600.4 l2.8,9.8" stroke="#B8B4A8" stroke-width=".8"/><path d="M806.3,600.4 l2.8,9.8" stroke="#B8B4A8" stroke-width=".8"/><path d="M812.6,600.4 l2.8,9.8" stroke="#B8B4A8" stroke-width=".8"/><path d="M818.9,600.4 l2.8,9.8" stroke="#B8B4A8" stroke-width=".8"/><path d="M825.2,600.4 l2.8,9.8" stroke="#B8B4A8" stroke-width=".8"/><path d="M831.5,600.4 l2.8,9.8" stroke="#B8B4A8" stroke-width=".8"/><path d="M837.8,600.4 l2.8,9.8" stroke="#B8B4A8" stroke-width=".8"/><path d="M844.1,600.4 l2.8,9.8" stroke="#B8B4A8" stroke-width=".8"/><path d="M850.4,600.4 l2.8,9.8" stroke="#B8B4A8" stroke-width=".8"/><path d="M856.7,600.4 l2.8,9.8" stroke="#B8B4A8" stroke-width=".8"/><rect x="737.0" y="669.0" width="126.0" height="4.2" fill="#C9A227"/><path d="M821.0,550.0 C842.0,564.0 849.0,620.0 835.0,648.0" fill="none" stroke="#FFFFFF" stroke-width="5.6" opacity=".35"/><g fill="#5A5850" opacity="0.5"><circle cx="752.4" cy="654.1" r="0.48"/><circle cx="831.6" cy="531.3" r="0.96"/><circle cx="814.9" cy="683.8" r="0.80"/><circle cx="799.2" cy="672.2" r="1.16"/><circle cx="798.3" cy="561.4" r="0.81"/><circle cx="824.9" cy="661.2" r="0.39"/><circle cx="838.3" cy="531.7" r="0.83"/><circle cx="805.7" cy="590.1" r="0.49"/><circle cx="853.0" cy="564.5" r="0.83"/><circle cx="750.0" cy="661.1" r="0.42"/><circle cx="774.7" cy="524.0" r="0.53"/><circle cx="849.2" cy="674.9" r="0.61"/><circle cx="810.5" cy="671.1" r="0.32"/><circle cx="824.7" cy="514.6" r="0.77"/><circle cx="817.3" cy="592.8" r="0.34"/><circle cx="853.7" cy="645.9" r="0.91"/><circle cx="825.8" cy="652.8" r="0.69"/><circle cx="813.3" cy="494.0" r="1.06"/><circle cx="777.2" cy="505.3" r="0.86"/><circle cx="761.0" cy="511.8" r="0.94"/><circle cx="838.5" cy="508.6" r="0.35"/><circle cx="786.4" cy="525.4" r="0.63"/><circle cx="772.2" cy="651.0" r="0.86"/><circle cx="851.9" cy="619.6" r="0.47"/><circle cx="783.2" cy="621.2" r="0.61"/><circle cx="798.2" cy="575.8" r="0.37"/><circle cx="821.4" cy="594.1" r="0.79"/><circle cx="762.5" cy="593.7" r="0.45"/><circle cx="783.3" cy="586.9" r="0.92"/><circle cx="765.8" cy="505.5" r="1.14"/><circle cx="779.9" cy="542.7" r="1.05"/><circle cx="797.3" cy="627.1" r="1.17"/><circle cx="797.5" cy="665.1" r="0.77"/><circle cx="752.3" cy="673.6" r="1.18"/><circle cx="816.7" cy="525.2" r="0.70"/><circle cx="744.4" cy="613.6" r="0.72"/><circle cx="787.5" cy="670.7" r="0.49"/><circle cx="750.1" cy="481.5" r="0.35"/><circle cx="787.3" cy="558.6" r="0.54"/><circle cx="778.1" cy="522.9" r="0.57"/><circle cx="796.0" cy="558.6" r="1.05"/><circle cx="767.6" cy="565.1" r="1.20"/><circle cx="815.0" cy="558.5" r="0.54"/><circle cx="773.8" cy="685.1" r="0.86"/><circle cx="761.1" cy="614.7" r="0.42"/><circle cx="757.1" cy="500.4" r="0.74"/><circle cx="775.2" cy="481.5" r="0.39"/><circle cx="803.4" cy="664.6" r="0.52"/><circle cx="760.1" cy="668.7" r="0.48"/><circle cx="821.1" cy="585.2" r="1.13"/></g><path d="M737.0,648.0 C772.0,662.0 828.0,662.0 863.0,648.0 L863.0,690.0 L737.0,690.0 Z" fill="#5A5850" opacity=".45"/></g><circle cx="800.0" cy="581.5" r="15.4" fill="url(#g3)" stroke="#2A2622" stroke-width=".8"/><circle cx="800.0" cy="581.5" r="11.9" fill="#3E5470"/><path d="M790.2,586.4 L800.0,573.8 L809.8,586.4" fill="none" stroke="#B8B4A8" stroke-width="3.5"/><path d="M842.0,557.0 C863.0,550.0 870.0,522.0 884.0,497.5 L887.5,502.4 C877.0,532.5 870.0,571.0 849.0,585.0 Z" fill="url(#g1)" stroke="#2A2622" stroke-width="1"/><ellipse cx="885.8" cy="499.9" rx="4.2" ry="2.8" fill="#2A2622"/><path d="M843.4,571.0 q5.6,-7.0 0,-14.0" fill="url(#g3)" stroke="#2A2622" stroke-width=".6"/><rect x="766.4" y="476.5" width="67.2" height="7.0" rx="2" fill="url(#g3)" stroke="#2A2622" stroke-width=".8"/><path d="M767.8,476.5 C772.0,459.0 828.0,459.0 832.2,476.5 Z" fill="url(#g1)" stroke="#2A2622" stroke-width="1"/><circle cx="800.0" cy="457.6" r="5.6" fill="url(#g3)" stroke="#2A2622" stroke-width=".7"/><path d="M767.8,473.0 l-8.4,-9.8 l5.6,-2.8 Z" fill="url(#g3)" stroke="#2A2622" stroke-width=".6"/>
<path d="M1034.4,494.0 l11.2,0 l0,21.0 l-11.2,0 Z" fill="#5C5A51"/><path d="M1075.0,690.0 C1075.0,688.6 1076.4,683.7 1075.0,681.6 C1073.6,679.5 1068.9,680.1 1066.6,677.4 C1064.3,674.7 1059.0,670.4 1061.0,665.5 C1063.0,660.6 1072.7,657.9 1078.5,648.0 C1084.3,638.1 1094.0,618.8 1096.0,606.0 C1098.0,593.2 1093.9,581.5 1090.4,571.0 C1086.9,560.5 1079.4,551.8 1075.0,543.0 C1070.6,534.2 1065.4,525.5 1063.8,518.5 C1062.2,511.5 1063.8,507.4 1065.2,501.0 C1066.6,494.6 1071.0,483.5 1072.2,480.0 L1007.8,480.0 C1009.0,483.5 1013.4,494.6 1014.8,501.0 C1016.2,507.4 1017.8,511.5 1016.2,518.5 C1014.6,525.5 1009.4,534.2 1005.0,543.0 C1000.6,551.8 993.1,560.5 989.6,571.0 C986.1,581.5 982.0,593.2 984.0,606.0 C986.0,618.8 995.7,638.1 1001.5,648.0 C1007.3,657.9 1017.0,660.6 1019.0,665.5 C1021.0,670.4 1015.7,674.7 1013.4,677.4 C1011.1,680.1 1006.4,679.5 1005.0,681.6 C1003.6,683.7 1005.0,688.6 1005.0,690.0 Z" fill="url(#g1)" stroke="#2A2622" stroke-width="1.1"/><g clip-path="url(#ebside)"><rect x="977.0" y="599.0" width="126.0" height="12.6" fill="#2A2622" opacity=".8"/><path d="M983.3,600.4 l2.8,9.8" stroke="#B8B4A8" stroke-width=".8"/><path d="M989.6,600.4 l2.8,9.8" stroke="#B8B4A8" stroke-width=".8"/><path d="M995.9,600.4 l2.8,9.8" stroke="#B8B4A8" stroke-width=".8"/><path d="M1002.2,600.4 l2.8,9.8" stroke="#B8B4A8" stroke-width=".8"/><path d="M1008.5,600.4 l2.8,9.8" stroke="#B8B4A8" stroke-width=".8"/><path d="M1014.8,600.4 l2.8,9.8" stroke="#B8B4A8" stroke-width=".8"/><path d="M1021.1,600.4 l2.8,9.8" stroke="#B8B4A8" stroke-width=".8"/><path d="M1027.4,600.4 l2.8,9.8" stroke="#B8B4A8" stroke-width=".8"/><path d="M1033.7,600.4 l2.8,9.8" stroke="#B8B4A8" stroke-width=".8"/><path d="M1040.0,600.4 l2.8,9.8" stroke="#B8B4A8" stroke-width=".8"/><path d="M1046.3,600.4 l2.8,9.8" stroke="#B8B4A8" stroke-width=".8"/><path d="M1052.6,600.4 l2.8,9.8" stroke="#B8B4A8" stroke-width=".8"/><path d="M1058.9,600.4 l2.8,9.8" stroke="#B8B4A8" stroke-width=".8"/><path d="M1065.2,600.4 l2.8,9.8" stroke="#B8B4A8" stroke-width=".8"/><path d="M1071.5,600.4 l2.8,9.8" stroke="#B8B4A8" stroke-width=".8"/><path d="M1077.8,600.4 l2.8,9.8" stroke="#B8B4A8" stroke-width=".8"/><path d="M1084.1,600.4 l2.8,9.8" stroke="#B8B4A8" stroke-width=".8"/><path d="M1090.4,600.4 l2.8,9.8" stroke="#B8B4A8" stroke-width=".8"/><path d="M1096.7,600.4 l2.8,9.8" stroke="#B8B4A8" stroke-width=".8"/><rect x="977.0" y="669.0" width="126.0" height="4.2" fill="#C9A227"/><path d="M1061.0,550.0 C1082.0,564.0 1089.0,620.0 1075.0,648.0" fill="none" stroke="#FFFFFF" stroke-width="5.6" opacity=".35"/><g fill="#5A5850" opacity="0.5"><circle cx="1017.6" cy="558.3" r="1.10"/><circle cx="992.4" cy="624.8" r="0.91"/><circle cx="1059.2" cy="619.7" r="0.33"/><circle cx="1081.0" cy="614.4" r="1.05"/><circle cx="987.6" cy="500.1" r="1.15"/><circle cx="1081.4" cy="616.3" r="1.17"/><circle cx="1003.2" cy="613.1" r="0.65"/><circle cx="1033.8" cy="629.1" r="0.70"/><circle cx="1048.8" cy="549.6" r="0.34"/><circle cx="1025.1" cy="681.3" r="0.47"/><circle cx="1078.4" cy="485.2" r="0.33"/><circle cx="1029.2" cy="488.6" r="0.44"/><circle cx="1083.3" cy="685.8" r="0.47"/><circle cx="989.1" cy="628.2" r="0.44"/><circle cx="1048.7" cy="592.6" r="0.81"/><circle cx="1003.8" cy="509.2" r="1.07"/><circle cx="989.8" cy="614.6" r="0.65"/><circle cx="1035.6" cy="518.9" r="1.15"/><circle cx="1010.3" cy="525.0" r="0.66"/><circle cx="1015.1" cy="564.5" r="0.43"/><circle cx="999.1" cy="678.6" r="0.75"/><circle cx="1036.5" cy="520.6" r="0.43"/><circle cx="986.3" cy="590.9" r="1.17"/><circle cx="1016.1" cy="537.0" r="0.37"/><circle cx="1004.5" cy="630.6" r="0.71"/><circle cx="1016.6" cy="511.0" r="0.88"/><circle cx="986.4" cy="678.6" r="1.00"/><circle cx="1083.9" cy="493.8" r="0.48"/><circle cx="1043.5" cy="585.8" r="0.55"/><circle cx="1060.1" cy="528.8" r="0.36"/><circle cx="1005.0" cy="533.7" r="1.07"/><circle cx="1017.8" cy="529.8" r="0.30"/><circle cx="1020.8" cy="503.5" r="0.83"/><circle cx="1002.4" cy="677.3" r="1.10"/><circle cx="1022.4" cy="579.1" r="1.04"/><circle cx="1084.1" cy="531.6" r="0.62"/><circle cx="1045.2" cy="496.1" r="0.75"/><circle cx="1023.4" cy="610.7" r="1.04"/><circle cx="995.5" cy="621.3" r="0.53"/><circle cx="1007.6" cy="572.6" r="0.42"/><circle cx="1022.3" cy="627.7" r="0.91"/><circle cx="1013.6" cy="555.6" r="0.60"/><circle cx="1085.7" cy="650.8" r="1.02"/><circle cx="1066.8" cy="622.1" r="1.08"/><circle cx="1017.2" cy="555.8" r="0.35"/><circle cx="1028.5" cy="670.5" r="1.12"/><circle cx="1076.2" cy="497.1" r="0.70"/><circle cx="1047.7" cy="665.9" r="0.44"/><circle cx="1052.5" cy="482.8" r="0.39"/><circle cx="1004.0" cy="679.7" r="0.39"/></g><path d="M977.0,648.0 C1012.0,662.0 1068.0,662.0 1103.0,648.0 L1103.0,690.0 L977.0,690.0 Z" fill="#5A5850" opacity=".45"/></g><circle cx="1040.0" cy="581.5" r="15.4" fill="url(#g3)" stroke="#2A2622" stroke-width=".8"/><circle cx="1040.0" cy="581.5" r="11.9" fill="#3E5470"/><path d="M1030.2,586.4 L1040.0,573.8 L1049.8,586.4" fill="none" stroke="#B8B4A8" stroke-width="3.5"/><ellipse cx="1040.0" cy="522.0" rx="8.4" ry="10.5" fill="url(#g1)" stroke="#2A2622" stroke-width="1"/><ellipse cx="1040.0" cy="499.6" rx="5.6" ry="4.2" fill="#2A2622"/><rect x="1006.4" y="476.5" width="67.2" height="7.0" rx="2" fill="url(#g3)" stroke="#2A2622" stroke-width=".8"/><path d="M1007.8,476.5 C1012.0,459.0 1068.0,459.0 1072.2,476.5 Z" fill="url(#g1)" stroke="#2A2622" stroke-width="1"/><circle cx="1040.0" cy="457.6" r="5.6" fill="url(#g3)" stroke="#2A2622" stroke-width=".7"/>
<text x="360" y="730" font-family="Overpass Mono, monospace" font-size="11" fill="#635C4C" text-anchor="middle" letter-spacing="3">HERO 3/4 · 1 m = 1350 px</text>
<text x="800" y="730" font-family="Overpass Mono, monospace" font-size="11" fill="#635C4C" text-anchor="middle" letter-spacing="3">FRONT</text>
<text x="1040" y="730" font-family="Overpass Mono, monospace" font-size="11" fill="#635C4C" text-anchor="middle" letter-spacing="3">SIDE</text>
<g stroke="#9A9078" stroke-width="1"><line x1="880" y1="330" x2="950" y2="330"/><line x1="880.0" y1="324" x2="880.0" y2="336"/><line x1="894.0" y1="327" x2="894.0" y2="333"/><line x1="908.0" y1="327" x2="908.0" y2="333"/><line x1="922.0" y1="327" x2="922.0" y2="333"/><line x1="936.0" y1="327" x2="936.0" y2="333"/><line x1="950.0" y1="324" x2="950.0" y2="336"/><rect x="880" y="328" width="35.0" height="4" fill="#9A9078" stroke="none"/></g><text x="960" y="334" font-family="Overpass Mono, monospace" font-size="10.5" fill="#9A9078" text-anchor="start">0.1 m = 70 px (orthos)</text>
<text x="700" y="170" font-family="Overpass Mono, monospace" font-size="10.5" fill="#9A9078" text-anchor="start" letter-spacing="1">DENT STATES (shape keys, worth unchanged)</text>
<path d="M751.0,209.0 C724.0,200.0 721.0,242.0 739.0,257.0" fill="none" stroke="#2A2622" stroke-width="4.8" stroke-linecap="round"/><path d="M751.0,209.0 C724.0,200.0 721.0,242.0 739.0,257.0" fill="none" stroke="#B8B4A8" stroke-width="3.3" stroke-linecap="round"/><path d="M749.5,208.4 C724.6,200.9 722.2,239.0 736.0,251.0" fill="none" stroke="#FFFFFF" stroke-width="1" opacity=".5"/><circle cx="727.6" cy="218.0" r="2.4" fill="url(#g3)" stroke="#2A2622" stroke-width=".6"/><path d="M775.0,290.0 C775.0,289.4 775.6,287.3 775.0,286.4 C774.4,285.5 772.4,285.8 771.4,284.6 C770.4,283.5 768.1,281.6 769.0,279.5 C769.9,277.4 774.0,276.2 776.5,272.0 C779.0,267.8 783.1,259.5 784.0,254.0 C784.9,248.5 783.1,243.5 781.6,239.0 C780.1,234.5 776.9,230.8 775.0,227.0 C773.1,223.2 770.9,219.5 770.2,216.5 C769.5,213.5 770.2,211.8 770.8,209.0 C771.4,206.2 773.3,201.5 773.8,200.0 L746.2,200.0 C746.7,201.5 748.6,206.2 749.2,209.0 C749.8,211.8 750.5,213.5 749.8,216.5 C749.1,219.5 746.9,223.2 745.0,227.0 C743.1,230.8 739.9,234.5 738.4,239.0 C736.9,243.5 735.1,248.5 736.0,254.0 C736.9,259.5 741.0,267.8 743.5,272.0 C746.0,276.2 750.1,277.4 751.0,279.5 C751.9,281.6 749.6,283.5 748.6,284.6 C747.6,285.8 745.6,285.5 745.0,286.4 C744.4,287.3 745.0,289.4 745.0,290.0 Z" fill="url(#g1)" stroke="#2A2622" stroke-width="1.1"/><g clip-path="url(#ebfronti0)"><rect x="733.0" y="251.0" width="54.0" height="5.4" fill="#2A2622" opacity=".8"/><path d="M735.7,251.6 l1.2,4.2" stroke="#B8B4A8" stroke-width=".8"/><path d="M738.4,251.6 l1.2,4.2" stroke="#B8B4A8" stroke-width=".8"/><path d="M741.1,251.6 l1.2,4.2" stroke="#B8B4A8" stroke-width=".8"/><path d="M743.8,251.6 l1.2,4.2" stroke="#B8B4A8" stroke-width=".8"/><path d="M746.5,251.6 l1.2,4.2" stroke="#B8B4A8" stroke-width=".8"/><path d="M749.2,251.6 l1.2,4.2" stroke="#B8B4A8" stroke-width=".8"/><path d="M751.9,251.6 l1.2,4.2" stroke="#B8B4A8" stroke-width=".8"/><path d="M754.6,251.6 l1.2,4.2" stroke="#B8B4A8" stroke-width=".8"/><path d="M757.3,251.6 l1.2,4.2" stroke="#B8B4A8" stroke-width=".8"/><path d="M760.0,251.6 l1.2,4.2" stroke="#B8B4A8" stroke-width=".8"/><path d="M762.7,251.6 l1.2,4.2" stroke="#B8B4A8" stroke-width=".8"/><path d="M765.4,251.6 l1.2,4.2" stroke="#B8B4A8" stroke-width=".8"/><path d="M768.1,251.6 l1.2,4.2" stroke="#B8B4A8" stroke-width=".8"/><path d="M770.8,251.6 l1.2,4.2" stroke="#B8B4A8" stroke-width=".8"/><path d="M773.5,251.6 l1.2,4.2" stroke="#B8B4A8" stroke-width=".8"/><path d="M776.2,251.6 l1.2,4.2" stroke="#B8B4A8" stroke-width=".8"/><path d="M778.9,251.6 l1.2,4.2" stroke="#B8B4A8" stroke-width=".8"/><path d="M781.6,251.6 l1.2,4.2" stroke="#B8B4A8" stroke-width=".8"/><path d="M784.3,251.6 l1.2,4.2" stroke="#B8B4A8" stroke-width=".8"/><rect x="733.0" y="281.0" width="54.0" height="1.8" fill="#C9A227"/><path d="M769.0,230.0 C778.0,236.0 781.0,260.0 775.0,272.0" fill="none" stroke="#FFFFFF" stroke-width="2.4" opacity=".35"/><g fill="#5A5850" opacity="0.5"><circle cx="777.6" cy="249.4" r="0.84"/><circle cx="769.0" cy="250.1" r="0.55"/><circle cx="758.9" cy="246.9" r="0.80"/><circle cx="782.8" cy="268.3" r="0.63"/><circle cx="769.1" cy="276.5" r="0.32"/><circle cx="752.6" cy="267.7" r="0.34"/><circle cx="742.4" cy="241.3" r="0.35"/><circle cx="783.7" cy="277.9" r="0.35"/><circle cx="766.3" cy="235.7" r="0.76"/><circle cx="751.3" cy="249.1" r="1.12"/><circle cx="743.5" cy="266.9" r="0.39"/><circle cx="773.3" cy="283.7" r="1.19"/><circle cx="741.1" cy="282.0" r="0.43"/><circle cx="780.8" cy="207.6" r="0.65"/><circle cx="761.4" cy="272.7" r="1.09"/><circle cx="752.2" cy="213.3" r="1.16"/><circle cx="781.7" cy="285.2" r="1.15"/><circle cx="774.3" cy="242.8" r="1.03"/><circle cx="760.7" cy="236.8" r="0.45"/><circle cx="741.9" cy="229.6" r="0.52"/><circle cx="783.6" cy="284.7" r="0.68"/><circle cx="782.7" cy="261.1" r="0.40"/><circle cx="777.2" cy="202.3" r="0.41"/><circle cx="762.8" cy="289.7" r="0.93"/><circle cx="748.7" cy="283.8" r="1.15"/><circle cx="760.3" cy="222.0" r="0.74"/><circle cx="749.7" cy="289.6" r="0.89"/><circle cx="743.0" cy="264.1" r="0.45"/><circle cx="739.3" cy="224.2" r="0.62"/><circle cx="779.6" cy="205.8" r="1.15"/><circle cx="752.3" cy="248.1" r="0.56"/><circle cx="764.8" cy="225.7" r="0.90"/><circle cx="747.0" cy="252.8" r="0.49"/><circle cx="770.8" cy="243.8" r="0.78"/><circle cx="751.7" cy="236.1" r="0.31"/><circle cx="782.6" cy="237.1" r="0.97"/><circle cx="777.3" cy="209.7" r="0.83"/><circle cx="766.6" cy="262.5" r="0.81"/><circle cx="757.1" cy="256.8" r="0.93"/><circle cx="769.3" cy="277.7" r="1.05"/><circle cx="769.1" cy="243.0" r="0.73"/><circle cx="778.8" cy="247.1" r="0.63"/><circle cx="742.2" cy="225.2" r="1.10"/><circle cx="752.9" cy="276.4" r="0.94"/><circle cx="754.0" cy="272.8" r="0.66"/><circle cx="763.2" cy="237.4" r="0.80"/><circle cx="770.0" cy="209.3" r="0.54"/><circle cx="756.4" cy="246.2" r="0.38"/><circle cx="741.0" cy="257.1" r="1.04"/><circle cx="779.5" cy="231.0" r="0.43"/></g><path d="M733.0,272.0 C748.0,278.0 772.0,278.0 787.0,272.0 L787.0,290.0 L733.0,290.0 Z" fill="#5A5850" opacity=".45"/></g><circle cx="760.0" cy="243.5" r="6.6" fill="url(#g3)" stroke="#2A2622" stroke-width=".8"/><circle cx="760.0" cy="243.5" r="5.1" fill="#3E5470"/><path d="M755.8,245.6 L760.0,240.2 L764.2,245.6" fill="none" stroke="#B8B4A8" stroke-width="1.5"/><path d="M778.0,233.0 C787.0,230.0 790.0,218.0 796.0,207.5 L797.5,209.6 C793.0,222.5 790.0,239.0 781.0,245.0 Z" fill="url(#g1)" stroke="#2A2622" stroke-width="1"/><ellipse cx="796.8" cy="208.6" rx="1.8" ry="1.2" fill="#2A2622"/><path d="M778.6,239.0 q2.4,-3.0 0,-6.0" fill="url(#g3)" stroke="#2A2622" stroke-width=".6"/><rect x="745.6" y="198.5" width="28.8" height="3.0" rx="2" fill="url(#g3)" stroke="#2A2622" stroke-width=".8"/><path d="M746.2,198.5 C748.0,191.0 772.0,191.0 773.8,198.5 Z" fill="url(#g1)" stroke="#2A2622" stroke-width="1"/><circle cx="760.0" cy="190.4" r="2.4" fill="url(#g3)" stroke="#2A2622" stroke-width=".7"/><path d="M746.2,197.0 l-3.6,-4.2 l2.4,-1.2 Z" fill="url(#g3)" stroke="#2A2622" stroke-width=".6"/>
<text x="760" y="305" font-family="Overpass Mono, monospace" font-size="10" fill="#635C4C" text-anchor="middle">pristine</text>
<path d="M901.0,209.0 C874.0,200.0 871.0,242.0 889.0,257.0" fill="none" stroke="#2A2622" stroke-width="4.8" stroke-linecap="round"/><path d="M901.0,209.0 C874.0,200.0 871.0,242.0 889.0,257.0" fill="none" stroke="#B8B4A8" stroke-width="3.3" stroke-linecap="round"/><path d="M899.5,208.4 C874.6,200.9 872.2,239.0 886.0,251.0" fill="none" stroke="#FFFFFF" stroke-width="1" opacity=".5"/><circle cx="877.6" cy="218.0" r="2.4" fill="url(#g3)" stroke="#2A2622" stroke-width=".6"/><path d="M925.0,290.0 C925.0,289.4 925.6,287.3 925.0,286.4 C924.4,285.5 922.4,285.8 921.4,284.6 C920.4,283.5 918.1,281.6 919.0,279.5 C919.9,277.4 924.0,276.2 926.5,272.0 C929.0,267.8 933.1,259.5 934.0,254.0 C934.9,248.5 933.1,243.5 931.6,239.0 C930.1,234.5 926.9,230.8 925.0,227.0 C923.1,223.2 920.9,219.5 920.2,216.5 C919.5,213.5 920.2,211.8 920.8,209.0 C921.4,206.2 923.3,201.5 923.8,200.0 L896.2,200.0 C896.7,201.5 898.6,206.2 899.2,209.0 C899.8,211.8 900.5,213.5 899.8,216.5 C899.1,219.5 896.9,223.2 895.0,227.0 C893.1,230.8 889.9,234.5 888.4,239.0 C886.9,243.5 885.1,248.5 886.0,254.0 C886.9,259.5 891.0,267.8 893.5,272.0 C896.0,276.2 900.1,277.4 901.0,279.5 C901.9,281.6 899.6,283.5 898.6,284.6 C897.6,285.8 895.6,285.5 895.0,286.4 C894.4,287.3 895.0,289.4 895.0,290.0 Z" fill="url(#g1)" stroke="#2A2622" stroke-width="1.1"/><g clip-path="url(#ebfronti1)"><rect x="883.0" y="251.0" width="54.0" height="5.4" fill="#2A2622" opacity=".8"/><path d="M885.7,251.6 l1.2,4.2" stroke="#B8B4A8" stroke-width=".8"/><path d="M888.4,251.6 l1.2,4.2" stroke="#B8B4A8" stroke-width=".8"/><path d="M891.1,251.6 l1.2,4.2" stroke="#B8B4A8" stroke-width=".8"/><path d="M893.8,251.6 l1.2,4.2" stroke="#B8B4A8" stroke-width=".8"/><path d="M896.5,251.6 l1.2,4.2" stroke="#B8B4A8" stroke-width=".8"/><path d="M899.2,251.6 l1.2,4.2" stroke="#B8B4A8" stroke-width=".8"/><path d="M901.9,251.6 l1.2,4.2" stroke="#B8B4A8" stroke-width=".8"/><path d="M904.6,251.6 l1.2,4.2" stroke="#B8B4A8" stroke-width=".8"/><path d="M907.3,251.6 l1.2,4.2" stroke="#B8B4A8" stroke-width=".8"/><path d="M910.0,251.6 l1.2,4.2" stroke="#B8B4A8" stroke-width=".8"/><path d="M912.7,251.6 l1.2,4.2" stroke="#B8B4A8" stroke-width=".8"/><path d="M915.4,251.6 l1.2,4.2" stroke="#B8B4A8" stroke-width=".8"/><path d="M918.1,251.6 l1.2,4.2" stroke="#B8B4A8" stroke-width=".8"/><path d="M920.8,251.6 l1.2,4.2" stroke="#B8B4A8" stroke-width=".8"/><path d="M923.5,251.6 l1.2,4.2" stroke="#B8B4A8" stroke-width=".8"/><path d="M926.2,251.6 l1.2,4.2" stroke="#B8B4A8" stroke-width=".8"/><path d="M928.9,251.6 l1.2,4.2" stroke="#B8B4A8" stroke-width=".8"/><path d="M931.6,251.6 l1.2,4.2" stroke="#B8B4A8" stroke-width=".8"/><path d="M934.3,251.6 l1.2,4.2" stroke="#B8B4A8" stroke-width=".8"/><rect x="883.0" y="281.0" width="54.0" height="1.8" fill="#C9A227"/><path d="M919.0,230.0 C928.0,236.0 931.0,260.0 925.0,272.0" fill="none" stroke="#FFFFFF" stroke-width="2.4" opacity=".35"/><g fill="#5A5850" opacity="0.5"><circle cx="915.9" cy="261.0" r="0.46"/><circle cx="916.9" cy="253.9" r="0.98"/><circle cx="888.7" cy="276.6" r="0.47"/><circle cx="897.7" cy="227.3" r="0.56"/><circle cx="903.4" cy="216.9" r="0.91"/><circle cx="918.2" cy="240.9" r="0.79"/><circle cx="903.7" cy="284.1" r="0.42"/><circle cx="928.1" cy="221.2" r="0.75"/><circle cx="924.3" cy="205.3" r="0.66"/><circle cx="930.4" cy="205.7" r="0.70"/><circle cx="899.3" cy="287.4" r="0.87"/><circle cx="916.0" cy="264.5" r="1.05"/><circle cx="904.8" cy="243.4" r="0.38"/><circle cx="888.7" cy="250.6" r="0.84"/><circle cx="915.9" cy="250.3" r="0.46"/><circle cx="927.7" cy="234.9" r="0.85"/><circle cx="888.7" cy="213.1" r="0.41"/><circle cx="915.7" cy="238.6" r="0.58"/><circle cx="922.4" cy="260.8" r="1.07"/><circle cx="906.4" cy="233.5" r="0.46"/><circle cx="896.9" cy="209.6" r="0.86"/><circle cx="915.6" cy="204.6" r="0.63"/><circle cx="931.8" cy="286.5" r="1.11"/><circle cx="931.8" cy="266.9" r="0.72"/><circle cx="905.1" cy="252.7" r="0.49"/><circle cx="924.5" cy="274.1" r="0.85"/><circle cx="907.1" cy="239.3" r="0.61"/><circle cx="887.1" cy="210.9" r="0.45"/><circle cx="904.3" cy="201.4" r="0.73"/><circle cx="930.6" cy="272.0" r="0.41"/><circle cx="908.3" cy="274.9" r="0.93"/><circle cx="922.2" cy="237.2" r="0.79"/><circle cx="918.4" cy="219.6" r="1.15"/><circle cx="899.6" cy="232.2" r="1.01"/><circle cx="897.6" cy="224.4" r="0.91"/><circle cx="931.5" cy="273.9" r="0.71"/><circle cx="898.6" cy="232.0" r="1.18"/><circle cx="889.7" cy="288.0" r="0.86"/><circle cx="896.8" cy="289.7" r="0.95"/><circle cx="904.8" cy="230.4" r="1.04"/><circle cx="909.2" cy="257.6" r="0.34"/><circle cx="920.1" cy="222.0" r="0.68"/><circle cx="927.4" cy="277.6" r="0.89"/><circle cx="888.0" cy="266.8" r="0.63"/><circle cx="902.6" cy="286.8" r="0.52"/><circle cx="892.4" cy="205.4" r="0.41"/><circle cx="900.4" cy="249.0" r="0.78"/><circle cx="928.7" cy="278.3" r="0.77"/><circle cx="922.9" cy="239.4" r="0.64"/><circle cx="890.6" cy="241.3" r="0.46"/></g><path d="M883.0,272.0 C898.0,278.0 922.0,278.0 937.0,272.0 L937.0,290.0 L883.0,290.0 Z" fill="#5A5850" opacity=".45"/><path d="M915.1,242.0 A5.4,3.8 0 0 1 925.9,242.0" fill="none" stroke="#2A2622" stroke-width="0.8" opacity=".45"/><path d="M915.1,244.0 A5.4,3.8 0 0 0 925.9,244.0" fill="none" stroke="#FFFFFF" stroke-width="0.5" opacity=".4"/><path d="M893.8,263.0 A4.2,2.9 0 0 1 902.2,263.0" fill="none" stroke="#2A2622" stroke-width="0.8" opacity=".45"/><path d="M893.8,265.0 A4.2,2.9 0 0 0 902.2,265.0" fill="none" stroke="#FFFFFF" stroke-width="0.5" opacity=".4"/></g><circle cx="910.0" cy="243.5" r="6.6" fill="url(#g3)" stroke="#2A2622" stroke-width=".8"/><circle cx="910.0" cy="243.5" r="5.1" fill="#3E5470"/><path d="M905.8,245.6 L910.0,240.2 L914.2,245.6" fill="none" stroke="#B8B4A8" stroke-width="1.5"/><path d="M928.0,233.0 C937.0,230.0 940.0,218.0 946.0,207.5 L947.5,209.6 C943.0,222.5 940.0,239.0 931.0,245.0 Z" fill="url(#g1)" stroke="#2A2622" stroke-width="1"/><ellipse cx="946.8" cy="208.6" rx="1.8" ry="1.2" fill="#2A2622"/><path d="M928.6,239.0 q2.4,-3.0 0,-6.0" fill="url(#g3)" stroke="#2A2622" stroke-width=".6"/><rect x="895.6" y="198.5" width="28.8" height="3.0" rx="2" fill="url(#g3)" stroke="#2A2622" stroke-width=".8"/><path d="M896.2,198.5 C898.0,191.0 922.0,191.0 923.8,198.5 Z" fill="url(#g1)" stroke="#2A2622" stroke-width="1"/><circle cx="910.0" cy="190.4" r="2.4" fill="url(#g3)" stroke="#2A2622" stroke-width=".7"/><path d="M896.2,197.0 l-3.6,-4.2 l2.4,-1.2 Z" fill="url(#g3)" stroke="#2A2622" stroke-width=".6"/>
<text x="910" y="305" font-family="Overpass Mono, monospace" font-size="10" fill="#635C4C" text-anchor="middle">&gt; 5 m/s</text>
<path d="M1051.0,209.0 C1024.0,200.0 1021.0,242.0 1039.0,257.0" fill="none" stroke="#2A2622" stroke-width="4.8" stroke-linecap="round"/><path d="M1051.0,209.0 C1024.0,200.0 1021.0,242.0 1039.0,257.0" fill="none" stroke="#B8B4A8" stroke-width="3.3" stroke-linecap="round"/><path d="M1049.5,208.4 C1024.6,200.9 1022.2,239.0 1036.0,251.0" fill="none" stroke="#FFFFFF" stroke-width="1" opacity=".5"/><circle cx="1027.6" cy="218.0" r="2.4" fill="url(#g3)" stroke="#2A2622" stroke-width=".6"/><path d="M1075.0,290.0 C1075.0,289.4 1075.6,287.3 1075.0,286.4 C1074.4,285.5 1072.4,285.8 1071.4,284.6 C1070.4,283.5 1068.2,281.6 1069.0,279.5 C1069.8,277.4 1074.0,276.2 1076.5,272.0 C1079.0,267.8 1083.2,259.5 1084.0,254.0 C1084.8,248.5 1083.1,243.5 1081.6,239.0 C1080.1,234.5 1076.9,230.8 1075.0,227.0 C1073.1,223.2 1070.9,219.5 1070.2,216.5 C1069.5,213.5 1070.2,211.8 1070.8,209.0 C1071.4,206.2 1073.3,201.5 1073.8,200.0 L1046.2,200.0 C1046.7,201.5 1048.6,206.2 1049.2,209.0 C1049.8,211.8 1050.5,213.5 1049.8,216.5 C1049.1,219.5 1046.9,223.2 1045.0,227.0 C1043.1,230.8 1039.9,234.5 1038.4,239.0 C1036.9,243.5 1035.2,248.5 1036.0,254.0 C1036.8,259.5 1041.0,267.8 1043.5,272.0 C1046.0,276.2 1050.2,277.4 1051.0,279.5 C1051.8,281.6 1049.6,283.5 1048.6,284.6 C1047.6,285.8 1045.6,285.5 1045.0,286.4 C1044.4,287.3 1045.0,289.4 1045.0,290.0 Z" fill="url(#g1)" stroke="#2A2622" stroke-width="1.1"/><g clip-path="url(#ebfronti2)"><rect x="1033.0" y="251.0" width="54.0" height="5.4" fill="#2A2622" opacity=".8"/><path d="M1035.7,251.6 l1.2,4.2" stroke="#B8B4A8" stroke-width=".8"/><path d="M1038.4,251.6 l1.2,4.2" stroke="#B8B4A8" stroke-width=".8"/><path d="M1041.1,251.6 l1.2,4.2" stroke="#B8B4A8" stroke-width=".8"/><path d="M1043.8,251.6 l1.2,4.2" stroke="#B8B4A8" stroke-width=".8"/><path d="M1046.5,251.6 l1.2,4.2" stroke="#B8B4A8" stroke-width=".8"/><path d="M1049.2,251.6 l1.2,4.2" stroke="#B8B4A8" stroke-width=".8"/><path d="M1051.9,251.6 l1.2,4.2" stroke="#B8B4A8" stroke-width=".8"/><path d="M1054.6,251.6 l1.2,4.2" stroke="#B8B4A8" stroke-width=".8"/><path d="M1057.3,251.6 l1.2,4.2" stroke="#B8B4A8" stroke-width=".8"/><path d="M1060.0,251.6 l1.2,4.2" stroke="#B8B4A8" stroke-width=".8"/><path d="M1062.7,251.6 l1.2,4.2" stroke="#B8B4A8" stroke-width=".8"/><path d="M1065.4,251.6 l1.2,4.2" stroke="#B8B4A8" stroke-width=".8"/><path d="M1068.1,251.6 l1.2,4.2" stroke="#B8B4A8" stroke-width=".8"/><path d="M1070.8,251.6 l1.2,4.2" stroke="#B8B4A8" stroke-width=".8"/><path d="M1073.5,251.6 l1.2,4.2" stroke="#B8B4A8" stroke-width=".8"/><path d="M1076.2,251.6 l1.2,4.2" stroke="#B8B4A8" stroke-width=".8"/><path d="M1078.9,251.6 l1.2,4.2" stroke="#B8B4A8" stroke-width=".8"/><path d="M1081.6,251.6 l1.2,4.2" stroke="#B8B4A8" stroke-width=".8"/><path d="M1084.3,251.6 l1.2,4.2" stroke="#B8B4A8" stroke-width=".8"/><rect x="1033.0" y="281.0" width="54.0" height="1.8" fill="#C9A227"/><path d="M1069.0,230.0 C1078.0,236.0 1081.0,260.0 1075.0,272.0" fill="none" stroke="#FFFFFF" stroke-width="2.4" opacity=".35"/><g fill="#5A5850" opacity="0.5"><circle cx="1047.8" cy="259.9" r="0.75"/><circle cx="1041.4" cy="258.4" r="0.60"/><circle cx="1051.9" cy="214.6" r="0.50"/><circle cx="1066.3" cy="268.9" r="0.87"/><circle cx="1069.4" cy="206.6" r="0.68"/><circle cx="1078.6" cy="205.6" r="0.31"/><circle cx="1049.2" cy="276.6" r="0.64"/><circle cx="1046.8" cy="223.3" r="1.15"/><circle cx="1057.4" cy="254.3" r="0.82"/><circle cx="1071.9" cy="215.4" r="0.65"/><circle cx="1055.8" cy="271.3" r="0.38"/><circle cx="1046.9" cy="281.7" r="0.85"/><circle cx="1073.7" cy="210.1" r="0.43"/><circle cx="1047.7" cy="205.2" r="0.69"/><circle cx="1057.9" cy="289.6" r="0.40"/><circle cx="1077.3" cy="250.2" r="0.66"/><circle cx="1061.2" cy="236.4" r="1.12"/><circle cx="1049.2" cy="269.6" r="1.07"/><circle cx="1073.2" cy="232.6" r="1.12"/><circle cx="1055.6" cy="281.4" r="1.12"/><circle cx="1052.4" cy="268.4" r="0.91"/><circle cx="1038.3" cy="267.3" r="0.54"/><circle cx="1048.3" cy="287.1" r="0.64"/><circle cx="1075.2" cy="251.0" r="0.40"/><circle cx="1062.2" cy="222.1" r="0.87"/><circle cx="1061.6" cy="214.0" r="0.96"/><circle cx="1080.9" cy="239.6" r="1.03"/><circle cx="1063.4" cy="274.3" r="0.42"/><circle cx="1041.2" cy="215.7" r="0.87"/><circle cx="1052.8" cy="264.5" r="0.60"/><circle cx="1038.9" cy="217.1" r="0.70"/><circle cx="1058.7" cy="224.1" r="0.85"/><circle cx="1051.6" cy="253.7" r="1.08"/><circle cx="1071.2" cy="243.5" r="0.33"/><circle cx="1060.5" cy="288.4" r="0.44"/><circle cx="1070.9" cy="235.2" r="0.43"/><circle cx="1062.1" cy="204.3" r="0.41"/><circle cx="1039.7" cy="280.7" r="0.79"/><circle cx="1040.3" cy="235.3" r="1.20"/><circle cx="1046.1" cy="270.5" r="0.89"/><circle cx="1072.2" cy="223.4" r="0.85"/><circle cx="1068.2" cy="208.0" r="0.31"/><circle cx="1073.3" cy="284.4" r="1.07"/><circle cx="1064.2" cy="245.7" r="0.50"/><circle cx="1052.9" cy="275.6" r="0.94"/><circle cx="1063.9" cy="201.1" r="0.94"/><circle cx="1076.9" cy="236.2" r="0.55"/><circle cx="1068.3" cy="232.5" r="1.14"/><circle cx="1057.3" cy="261.5" r="0.48"/><circle cx="1057.2" cy="261.1" r="0.87"/></g><path d="M1033.0,272.0 C1048.0,278.0 1072.0,278.0 1087.0,272.0 L1087.0,290.0 L1033.0,290.0 Z" fill="#5A5850" opacity=".45"/><path d="M1065.1,242.0 A5.4,3.8 0 0 1 1075.9,242.0" fill="none" stroke="#2A2622" stroke-width="0.8" opacity=".45"/><path d="M1065.1,244.0 A5.4,3.8 0 0 0 1075.9,244.0" fill="none" stroke="#FFFFFF" stroke-width="0.5" opacity=".4"/><path d="M1043.8,263.0 A4.2,2.9 0 0 1 1052.2,263.0" fill="none" stroke="#2A2622" stroke-width="0.8" opacity=".45"/><path d="M1043.8,265.0 A4.2,2.9 0 0 0 1052.2,265.0" fill="none" stroke="#FFFFFF" stroke-width="0.5" opacity=".4"/><path d="M1071.4,267.5 A3.6,2.5 0 0 1 1078.6,267.5" fill="none" stroke="#2A2622" stroke-width="0.8" opacity=".45"/><path d="M1071.4,269.5 A3.6,2.5 0 0 0 1078.6,269.5" fill="none" stroke="#FFFFFF" stroke-width="0.5" opacity=".4"/></g><circle cx="1060.0" cy="243.5" r="6.6" fill="url(#g3)" stroke="#2A2622" stroke-width=".8"/><circle cx="1060.0" cy="243.5" r="5.1" fill="#3E5470"/><path d="M1055.8,245.6 L1060.0,240.2 L1064.2,245.6" fill="none" stroke="#B8B4A8" stroke-width="1.5"/><path d="M1078.0,233.0 C1087.0,230.0 1090.0,218.0 1096.0,207.5 L1097.5,209.6 C1093.0,222.5 1090.0,239.0 1081.0,245.0 Z" fill="url(#g1)" stroke="#2A2622" stroke-width="1"/><ellipse cx="1096.8" cy="208.6" rx="1.8" ry="1.2" fill="#2A2622"/><path d="M1078.6,239.0 q2.4,-3.0 0,-6.0" fill="url(#g3)" stroke="#2A2622" stroke-width=".6"/><rect x="1045.6" y="198.5" width="28.8" height="3.0" rx="2" fill="url(#g3)" stroke="#2A2622" stroke-width=".8"/><path d="M1046.2,198.5 C1048.0,191.0 1072.0,191.0 1073.8,198.5 Z" fill="url(#g1)" stroke="#2A2622" stroke-width="1"/><circle cx="1060.0" cy="190.4" r="2.4" fill="url(#g3)" stroke="#2A2622" stroke-width=".7"/><path d="M1046.2,197.0 l-3.6,-4.2 l2.4,-1.2 Z" fill="url(#g3)" stroke="#2A2622" stroke-width=".6"/>
<text x="1060" y="305" font-family="Overpass Mono, monospace" font-size="10" fill="#635C4C" text-anchor="middle">&gt; 9 m/s</text>
<circle cx="210" cy="365" r="7" fill="none" stroke="#5FA288" stroke-width="2"/><circle cx="210" cy="365" r="2.2" fill="#5FA288"/><text x="200" y="353" font-family="Overpass Mono, monospace" font-size="10" fill="#5FA288" text-anchor="end" letter-spacing="1.5">GRAB · HANDLE</text>
<circle cx="340" cy="295" r="7" fill="none" stroke="#5FA288" stroke-width="2"/><circle cx="340" cy="295" r="2.2" fill="#5FA288"/><text x="328" y="299" font-family="Overpass Mono, monospace" font-size="10" fill="#5FA288" text-anchor="end" letter-spacing="1.5">GRAB · NECK</text>
<path d="M360,203 L540,376 L554,376" fill="none" stroke="#9A9078" stroke-width=".8"/><circle cx="360" cy="203" r="2.6" fill="#DCD2BA" stroke="#14120E" stroke-width="1"/><text x="560" y="380" font-family="Overpass Mono, monospace" font-size="12" fill="#DCD2BA" text-anchor="start">Hinged lid + gilt finial</text><text x="560" y="394" font-family="Overpass Mono, monospace" font-size="10.5" fill="#9A9078" text-anchor="start">thumbpiece at the handle</text>
<path d="M510,295 L540,426 L554,426" fill="none" stroke="#9A9078" stroke-width=".8"/><circle cx="510" cy="295" r="2.6" fill="#DCD2BA" stroke="#14120E" stroke-width="1"/><text x="560" y="430" font-family="Overpass Mono, monospace" font-size="12" fill="#DCD2BA" text-anchor="start">Long spout, soldered</text><text x="560" y="444" font-family="Overpass Mono, monospace" font-size="10.5" fill="#9A9078" text-anchor="start">sleeve joint gilt</text>
<path d="M375,445 L540,476 L554,476" fill="none" stroke="#9A9078" stroke-width=".8"/><circle cx="375" cy="445" r="2.6" fill="#DCD2BA" stroke="#14120E" stroke-width="1"/><text x="560" y="480" font-family="Overpass Mono, monospace" font-size="12" fill="#DCD2BA" text-anchor="start">Enamel medallion, 5.8 cm</text><text x="560" y="494" font-family="Overpass Mono, monospace" font-size="10.5" fill="#9A9078" text-anchor="start">champlevé: the arms</text>
<path d="M450,485 L540,526 L554,526" fill="none" stroke="#9A9078" stroke-width=".8"/><circle cx="450" cy="485" r="2.6" fill="#DCD2BA" stroke="#14120E" stroke-width="1"/><text x="560" y="530" font-family="Overpass Mono, monospace" font-size="12" fill="#DCD2BA" text-anchor="start">Niello band, chased</text><text x="560" y="544" font-family="Overpass Mono, monospace" font-size="10.5" fill="#9A9078" text-anchor="start">tarnish sits in the cuts</text>
<path d="M410,580 L540,576 L554,576" fill="none" stroke="#9A9078" stroke-width=".8"/><circle cx="410" cy="580" r="2.6" fill="#DCD2BA" stroke="#14120E" stroke-width="1"/><text x="560" y="580" font-family="Overpass Mono, monospace" font-size="12" fill="#DCD2BA" text-anchor="start">Raised belly, 0.16 m</text><text x="560" y="594" font-family="Overpass Mono, monospace" font-size="10.5" fill="#9A9078" text-anchor="start">one hammered sheet, 1 mm</text>
<path d="M420,640 L540,626 L554,626" fill="none" stroke="#9A9078" stroke-width=".8"/><circle cx="420" cy="640" r="2.6" fill="#DCD2BA" stroke="#14120E" stroke-width="1"/><text x="560" y="630" font-family="Overpass Mono, monospace" font-size="12" fill="#DCD2BA" text-anchor="start">Foot ring, parcel-gilt</text><text x="560" y="644" font-family="Overpass Mono, monospace" font-size="10.5" fill="#9A9078" text-anchor="start">rubbed to silver on the edge</text>
<text x="40" y="150" font-family="Overpass Mono, monospace" font-size="11" fill="#C4542E" text-anchor="start">UNBREAKABLE — dents, never shatters</text>
<g id="palette" font-family="Overpass Mono, monospace" font-size="10" fill="#9A9078"><rect x="40" y="748" width="34" height="18" fill="#B8B4A8" stroke="#332D22" stroke-width=".6"/><text x="80" y="756">#B8B4A8</text><text x="80" y="767" fill="#635C4C">silver</text><rect x="210" y="748" width="34" height="18" fill="#C9A227" stroke="#332D22" stroke-width=".6"/><text x="250" y="756">#C9A227</text><text x="250" y="767" fill="#635C4C">parcel gilt</text><rect x="380" y="748" width="34" height="18" fill="#5A5850" stroke="#332D22" stroke-width=".6"/><text x="420" y="756">#5A5850</text><text x="420" y="767" fill="#635C4C">tarnish</text><rect x="550" y="748" width="34" height="18" fill="#2A2622" stroke="#332D22" stroke-width=".6"/><text x="590" y="756">#2A2622</text><text x="590" y="767" fill="#635C4C">niello</text><rect x="720" y="748" width="34" height="18" fill="#3E5470" stroke="#332D22" stroke-width=".6"/><text x="760" y="756">#3E5470</text><text x="760" y="767" fill="#635C4C">woad enamel</text></g>
</svg>
