{
	"asset":{
		"generator":"Khronos glTF Blender I/O v5.0.21",
		"version":"2.0"
	},
	"extensionsUsed":[
		"KHR_materials_emissive_strength"
	],
	"scene":0,
	"scenes":[
		{
			"name":"Scene",
			"nodes":[
				0
			]
		}
	],
	"nodes":[
		{
			"mesh":0,
			"name":"JewelledHatBadge"
		}
	],
	"materials":[
		{
			"doubleSided":true,
			"emissiveFactor":[
				1,
				1,
				1
			],
			"emissiveTexture":{
				"index":0
			},
			"extensions":{
				"KHR_materials_emissive_strength":{
					"emissiveStrength":9
				}
			},
			"name":"JewelledHatBadge",
			"pbrMetallicRoughness":{
				"baseColorTexture":{
					"index":1
				},
				"metallicRoughnessTexture":{
					"index":2
				}
			}
		}
	],
	"meshes":[
		{
			"name":"JewelledHatBadge",
			"primitives":[
				{
					"attributes":{
						"POSITION":0,
						"NORMAL":1,
						"TEXCOORD_0":2
					},
					"indices":3,
					"material":0
				}
			]
		}
	],
	"textures":[
		{
			"sampler":0,
			"source":0
		},
		{
			"sampler":0,
			"source":1
		},
		{
			"sampler":0,
			"source":2
		}
	],
	"images":[
		{
			"mimeType":"image/png",
			"name":"JewelledHatBadge_Emission",
			"uri":"JewelledHatBadge_Emission.png"
		},
		{
			"mimeType":"image/png",
			"name":"JewelledHatBadge_BaseMap",
			"uri":"JewelledHatBadge_BaseMap.png"
		},
		{
			"mimeType":"image/png",
			"name":"JewelledHatBadge_ORM",
			"uri":"JewelledHatBadge_ORM.png"
		}
	],
	"accessors":[
		{
			"bufferView":0,
			"componentType":5126,
			"count":1838,
			"max":[
				0.034381572157144547,
				0.08525000512599945,
				0.005750000476837158
			],
			"min":[
				-0.034381572157144547,
				0,
				-0.009100000374019146
			],
			"type":"VEC3"
		},
		{
			"bufferView":1,
			"componentType":5126,
			"count":1838,
			"type":"VEC3"
		},
		{
			"bufferView":2,
			"componentType":5126,
			"count":1838,
			"type":"VEC2"
		},
		{
			"bufferView":3,
			"componentType":5123,
			"count":4206,
			"type":"SCALAR"
		}
	],
	"bufferViews":[
		{
			"buffer":0,
			"byteLength":22056,
			"byteOffset":0,
			"target":34962
		},
		{
			"buffer":0,
			"byteLength":22056,
			"byteOffset":22056,
			"target":34962
		},
		{
			"buffer":0,
			"byteLength":14704,
			"byteOffset":44112,
			"target":34962
		},
		{
			"buffer":0,
			"byteLength":8412,
			"byteOffset":58816,
			"target":34963
		}
	],
	"samplers":[
		{
			"magFilter":9729,
			"minFilter":9987
		}
	],
	"buffers":[
		{
			"byteLength":67228,
			"uri":"JewelledHatBadge.bin"
		}
	]
}
