{
	"asset":{
		"generator":"Khronos glTF Blender I/O v5.0.21",
		"version":"2.0"
	},
	"extensionsUsed":[
		"KHR_materials_emissive_strength"
	],
	"scene":0,
	"scenes":[
		{
			"name":"Scene",
			"nodes":[
				24
			]
		}
	],
	"nodes":[
		{
			"name":"Cap",
			"scale":[
				1,
				0.9999999403953552,
				1
			],
			"translation":[
				0,
				0.12547993659973145,
				-0.006639999803155661
			]
		},
		{
			"children":[
				0
			],
			"name":"Head",
			"translation":[
				0,
				0.07635998725891113,
				0
			]
		},
		{
			"children":[
				1
			],
			"name":"Neck",
			"translation":[
				0,
				0.20916008949279785,
				0
			]
		},
		{
			"name":"Hand.L",
			"rotation":[
				-1.506693570263451e-05,
				0.0001568421721458435,
				-2.8973443477298133e-05,
				1
			],
			"scale":[
				1,
				1.0000001192092896,
				1
			],
			"translation":[
				-7.450580596923828e-09,
				0.24070236086845398,
				4.470348358154297e-08
			]
		},
		{
			"name":"ShieldRoot",
			"rotation":[
				-0.7062204480171204,
				-0.1769898682832718,
				-0.13423971831798553,
				0.6722403168678284
			],
			"scale":[
				1.0000001192092896,
				1,
				1
			],
			"translation":[
				9.125098586082458e-06,
				0.3154080808162689,
				-1.4975666999816895e-06
			]
		},
		{
			"children":[
				3,
				4
			],
			"name":"LowerArm.L",
			"rotation":[
				-0.5588805675506592,
				-3.5404089430812746e-05,
				-0.12899623811244965,
				0.8191534876823425
			],
			"scale":[
				0.9999999403953552,
				1,
				1
			],
			"translation":[
				-3.5390257835388184e-08,
				0.2855173945426941,
				-1.862645149230957e-09
			]
		},
		{
			"children":[
				5
			],
			"name":"UpperArm.L",
			"rotation":[
				-0.465620756149292,
				-0.4876989424228668,
				0.37586185336112976,
				0.635668933391571
			],
			"scale":[
				1,
				0.9999997615814209,
				0.9999998807907104
			],
			"translation":[
				6.464086599322627e-09,
				0.10876286774873734,
				1.2109667579807137e-07
			]
		},
		{
			"children":[
				6
			],
			"name":"Shoulder.L",
			"rotation":[
				-0.5305254459381104,
				-0.4990673065185547,
				-0.49906736612319946,
				0.46947455406188965
			],
			"translation":[
				0.049800001084804535,
				0.192560076713562,
				0
			]
		},
		{
			"name":"SpearRoot",
			"rotation":[
				-0.8337995409965515,
				0.17754395306110382,
				0.17754392325878143,
				0.49166521430015564
			],
			"scale":[
				0.9999999403953552,
				1.0000001192092896,
				1
			],
			"translation":[
				-2.689659595489502e-06,
				0.07470622658729553,
				3.7550926208496094e-06
			]
		},
		{
			"children":[
				8
			],
			"name":"Hand.R",
			"rotation":[
				-5.492009222507477e-06,
				7.28880986571312e-05,
				-1.7344951629638672e-05,
				1
			],
			"scale":[
				1,
				1,
				0.9999999403953552
			],
			"translation":[
				1.30385160446167e-08,
				0.24069488048553467,
				2.2351741790771484e-08
			]
		},
		{
			"children":[
				9
			],
			"name":"LowerArm.R",
			"rotation":[
				-0.4682772159576416,
				-1.5923402315820567e-05,
				0.12549294531345367,
				0.874624490737915
			],
			"scale":[
				1.0000001192092896,
				1,
				1
			],
			"translation":[
				-5.4016709327697754e-08,
				0.2855212688446045,
				1.4435499906539917e-08
			]
		},
		{
			"children":[
				10
			],
			"name":"UpperArm.R",
			"rotation":[
				-0.47008416056632996,
				0.4904220998287201,
				-0.3474925756454468,
				0.6463404893875122
			],
			"scale":[
				1,
				1.0000001192092896,
				1.0000001192092896
			],
			"translation":[
				-6.464086599322627e-09,
				0.10876286774873734,
				1.2109667579807137e-07
			]
		},
		{
			"children":[
				11
			],
			"name":"Shoulder.R",
			"rotation":[
				-0.5305254459381104,
				0.4990673065185547,
				0.49906736612319946,
				0.46947455406188965
			],
			"translation":[
				-0.049800001084804535,
				0.192560076713562,
				0
			]
		},
		{
			"children":[
				2,
				7,
				12
			],
			"name":"Chest",
			"translation":[
				0,
				0.18259990215301514,
				0
			]
		},
		{
			"children":[
				13
			],
			"name":"Spine",
			"translation":[
				0,
				0.1029200553894043,
				0
			]
		},
		{
			"name":"Foot.L",
			"rotation":[
				-0.5514096617698669,
				0.11922769248485565,
				-0.1465880572795868,
				0.8125540614128113
			],
			"scale":[
				0.9999999403953552,
				0.9999999403953552,
				1
			],
			"translation":[
				5.547337700306798e-09,
				0.3789712190628052,
				1.8614376706693747e-09
			]
		},
		{
			"children":[
				15
			],
			"name":"LowerLeg.L",
			"rotation":[
				0.025101764127612114,
				-7.139371518860571e-06,
				0.0011030057212337852,
				0.9996842741966248
			],
			"translation":[
				1.3387762010097504e-09,
				0.41551488637924194,
				1.3969838619232178e-09
			]
		},
		{
			"children":[
				16
			],
			"name":"UpperLeg.L",
			"rotation":[
				0.9994465708732605,
				0.022070404142141342,
				0.02207007445394993,
				0.011504387483000755
			],
			"scale":[
				1.000001072883606,
				1.0000001192092896,
				1.0000003576278687
			],
			"translation":[
				0.09029000252485275,
				5.960464477539063e-08,
				0
			]
		},
		{
			"name":"Foot.R",
			"rotation":[
				-0.5514096617698669,
				-0.11922769248485565,
				0.1465880572795868,
				0.8125540614128113
			],
			"scale":[
				0.9999999403953552,
				0.9999999403953552,
				1
			],
			"translation":[
				-5.547337700306798e-09,
				0.3789712190628052,
				1.8614376706693747e-09
			]
		},
		{
			"children":[
				18
			],
			"name":"LowerLeg.R",
			"rotation":[
				0.025101764127612114,
				7.139371518860571e-06,
				-0.0011030057212337852,
				0.9996842741966248
			],
			"translation":[
				-1.3387762010097504e-09,
				0.41551488637924194,
				1.3969838619232178e-09
			]
		},
		{
			"children":[
				19
			],
			"name":"UpperLeg.R",
			"rotation":[
				0.9994465708732605,
				-0.022070404142141342,
				-0.02207007445394993,
				0.011504387483000755
			],
			"scale":[
				1.000001072883606,
				1.0000001192092896,
				1.0000003576278687
			],
			"translation":[
				-0.09029000252485275,
				5.960464477539063e-08,
				0
			]
		},
		{
			"children":[
				14,
				17,
				20
			],
			"name":"Hips",
			"translation":[
				0,
				0.876479983329773,
				0
			]
		},
		{
			"children":[
				21
			],
			"name":"Root"
		},
		{
			"mesh":0,
			"name":"PalaceLevy",
			"skin":0
		},
		{
			"children":[
				23,
				22
			],
			"name":"PalaceLevy_Rig"
		}
	],
	"materials":[
		{
			"doubleSided":true,
			"emissiveFactor":[
				1,
				1,
				1
			],
			"emissiveTexture":{
				"index":0
			},
			"extensions":{
				"KHR_materials_emissive_strength":{
					"emissiveStrength":9
				}
			},
			"name":"PalaceLevy",
			"pbrMetallicRoughness":{
				"baseColorTexture":{
					"index":1
				},
				"metallicRoughnessTexture":{
					"index":2
				}
			}
		}
	],
	"meshes":[
		{
			"name":"PalaceLevy",
			"primitives":[
				{
					"attributes":{
						"POSITION":0,
						"NORMAL":1,
						"TEXCOORD_0":2,
						"JOINTS_0":3,
						"WEIGHTS_0":4
					},
					"indices":5,
					"material":0
				}
			]
		}
	],
	"textures":[
		{
			"sampler":0,
			"source":0
		},
		{
			"sampler":0,
			"source":1
		},
		{
			"sampler":0,
			"source":2
		}
	],
	"images":[
		{
			"mimeType":"image/png",
			"name":"PalaceLevy_Emission",
			"uri":"PalaceLevy_Emission.png"
		},
		{
			"mimeType":"image/png",
			"name":"PalaceLevy_BaseMap",
			"uri":"PalaceLevy_BaseMap.png"
		},
		{
			"mimeType":"image/png",
			"name":"PalaceLevy_ORM",
			"uri":"PalaceLevy_ORM.png"
		}
	],
	"skins":[
		{
			"inverseBindMatrices":6,
			"joints":[
				22,
				21,
				14,
				13,
				2,
				1,
				0,
				7,
				6,
				5,
				3,
				4,
				12,
				11,
				10,
				9,
				8,
				17,
				16,
				15,
				20,
				19,
				18
			],
			"name":"PalaceLevy_Rig"
		}
	],
	"accessors":[
		{
			"bufferView":0,
			"componentType":5126,
			"count":5697,
			"max":[
				0.7044775485992432,
				2.39786958694458,
				0.6183220148086548
			],
			"min":[
				-0.30016377568244934,
				0,
				-0.14073987305164337
			],
			"type":"VEC3"
		},
		{
			"bufferView":1,
			"componentType":5126,
			"count":5697,
			"type":"VEC3"
		},
		{
			"bufferView":2,
			"componentType":5126,
			"count":5697,
			"type":"VEC2"
		},
		{
			"bufferView":3,
			"componentType":5121,
			"count":5697,
			"type":"VEC4"
		},
		{
			"bufferView":4,
			"componentType":5126,
			"count":5697,
			"type":"VEC4"
		},
		{
			"bufferView":5,
			"componentType":5123,
			"count":17274,
			"type":"SCALAR"
		},
		{
			"bufferView":6,
			"componentType":5126,
			"count":23,
			"type":"MAT4"
		}
	],
	"bufferViews":[
		{
			"buffer":0,
			"byteLength":68364,
			"byteOffset":0,
			"target":34962
		},
		{
			"buffer":0,
			"byteLength":68364,
			"byteOffset":68364,
			"target":34962
		},
		{
			"buffer":0,
			"byteLength":45576,
			"byteOffset":136728,
			"target":34962
		},
		{
			"buffer":0,
			"byteLength":22788,
			"byteOffset":182304,
			"target":34962
		},
		{
			"buffer":0,
			"byteLength":91152,
			"byteOffset":205092,
			"target":34962
		},
		{
			"buffer":0,
			"byteLength":34548,
			"byteOffset":296244,
			"target":34963
		},
		{
			"buffer":0,
			"byteLength":1472,
			"byteOffset":330792
		}
	],
	"samplers":[
		{
			"magFilter":9729,
			"minFilter":9987
		}
	],
	"buffers":[
		{
			"byteLength":332264,
			"uri":"PalaceLevy.bin"
		}
	]
}
