{
	"asset":{
		"generator":"Khronos glTF Blender I/O v5.0.21",
		"version":"2.0"
	},
	"extensionsUsed":[
		"KHR_materials_emissive_strength"
	],
	"scene":0,
	"scenes":[
		{
			"name":"Scene",
			"nodes":[
				25
			]
		}
	],
	"nodes":[
		{
			"name":"Hat",
			"translation":[
				0,
				0.14320015907287598,
				-0.0071600014343857765
			]
		},
		{
			"children":[
				0
			],
			"name":"Head",
			"translation":[
				0,
				0.08234012126922607,
				0
			]
		},
		{
			"children":[
				1
			],
			"name":"Neck",
			"rotation":[
				-3.552713678800501e-15,
				0,
				0,
				1
			],
			"translation":[
				0,
				0.22554004192352295,
				0
			]
		},
		{
			"name":"Rest",
			"rotation":[
				-0.9266375303268433,
				-0.15375353395938873,
				-0.1537536382675171,
				0.3066962957382202
			],
			"scale":[
				0.9999999403953552,
				0.9999999403953552,
				0.9999999403953552
			],
			"translation":[
				6.4373016357421875e-06,
				0.08054308593273163,
				-7.82310962677002e-07
			]
		},
		{
			"name":"Match",
			"rotation":[
				0.30669641494750977,
				-0.1537536382675171,
				0.15375356376171112,
				0.9266374707221985
			],
			"scale":[
				0.9999999403953552,
				0.9999998807907104,
				0.9999998211860657
			],
			"translation":[
				6.4373016357421875e-06,
				0.08054308593273163,
				-7.82310962677002e-07
			]
		},
		{
			"children":[
				3,
				4
			],
			"name":"Hand.L",
			"rotation":[
				-2.1498650312423706e-05,
				7.778406143188477e-06,
				-9.251759365724865e-06,
				1
			],
			"scale":[
				0.9999999403953552,
				0.9999999403953552,
				1
			],
			"translation":[
				-7.450580596923828e-09,
				0.2595525085926056,
				-5.21540641784668e-08
			]
		},
		{
			"children":[
				5
			],
			"name":"LowerArm.L",
			"rotation":[
				-0.3318411409854889,
				-1.0895980267378036e-05,
				-0.0827290266752243,
				0.939700722694397
			],
			"scale":[
				1,
				1,
				0.9999999403953552
			],
			"translation":[
				4.889443516731262e-08,
				0.30787789821624756,
				1.7695128917694092e-08
			]
		},
		{
			"children":[
				6
			],
			"name":"UpperArm.L",
			"rotation":[
				-0.4467411935329437,
				-0.46880897879600525,
				0.38893142342567444,
				0.6552655100822449
			],
			"scale":[
				1,
				1.0000001192092896,
				1.0000001192092896
			],
			"translation":[
				3.026798367500305e-09,
				0.12193039804697037,
				-6.426125764846802e-08
			]
		},
		{
			"children":[
				7
			],
			"name":"Shoulder.L",
			"rotation":[
				-0.5293607711791992,
				-0.49913716316223145,
				-0.4991372227668762,
				0.47063925862312317
			],
			"scale":[
				1,
				0.9999999403953552,
				1
			],
			"translation":[
				0.053700000047683716,
				0.20764005184173584,
				0
			]
		},
		{
			"name":"Musket",
			"rotation":[
				-0.9451141357421875,
				0.1286080777645111,
				0.1309228092432022,
				0.2703304886817932
			],
			"scale":[
				1,
				1,
				1.000000238418579
			],
			"translation":[
				9.294599294662476e-07,
				0.08054785430431366,
				4.075467586517334e-06
			]
		},
		{
			"children":[
				9
			],
			"name":"Hand.R",
			"rotation":[
				-1.2113711818528827e-05,
				5.933642387390137e-05,
				-2.9675660698558204e-05,
				1
			],
			"scale":[
				1,
				1.0000001192092896,
				1
			],
			"translation":[
				-2.2351741790771484e-08,
				0.25954750180244446,
				0
			]
		},
		{
			"children":[
				10
			],
			"name":"LowerArm.R",
			"rotation":[
				-0.3184635639190674,
				-1.7552523559061228e-06,
				0.06769729405641556,
				0.9455146789550781
			],
			"scale":[
				0.9999999403953552,
				1,
				1.0000001192092896
			],
			"translation":[
				1.0244548320770264e-08,
				0.30788272619247437,
				-3.725290298461914e-09
			]
		},
		{
			"children":[
				11
			],
			"name":"UpperArm.R",
			"rotation":[
				-0.44133588671684265,
				0.4650017321109772,
				-0.41598570346832275,
				0.644943356513977
			],
			"scale":[
				1.0000001192092896,
				1,
				1
			],
			"translation":[
				-3.026798367500305e-09,
				0.12193039804697037,
				-6.426125764846802e-08
			]
		},
		{
			"children":[
				12
			],
			"name":"Shoulder.R",
			"rotation":[
				-0.5293607711791992,
				0.49913716316223145,
				0.4991372227668762,
				0.47063925862312317
			],
			"scale":[
				1,
				0.9999999403953552,
				1
			],
			"translation":[
				-0.053700000047683716,
				0.20764005184173584,
				0
			]
		},
		{
			"children":[
				2,
				8,
				13
			],
			"name":"Chest",
			"rotation":[
				-3.552713678800501e-15,
				0,
				0,
				1
			],
			"translation":[
				0,
				0.1969001293182373,
				0
			]
		},
		{
			"children":[
				14
			],
			"name":"Spine",
			"rotation":[
				-3.552713678800501e-15,
				0,
				0,
				1
			],
			"translation":[
				0,
				0.11098003387451172,
				0
			]
		},
		{
			"name":"Foot.L",
			"rotation":[
				-0.5514097213745117,
				0.11921733617782593,
				-0.14658595621585846,
				0.8125559091567993
			],
			"translation":[
				3.847126617273489e-09,
				0.4086499512195587,
				-9.276983625738922e-10
			]
		},
		{
			"children":[
				16
			],
			"name":"LowerLeg.L",
			"rotation":[
				0.025102540850639343,
				1.0623211892379913e-05,
				0.0010852213017642498,
				0.9996842741966248
			],
			"scale":[
				1,
				0.9999997615814209,
				0.9999998807907104
			],
			"translation":[
				-1.0302755981683731e-08,
				0.448054701089859,
				0
			]
		},
		{
			"children":[
				17
			],
			"name":"UpperLeg.L",
			"rotation":[
				0.9994469881057739,
				0.022060221061110497,
				0.02205980010330677,
				0.011504845693707466
			],
			"scale":[
				1.0000011920928955,
				1.0000003576278687,
				1.0000003576278687
			],
			"translation":[
				0.10197000205516815,
				5.960464477539063e-08,
				0
			]
		},
		{
			"name":"Foot.R",
			"rotation":[
				-0.5514097213745117,
				-0.11921733617782593,
				0.14658595621585846,
				0.8125559091567993
			],
			"translation":[
				-3.847126617273489e-09,
				0.4086499512195587,
				-9.276983625738922e-10
			]
		},
		{
			"children":[
				19
			],
			"name":"LowerLeg.R",
			"rotation":[
				0.025102540850639343,
				-1.0623211892379913e-05,
				-0.0010852213017642498,
				0.9996842741966248
			],
			"scale":[
				1,
				0.9999997615814209,
				0.9999998807907104
			],
			"translation":[
				1.0302755981683731e-08,
				0.448054701089859,
				0
			]
		},
		{
			"children":[
				20
			],
			"name":"UpperLeg.R",
			"rotation":[
				0.9994469881057739,
				-0.022060221061110497,
				-0.02205980010330677,
				0.011504845693707466
			],
			"scale":[
				1.0000011920928955,
				1.0000003576278687,
				1.0000003576278687
			],
			"translation":[
				-0.10197000205516815,
				5.960464477539063e-08,
				0
			]
		},
		{
			"children":[
				15,
				18,
				21
			],
			"name":"Hips",
			"rotation":[
				-3.552713678800501e-15,
				0,
				0,
				1
			],
			"translation":[
				0,
				0.9451200366020203,
				0
			]
		},
		{
			"children":[
				22
			],
			"name":"Root",
			"rotation":[
				-2.980232594040899e-08,
				0,
				0,
				1
			],
			"scale":[
				1,
				0.9999999403953552,
				0.9999999403953552
			]
		},
		{
			"mesh":0,
			"name":"Musketeer",
			"skin":0
		},
		{
			"children":[
				24,
				23
			],
			"name":"Musketeer_Rig"
		}
	],
	"materials":[
		{
			"doubleSided":true,
			"emissiveFactor":[
				1,
				1,
				1
			],
			"emissiveTexture":{
				"index":0
			},
			"extensions":{
				"KHR_materials_emissive_strength":{
					"emissiveStrength":9
				}
			},
			"name":"Musketeer",
			"pbrMetallicRoughness":{
				"baseColorTexture":{
					"index":1
				},
				"metallicRoughnessTexture":{
					"index":2
				}
			}
		}
	],
	"meshes":[
		{
			"name":"Musketeer",
			"primitives":[
				{
					"attributes":{
						"POSITION":0,
						"NORMAL":1,
						"TEXCOORD_0":2,
						"JOINTS_0":3,
						"WEIGHTS_0":4
					},
					"indices":5,
					"material":0
				}
			]
		}
	],
	"textures":[
		{
			"sampler":0,
			"source":0
		},
		{
			"sampler":0,
			"source":1
		},
		{
			"sampler":0,
			"source":2
		}
	],
	"images":[
		{
			"mimeType":"image/png",
			"name":"Musketeer_Emission",
			"uri":"Musketeer_Emission.png"
		},
		{
			"mimeType":"image/png",
			"name":"Musketeer_BaseMap",
			"uri":"Musketeer_BaseMap.png"
		},
		{
			"mimeType":"image/png",
			"name":"Musketeer_ORM",
			"uri":"Musketeer_ORM.png"
		}
	],
	"skins":[
		{
			"inverseBindMatrices":6,
			"joints":[
				23,
				22,
				15,
				14,
				2,
				1,
				0,
				8,
				7,
				6,
				5,
				3,
				4,
				13,
				12,
				11,
				10,
				9,
				18,
				17,
				16,
				21,
				20,
				19
			],
			"name":"Musketeer_Rig"
		}
	],
	"accessors":[
		{
			"bufferView":0,
			"componentType":5126,
			"count":6035,
			"max":[
				0.3797321915626526,
				1.9320467710494995,
				0.3196416199207306
			],
			"min":[
				-0.33853399753570557,
				-8.523725059106368e-10,
				-0.2984895408153534
			],
			"type":"VEC3"
		},
		{
			"bufferView":1,
			"componentType":5126,
			"count":6035,
			"type":"VEC3"
		},
		{
			"bufferView":2,
			"componentType":5126,
			"count":6035,
			"type":"VEC2"
		},
		{
			"bufferView":3,
			"componentType":5121,
			"count":6035,
			"type":"VEC4"
		},
		{
			"bufferView":4,
			"componentType":5126,
			"count":6035,
			"type":"VEC4"
		},
		{
			"bufferView":5,
			"componentType":5123,
			"count":16170,
			"type":"SCALAR"
		},
		{
			"bufferView":6,
			"componentType":5126,
			"count":24,
			"type":"MAT4"
		}
	],
	"bufferViews":[
		{
			"buffer":0,
			"byteLength":72420,
			"byteOffset":0,
			"target":34962
		},
		{
			"buffer":0,
			"byteLength":72420,
			"byteOffset":72420,
			"target":34962
		},
		{
			"buffer":0,
			"byteLength":48280,
			"byteOffset":144840,
			"target":34962
		},
		{
			"buffer":0,
			"byteLength":24140,
			"byteOffset":193120,
			"target":34962
		},
		{
			"buffer":0,
			"byteLength":96560,
			"byteOffset":217260,
			"target":34962
		},
		{
			"buffer":0,
			"byteLength":32340,
			"byteOffset":313820,
			"target":34963
		},
		{
			"buffer":0,
			"byteLength":1536,
			"byteOffset":346160
		}
	],
	"samplers":[
		{
			"magFilter":9729,
			"minFilter":9987
		}
	],
	"buffers":[
		{
			"byteLength":347696,
			"uri":"Musketeer.bin"
		}
	]
}
