{
	"asset":{
		"generator":"Khronos glTF Blender I/O v5.0.21",
		"version":"2.0"
	},
	"extensionsUsed":[
		"KHR_materials_emissive_strength"
	],
	"scene":0,
	"scenes":[
		{
			"name":"Scene",
			"nodes":[
				22
			]
		}
	],
	"nodes":[
		{
			"name":"Hat",
			"translation":[
				0,
				0.16380000114440918,
				0
			]
		},
		{
			"children":[
				0
			],
			"name":"Head",
			"translation":[
				0,
				0.08280014991760254,
				0
			]
		},
		{
			"children":[
				1
			],
			"name":"Neck",
			"translation":[
				0,
				0.22679996490478516,
				0
			]
		},
		{
			"name":"Hand.L",
			"rotation":[
				2.288166433572769e-05,
				-1.3266690075397491e-05,
				1.5208497643470764e-05,
				1
			],
			"translation":[
				-1.3969838619232178e-08,
				0.26099494099617004,
				1.4901161193847656e-08
			]
		},
		{
			"children":[
				3
			],
			"name":"LowerArm.L",
			"rotation":[
				-0.08557304739952087,
				2.3046826754580252e-05,
				-0.016654642298817635,
				0.9961926937103271
			],
			"translation":[
				3.958120942115784e-09,
				0.30960366129875183,
				-2.7939677238464355e-09
			]
		},
		{
			"children":[
				4
			],
			"name":"UpperArm.L",
			"rotation":[
				-0.4737774133682251,
				-0.4965788424015045,
				0.38797351717948914,
				0.6151593327522278
			],
			"scale":[
				1.0000001192092896,
				1.0000001192092896,
				1
			],
			"translation":[
				-5.878973752260208e-09,
				0.11793997883796692,
				-9.685754776000977e-08
			]
		},
		{
			"children":[
				5
			],
			"name":"Shoulder.L",
			"rotation":[
				-0.5305240154266357,
				-0.49906742572784424,
				-0.49906742572784424,
				0.46947598457336426
			],
			"scale":[
				0.9999999403953552,
				0.9999998211860657,
				1
			],
			"translation":[
				0.05400000140070915,
				0.20879995822906494,
				0
			]
		},
		{
			"name":"Hand.R",
			"rotation":[
				2.288166433572769e-05,
				1.3266690075397491e-05,
				-1.5208497643470764e-05,
				1
			],
			"translation":[
				1.3969838619232178e-08,
				0.26099494099617004,
				1.4901161193847656e-08
			]
		},
		{
			"children":[
				7
			],
			"name":"LowerArm.R",
			"rotation":[
				-0.08557304739952087,
				-2.3046826754580252e-05,
				0.016654642298817635,
				0.9961926937103271
			],
			"translation":[
				-3.958120942115784e-09,
				0.30960366129875183,
				-2.7939677238464355e-09
			]
		},
		{
			"children":[
				8
			],
			"name":"UpperArm.R",
			"rotation":[
				-0.4737774133682251,
				0.4965788424015045,
				-0.38797351717948914,
				0.6151593327522278
			],
			"scale":[
				1.0000001192092896,
				1.0000001192092896,
				1
			],
			"translation":[
				5.878973752260208e-09,
				0.11793997883796692,
				-9.685754776000977e-08
			]
		},
		{
			"children":[
				9
			],
			"name":"Shoulder.R",
			"rotation":[
				-0.5305240154266357,
				0.49906742572784424,
				0.49906742572784424,
				0.46947598457336426
			],
			"scale":[
				0.9999999403953552,
				0.9999998211860657,
				1
			],
			"translation":[
				-0.05400000140070915,
				0.20879995822906494,
				0
			]
		},
		{
			"children":[
				2,
				6,
				10
			],
			"name":"Chest",
			"scale":[
				1,
				0.9999999403953552,
				1
			],
			"translation":[
				0,
				0.1979999542236328,
				0
			]
		},
		{
			"children":[
				11
			],
			"name":"Spine",
			"translation":[
				0,
				0.11160004138946533,
				0
			]
		},
		{
			"name":"Foot.L",
			"rotation":[
				-0.5514097809791565,
				0.11921656876802444,
				-0.14658576250076294,
				0.8125560283660889
			],
			"scale":[
				1,
				0.9999999403953552,
				1
			],
			"translation":[
				-1.661220139226316e-08,
				0.41093307733535767,
				-2.4162893907941907e-12
			]
		},
		{
			"children":[
				13
			],
			"name":"LowerLeg.L",
			"rotation":[
				0.02510201185941696,
				-9.335799973086978e-07,
				0.0010970559669658542,
				0.9996842741966248
			],
			"scale":[
				1,
				0.9999998211860657,
				0.9999998807907104
			],
			"translation":[
				7.450580596923828e-09,
				0.4505583643913269,
				2.3283064365386963e-09
			]
		},
		{
			"children":[
				14
			],
			"name":"UpperLeg.L",
			"rotation":[
				0.9994465112686157,
				0.022072432562708855,
				0.022072097286581993,
				0.011504299007356167
			],
			"scale":[
				1.000001072883606,
				1,
				1.000000238418579
			],
			"translation":[
				0.10080000013113022,
				0,
				0
			]
		},
		{
			"name":"Foot.R",
			"rotation":[
				-0.5514097809791565,
				-0.11921656876802444,
				0.14658576250076294,
				0.8125560283660889
			],
			"scale":[
				1,
				0.9999999403953552,
				1
			],
			"translation":[
				1.661220139226316e-08,
				0.41093307733535767,
				-2.4162893907941907e-12
			]
		},
		{
			"children":[
				16
			],
			"name":"LowerLeg.R",
			"rotation":[
				0.02510201185941696,
				9.335799973086978e-07,
				-0.0010970559669658542,
				0.9996842741966248
			],
			"scale":[
				1,
				0.9999998211860657,
				0.9999998807907104
			],
			"translation":[
				-7.450580596923828e-09,
				0.4505583643913269,
				2.3283064365386963e-09
			]
		},
		{
			"children":[
				17
			],
			"name":"UpperLeg.R",
			"rotation":[
				0.9994465112686157,
				-0.022072432562708855,
				-0.022072097286581993,
				0.011504299007356167
			],
			"scale":[
				1.000001072883606,
				1,
				1.000000238418579
			],
			"translation":[
				-0.10080000013113022,
				0,
				0
			]
		},
		{
			"children":[
				12,
				15,
				18
			],
			"name":"Hips",
			"translation":[
				0,
				0.9503999948501587,
				0
			]
		},
		{
			"children":[
				19
			],
			"name":"Root"
		},
		{
			"mesh":0,
			"name":"Wizard",
			"skin":0
		},
		{
			"children":[
				21,
				20
			],
			"name":"Wizard_Rig"
		}
	],
	"materials":[
		{
			"doubleSided":true,
			"emissiveFactor":[
				1,
				1,
				1
			],
			"emissiveTexture":{
				"index":0
			},
			"extensions":{
				"KHR_materials_emissive_strength":{
					"emissiveStrength":9
				}
			},
			"name":"Wizard",
			"pbrMetallicRoughness":{
				"baseColorTexture":{
					"index":1
				},
				"metallicRoughnessTexture":{
					"index":2
				}
			}
		}
	],
	"meshes":[
		{
			"name":"Wizard",
			"primitives":[
				{
					"attributes":{
						"POSITION":0,
						"NORMAL":1,
						"TEXCOORD_0":2,
						"JOINTS_0":3,
						"WEIGHTS_0":4
					},
					"indices":5,
					"material":0
				}
			]
		}
	],
	"textures":[
		{
			"sampler":0,
			"source":0
		},
		{
			"sampler":0,
			"source":1
		},
		{
			"sampler":0,
			"source":2
		}
	],
	"images":[
		{
			"mimeType":"image/png",
			"name":"Wizard_Emission",
			"uri":"Wizard_Emission.png"
		},
		{
			"mimeType":"image/png",
			"name":"Wizard_BaseMap",
			"uri":"Wizard_BaseMap.png"
		},
		{
			"mimeType":"image/png",
			"name":"Wizard_ORM",
			"uri":"Wizard_ORM.png"
		}
	],
	"skins":[
		{
			"inverseBindMatrices":6,
			"joints":[
				20,
				19,
				12,
				11,
				2,
				1,
				0,
				6,
				5,
				4,
				3,
				10,
				9,
				8,
				7,
				15,
				14,
				13,
				18,
				17,
				16
			],
			"name":"Wizard_Rig"
		}
	],
	"accessors":[
		{
			"bufferView":0,
			"componentType":5126,
			"count":4437,
			"max":[
				0.36943671107292175,
				2.283400058746338,
				0.2314399927854538
			],
			"min":[
				-0.36943671107292175,
				0,
				-0.23629440367221832
			],
			"type":"VEC3"
		},
		{
			"bufferView":1,
			"componentType":5126,
			"count":4437,
			"type":"VEC3"
		},
		{
			"bufferView":2,
			"componentType":5126,
			"count":4437,
			"type":"VEC2"
		},
		{
			"bufferView":3,
			"componentType":5121,
			"count":4437,
			"type":"VEC4"
		},
		{
			"bufferView":4,
			"componentType":5126,
			"count":4437,
			"type":"VEC4"
		},
		{
			"bufferView":5,
			"componentType":5123,
			"count":16002,
			"type":"SCALAR"
		},
		{
			"bufferView":6,
			"componentType":5126,
			"count":21,
			"type":"MAT4"
		}
	],
	"bufferViews":[
		{
			"buffer":0,
			"byteLength":53244,
			"byteOffset":0,
			"target":34962
		},
		{
			"buffer":0,
			"byteLength":53244,
			"byteOffset":53244,
			"target":34962
		},
		{
			"buffer":0,
			"byteLength":35496,
			"byteOffset":106488,
			"target":34962
		},
		{
			"buffer":0,
			"byteLength":17748,
			"byteOffset":141984,
			"target":34962
		},
		{
			"buffer":0,
			"byteLength":70992,
			"byteOffset":159732,
			"target":34962
		},
		{
			"buffer":0,
			"byteLength":32004,
			"byteOffset":230724,
			"target":34963
		},
		{
			"buffer":0,
			"byteLength":1344,
			"byteOffset":262728
		}
	],
	"samplers":[
		{
			"magFilter":9729,
			"minFilter":9987
		}
	],
	"buffers":[
		{
			"byteLength":264072,
			"uri":"Wizard.bin"
		}
	]
}
