{
	"asset":{
		"generator":"Khronos glTF Blender I/O v5.0.21",
		"version":"2.0"
	},
	"extensionsUsed":[
		"KHR_materials_emissive_strength"
	],
	"scene":0,
	"scenes":[
		{
			"name":"Scene",
			"nodes":[
				26
			]
		}
	],
	"nodes":[
		{
			"name":"Hat",
			"translation":[
				0,
				0.11226010322570801,
				-0.007009999826550484
			]
		},
		{
			"children":[
				0
			],
			"name":"Head",
			"translation":[
				0,
				0.0805901288986206,
				0
			]
		},
		{
			"children":[
				1
			],
			"name":"Neck",
			"translation":[
				0,
				0.22074997425079346,
				0
			]
		},
		{
			"name":"MatchCord",
			"rotation":[
				-0.12894384562969208,
				0.05160193890333176,
				-0.061590421944856644,
				0.9883913397789001
			],
			"translation":[
				-9.723007678985596e-07,
				0.07884089648723602,
				4.3138861656188965e-06
			]
		},
		{
			"children":[
				3
			],
			"name":"Hand.L",
			"rotation":[
				-1.1920928955078125e-06,
				2.2009015083312988e-05,
				-1.377984881401062e-05,
				1
			],
			"scale":[
				1,
				1,
				1.0000001192092896
			],
			"translation":[
				3.91155481338501e-08,
				0.25403204560279846,
				1.4901161193847656e-08
			]
		},
		{
			"children":[
				4
			],
			"name":"LowerArm.L",
			"rotation":[
				-0.21918347477912903,
				-2.4731329176574945e-05,
				-0.05058105289936066,
				0.9743716716766357
			],
			"scale":[
				0.9999999403953552,
				1,
				1
			],
			"translation":[
				1.6298145055770874e-08,
				0.30134332180023193,
				8.381903171539307e-09
			]
		},
		{
			"children":[
				5
			],
			"name":"UpperArm.L",
			"rotation":[
				-0.46561941504478455,
				-0.487701952457428,
				0.3758498430252075,
				0.6356747150421143
			],
			"scale":[
				0.9999998807907104,
				0.9999998807907104,
				0.9999999403953552
			],
			"translation":[
				-3.744680565631597e-09,
				0.11479424685239792,
				-4.095208083754187e-08
			]
		},
		{
			"children":[
				6
			],
			"name":"Shoulder.L",
			"rotation":[
				-0.5305327773094177,
				-0.49906694889068604,
				-0.49906694889068604,
				0.46946725249290466
			],
			"translation":[
				0.052560001611709595,
				0.20323002338409424,
				0
			]
		},
		{
			"name":"Gun",
			"rotation":[
				-0.8825844526290894,
				-0.2602823078632355,
				0.2896161377429962,
				0.2634774446487427
			],
			"scale":[
				0.9999998211860657,
				0.9999998211860657,
				0.9999998211860657
			],
			"translation":[
				8.009374141693115e-07,
				0.07884888350963593,
				-7.525086402893066e-07
			]
		},
		{
			"children":[
				8
			],
			"name":"Hand.R",
			"rotation":[
				-1.9529834389686584e-06,
				-1.3943761587142944e-05,
				6.757676601409912e-06,
				1
			],
			"translation":[
				4.0978193283081055e-08,
				0.2540356516838074,
				1.4901161193847656e-08
			]
		},
		{
			"children":[
				9
			],
			"name":"LowerArm.R",
			"rotation":[
				-0.2869909405708313,
				1.3787118405161891e-05,
				0.05577516555786133,
				0.9563081860542297
			],
			"scale":[
				0.9999999403953552,
				1,
				1
			],
			"translation":[
				9.313225746154785e-09,
				0.3013358414173126,
				-7.450580596923828e-09
			]
		},
		{
			"children":[
				10
			],
			"name":"UpperArm.R",
			"rotation":[
				-0.49552789330482483,
				0.5166603326797485,
				-0.36120501160621643,
				0.5975325703620911
			],
			"scale":[
				1,
				1,
				0.9999999403953552
			],
			"translation":[
				3.744680565631597e-09,
				0.11479424685239792,
				-4.095208083754187e-08
			]
		},
		{
			"children":[
				11
			],
			"name":"Shoulder.R",
			"rotation":[
				-0.5305327773094177,
				0.49906694889068604,
				0.49906694889068604,
				0.46946725249290466
			],
			"translation":[
				-0.052560001611709595,
				0.20323002338409424,
				0
			]
		},
		{
			"children":[
				2,
				7,
				12
			],
			"name":"Chest",
			"scale":[
				1,
				0.9999999403953552,
				1
			],
			"translation":[
				0,
				0.19272005558013916,
				0
			]
		},
		{
			"children":[
				13
			],
			"name":"Spine",
			"translation":[
				0,
				0.10861998796463013,
				0
			]
		},
		{
			"name":"Foot.L",
			"rotation":[
				-0.5513997673988342,
				0.11926622688770294,
				-0.14663252234458923,
				0.8125471472740173
			],
			"scale":[
				0.9999998807907104,
				1,
				1
			],
			"translation":[
				-1.6693407545176342e-08,
				0.3999788165092468,
				6.936606844476501e-10
			]
		},
		{
			"children":[
				15
			],
			"name":"LowerLeg.L",
			"rotation":[
				0.02509729191660881,
				2.9330656161619117e-06,
				0.0010926700197160244,
				0.9996843934059143
			],
			"scale":[
				1,
				0.9999998807907104,
				0.9999998807907104
			],
			"translation":[
				-2.648448571562767e-09,
				0.43854302167892456,
				9.313225746154785e-10
			]
		},
		{
			"children":[
				16
			],
			"name":"UpperLeg.L",
			"rotation":[
				0.9994468092918396,
				0.022065481171011925,
				0.02206522598862648,
				0.011502329260110855
			],
			"scale":[
				1.0000009536743164,
				0.9999997019767761,
				1.000000238418579
			],
			"translation":[
				0.10143999755382538,
				0,
				0
			]
		},
		{
			"name":"Foot.R",
			"rotation":[
				-0.5513997673988342,
				-0.11926622688770294,
				0.14663252234458923,
				0.8125471472740173
			],
			"scale":[
				0.9999998807907104,
				1,
				1
			],
			"translation":[
				1.6693407545176342e-08,
				0.3999788165092468,
				6.936606844476501e-10
			]
		},
		{
			"children":[
				18
			],
			"name":"LowerLeg.R",
			"rotation":[
				0.02509729191660881,
				-2.9330656161619117e-06,
				-0.0010926700197160244,
				0.9996843934059143
			],
			"scale":[
				1,
				0.9999998807907104,
				0.9999998807907104
			],
			"translation":[
				2.648448571562767e-09,
				0.43854302167892456,
				9.313225746154785e-10
			]
		},
		{
			"children":[
				19
			],
			"name":"UpperLeg.R",
			"rotation":[
				0.9994468092918396,
				-0.022065481171011925,
				-0.02206522598862648,
				0.011502329260110855
			],
			"scale":[
				1.0000009536743164,
				0.9999997019767761,
				1.000000238418579
			],
			"translation":[
				-0.10143999755382538,
				0,
				0
			]
		},
		{
			"name":"Pouch",
			"rotation":[
				1,
				0,
				-4.371138828673793e-08,
				0
			],
			"translation":[
				-0.18156999349594116,
				0.09494000673294067,
				0.11183000355958939
			]
		},
		{
			"name":"Flask",
			"rotation":[
				-0.9961389303207397,
				-0.06201724335551262,
				-0.06201737001538277,
				0.003861062228679657
			],
			"scale":[
				0.9999957084655762,
				0.9999998807907104,
				0.9999999403953552
			],
			"translation":[
				0.21186000108718872,
				0.05494004487991333,
				0.06415999680757523
			]
		},
		{
			"children":[
				14,
				17,
				20,
				21,
				22
			],
			"name":"Hips",
			"translation":[
				0,
				0.925059974193573,
				0
			]
		},
		{
			"children":[
				23
			],
			"name":"Root"
		},
		{
			"mesh":0,
			"name":"Handgunner",
			"skin":0
		},
		{
			"children":[
				25,
				24
			],
			"name":"Handgunner_Rig"
		}
	],
	"materials":[
		{
			"doubleSided":true,
			"emissiveFactor":[
				1,
				1,
				1
			],
			"emissiveTexture":{
				"index":0
			},
			"extensions":{
				"KHR_materials_emissive_strength":{
					"emissiveStrength":9
				}
			},
			"name":"Handgunner",
			"pbrMetallicRoughness":{
				"baseColorTexture":{
					"index":1
				},
				"metallicRoughnessTexture":{
					"index":2
				}
			}
		}
	],
	"meshes":[
		{
			"name":"Handgunner",
			"primitives":[
				{
					"attributes":{
						"POSITION":0,
						"NORMAL":1,
						"TEXCOORD_0":2,
						"JOINTS_0":3,
						"WEIGHTS_0":4
					},
					"indices":5,
					"material":0
				}
			]
		}
	],
	"textures":[
		{
			"sampler":0,
			"source":0
		},
		{
			"sampler":0,
			"source":1
		},
		{
			"sampler":0,
			"source":2
		}
	],
	"images":[
		{
			"mimeType":"image/png",
			"name":"Handgunner_Emission",
			"uri":"Handgunner_Emission.png"
		},
		{
			"mimeType":"image/png",
			"name":"Handgunner_BaseMap",
			"uri":"Handgunner_BaseMap.png"
		},
		{
			"mimeType":"image/png",
			"name":"Handgunner_ORM",
			"uri":"Handgunner_ORM.png"
		}
	],
	"skins":[
		{
			"inverseBindMatrices":6,
			"joints":[
				24,
				23,
				14,
				13,
				2,
				1,
				0,
				7,
				6,
				5,
				4,
				3,
				12,
				11,
				10,
				9,
				8,
				17,
				16,
				15,
				20,
				19,
				18,
				21,
				22
			],
			"name":"Handgunner_Rig"
		}
	],
	"accessors":[
		{
			"bufferView":0,
			"componentType":5126,
			"count":6244,
			"max":[
				0.33545973896980286,
				1.7792210578918457,
				0.32239165902137756
			],
			"min":[
				-0.3579419255256653,
				0,
				-0.22662591934204102
			],
			"type":"VEC3"
		},
		{
			"bufferView":1,
			"componentType":5126,
			"count":6244,
			"type":"VEC3"
		},
		{
			"bufferView":2,
			"componentType":5126,
			"count":6244,
			"type":"VEC2"
		},
		{
			"bufferView":3,
			"componentType":5121,
			"count":6244,
			"type":"VEC4"
		},
		{
			"bufferView":4,
			"componentType":5126,
			"count":6244,
			"type":"VEC4"
		},
		{
			"bufferView":5,
			"componentType":5123,
			"count":18918,
			"type":"SCALAR"
		},
		{
			"bufferView":6,
			"componentType":5126,
			"count":25,
			"type":"MAT4"
		}
	],
	"bufferViews":[
		{
			"buffer":0,
			"byteLength":74928,
			"byteOffset":0,
			"target":34962
		},
		{
			"buffer":0,
			"byteLength":74928,
			"byteOffset":74928,
			"target":34962
		},
		{
			"buffer":0,
			"byteLength":49952,
			"byteOffset":149856,
			"target":34962
		},
		{
			"buffer":0,
			"byteLength":24976,
			"byteOffset":199808,
			"target":34962
		},
		{
			"buffer":0,
			"byteLength":99904,
			"byteOffset":224784,
			"target":34962
		},
		{
			"buffer":0,
			"byteLength":37836,
			"byteOffset":324688,
			"target":34963
		},
		{
			"buffer":0,
			"byteLength":1600,
			"byteOffset":362524
		}
	],
	"samplers":[
		{
			"magFilter":9729,
			"minFilter":9987
		}
	],
	"buffers":[
		{
			"byteLength":364124,
			"uri":"Handgunner.bin"
		}
	]
}
