{
	"asset":{
		"generator":"Khronos glTF Blender I/O v5.0.21",
		"version":"2.0"
	},
	"extensionsUsed":[
		"KHR_materials_emissive_strength"
	],
	"scene":0,
	"scenes":[
		{
			"name":"Scene",
			"nodes":[
				0
			]
		}
	],
	"nodes":[
		{
			"mesh":0,
			"name":"ParadeArmourOnItsStand"
		}
	],
	"materials":[
		{
			"doubleSided":true,
			"emissiveFactor":[
				1,
				1,
				1
			],
			"emissiveTexture":{
				"index":0
			},
			"extensions":{
				"KHR_materials_emissive_strength":{
					"emissiveStrength":9
				}
			},
			"name":"ParadeArmourOnItsStand",
			"pbrMetallicRoughness":{
				"baseColorTexture":{
					"index":1
				},
				"metallicRoughnessTexture":{
					"index":2
				}
			}
		}
	],
	"meshes":[
		{
			"name":"ParadeArmourOnItsStand",
			"primitives":[
				{
					"attributes":{
						"POSITION":0,
						"NORMAL":1,
						"TEXCOORD_0":2
					},
					"indices":3,
					"material":0
				}
			]
		}
	],
	"textures":[
		{
			"sampler":0,
			"source":0
		},
		{
			"sampler":0,
			"source":1
		},
		{
			"sampler":0,
			"source":2
		}
	],
	"images":[
		{
			"mimeType":"image/png",
			"name":"ParadeArmourOnItsStand_Emission",
			"uri":"ParadeArmourOnItsStand_Emission.png"
		},
		{
			"mimeType":"image/png",
			"name":"ParadeArmourOnItsStand_BaseMap",
			"uri":"ParadeArmourOnItsStand_BaseMap.png"
		},
		{
			"mimeType":"image/png",
			"name":"ParadeArmourOnItsStand_ORM",
			"uri":"ParadeArmourOnItsStand_ORM.png"
		}
	],
	"accessors":[
		{
			"bufferView":0,
			"componentType":5126,
			"count":4025,
			"max":[
				0.36709868907928467,
				1.9075813293457031,
				0.36000001430511475
			],
			"min":[
				-0.36709868907928467,
				0,
				-0.36000001430511475
			],
			"type":"VEC3"
		},
		{
			"bufferView":1,
			"componentType":5126,
			"count":4025,
			"type":"VEC3"
		},
		{
			"bufferView":2,
			"componentType":5126,
			"count":4025,
			"type":"VEC2"
		},
		{
			"bufferView":3,
			"componentType":5123,
			"count":12210,
			"type":"SCALAR"
		}
	],
	"bufferViews":[
		{
			"buffer":0,
			"byteLength":48300,
			"byteOffset":0,
			"target":34962
		},
		{
			"buffer":0,
			"byteLength":48300,
			"byteOffset":48300,
			"target":34962
		},
		{
			"buffer":0,
			"byteLength":32200,
			"byteOffset":96600,
			"target":34962
		},
		{
			"buffer":0,
			"byteLength":24420,
			"byteOffset":128800,
			"target":34963
		}
	],
	"samplers":[
		{
			"magFilter":9729,
			"minFilter":9987
		}
	],
	"buffers":[
		{
			"byteLength":153220,
			"uri":"ParadeArmourOnItsStand.bin"
		}
	]
}
