{
	"asset":{
		"generator":"Khronos glTF Blender I/O v5.0.21",
		"version":"2.0"
	},
	"extensionsUsed":[
		"KHR_materials_emissive_strength"
	],
	"scene":0,
	"scenes":[
		{
			"name":"Scene",
			"nodes":[
				0
			]
		}
	],
	"nodes":[
		{
			"mesh":0,
			"name":"SilverEwer"
		}
	],
	"materials":[
		{
			"doubleSided":true,
			"emissiveFactor":[
				1,
				1,
				1
			],
			"emissiveTexture":{
				"index":0
			},
			"extensions":{
				"KHR_materials_emissive_strength":{
					"emissiveStrength":9
				}
			},
			"name":"SilverEwer",
			"pbrMetallicRoughness":{
				"baseColorTexture":{
					"index":1
				},
				"metallicRoughnessTexture":{
					"index":2
				}
			}
		}
	],
	"meshes":[
		{
			"name":"SilverEwer",
			"primitives":[
				{
					"attributes":{
						"POSITION":0,
						"NORMAL":1,
						"TEXCOORD_0":2
					},
					"indices":3,
					"material":0
				}
			]
		}
	],
	"textures":[
		{
			"sampler":0,
			"source":0
		},
		{
			"sampler":0,
			"source":1
		},
		{
			"sampler":0,
			"source":2
		}
	],
	"images":[
		{
			"mimeType":"image/png",
			"name":"SilverEwer_Emission",
			"uri":"SilverEwer_Emission.png"
		},
		{
			"mimeType":"image/png",
			"name":"SilverEwer_BaseMap",
			"uri":"SilverEwer_BaseMap.png"
		},
		{
			"mimeType":"image/png",
			"name":"SilverEwer_ORM",
			"uri":"SilverEwer_ORM.png"
		}
	],
	"accessors":[
		{
			"bufferView":0,
			"componentType":5126,
			"count":1334,
			"max":[
				0.12173870205879211,
				0.3399999737739563,
				0.0819995105266571
			],
			"min":[
				-0.11150000244379044,
				0,
				-0.07999999821186066
			],
			"type":"VEC3"
		},
		{
			"bufferView":1,
			"componentType":5126,
			"count":1334,
			"type":"VEC3"
		},
		{
			"bufferView":2,
			"componentType":5126,
			"count":1334,
			"type":"VEC2"
		},
		{
			"bufferView":3,
			"componentType":5123,
			"count":4368,
			"type":"SCALAR"
		}
	],
	"bufferViews":[
		{
			"buffer":0,
			"byteLength":16008,
			"byteOffset":0,
			"target":34962
		},
		{
			"buffer":0,
			"byteLength":16008,
			"byteOffset":16008,
			"target":34962
		},
		{
			"buffer":0,
			"byteLength":10672,
			"byteOffset":32016,
			"target":34962
		},
		{
			"buffer":0,
			"byteLength":8736,
			"byteOffset":42688,
			"target":34963
		}
	],
	"samplers":[
		{
			"magFilter":9729,
			"minFilter":9987
		}
	],
	"buffers":[
		{
			"byteLength":51424,
			"uri":"SilverEwer.bin"
		}
	]
}
