{
	"asset":{
		"generator":"Khronos glTF Blender I/O v5.0.21",
		"version":"2.0"
	},
	"extensionsUsed":[
		"KHR_materials_emissive_strength"
	],
	"scene":0,
	"scenes":[
		{
			"name":"Scene",
			"nodes":[
				26
			]
		}
	],
	"nodes":[
		{
			"name":"Crest",
			"translation":[
				0,
				0.3300001621246338,
				0
			]
		},
		{
			"children":[
				0
			],
			"name":"Helm",
			"scale":[
				1,
				0.9999999403953552,
				1
			],
			"translation":[
				0,
				-0.03471994400024414,
				0.012000000104308128
			]
		},
		{
			"children":[
				1
			],
			"name":"Head",
			"translation":[
				0,
				0.08095991611480713,
				0
			]
		},
		{
			"children":[
				2
			],
			"name":"Neck",
			"translation":[
				0,
				0.22176003456115723,
				0
			]
		},
		{
			"name":"Hand.L",
			"rotation":[
				-3.9457347156712785e-05,
				0.00013360381126403809,
				-2.824049624905456e-05,
				1
			],
			"scale":[
				1,
				0.9999999403953552,
				0.9999998807907104
			],
			"translation":[
				-6.705522537231445e-08,
				0.255199670791626,
				-5.21540641784668e-08
			]
		},
		{
			"name":"Shield",
			"rotation":[
				-9.375625268148724e-06,
				3.188103437423706e-05,
				-6.775372185074957e-06,
				1
			],
			"scale":[
				1,
				0.9999999403953552,
				0.9999999403953552
			],
			"translation":[
				-9.301584213972092e-08,
				-1.1140946298837662e-07,
				-3.183959051966667e-08
			]
		},
		{
			"children":[
				4,
				5
			],
			"name":"LowerArm.L",
			"rotation":[
				-0.2907121479511261,
				-0.6655033230781555,
				0.624672532081604,
				0.2870122194290161
			],
			"scale":[
				1,
				0.9999997615814209,
				1
			],
			"translation":[
				-4.3015461415052414e-08,
				0.30272164940834045,
				1.862645149230957e-09
			]
		},
		{
			"children":[
				6
			],
			"name":"UpperArm.L",
			"rotation":[
				-0.3492206633090973,
				-0.35868367552757263,
				0.16992917656898499,
				0.8488315343856812
			],
			"scale":[
				0.9999998807907104,
				0.9999998807907104,
				0.9999998807907104
			],
			"translation":[
				-2.071261384628542e-09,
				0.11870892345905304,
				1.5555710319858918e-07
			]
		},
		{
			"children":[
				7
			],
			"name":"Shoulder.L",
			"rotation":[
				-0.5296524167060852,
				-0.49911996722221375,
				-0.49911996722221375,
				0.4703475534915924
			],
			"scale":[
				1.000000238418579,
				1.0000001192092896,
				1.0000001192092896
			],
			"translation":[
				0.052799999713897705,
				0.20415997505187988,
				0
			]
		},
		{
			"name":"Sword",
			"rotation":[
				0.14350445568561554,
				0.07390937209129333,
				-0.07412666082382202,
				0.9840981364250183
			],
			"scale":[
				1.0000001192092896,
				1,
				1.000000238418579
			],
			"translation":[
				-3.725290298461914e-09,
				0.07919970899820328,
				1.4901161193847656e-08
			]
		},
		{
			"children":[
				9
			],
			"name":"Hand.R",
			"rotation":[
				-1.5161932651608367e-06,
				2.797693241518573e-06,
				-1.346692442893982e-06,
				1
			],
			"scale":[
				0.9999998807907104,
				1,
				0.9999999403953552
			],
			"translation":[
				3.5390257835388184e-08,
				0.2551998794078827,
				1.4901161193847656e-08
			]
		},
		{
			"children":[
				10
			],
			"name":"LowerArm.R",
			"rotation":[
				-0.20337173342704773,
				-6.152662081149174e-06,
				0.04323126748204231,
				0.9781467318534851
			],
			"scale":[
				0.9999999403953552,
				0.9999998807907104,
				1.0000001192092896
			],
			"translation":[
				3.259629011154175e-08,
				0.30271607637405396,
				1.862645149230957e-09
			]
		},
		{
			"children":[
				11
			],
			"name":"UpperArm.R",
			"rotation":[
				-0.48593905568122864,
				0.5066155195236206,
				-0.363068550825119,
				0.6126868724822998
			],
			"scale":[
				1,
				0.9999998211860657,
				0.9999999403953552
			],
			"translation":[
				2.071261384628542e-09,
				0.11870892345905304,
				1.5555710319858918e-07
			]
		},
		{
			"children":[
				12
			],
			"name":"Shoulder.R",
			"rotation":[
				-0.5296524167060852,
				0.49911996722221375,
				0.49911996722221375,
				0.4703475534915924
			],
			"scale":[
				1.000000238418579,
				1.0000001192092896,
				1.0000001192092896
			],
			"translation":[
				-0.052799999713897705,
				0.20415997505187988,
				0
			]
		},
		{
			"children":[
				3,
				8,
				13
			],
			"name":"Chest",
			"translation":[
				0,
				0.19359993934631348,
				0
			]
		},
		{
			"children":[
				14
			],
			"name":"Spine",
			"translation":[
				0,
				0.10912007093429565,
				0
			]
		},
		{
			"name":"Foot.L",
			"rotation":[
				-0.5515941977500916,
				0.10153374075889587,
				-0.14305910468101501,
				0.815456211566925
			],
			"scale":[
				1.0000001192092896,
				0.9999998807907104,
				1
			],
			"translation":[
				1.0981043629954002e-08,
				0.4023985266685486,
				-7.062586071526766e-10
			]
		},
		{
			"children":[
				16
			],
			"name":"LowerLeg.L",
			"rotation":[
				0.02502734772861004,
				-2.8297210974415066e-06,
				0.001752936514094472,
				0.9996852278709412
			],
			"scale":[
				1.0000001192092896,
				1,
				1
			],
			"translation":[
				1.3271346688270569e-08,
				0.44120103120803833,
				-9.313225746154785e-10
			]
		},
		{
			"children":[
				17
			],
			"name":"UpperLeg.L",
			"rotation":[
				0.9986957907676697,
				0.035295795649290085,
				0.03529460355639458,
				0.010735508054494858
			],
			"scale":[
				1.0000064373016357,
				0.9999998211860657,
				1.0000007152557373
			],
			"translation":[
				0.10254999995231628,
				0,
				0
			]
		},
		{
			"name":"Foot.R",
			"rotation":[
				-0.5515941977500916,
				-0.10153374075889587,
				0.14305910468101501,
				0.815456211566925
			],
			"scale":[
				1.0000001192092896,
				0.9999998807907104,
				1
			],
			"translation":[
				-1.0981043629954002e-08,
				0.4023985266685486,
				-7.062586071526766e-10
			]
		},
		{
			"children":[
				19
			],
			"name":"LowerLeg.R",
			"rotation":[
				0.02502734772861004,
				2.8297210974415066e-06,
				-0.001752936514094472,
				0.9996852278709412
			],
			"scale":[
				1.0000001192092896,
				1,
				1
			],
			"translation":[
				-1.3271346688270569e-08,
				0.44120103120803833,
				-9.313225746154785e-10
			]
		},
		{
			"children":[
				20
			],
			"name":"UpperLeg.R",
			"rotation":[
				0.9986957907676697,
				-0.035295795649290085,
				-0.03529460355639458,
				0.010735508054494858
			],
			"scale":[
				1.0000064373016357,
				0.9999998211860657,
				1.0000007152557373
			],
			"translation":[
				-0.10254999995231628,
				0,
				0
			]
		},
		{
			"name":"Scabbard",
			"rotation":[
				-0.9757494926452637,
				-0.025183700025081635,
				-0.02518361434340477,
				0.21597345173358917
			],
			"scale":[
				0.9999999403953552,
				1,
				0.9999992251396179
			],
			"translation":[
				0.23101000487804413,
				0.020319998264312744,
				-0.08230999857187271
			]
		},
		{
			"children":[
				15,
				18,
				21,
				22
			],
			"name":"Hips",
			"translation":[
				0,
				0.9292799830436707,
				0
			]
		},
		{
			"children":[
				23
			],
			"name":"Root"
		},
		{
			"mesh":0,
			"name":"HouseholdKnight",
			"skin":0
		},
		{
			"children":[
				25,
				24
			],
			"name":"HouseholdKnight_Rig"
		}
	],
	"materials":[
		{
			"doubleSided":true,
			"emissiveFactor":[
				1,
				1,
				1
			],
			"emissiveTexture":{
				"index":0
			},
			"extensions":{
				"KHR_materials_emissive_strength":{
					"emissiveStrength":9
				}
			},
			"name":"HouseholdKnight",
			"pbrMetallicRoughness":{
				"baseColorTexture":{
					"index":1
				},
				"metallicRoughnessTexture":{
					"index":2
				}
			}
		}
	],
	"meshes":[
		{
			"name":"HouseholdKnight",
			"primitives":[
				{
					"attributes":{
						"POSITION":0,
						"NORMAL":1,
						"TEXCOORD_0":2,
						"JOINTS_0":3,
						"WEIGHTS_0":4
					},
					"indices":5,
					"material":0
				}
			]
		}
	],
	"textures":[
		{
			"sampler":0,
			"source":0
		},
		{
			"sampler":0,
			"source":1
		},
		{
			"sampler":0,
			"source":2
		}
	],
	"images":[
		{
			"mimeType":"image/png",
			"name":"HouseholdKnight_Emission",
			"uri":"HouseholdKnight_Emission.png"
		},
		{
			"mimeType":"image/png",
			"name":"HouseholdKnight_BaseMap",
			"uri":"HouseholdKnight_BaseMap.png"
		},
		{
			"mimeType":"image/png",
			"name":"HouseholdKnight_ORM",
			"uri":"HouseholdKnight_ORM.png"
		}
	],
	"skins":[
		{
			"inverseBindMatrices":6,
			"joints":[
				24,
				23,
				15,
				14,
				3,
				2,
				1,
				0,
				8,
				7,
				6,
				4,
				5,
				13,
				12,
				11,
				10,
				9,
				18,
				17,
				16,
				21,
				20,
				19,
				22
			],
			"name":"HouseholdKnight_Rig"
		}
	],
	"accessors":[
		{
			"bufferView":0,
			"componentType":5126,
			"count":5750,
			"max":[
				0.5400000214576721,
				1.9500000476837158,
				0.3817943334579468
			],
			"min":[
				-0.39568060636520386,
				0,
				-0.4463288486003876
			],
			"type":"VEC3"
		},
		{
			"bufferView":1,
			"componentType":5126,
			"count":5750,
			"type":"VEC3"
		},
		{
			"bufferView":2,
			"componentType":5126,
			"count":5750,
			"type":"VEC2"
		},
		{
			"bufferView":3,
			"componentType":5121,
			"count":5750,
			"type":"VEC4"
		},
		{
			"bufferView":4,
			"componentType":5126,
			"count":5750,
			"type":"VEC4"
		},
		{
			"bufferView":5,
			"componentType":5123,
			"count":16722,
			"type":"SCALAR"
		},
		{
			"bufferView":6,
			"componentType":5126,
			"count":25,
			"type":"MAT4"
		}
	],
	"bufferViews":[
		{
			"buffer":0,
			"byteLength":69000,
			"byteOffset":0,
			"target":34962
		},
		{
			"buffer":0,
			"byteLength":69000,
			"byteOffset":69000,
			"target":34962
		},
		{
			"buffer":0,
			"byteLength":46000,
			"byteOffset":138000,
			"target":34962
		},
		{
			"buffer":0,
			"byteLength":23000,
			"byteOffset":184000,
			"target":34962
		},
		{
			"buffer":0,
			"byteLength":92000,
			"byteOffset":207000,
			"target":34962
		},
		{
			"buffer":0,
			"byteLength":33444,
			"byteOffset":299000,
			"target":34963
		},
		{
			"buffer":0,
			"byteLength":1600,
			"byteOffset":332444
		}
	],
	"samplers":[
		{
			"magFilter":9729,
			"minFilter":9987
		}
	],
	"buffers":[
		{
			"byteLength":334044,
			"uri":"HouseholdKnight.bin"
		}
	]
}
