{
	"asset":{
		"generator":"Khronos glTF Blender I/O v5.0.21",
		"version":"2.0"
	},
	"extensionsUsed":[
		"KHR_materials_emissive_strength"
	],
	"scene":0,
	"scenes":[
		{
			"name":"Scene",
			"nodes":[
				25
			]
		}
	],
	"nodes":[
		{
			"name":"SalletTail",
			"rotation":[
				-0.7882055640220642,
				0,
				0,
				0.6154120564460754
			],
			"translation":[
				0,
				0.015000118874013424,
				-0.11295000463724136
			]
		},
		{
			"children":[
				0
			],
			"name":"Sallet",
			"rotation":[
				-3.552713678800501e-15,
				0,
				0,
				1
			],
			"translation":[
				0,
				0.047660112380981445,
				-0.007050000596791506
			]
		},
		{
			"children":[
				1
			],
			"name":"Head",
			"rotation":[
				-3.552713678800501e-15,
				0,
				0,
				1
			],
			"translation":[
				0,
				0.0811002254486084,
				0
			]
		},
		{
			"children":[
				2
			],
			"name":"Neck",
			"rotation":[
				-3.552713678800501e-15,
				0,
				0,
				1
			],
			"translation":[
				0,
				0.22214019298553467,
				0
			]
		},
		{
			"name":"Hand.L",
			"rotation":[
				2.5169923901557922e-05,
				1.8905849685779685e-07,
				5.173496901988983e-06,
				1
			],
			"scale":[
				0.9999999403953552,
				1,
				1
			],
			"translation":[
				3.725290298461914e-08,
				0.2556442320346832,
				0
			]
		},
		{
			"children":[
				4
			],
			"name":"LowerArm.L",
			"rotation":[
				-0.1192220002412796,
				-8.381997758988291e-06,
				-0.025333747267723083,
				0.992544412612915
			],
			"scale":[
				0.9999998807907104,
				1,
				1
			],
			"translation":[
				-2.9569491744041443e-08,
				0.3032374680042267,
				9.313225746154785e-10
			]
		},
		{
			"children":[
				5
			],
			"name":"UpperArm.L",
			"rotation":[
				-0.4675539433956146,
				-0.49015021324157715,
				0.3845275640487671,
				0.6271241307258606
			],
			"scale":[
				0.9999999403953552,
				0.9999998211860657,
				0.9999998807907104
			],
			"translation":[
				1.521427250850138e-08,
				0.1155153140425682,
				8.565541520511033e-08
			]
		},
		{
			"children":[
				6
			],
			"name":"Shoulder.L",
			"rotation":[
				-0.5305150747299194,
				-0.49906790256500244,
				-0.4990679621696472,
				0.4694848954677582
			],
			"scale":[
				0.9999998807907104,
				0.9999998211860657,
				1
			],
			"translation":[
				0.052889999002218246,
				0.20451009273529053,
				0
			]
		},
		{
			"name":"Halberd",
			"rotation":[
				-0.8987573981285095,
				0.19028283655643463,
				0.19028295576572418,
				0.3461502194404602
			],
			"scale":[
				1.0000001192092896,
				1,
				1
			],
			"translation":[
				4.284083843231201e-06,
				0.0793367251753807,
				-2.3990869522094727e-06
			]
		},
		{
			"children":[
				8
			],
			"name":"Hand.R",
			"rotation":[
				1.8104910850524902e-05,
				5.7347118854522705e-05,
				-3.104284405708313e-05,
				1
			],
			"translation":[
				1.0803341865539551e-07,
				0.25563478469848633,
				-4.470348358154297e-08
			]
		},
		{
			"children":[
				9
			],
			"name":"LowerArm.R",
			"rotation":[
				-0.31133338809013367,
				-3.194898818037473e-05,
				0.09521113336086273,
				0.9455190896987915
			],
			"scale":[
				1.0000001192092896,
				1.0000001192092896,
				0.9999999403953552
			],
			"translation":[
				-9.220093488693237e-08,
				0.30323857069015503,
				1.3969838619232178e-08
			]
		},
		{
			"children":[
				10
			],
			"name":"UpperArm.R",
			"rotation":[
				-0.47364911437034607,
				0.49221229553222656,
				-0.3186296224594116,
				0.6571595668792725
			],
			"scale":[
				0.9999999403953552,
				0.9999998211860657,
				0.9999998807907104
			],
			"translation":[
				-1.521427250850138e-08,
				0.1155153140425682,
				8.565541520511033e-08
			]
		},
		{
			"children":[
				11
			],
			"name":"Shoulder.R",
			"rotation":[
				-0.5305150747299194,
				0.49906790256500244,
				0.4990679621696472,
				0.4694848954677582
			],
			"scale":[
				0.9999998807907104,
				0.9999998211860657,
				1
			],
			"translation":[
				-0.052889999002218246,
				0.20451009273529053,
				0
			]
		},
		{
			"children":[
				3,
				7,
				12
			],
			"name":"Chest",
			"rotation":[
				-3.552713678800501e-15,
				0,
				0,
				1
			],
			"translation":[
				0,
				0.19393014907836914,
				0
			]
		},
		{
			"children":[
				13
			],
			"name":"Spine",
			"rotation":[
				-3.552713678800501e-15,
				0,
				0,
				1
			],
			"translation":[
				0,
				0.10930997133255005,
				0
			]
		},
		{
			"name":"Foot.L",
			"rotation":[
				-0.5513918399810791,
				0.11927473545074463,
				-0.14664335548877716,
				0.8125492334365845
			],
			"scale":[
				1,
				1.0000001192092896,
				1
			],
			"translation":[
				-1.8929673828438354e-08,
				0.40248191356658936,
				7.033242876985923e-10
			]
		},
		{
			"children":[
				15
			],
			"name":"LowerLeg.L",
			"rotation":[
				0.0251071285456419,
				4.0292443372891285e-06,
				0.0010920303175225854,
				0.9996841549873352
			],
			"scale":[
				1,
				0.9999998807907104,
				0.9999999403953552
			],
			"translation":[
				6.606569513678551e-09,
				0.44129645824432373,
				9.313225746154785e-10
			]
		},
		{
			"children":[
				16
			],
			"name":"UpperLeg.L",
			"rotation":[
				0.9994467496871948,
				0.022065529599785805,
				0.022065233439207077,
				0.011506875976920128
			],
			"scale":[
				1.0000011920928955,
				1.0000003576278687,
				1.0000003576278687
			],
			"translation":[
				0.10042999684810638,
				5.960464477539063e-08,
				0
			]
		},
		{
			"name":"Foot.R",
			"rotation":[
				-0.5513918399810791,
				-0.11927473545074463,
				0.14664335548877716,
				0.8125492334365845
			],
			"scale":[
				1,
				1.0000001192092896,
				1
			],
			"translation":[
				1.8929673828438354e-08,
				0.40248191356658936,
				7.033242876985923e-10
			]
		},
		{
			"children":[
				18
			],
			"name":"LowerLeg.R",
			"rotation":[
				0.0251071285456419,
				-4.0292443372891285e-06,
				-0.0010920303175225854,
				0.9996841549873352
			],
			"scale":[
				1,
				0.9999998807907104,
				0.9999999403953552
			],
			"translation":[
				-6.606569513678551e-09,
				0.44129645824432373,
				9.313225746154785e-10
			]
		},
		{
			"children":[
				19
			],
			"name":"UpperLeg.R",
			"rotation":[
				0.9994467496871948,
				-0.022065529599785805,
				-0.022065233439207077,
				0.011506875976920128
			],
			"scale":[
				1.0000011920928955,
				1.0000003576278687,
				1.0000003576278687
			],
			"translation":[
				-0.10042999684810638,
				5.960464477539063e-08,
				0
			]
		},
		{
			"name":"Baselard",
			"rotation":[
				1,
				-2.117582368135751e-22,
				-4.371138828673793e-08,
				3.552713678800501e-15
			],
			"translation":[
				-0.19203999638557434,
				0.16914002597332,
				0.09007000178098679
			]
		},
		{
			"children":[
				14,
				17,
				20,
				21
			],
			"name":"Hips",
			"rotation":[
				-3.552713678800501e-15,
				0,
				0,
				1
			],
			"translation":[
				0,
				0.9308600425720215,
				0
			]
		},
		{
			"children":[
				22
			],
			"name":"Root",
			"rotation":[
				-2.980232594040899e-08,
				0,
				0,
				1
			],
			"scale":[
				1,
				0.9999999403953552,
				0.9999999403953552
			]
		},
		{
			"mesh":0,
			"name":"SalletHalberdier",
			"skin":0
		},
		{
			"children":[
				24,
				23
			],
			"name":"SalletHalberdier_Rig"
		}
	],
	"materials":[
		{
			"doubleSided":true,
			"emissiveFactor":[
				1,
				1,
				1
			],
			"emissiveTexture":{
				"index":0
			},
			"extensions":{
				"KHR_materials_emissive_strength":{
					"emissiveStrength":9
				}
			},
			"name":"SalletHalberdier",
			"pbrMetallicRoughness":{
				"baseColorTexture":{
					"index":1
				},
				"metallicRoughnessTexture":{
					"index":2
				}
			}
		}
	],
	"meshes":[
		{
			"name":"SalletHalberdier",
			"primitives":[
				{
					"attributes":{
						"POSITION":0,
						"NORMAL":1,
						"TEXCOORD_0":2,
						"JOINTS_0":3,
						"WEIGHTS_0":4
					},
					"indices":5,
					"material":0
				}
			]
		}
	],
	"textures":[
		{
			"sampler":0,
			"source":0
		},
		{
			"sampler":0,
			"source":1
		},
		{
			"sampler":0,
			"source":2
		}
	],
	"images":[
		{
			"mimeType":"image/png",
			"name":"SalletHalberdier_Emission",
			"uri":"SalletHalberdier_Emission.png"
		},
		{
			"mimeType":"image/png",
			"name":"SalletHalberdier_BaseMap",
			"uri":"SalletHalberdier_BaseMap.png"
		},
		{
			"mimeType":"image/png",
			"name":"SalletHalberdier_ORM",
			"uri":"SalletHalberdier_ORM.png"
		}
	],
	"skins":[
		{
			"inverseBindMatrices":6,
			"joints":[
				23,
				22,
				14,
				13,
				3,
				2,
				1,
				0,
				7,
				6,
				5,
				4,
				12,
				11,
				10,
				9,
				8,
				17,
				16,
				15,
				20,
				19,
				18,
				21
			],
			"name":"SalletHalberdier_Rig"
		}
	],
	"accessors":[
		{
			"bufferView":0,
			"componentType":5126,
			"count":8599,
			"max":[
				0.33286458253860474,
				2.051645278930664,
				0.322295218706131
			],
			"min":[
				-0.4988112449645996,
				0,
				-0.2970519959926605
			],
			"type":"VEC3"
		},
		{
			"bufferView":1,
			"componentType":5126,
			"count":8599,
			"type":"VEC3"
		},
		{
			"bufferView":2,
			"componentType":5126,
			"count":8599,
			"type":"VEC2"
		},
		{
			"bufferView":3,
			"componentType":5121,
			"count":8599,
			"type":"VEC4"
		},
		{
			"bufferView":4,
			"componentType":5126,
			"count":8599,
			"type":"VEC4"
		},
		{
			"bufferView":5,
			"componentType":5123,
			"count":19248,
			"type":"SCALAR"
		},
		{
			"bufferView":6,
			"componentType":5126,
			"count":24,
			"type":"MAT4"
		}
	],
	"bufferViews":[
		{
			"buffer":0,
			"byteLength":103188,
			"byteOffset":0,
			"target":34962
		},
		{
			"buffer":0,
			"byteLength":103188,
			"byteOffset":103188,
			"target":34962
		},
		{
			"buffer":0,
			"byteLength":68792,
			"byteOffset":206376,
			"target":34962
		},
		{
			"buffer":0,
			"byteLength":34396,
			"byteOffset":275168,
			"target":34962
		},
		{
			"buffer":0,
			"byteLength":137584,
			"byteOffset":309564,
			"target":34962
		},
		{
			"buffer":0,
			"byteLength":38496,
			"byteOffset":447148,
			"target":34963
		},
		{
			"buffer":0,
			"byteLength":1536,
			"byteOffset":485644
		}
	],
	"samplers":[
		{
			"magFilter":9729,
			"minFilter":9987
		}
	],
	"buffers":[
		{
			"byteLength":487180,
			"uri":"SalletHalberdier.bin"
		}
	]
}
