{
	"asset":{
		"generator":"Khronos glTF Blender I/O v5.0.21",
		"version":"2.0"
	},
	"extensionsUsed":[
		"KHR_materials_emissive_strength"
	],
	"scene":0,
	"scenes":[
		{
			"name":"Scene",
			"nodes":[
				0
			]
		}
	],
	"nodes":[
		{
			"mesh":0,
			"name":"CoinCoffer"
		}
	],
	"materials":[
		{
			"doubleSided":true,
			"emissiveFactor":[
				1,
				1,
				1
			],
			"emissiveTexture":{
				"index":0
			},
			"extensions":{
				"KHR_materials_emissive_strength":{
					"emissiveStrength":9
				}
			},
			"name":"CoinCoffer",
			"pbrMetallicRoughness":{
				"baseColorTexture":{
					"index":1
				},
				"metallicRoughnessTexture":{
					"index":2
				}
			}
		}
	],
	"meshes":[
		{
			"name":"CoinCoffer",
			"primitives":[
				{
					"attributes":{
						"POSITION":0,
						"NORMAL":1,
						"TEXCOORD_0":2
					},
					"indices":3,
					"material":0
				}
			]
		}
	],
	"textures":[
		{
			"sampler":0,
			"source":0
		},
		{
			"sampler":0,
			"source":1
		},
		{
			"sampler":0,
			"source":2
		}
	],
	"images":[
		{
			"mimeType":"image/png",
			"name":"CoinCoffer_Emission",
			"uri":"CoinCoffer_Emission.png"
		},
		{
			"mimeType":"image/png",
			"name":"CoinCoffer_BaseMap",
			"uri":"CoinCoffer_BaseMap.png"
		},
		{
			"mimeType":"image/png",
			"name":"CoinCoffer_ORM",
			"uri":"CoinCoffer_ORM.png"
		}
	],
	"accessors":[
		{
			"bufferView":0,
			"componentType":5126,
			"count":6631,
			"max":[
				0.2654210925102234,
				0.3062499761581421,
				0.19238197803497314
			],
			"min":[
				-0.2654789984226227,
				0,
				-0.16899999976158142
			],
			"type":"VEC3"
		},
		{
			"bufferView":1,
			"componentType":5126,
			"count":6631,
			"type":"VEC3"
		},
		{
			"bufferView":2,
			"componentType":5126,
			"count":6631,
			"type":"VEC2"
		},
		{
			"bufferView":3,
			"componentType":5123,
			"count":8808,
			"type":"SCALAR"
		}
	],
	"bufferViews":[
		{
			"buffer":0,
			"byteLength":79572,
			"byteOffset":0,
			"target":34962
		},
		{
			"buffer":0,
			"byteLength":79572,
			"byteOffset":79572,
			"target":34962
		},
		{
			"buffer":0,
			"byteLength":53048,
			"byteOffset":159144,
			"target":34962
		},
		{
			"buffer":0,
			"byteLength":17616,
			"byteOffset":212192,
			"target":34963
		}
	],
	"samplers":[
		{
			"magFilter":9729,
			"minFilter":9987
		}
	],
	"buffers":[
		{
			"byteLength":229808,
			"uri":"CoinCoffer.bin"
		}
	]
}
