{
	"asset":{
		"generator":"Khronos glTF Blender I/O v5.0.21",
		"version":"2.0"
	},
	"extensionsUsed":[
		"KHR_materials_emissive_strength"
	],
	"scene":0,
	"scenes":[
		{
			"name":"Scene",
			"nodes":[
				31
			]
		}
	],
	"nodes":[
		{
			"name":"Tuft2",
			"rotation":[
				-0.5127866864204407,
				0,
				0,
				0.8585160374641418
			],
			"scale":[
				1,
				1.0000001192092896,
				1
			],
			"translation":[
				0,
				0.04176116734743118,
				2.2351741790771484e-08
			]
		},
		{
			"children":[
				0
			],
			"name":"Tuft1",
			"rotation":[
				-0.5969308614730835,
				0,
				0,
				0.8022927045822144
			],
			"scale":[
				1,
				0.9999999403953552,
				1
			],
			"translation":[
				0,
				0.2082000970840454,
				-0.003999999724328518
			]
		},
		{
			"name":"Cheek.L",
			"rotation":[
				0.9993644952774048,
				0,
				0,
				0.03564605861902237
			],
			"scale":[
				1,
				1,
				1.0000064373016357
			],
			"translation":[
				0.1120000034570694,
				-0.009999990463256836,
				0.029999999329447746
			]
		},
		{
			"name":"Cheek.R",
			"rotation":[
				0.9993644952774048,
				0,
				0,
				0.03564605861902237
			],
			"scale":[
				1,
				1,
				1.0000064373016357
			],
			"translation":[
				-0.1120000034570694,
				-0.009999990463256836,
				0.029999999329447746
			]
		},
		{
			"children":[
				1,
				2,
				3
			],
			"name":"Helmet",
			"translation":[
				0,
				0.1566399335861206,
				-0.007120000198483467
			]
		},
		{
			"children":[
				4
			],
			"name":"Head",
			"translation":[
				0,
				0.08188009262084961,
				0
			]
		},
		{
			"children":[
				5
			],
			"name":"Neck",
			"translation":[
				0,
				0.2242799997329712,
				0
			]
		},
		{
			"name":"Hand.L",
			"rotation":[
				-3.259629011154175e-06,
				-2.393871545791626e-05,
				1.619011163711548e-05,
				1
			],
			"translation":[
				-7.450580596923828e-09,
				0.2581060826778412,
				2.0489096641540527e-08
			]
		},
		{
			"children":[
				7
			],
			"name":"LowerArm.L",
			"rotation":[
				-0.1586420238018036,
				9.962861440726556e-06,
				-0.07064224034547806,
				0.9848057627677917
			],
			"scale":[
				1,
				0.9999999403953552,
				1
			],
			"translation":[
				-6.984919309616089e-09,
				0.30615895986557007,
				-3.166496753692627e-08
			]
		},
		{
			"children":[
				8
			],
			"name":"UpperArm.L",
			"rotation":[
				-0.44008705019950867,
				-0.45373478531837463,
				0.2837013602256775,
				0.7210837006568909
			],
			"scale":[
				1.0000001192092896,
				1.000000238418579,
				1.0000001192092896
			],
			"translation":[
				1.6826017246174274e-09,
				0.14225831627845764,
				-8.844912002814453e-08
			]
		},
		{
			"children":[
				9
			],
			"name":"Shoulder.L",
			"rotation":[
				-0.5250250101089478,
				-0.49937334656715393,
				-0.49937334656715393,
				0.474975049495697
			],
			"scale":[
				0.9999998807907104,
				0.9999998211860657,
				0.9999999403953552
			],
			"translation":[
				0.05339999869465828,
				0.20647990703582764,
				0
			]
		},
		{
			"name":"Sword",
			"rotation":[
				0.10310999304056168,
				0.18310794234275818,
				-0.1372576802968979,
				0.9679876565933228
			],
			"scale":[
				1,
				0.9999998807907104,
				1
			],
			"translation":[
				0.016688771545886993,
				0.13185995817184448,
				0.008215770125389099
			]
		},
		{
			"children":[
				11
			],
			"name":"Hand.R",
			"rotation":[
				1.8186867237091064e-05,
				-6.082281470298767e-05,
				2.2236257791519165e-05,
				1
			],
			"translation":[
				4.0978193283081055e-08,
				0.25809818506240845,
				-2.9802322387695312e-08
			]
		},
		{
			"children":[
				12
			],
			"name":"LowerArm.R",
			"rotation":[
				-0.274729460477829,
				3.732658296939917e-05,
				0.12228581309318542,
				0.9537137150764465
			],
			"translation":[
				7.916241884231567e-08,
				0.3061632513999939,
				-3.725290298461914e-09
			]
		},
		{
			"children":[
				13
			],
			"name":"UpperArm.R",
			"rotation":[
				-0.45636606216430664,
				0.4687478244304657,
				-0.2588164806365967,
				0.7106472849845886
			],
			"translation":[
				-1.6826017246174274e-09,
				0.14225831627845764,
				-8.844912002814453e-08
			]
		},
		{
			"children":[
				14
			],
			"name":"Shoulder.R",
			"rotation":[
				-0.5250250101089478,
				0.49937334656715393,
				0.49937334656715393,
				0.474975049495697
			],
			"scale":[
				0.9999998807907104,
				0.9999998211860657,
				0.9999999403953552
			],
			"translation":[
				-0.05339999869465828,
				0.20647990703582764,
				0
			]
		},
		{
			"name":"Collar",
			"translation":[
				0,
				0.16935992240905762,
				-0.004000000189989805
			]
		},
		{
			"children":[
				6,
				10,
				15,
				16
			],
			"name":"Chest",
			"translation":[
				0,
				0.1958000659942627,
				0
			]
		},
		{
			"children":[
				17
			],
			"name":"Spine",
			"translation":[
				0,
				0.1103600263595581,
				0
			]
		},
		{
			"name":"Foot.L",
			"rotation":[
				-0.5514097213745117,
				0.11921807378530502,
				-0.1465860903263092,
				0.8125557899475098
			],
			"scale":[
				1,
				0.9999998807907104,
				0.9999997615814209
			],
			"translation":[
				7.683411240577698e-09,
				0.4063670039176941,
				4.656612873077393e-10
			]
		},
		{
			"children":[
				19
			],
			"name":"LowerLeg.L",
			"rotation":[
				0.025102566927671432,
				1.1007516150129959e-05,
				0.0010847006924450397,
				0.9996842741966248
			],
			"scale":[
				0.9999999403953552,
				1,
				1
			],
			"translation":[
				1.4813849702477455e-08,
				0.44555169343948364,
				4.656612873077393e-10
			]
		},
		{
			"children":[
				20
			],
			"name":"UpperLeg.L",
			"rotation":[
				0.9994470477104187,
				0.022059191018342972,
				0.022058919072151184,
				0.011504889465868473
			],
			"scale":[
				1.000001072883606,
				1.0000001192092896,
				1.000000238418579
			],
			"translation":[
				0.10563000291585922,
				5.960464477539063e-08,
				0
			]
		},
		{
			"name":"Foot.R",
			"rotation":[
				-0.5514097213745117,
				-0.11921807378530502,
				0.1465860903263092,
				0.8125557899475098
			],
			"scale":[
				1,
				0.9999998807907104,
				0.9999997615814209
			],
			"translation":[
				-7.683411240577698e-09,
				0.4063670039176941,
				4.656612873077393e-10
			]
		},
		{
			"children":[
				22
			],
			"name":"LowerLeg.R",
			"rotation":[
				0.025102566927671432,
				-1.1007516150129959e-05,
				-0.0010847006924450397,
				0.9996842741966248
			],
			"scale":[
				0.9999999403953552,
				1,
				1
			],
			"translation":[
				-1.4813849702477455e-08,
				0.44555169343948364,
				4.656612873077393e-10
			]
		},
		{
			"children":[
				23
			],
			"name":"UpperLeg.R",
			"rotation":[
				0.9994470477104187,
				-0.022059191018342972,
				-0.022058919072151184,
				0.011504889465868473
			],
			"scale":[
				1.000001072883606,
				1.0000001192092896,
				1.000000238418579
			],
			"translation":[
				-0.10563000291585922,
				5.960464477539063e-08,
				0
			]
		},
		{
			"name":"Ring1",
			"rotation":[
				1,
				0,
				-4.371138828673793e-08,
				0
			],
			"translation":[
				0,
				0.11646008491516113,
				0
			]
		},
		{
			"name":"Ring2",
			"rotation":[
				1,
				0,
				-4.371138828673793e-08,
				0
			],
			"translation":[
				0,
				-0.0035399794578552246,
				0
			]
		},
		{
			"name":"Ring3",
			"rotation":[
				1,
				0,
				-4.371138828673793e-08,
				0
			],
			"translation":[
				0,
				-0.1235399842262268,
				0
			]
		},
		{
			"children":[
				18,
				21,
				24,
				25,
				26,
				27
			],
			"name":"Hips",
			"scale":[
				1,
				0.9999999403953552,
				1
			],
			"translation":[
				0,
				0.9398400187492371,
				0
			]
		},
		{
			"children":[
				28
			],
			"name":"Root"
		},
		{
			"mesh":0,
			"name":"DendraChampion",
			"skin":0
		},
		{
			"children":[
				30,
				29
			],
			"name":"DendraChampion_Rig"
		}
	],
	"materials":[
		{
			"doubleSided":true,
			"emissiveFactor":[
				1,
				1,
				1
			],
			"emissiveTexture":{
				"index":0
			},
			"extensions":{
				"KHR_materials_emissive_strength":{
					"emissiveStrength":9
				}
			},
			"name":"DendraChampion",
			"pbrMetallicRoughness":{
				"baseColorTexture":{
					"index":1
				},
				"metallicRoughnessTexture":{
					"index":2
				}
			}
		}
	],
	"meshes":[
		{
			"name":"DendraChampion",
			"primitives":[
				{
					"attributes":{
						"POSITION":0,
						"NORMAL":1,
						"TEXCOORD_0":2,
						"JOINTS_0":3,
						"WEIGHTS_0":4
					},
					"indices":5,
					"material":0
				}
			]
		}
	],
	"textures":[
		{
			"sampler":0,
			"source":0
		},
		{
			"sampler":0,
			"source":1
		},
		{
			"sampler":0,
			"source":2
		}
	],
	"images":[
		{
			"mimeType":"image/png",
			"name":"DendraChampion_Emission",
			"uri":"DendraChampion_Emission.png"
		},
		{
			"mimeType":"image/png",
			"name":"DendraChampion_BaseMap",
			"uri":"DendraChampion_BaseMap.png"
		},
		{
			"mimeType":"image/png",
			"name":"DendraChampion_ORM",
			"uri":"DendraChampion_ORM.png"
		}
	],
	"skins":[
		{
			"inverseBindMatrices":6,
			"joints":[
				29,
				28,
				18,
				17,
				6,
				5,
				4,
				1,
				0,
				2,
				3,
				10,
				9,
				8,
				7,
				15,
				14,
				13,
				12,
				11,
				16,
				21,
				20,
				19,
				24,
				23,
				22,
				25,
				26,
				27
			],
			"name":"DendraChampion_Rig"
		}
	],
	"accessors":[
		{
			"bufferView":0,
			"componentType":5126,
			"count":11309,
			"max":[
				0.4889849126338959,
				1.947474479675293,
				0.663397490978241
			],
			"min":[
				-0.5792925953865051,
				0,
				-0.2942221760749817
			],
			"type":"VEC3"
		},
		{
			"bufferView":1,
			"componentType":5126,
			"count":11309,
			"type":"VEC3"
		},
		{
			"bufferView":2,
			"componentType":5126,
			"count":11309,
			"type":"VEC2"
		},
		{
			"bufferView":3,
			"componentType":5121,
			"count":11309,
			"type":"VEC4"
		},
		{
			"bufferView":4,
			"componentType":5126,
			"count":11309,
			"type":"VEC4"
		},
		{
			"bufferView":5,
			"componentType":5123,
			"count":26742,
			"type":"SCALAR"
		},
		{
			"bufferView":6,
			"componentType":5126,
			"count":30,
			"type":"MAT4"
		}
	],
	"bufferViews":[
		{
			"buffer":0,
			"byteLength":135708,
			"byteOffset":0,
			"target":34962
		},
		{
			"buffer":0,
			"byteLength":135708,
			"byteOffset":135708,
			"target":34962
		},
		{
			"buffer":0,
			"byteLength":90472,
			"byteOffset":271416,
			"target":34962
		},
		{
			"buffer":0,
			"byteLength":45236,
			"byteOffset":361888,
			"target":34962
		},
		{
			"buffer":0,
			"byteLength":180944,
			"byteOffset":407124,
			"target":34962
		},
		{
			"buffer":0,
			"byteLength":53484,
			"byteOffset":588068,
			"target":34963
		},
		{
			"buffer":0,
			"byteLength":1920,
			"byteOffset":641552
		}
	],
	"samplers":[
		{
			"magFilter":9729,
			"minFilter":9987
		}
	],
	"buffers":[
		{
			"byteLength":643472,
			"uri":"DendraChampion.bin"
		}
	]
}
