{
	"asset":{
		"generator":"Khronos glTF Blender I/O v5.0.21",
		"version":"2.0"
	},
	"extensionsUsed":[
		"KHR_materials_emissive_strength"
	],
	"scene":0,
	"scenes":[
		{
			"name":"Scene",
			"nodes":[
				0
			]
		}
	],
	"nodes":[
		{
			"mesh":0,
			"name":"OxhideIngot"
		}
	],
	"materials":[
		{
			"doubleSided":true,
			"emissiveFactor":[
				1,
				1,
				1
			],
			"emissiveTexture":{
				"index":0
			},
			"extensions":{
				"KHR_materials_emissive_strength":{
					"emissiveStrength":9
				}
			},
			"name":"OxhideIngot",
			"pbrMetallicRoughness":{
				"baseColorTexture":{
					"index":1
				},
				"metallicRoughnessTexture":{
					"index":2
				}
			}
		}
	],
	"meshes":[
		{
			"name":"OxhideIngot",
			"primitives":[
				{
					"attributes":{
						"POSITION":0,
						"NORMAL":1,
						"TEXCOORD_0":2
					},
					"indices":3,
					"material":0
				}
			]
		}
	],
	"textures":[
		{
			"sampler":0,
			"source":0
		},
		{
			"sampler":0,
			"source":1
		},
		{
			"sampler":0,
			"source":2
		}
	],
	"images":[
		{
			"mimeType":"image/png",
			"name":"OxhideIngot_Emission",
			"uri":"OxhideIngot_Emission.png"
		},
		{
			"mimeType":"image/png",
			"name":"OxhideIngot_BaseMap",
			"uri":"OxhideIngot_BaseMap.png"
		},
		{
			"mimeType":"image/png",
			"name":"OxhideIngot_ORM",
			"uri":"OxhideIngot_ORM.png"
		}
	],
	"accessors":[
		{
			"bufferView":0,
			"componentType":5126,
			"count":1494,
			"max":[
				0.29984429478645325,
				0.05382154509425163,
				0.19984428584575653
			],
			"min":[
				-0.29984429478645325,
				0,
				-0.19984428584575653
			],
			"type":"VEC3"
		},
		{
			"bufferView":1,
			"componentType":5126,
			"count":1494,
			"type":"VEC3"
		},
		{
			"bufferView":2,
			"componentType":5126,
			"count":1494,
			"type":"VEC2"
		},
		{
			"bufferView":3,
			"componentType":5123,
			"count":4068,
			"type":"SCALAR"
		}
	],
	"bufferViews":[
		{
			"buffer":0,
			"byteLength":17928,
			"byteOffset":0,
			"target":34962
		},
		{
			"buffer":0,
			"byteLength":17928,
			"byteOffset":17928,
			"target":34962
		},
		{
			"buffer":0,
			"byteLength":11952,
			"byteOffset":35856,
			"target":34962
		},
		{
			"buffer":0,
			"byteLength":8136,
			"byteOffset":47808,
			"target":34963
		}
	],
	"samplers":[
		{
			"magFilter":9729,
			"minFilter":9987
		}
	],
	"buffers":[
		{
			"byteLength":55944,
			"uri":"OxhideIngot.bin"
		}
	]
}
