{
	"asset":{
		"generator":"Khronos glTF Blender I/O v5.0.21",
		"version":"2.0"
	},
	"extensionsUsed":[
		"KHR_materials_emissive_strength"
	],
	"scene":0,
	"scenes":[
		{
			"name":"Scene",
			"nodes":[
				0
			]
		}
	],
	"nodes":[
		{
			"mesh":0,
			"name":"VenetianMirror"
		}
	],
	"materials":[
		{
			"doubleSided":true,
			"emissiveFactor":[
				1,
				1,
				1
			],
			"emissiveTexture":{
				"index":0
			},
			"extensions":{
				"KHR_materials_emissive_strength":{
					"emissiveStrength":9
				}
			},
			"name":"VenetianMirror",
			"pbrMetallicRoughness":{
				"baseColorTexture":{
					"index":1
				},
				"metallicRoughnessTexture":{
					"index":2
				}
			}
		}
	],
	"meshes":[
		{
			"name":"VenetianMirror",
			"primitives":[
				{
					"attributes":{
						"POSITION":0,
						"NORMAL":1,
						"TEXCOORD_0":2
					},
					"indices":3,
					"material":0
				}
			]
		}
	],
	"textures":[
		{
			"sampler":0,
			"source":0
		},
		{
			"sampler":0,
			"source":1
		},
		{
			"sampler":0,
			"source":2
		}
	],
	"images":[
		{
			"mimeType":"image/png",
			"name":"VenetianMirror_Emission",
			"uri":"VenetianMirror_Emission.png"
		},
		{
			"mimeType":"image/png",
			"name":"VenetianMirror_BaseMap",
			"uri":"VenetianMirror_BaseMap.png"
		},
		{
			"mimeType":"image/png",
			"name":"VenetianMirror_ORM",
			"uri":"VenetianMirror_ORM.png"
		}
	],
	"accessors":[
		{
			"bufferView":0,
			"componentType":5126,
			"count":3460,
			"max":[
				0.4089154899120331,
				1.100000023841858,
				0.02199999988079071
			],
			"min":[
				-0.4089154899120331,
				0,
				-0.0560000017285347
			],
			"type":"VEC3"
		},
		{
			"bufferView":1,
			"componentType":5126,
			"count":3460,
			"type":"VEC3"
		},
		{
			"bufferView":2,
			"componentType":5126,
			"count":3460,
			"type":"VEC2"
		},
		{
			"bufferView":3,
			"componentType":5123,
			"count":7116,
			"type":"SCALAR"
		}
	],
	"bufferViews":[
		{
			"buffer":0,
			"byteLength":41520,
			"byteOffset":0,
			"target":34962
		},
		{
			"buffer":0,
			"byteLength":41520,
			"byteOffset":41520,
			"target":34962
		},
		{
			"buffer":0,
			"byteLength":27680,
			"byteOffset":83040,
			"target":34962
		},
		{
			"buffer":0,
			"byteLength":14232,
			"byteOffset":110720,
			"target":34963
		}
	],
	"samplers":[
		{
			"magFilter":9729,
			"minFilter":9987
		}
	],
	"buffers":[
		{
			"byteLength":124952,
			"uri":"VenetianMirror.bin"
		}
	]
}
