{
	"asset":{
		"generator":"Khronos glTF Blender I/O v5.0.21",
		"version":"2.0"
	},
	"extensionsUsed":[
		"KHR_materials_emissive_strength"
	],
	"scene":0,
	"scenes":[
		{
			"name":"Scene",
			"nodes":[
				0
			]
		}
	],
	"nodes":[
		{
			"mesh":0,
			"name":"RolledTapestry"
		}
	],
	"materials":[
		{
			"doubleSided":true,
			"emissiveFactor":[
				1,
				1,
				1
			],
			"emissiveTexture":{
				"index":0
			},
			"extensions":{
				"KHR_materials_emissive_strength":{
					"emissiveStrength":9
				}
			},
			"name":"RolledTapestry",
			"pbrMetallicRoughness":{
				"baseColorTexture":{
					"index":1
				},
				"metallicRoughnessTexture":{
					"index":2
				}
			}
		}
	],
	"meshes":[
		{
			"name":"RolledTapestry",
			"primitives":[
				{
					"attributes":{
						"POSITION":0,
						"NORMAL":1,
						"TEXCOORD_0":2
					},
					"indices":3,
					"material":0
				}
			]
		}
	],
	"textures":[
		{
			"sampler":0,
			"source":0
		},
		{
			"sampler":0,
			"source":1
		},
		{
			"sampler":0,
			"source":2
		}
	],
	"images":[
		{
			"mimeType":"image/png",
			"name":"RolledTapestry_Emission",
			"uri":"RolledTapestry_Emission.png"
		},
		{
			"mimeType":"image/png",
			"name":"RolledTapestry_BaseMap",
			"uri":"RolledTapestry_BaseMap.png"
		},
		{
			"mimeType":"image/png",
			"name":"RolledTapestry_ORM",
			"uri":"RolledTapestry_ORM.png"
		}
	],
	"accessors":[
		{
			"bufferView":0,
			"componentType":5126,
			"count":6324,
			"max":[
				1.7034000158309937,
				0.4784531593322754,
				0.7097179889678955
			],
			"min":[
				-1.7034000158309937,
				-0.014877572655677795,
				-0.2515832483768463
			],
			"type":"VEC3"
		},
		{
			"bufferView":1,
			"componentType":5126,
			"count":6324,
			"type":"VEC3"
		},
		{
			"bufferView":2,
			"componentType":5126,
			"count":6324,
			"type":"VEC2"
		},
		{
			"bufferView":3,
			"componentType":5123,
			"count":14868,
			"type":"SCALAR"
		}
	],
	"bufferViews":[
		{
			"buffer":0,
			"byteLength":75888,
			"byteOffset":0,
			"target":34962
		},
		{
			"buffer":0,
			"byteLength":75888,
			"byteOffset":75888,
			"target":34962
		},
		{
			"buffer":0,
			"byteLength":50592,
			"byteOffset":151776,
			"target":34962
		},
		{
			"buffer":0,
			"byteLength":29736,
			"byteOffset":202368,
			"target":34963
		}
	],
	"samplers":[
		{
			"magFilter":9729,
			"minFilter":9987
		}
	],
	"buffers":[
		{
			"byteLength":232104,
			"uri":"RolledTapestry.bin"
		}
	]
}
