{
	"asset":{
		"generator":"Khronos glTF Blender I/O v5.0.21",
		"version":"2.0"
	},
	"extensionsUsed":[
		"KHR_materials_emissive_strength"
	],
	"scene":0,
	"scenes":[
		{
			"name":"Scene",
			"nodes":[
				37
			]
		}
	],
	"nodes":[
		{
			"name":"Jaw",
			"rotation":[
				0.015893466770648956,
				-4.0702428248533554e-22,
				5.294624874387005e-23,
				0.999873697757721
			],
			"scale":[
				1,
				0.9999999403953552,
				0.9999999403953552
			],
			"translation":[
				0,
				0.05989277362823486,
				0.04173547029495239
			]
		},
		{
			"name":"Ear.L",
			"rotation":[
				0.9283987283706665,
				0.25252947211265564,
				-0.013769173994660378,
				0.2722407877445221
			],
			"scale":[
				1.0000001192092896,
				1,
				1.0000001192092896
			],
			"translation":[
				0.07199999690055847,
				0.02275494486093521,
				-0.06787651777267456
			]
		},
		{
			"name":"Ear.R",
			"rotation":[
				0.9283987283706665,
				-0.25252947211265564,
				0.013769169338047504,
				0.2722407877445221
			],
			"scale":[
				1.0000001192092896,
				1,
				1.0000001192092896
			],
			"translation":[
				-0.07199999690055847,
				0.02275494486093521,
				-0.06787651032209396
			]
		},
		{
			"children":[
				0,
				1,
				2
			],
			"name":"Head",
			"rotation":[
				0.34146228432655334,
				2.8162470631554544e-22,
				5.632494000093164e-23,
				0.939895510673523
			],
			"translation":[
				0,
				0.10816648602485657,
				2.9802322387695312e-08
			]
		},
		{
			"children":[
				3
			],
			"name":"Neck2",
			"rotation":[
				0.07234294712543488,
				-5.307864106078275e-22,
				1.3269660265195688e-22,
				0.9973797798156738
			],
			"scale":[
				1,
				1,
				0.9999999403953552
			],
			"translation":[
				1.3234887434265727e-23,
				0.1345362663269043,
				2.9802322387695312e-08
			]
		},
		{
			"name":"CollarRing",
			"rotation":[
				0.7273382544517517,
				1.8196333907661197e-22,
				7.278533563064479e-22,
				0.6862791776657104
			],
			"translation":[
				1.3234885067683011e-23,
				0.09037721157073975,
				0.10192343592643738
			]
		},
		{
			"children":[
				4,
				5
			],
			"name":"Neck1",
			"rotation":[
				-0.28783220052719116,
				-1.7511706140480124e-22,
				-6.573374081548782e-23,
				0.957680881023407
			],
			"translation":[
				-7.515991392489878e-24,
				0.12134253978729248,
				2.60770320892334e-08
			]
		},
		{
			"name":"ForePaw.L",
			"rotation":[
				-0.5198928713798523,
				-1.0515208259676001e-08,
				-4.219090854462593e-09,
				0.8542314767837524
			],
			"scale":[
				1,
				1.0000001192092896,
				1.0000001192092896
			],
			"translation":[
				-9.32878840842477e-09,
				0.0570087805390358,
				-3.874116139002126e-09
			]
		},
		{
			"children":[
				7
			],
			"name":"Carpus.L",
			"rotation":[
				-0.08879882097244263,
				0.02092890441417694,
				-0.015985408797860146,
				0.9957013726234436
			],
			"scale":[
				0.9999999403953552,
				1,
				1
			],
			"translation":[
				2.0954757928848267e-09,
				0.2812917232513428,
				4.190951585769653e-09
			]
		},
		{
			"children":[
				8
			],
			"name":"Radius.L",
			"rotation":[
				-0.1589910387992859,
				-0.016350802034139633,
				0.020644675940275192,
				0.9869287014007568
			],
			"translation":[
				5.47139045181666e-09,
				0.17464254796504974,
				-1.1970929136850827e-08
			]
		},
		{
			"children":[
				9
			],
			"name":"Humerus.L",
			"rotation":[
				0.004535018932074308,
				-0.1586085855960846,
				0.20025956630706787,
				0.9668086171150208
			],
			"scale":[
				1.0000001192092896,
				1,
				1
			],
			"translation":[
				-2.2351741790771484e-08,
				0.1425658017396927,
				0
			]
		},
		{
			"children":[
				10
			],
			"name":"Scapula.L",
			"rotation":[
				0.797896683216095,
				0.25475388765335083,
				0.01900029554963112,
				0.5459856390953064
			],
			"translation":[
				0.05999999865889549,
				0.12035361677408218,
				-0.06081956624984741
			]
		},
		{
			"name":"ForePaw.R",
			"rotation":[
				-0.5198928713798523,
				1.0515208259676001e-08,
				4.219090854462593e-09,
				0.8542314767837524
			],
			"scale":[
				1,
				1.0000001192092896,
				1.0000001192092896
			],
			"translation":[
				9.32878840842477e-09,
				0.0570087805390358,
				-3.874116139002126e-09
			]
		},
		{
			"children":[
				12
			],
			"name":"Carpus.R",
			"rotation":[
				-0.08879882097244263,
				-0.02092890441417694,
				0.015985408797860146,
				0.9957013726234436
			],
			"scale":[
				0.9999999403953552,
				1,
				1
			],
			"translation":[
				-2.0954757928848267e-09,
				0.2812917232513428,
				4.190951585769653e-09
			]
		},
		{
			"children":[
				13
			],
			"name":"Radius.R",
			"rotation":[
				-0.1589910387992859,
				0.016350802034139633,
				-0.020644675940275192,
				0.9869287014007568
			],
			"translation":[
				-5.47139045181666e-09,
				0.17464254796504974,
				-1.1970929136850827e-08
			]
		},
		{
			"children":[
				14
			],
			"name":"Humerus.R",
			"rotation":[
				0.004535018932074308,
				0.1586085855960846,
				-0.20025956630706787,
				0.9668086171150208
			],
			"scale":[
				1.0000001192092896,
				1,
				1
			],
			"translation":[
				2.2351741790771484e-08,
				0.1425658017396927,
				0
			]
		},
		{
			"children":[
				15
			],
			"name":"Scapula.R",
			"rotation":[
				0.797896683216095,
				-0.25475388765335083,
				-0.01900029554963112,
				0.5459856390953064
			],
			"translation":[
				-0.05999999865889549,
				0.12035361677408218,
				-0.06081956624984741
			]
		},
		{
			"children":[
				6,
				11,
				16
			],
			"name":"Chest",
			"rotation":[
				-0.08268295973539352,
				-1.8358909736144926e-17,
				2.2128426050597257e-16,
				0.9965759515762329
			],
			"scale":[
				1,
				1,
				0.9999999403953552
			],
			"translation":[
				5.790264287871194e-24,
				0.1200166791677475,
				-2.7241185307502747e-08
			]
		},
		{
			"children":[
				17
			],
			"name":"Spine3",
			"rotation":[
				-0.020206617191433907,
				3.178000795855951e-08,
				6.422975484809967e-10,
				0.9997958540916443
			],
			"scale":[
				1,
				0.9999999403953552,
				0.9999999403953552
			],
			"translation":[
				1.8386307016823866e-15,
				0.14022839069366455,
				-9.080395102500916e-08
			]
		},
		{
			"children":[
				18
			],
			"name":"Spine2",
			"rotation":[
				3.4029484785591535e-10,
				0.9995927810668945,
				-0.02853657305240631,
				7.546714897443962e-08
			],
			"scale":[
				1,
				0.9999999403953552,
				1
			],
			"translation":[
				3.552713678800501e-15,
				0.14000000059604645,
				0
			]
		},
		{
			"children":[
				19
			],
			"name":"Spine1",
			"rotation":[
				3.642189327912604e-10,
				-0.9999653100967407,
				-0.008332357741892338,
				4.370987838342444e-08
			],
			"scale":[
				1,
				1,
				0.9999999403953552
			],
			"translation":[
				0,
				0.1200166866183281,
				1.862645149230957e-08
			]
		},
		{
			"name":"HindPaw.L",
			"rotation":[
				-0.5053460597991943,
				4.018269050831691e-10,
				2.353200967419866e-10,
				0.8629167675971985
			],
			"scale":[
				1,
				1.0000001192092896,
				1
			],
			"translation":[
				2.854800007501268e-10,
				0.1140175312757492,
				-3.248530333621602e-09
			]
		},
		{
			"children":[
				21
			],
			"name":"Hock.L",
			"rotation":[
				-0.44802629947662354,
				0.016992442309856415,
				-0.012978763319551945,
				0.8937646746635437
			],
			"scale":[
				1,
				0.9999999403953552,
				1
			],
			"translation":[
				5.122274160385132e-09,
				0.260240375995636,
				-3.3527612686157227e-08
			]
		},
		{
			"children":[
				22
			],
			"name":"Tibia.L",
			"rotation":[
				0.5327509045600891,
				-0.03678039088845253,
				0.04941019415855408,
				0.8440274596214294
			],
			"scale":[
				0.9999998807907104,
				0.9999998211860657,
				0.9999998807907104
			],
			"translation":[
				1.30385160446167e-08,
				0.22383031249046326,
				-1.30385160446167e-08
			]
		},
		{
			"children":[
				23
			],
			"name":"Femur.L",
			"rotation":[
				0.5330032110214233,
				0.04247147962450981,
				0.0003539073222782463,
				0.8450465202331543
			],
			"scale":[
				1,
				1.0000001192092896,
				1
			],
			"translation":[
				0.10499999672174454,
				0.059158436954021454,
				0.0509929433465004
			]
		},
		{
			"name":"HindPaw.R",
			"rotation":[
				-0.5053460597991943,
				-4.018269050831691e-10,
				-2.353200967419866e-10,
				0.8629167675971985
			],
			"scale":[
				1,
				1.0000001192092896,
				1
			],
			"translation":[
				-2.854800007501268e-10,
				0.1140175312757492,
				-3.248530333621602e-09
			]
		},
		{
			"children":[
				25
			],
			"name":"Hock.R",
			"rotation":[
				-0.44802629947662354,
				-0.016992442309856415,
				0.012978763319551945,
				0.8937646746635437
			],
			"scale":[
				1,
				0.9999999403953552,
				1
			],
			"translation":[
				-5.122274160385132e-09,
				0.260240375995636,
				-3.3527612686157227e-08
			]
		},
		{
			"children":[
				26
			],
			"name":"Tibia.R",
			"rotation":[
				0.5327509045600891,
				0.03678039088845253,
				-0.04941019415855408,
				0.8440274596214294
			],
			"scale":[
				0.9999998807907104,
				0.9999998211860657,
				0.9999998807907104
			],
			"translation":[
				-1.30385160446167e-08,
				0.22383031249046326,
				-1.30385160446167e-08
			]
		},
		{
			"children":[
				27
			],
			"name":"Femur.R",
			"rotation":[
				0.5330032110214233,
				-0.04247147962450981,
				-0.0003539073222782463,
				0.8450465202331543
			],
			"scale":[
				1,
				1.0000001192092896,
				1
			],
			"translation":[
				-0.10499999672174454,
				0.059158436954021454,
				0.0509929433465004
			]
		},
		{
			"name":"Tail5",
			"rotation":[
				-0.06213759258389473,
				0,
				0,
				0.9980676174163818
			],
			"scale":[
				1,
				1,
				1.0000001192092896
			],
			"translation":[
				0,
				0.11180301755666733,
				-7.450580596923828e-09
			]
		},
		{
			"children":[
				29
			],
			"name":"Tail4",
			"rotation":[
				-0.1230745017528534,
				0,
				0,
				0.9923974275588989
			],
			"scale":[
				1,
				1.0000001192092896,
				1
			],
			"translation":[
				0,
				0.12083016335964203,
				0
			]
		},
		{
			"children":[
				30
			],
			"name":"Tail3",
			"rotation":[
				-0.1953556388616562,
				0,
				0,
				0.9807325005531311
			],
			"translation":[
				0,
				0.10259134322404861,
				2.9802322387695312e-08
			]
		},
		{
			"children":[
				31
			],
			"name":"Tail2",
			"rotation":[
				-0.29983073472976685,
				0,
				0,
				0.9539924263954163
			],
			"translation":[
				0,
				0.07071071118116379,
				0
			]
		},
		{
			"children":[
				32
			],
			"name":"Tail1",
			"rotation":[
				0.9980402588844299,
				0,
				0,
				0.06257500499486923
			],
			"scale":[
				1,
				1,
				1.000003457069397
			],
			"translation":[
				0,
				-0.039494551718235016,
				-0.03066236712038517
			]
		},
		{
			"children":[
				20,
				24,
				28,
				33
			],
			"name":"Pelvis",
			"rotation":[
				0.7011903524398804,
				0,
				0,
				0.7129741311073303
			],
			"scale":[
				1,
				0.9999998807907104,
				0.9999998807907104
			],
			"translation":[
				0,
				0.6100000143051147,
				-0.36000001430511475
			]
		},
		{
			"children":[
				34
			],
			"name":"Root"
		},
		{
			"mesh":0,
			"name":"AlauntWarHound",
			"skin":0
		},
		{
			"children":[
				36,
				35
			],
			"name":"AlauntWarHound_Rig"
		}
	],
	"materials":[
		{
			"doubleSided":true,
			"emissiveFactor":[
				1,
				1,
				1
			],
			"emissiveTexture":{
				"index":0
			},
			"extensions":{
				"KHR_materials_emissive_strength":{
					"emissiveStrength":9
				}
			},
			"name":"AlauntWarHound",
			"pbrMetallicRoughness":{
				"baseColorTexture":{
					"index":1
				},
				"metallicRoughnessTexture":{
					"index":2
				}
			}
		}
	],
	"meshes":[
		{
			"name":"AlauntWarHound",
			"primitives":[
				{
					"attributes":{
						"POSITION":0,
						"NORMAL":1,
						"TEXCOORD_0":2,
						"JOINTS_0":3,
						"WEIGHTS_0":4
					},
					"indices":5,
					"material":0
				}
			]
		}
	],
	"textures":[
		{
			"sampler":0,
			"source":0
		},
		{
			"sampler":0,
			"source":1
		},
		{
			"sampler":0,
			"source":2
		}
	],
	"images":[
		{
			"mimeType":"image/png",
			"name":"AlauntWarHound_Emission",
			"uri":"AlauntWarHound_Emission.png"
		},
		{
			"mimeType":"image/png",
			"name":"AlauntWarHound_BaseMap",
			"uri":"AlauntWarHound_BaseMap.png"
		},
		{
			"mimeType":"image/png",
			"name":"AlauntWarHound_ORM",
			"uri":"AlauntWarHound_ORM.png"
		}
	],
	"skins":[
		{
			"inverseBindMatrices":6,
			"joints":[
				35,
				34,
				20,
				19,
				18,
				17,
				6,
				4,
				3,
				0,
				1,
				2,
				5,
				11,
				10,
				9,
				8,
				7,
				16,
				15,
				14,
				13,
				12,
				24,
				23,
				22,
				21,
				28,
				27,
				26,
				25,
				33,
				32,
				31,
				30,
				29
			],
			"name":"AlauntWarHound_Rig"
		}
	],
	"accessors":[
		{
			"bufferView":0,
			"componentType":5126,
			"count":3599,
			"max":[
				0.18241673707962036,
				0.8575250506401062,
				0.8050000071525574
			],
			"min":[
				-0.18241673707962036,
				-0.001999996602535248,
				-0.6249814629554749
			],
			"type":"VEC3"
		},
		{
			"bufferView":1,
			"componentType":5126,
			"count":3599,
			"type":"VEC3"
		},
		{
			"bufferView":2,
			"componentType":5126,
			"count":3599,
			"type":"VEC2"
		},
		{
			"bufferView":3,
			"componentType":5121,
			"count":3599,
			"type":"VEC4"
		},
		{
			"bufferView":4,
			"componentType":5126,
			"count":3599,
			"type":"VEC4"
		},
		{
			"bufferView":5,
			"componentType":5123,
			"count":10356,
			"type":"SCALAR"
		},
		{
			"bufferView":6,
			"componentType":5126,
			"count":36,
			"type":"MAT4"
		}
	],
	"bufferViews":[
		{
			"buffer":0,
			"byteLength":43188,
			"byteOffset":0,
			"target":34962
		},
		{
			"buffer":0,
			"byteLength":43188,
			"byteOffset":43188,
			"target":34962
		},
		{
			"buffer":0,
			"byteLength":28792,
			"byteOffset":86376,
			"target":34962
		},
		{
			"buffer":0,
			"byteLength":14396,
			"byteOffset":115168,
			"target":34962
		},
		{
			"buffer":0,
			"byteLength":57584,
			"byteOffset":129564,
			"target":34962
		},
		{
			"buffer":0,
			"byteLength":20712,
			"byteOffset":187148,
			"target":34963
		},
		{
			"buffer":0,
			"byteLength":2304,
			"byteOffset":207860
		}
	],
	"samplers":[
		{
			"magFilter":9729,
			"minFilter":9987
		}
	],
	"buffers":[
		{
			"byteLength":210164,
			"uri":"AlauntWarHound.bin"
		}
	]
}
