{
	"asset":{
		"generator":"Khronos glTF Blender I/O v5.0.21",
		"version":"2.0"
	},
	"extensionsUsed":[
		"KHR_materials_emissive_strength"
	],
	"scene":0,
	"scenes":[
		{
			"name":"Scene",
			"nodes":[
				0
			]
		}
	],
	"nodes":[
		{
			"mesh":0,
			"name":"CabinetOfCuriosities"
		}
	],
	"materials":[
		{
			"doubleSided":true,
			"emissiveFactor":[
				1,
				1,
				1
			],
			"emissiveTexture":{
				"index":0
			},
			"extensions":{
				"KHR_materials_emissive_strength":{
					"emissiveStrength":9
				}
			},
			"name":"CabinetOfCuriosities",
			"pbrMetallicRoughness":{
				"baseColorTexture":{
					"index":1
				},
				"metallicRoughnessTexture":{
					"index":2
				}
			}
		}
	],
	"meshes":[
		{
			"name":"CabinetOfCuriosities",
			"primitives":[
				{
					"attributes":{
						"POSITION":0,
						"NORMAL":1,
						"TEXCOORD_0":2
					},
					"indices":3,
					"material":0
				}
			]
		}
	],
	"textures":[
		{
			"sampler":0,
			"source":0
		},
		{
			"sampler":0,
			"source":1
		},
		{
			"sampler":0,
			"source":2
		}
	],
	"images":[
		{
			"mimeType":"image/png",
			"name":"CabinetOfCuriosities_Emission",
			"uri":"CabinetOfCuriosities_Emission.png"
		},
		{
			"mimeType":"image/png",
			"name":"CabinetOfCuriosities_BaseMap",
			"uri":"CabinetOfCuriosities_BaseMap.png"
		},
		{
			"mimeType":"image/png",
			"name":"CabinetOfCuriosities_ORM",
			"uri":"CabinetOfCuriosities_ORM.png"
		}
	],
	"accessors":[
		{
			"bufferView":0,
			"componentType":5126,
			"count":7432,
			"max":[
				0.4904765784740448,
				1.3220000267028809,
				0.2919999957084656
			],
			"min":[
				-0.4904765784740448,
				0,
				-0.2750000059604645
			],
			"type":"VEC3"
		},
		{
			"bufferView":1,
			"componentType":5126,
			"count":7432,
			"type":"VEC3"
		},
		{
			"bufferView":2,
			"componentType":5126,
			"count":7432,
			"type":"VEC2"
		},
		{
			"bufferView":3,
			"componentType":5123,
			"count":14052,
			"type":"SCALAR"
		}
	],
	"bufferViews":[
		{
			"buffer":0,
			"byteLength":89184,
			"byteOffset":0,
			"target":34962
		},
		{
			"buffer":0,
			"byteLength":89184,
			"byteOffset":89184,
			"target":34962
		},
		{
			"buffer":0,
			"byteLength":59456,
			"byteOffset":178368,
			"target":34962
		},
		{
			"buffer":0,
			"byteLength":28104,
			"byteOffset":237824,
			"target":34963
		}
	],
	"samplers":[
		{
			"magFilter":9729,
			"minFilter":9987
		}
	],
	"buffers":[
		{
			"byteLength":265928,
			"uri":"CabinetOfCuriosities.bin"
		}
	]
}
