{
	"asset":{
		"generator":"Khronos glTF Blender I/O v5.0.21",
		"version":"2.0"
	},
	"extensionsUsed":[
		"KHR_materials_emissive_strength"
	],
	"scene":0,
	"scenes":[
		{
			"name":"Scene",
			"nodes":[
				0
			]
		}
	],
	"nodes":[
		{
			"mesh":0,
			"name":"NautilusCup"
		}
	],
	"materials":[
		{
			"doubleSided":true,
			"emissiveFactor":[
				1,
				1,
				1
			],
			"emissiveTexture":{
				"index":0
			},
			"extensions":{
				"KHR_materials_emissive_strength":{
					"emissiveStrength":9
				}
			},
			"name":"NautilusCup",
			"pbrMetallicRoughness":{
				"baseColorTexture":{
					"index":1
				},
				"metallicRoughnessTexture":{
					"index":2
				}
			}
		}
	],
	"meshes":[
		{
			"name":"NautilusCup",
			"primitives":[
				{
					"attributes":{
						"POSITION":0,
						"NORMAL":1,
						"TEXCOORD_0":2
					},
					"indices":3,
					"material":0
				}
			]
		}
	],
	"textures":[
		{
			"sampler":0,
			"source":0
		},
		{
			"sampler":0,
			"source":1
		},
		{
			"sampler":0,
			"source":2
		}
	],
	"images":[
		{
			"mimeType":"image/png",
			"name":"NautilusCup_Emission",
			"uri":"NautilusCup_Emission.png"
		},
		{
			"mimeType":"image/png",
			"name":"NautilusCup_BaseMap",
			"uri":"NautilusCup_BaseMap.png"
		},
		{
			"mimeType":"image/png",
			"name":"NautilusCup_ORM",
			"uri":"NautilusCup_ORM.png"
		}
	],
	"accessors":[
		{
			"bufferView":0,
			"componentType":5126,
			"count":2199,
			"max":[
				0.10118193924427032,
				0.34602224826812744,
				0.05795056372880936
			],
			"min":[
				-0.08704052865505219,
				0,
				-0.05795056372880936
			],
			"type":"VEC3"
		},
		{
			"bufferView":1,
			"componentType":5126,
			"count":2199,
			"type":"VEC3"
		},
		{
			"bufferView":2,
			"componentType":5126,
			"count":2199,
			"type":"VEC2"
		},
		{
			"bufferView":3,
			"componentType":5123,
			"count":6234,
			"type":"SCALAR"
		}
	],
	"bufferViews":[
		{
			"buffer":0,
			"byteLength":26388,
			"byteOffset":0,
			"target":34962
		},
		{
			"buffer":0,
			"byteLength":26388,
			"byteOffset":26388,
			"target":34962
		},
		{
			"buffer":0,
			"byteLength":17592,
			"byteOffset":52776,
			"target":34962
		},
		{
			"buffer":0,
			"byteLength":12468,
			"byteOffset":70368,
			"target":34963
		}
	],
	"samplers":[
		{
			"magFilter":9729,
			"minFilter":9987
		}
	],
	"buffers":[
		{
			"byteLength":82836,
			"uri":"NautilusCup.bin"
		}
	]
}
