<svg xmlns="http://www.w3.org/2000/svg" viewBox="0 0 1200 800" width="1200" height="800">
<defs>
<pattern id="grid" width="55" height="55" patternUnits="userSpaceOnUse" x="0" y="690"><path d="M55 0 H0 V55" fill="none" stroke="#262119" stroke-width="1"/></pattern>
<radialGradient id="glow" cx="50%" cy="70%" r="60%"><stop offset="0" stop-color="#2A2012" stop-opacity=".9"/><stop offset="1" stop-color="#14120E" stop-opacity="0"/></radialGradient>
<linearGradient id="wh" x1="0" y1="0" x2="1" y2="0"><stop offset="0" stop-color="#2A2C2E"/><stop offset="0.18" stop-color="#6E7174"/><stop offset="0.34" stop-color="#C9CCCC"/><stop offset="0.46" stop-color="#8E9194"/><stop offset="0.75" stop-color="#4A4D50"/><stop offset="1" stop-color="#1E2022"/></linearGradient>
<linearGradient id="whV" x1="0" y1="0" x2="0" y2="1"><stop offset="0" stop-color="#B9BCBD"/><stop offset="0.3" stop-color="#8E9194"/><stop offset="1" stop-color="#2E3032"/></linearGradient>
<radialGradient id="whR" cx="0.36" cy="0.3" r="0.8"><stop offset="0" stop-color="#D6D8D8"/><stop offset="0.3" stop-color="#8E9194"/><stop offset="1" stop-color="#26282A"/></radialGradient>
<linearGradient id="ash" x1="0" y1="0" x2="1" y2="0"><stop offset="0" stop-color="#4F4231"/><stop offset="0.45" stop-color="#A08968"/><stop offset="1" stop-color="#5C4C38"/></linearGradient>
<linearGradient id="red" x1="0" y1="0" x2="1" y2="0"><stop offset="0" stop-color="#6E1C20"/><stop offset="0.5" stop-color="#9E2A2F"/><stop offset="1" stop-color="#5E171B"/></linearGradient>
<pattern id="mail" width="4" height="3.2" patternUnits="userSpaceOnUse"><rect width="4" height="3.2" fill="#2A2B2A"/><path d="M0 1.6 Q2.0 -0.4 4 1.6" fill="none" stroke="#6D6E6C" stroke-width="1.1"/><path d="M-2.0 3.2 Q0 1.2 2.0 3.2 M2.0 3.2 Q4.0 1.2 6.0 3.2" fill="none" stroke="#6D6E6C" stroke-width="1.1"/></pattern>
</defs>
<rect width="1200" height="800" fill="#14120E"/>
<rect width="1200" height="800" fill="url(#glow)"/>
<rect x="0" y="120" width="1200" height="570" fill="url(#grid)"/>
<line x1="40" y1="690" x2="1160" y2="690" stroke="#635C4C" stroke-width="1.5"/>
<rect x="12" y="12" width="1176" height="776" fill="none" stroke="#332D22" stroke-width="1"/>
<text x="40" y="54" font-family="Overpass Mono, monospace" font-size="12" letter-spacing="3" fill="#635C4C">THE LATE MEDIEVAL · ENEMY · HEAVY</text>
<text x="40" y="96" font-family="Eczar, Georgia, serif" font-size="38" font-weight="700" fill="#DCD2BA">Gothic Man-at-Arms</text>
<text x="1160" y="54" text-anchor="end" font-family="Overpass Mono, monospace" font-size="12" fill="#9A9078">H 1.95 m · ≤ 12k tris · 2048²</text>
<text x="1160" y="76" text-anchor="end" font-family="Overpass Mono, monospace" font-size="12" fill="#9A9078">1 m = 220 px · ground y 690</text>
<g font-family="Overpass Mono, monospace" font-size="11" fill="#635C4C" stroke="#635C4C"><line x1="60" y1="690" x2="60" y2="140" stroke-width="1"/><line x1="54" y1="690" x2="66" y2="690"/><text x="72" y="694" stroke="none">0</text><line x1="54" y1="580" x2="66" y2="580"/><text x="72" y="584" stroke="none">0.5</text><line x1="54" y1="470" x2="66" y2="470"/><text x="72" y="474" stroke="none">1.0</text><line x1="54" y1="360" x2="66" y2="360"/><text x="72" y="364" stroke="none">1.5</text><line x1="54" y1="250" x2="66" y2="250"/><text x="72" y="254" stroke="none">2.0</text><line x1="54" y1="140" x2="66" y2="140"/><text x="72" y="144" stroke="none">2.5</text><line x1="57" y1="668" x2="63" y2="668" stroke-width=".6"/><line x1="57" y1="624" x2="63" y2="624" stroke-width=".6"/><line x1="57" y1="536" x2="63" y2="536" stroke-width=".6"/><line x1="57" y1="492" x2="63" y2="492" stroke-width=".6"/><line x1="57" y1="448" x2="63" y2="448" stroke-width=".6"/><line x1="57" y1="404" x2="63" y2="404" stroke-width=".6"/><line x1="57" y1="316" x2="63" y2="316" stroke-width=".6"/><line x1="57" y1="272" x2="63" y2="272" stroke-width=".6"/><line x1="57" y1="228" x2="63" y2="228" stroke-width=".6"/><line x1="57" y1="184" x2="63" y2="184" stroke-width=".6"/></g><g fill="#635C4C" opacity=".45"><ellipse cx="160" cy="320" rx="20" ry="26"/><path d="M160 346 C138 350 126 360 124 380 L118 500 L130 502 L138 410 L140 520 L142 690 L156 690 L160 540 L164 690 L178 690 L180 520 L182 410 L190 502 L202 500 L196 380 C194 360 182 350 160 346 Z"/></g><text x="160" y="712" text-anchor="middle" font-family="Overpass Mono, monospace" font-size="10" fill="#635C4C">1.80 m</text><text x="470" y="730" text-anchor="middle" font-family="Overpass Mono, monospace" font-size="11" letter-spacing="3" fill="#635C4C">FRONT</text><text x="820" y="730" text-anchor="middle" font-family="Overpass Mono, monospace" font-size="11" letter-spacing="3" fill="#635C4C">SIDE</text>
<g id="drawing">
<ellipse cx="470" cy="692" rx="120" ry="7" fill="#0B0A08" opacity=".7"/>
<path d="M 455.7 456.4 L 484.3 456.4 L 481.9 499.3 L 458.1 499.3 Z" fill="url(#mail)" />
<path d="M 481.9 665.0 L 504.6 665.0 C 507.7 675.7 511.0 685.2 510.0 690.0 L 477.1 690.0 C 478.1 680.5 480.5 672.1 481.9 665.0 Z" fill="url(#wh)" stroke="#101112" stroke-width="0.8" />
<path d="M 458.1 665.0 L 435.4 665.0 C 432.3 675.7 429.0 685.2 430.0 690.0 L 462.9 690.0 C 461.9 680.5 459.5 672.1 458.1 665.0 Z" fill="url(#wh)" stroke="#101112" stroke-width="0.8" />
<path d="M 479.5 670.9 L 508.6 670.9" fill="none" stroke="#2E3032" stroke-width="1" />
<path d="M 460.5 670.9 L 431.4 670.9" fill="none" stroke="#2E3032" stroke-width="1" />
<path d="M 479.5 676.9 L 508.6 676.9" fill="none" stroke="#2E3032" stroke-width="1" />
<path d="M 460.5 676.9 L 431.4 676.9" fill="none" stroke="#2E3032" stroke-width="1" />
<path d="M 479.5 682.9 L 508.6 682.9" fill="none" stroke="#2E3032" stroke-width="1" />
<path d="M 460.5 682.9 L 431.4 682.9" fill="none" stroke="#2E3032" stroke-width="1" />
<path d="M 483.1 580.4 C 481.9 606.6 483.1 637.6 484.3 666.2 L 504.6 666.2 C 506.9 637.6 510.5 611.4 509.3 580.4 Z" fill="url(#wh)" stroke="#101112" stroke-width="1" />
<path d="M 456.9 580.4 C 458.1 606.6 456.9 637.6 455.7 666.2 L 435.4 666.2 C 433.1 637.6 429.5 611.4 430.7 580.4 Z" fill="url(#wh)" stroke="#101112" stroke-width="1" />
<path d="M 496.2 580.4 L 494.5 663.8" fill="none" stroke="#D6D8D8" stroke-width="1" />
<path d="M 443.8 580.4 L 445.5 663.8" fill="none" stroke="#D6D8D8" stroke-width="1" />
<path d="M 474.8 485.0 C 493.8 480.3 515.3 485.0 517.7 499.3 C 518.9 523.2 515.3 542.2 512.9 556.5 L 481.9 556.5 C 479.5 535.1 477.1 511.2 474.8 485.0 Z" fill="url(#wh)" stroke="#101112" stroke-width="1" />
<path d="M 465.2 485.0 C 446.2 480.3 424.7 485.0 422.3 499.3 C 421.1 523.2 424.7 542.2 427.1 556.5 L 458.1 556.5 C 460.5 535.1 462.9 511.2 465.2 485.0 Z" fill="url(#wh)" stroke="#101112" stroke-width="1" />
<path d="M 486.7 489.8 C 487.9 511.2 486.7 532.7 485.5 547.0" fill="none" stroke="#2E3032" stroke-width="1.6" opacity=".75"/>
<path d="M 453.3 489.8 C 452.1 511.2 453.3 532.7 454.5 547.0" fill="none" stroke="#2E3032" stroke-width="1.6" opacity=".75"/>
<path d="M 486.7 489.8 C 487.9 511.2 486.7 532.7 485.5 547.0" fill="none" stroke="#D6D8D8" stroke-width="0.6" opacity=".8" transform="translate(1.4,0)"/>
<path d="M 453.3 489.8 C 452.1 511.2 453.3 532.7 454.5 547.0" fill="none" stroke="#D6D8D8" stroke-width="0.6" opacity=".8" transform="translate(1.4,0)"/>
<path d="M 496.2 489.8 C 497.4 511.2 496.2 532.7 495.0 547.0" fill="none" stroke="#2E3032" stroke-width="1.6" opacity=".75"/>
<path d="M 443.8 489.8 C 442.6 511.2 443.8 532.7 445.0 547.0" fill="none" stroke="#2E3032" stroke-width="1.6" opacity=".75"/>
<path d="M 496.2 489.8 C 497.4 511.2 496.2 532.7 495.0 547.0" fill="none" stroke="#D6D8D8" stroke-width="0.6" opacity=".8" transform="translate(1.4,0)"/>
<path d="M 443.8 489.8 C 442.6 511.2 443.8 532.7 445.0 547.0" fill="none" stroke="#D6D8D8" stroke-width="0.6" opacity=".8" transform="translate(1.4,0)"/>
<path d="M 505.8 489.8 C 506.9 511.2 505.8 532.7 504.6 547.0" fill="none" stroke="#2E3032" stroke-width="1.6" opacity=".75"/>
<path d="M 434.2 489.8 C 433.1 511.2 434.2 532.7 435.4 547.0" fill="none" stroke="#2E3032" stroke-width="1.6" opacity=".75"/>
<path d="M 505.8 489.8 C 506.9 511.2 505.8 532.7 504.6 547.0" fill="none" stroke="#D6D8D8" stroke-width="0.6" opacity=".8" transform="translate(1.4,0)"/>
<path d="M 434.2 489.8 C 433.1 511.2 434.2 532.7 435.4 547.0" fill="none" stroke="#D6D8D8" stroke-width="0.6" opacity=".8" transform="translate(1.4,0)"/>
<path d="M 480.7 555.3 C 489.1 548.2 505.8 548.2 512.9 555.3 L 514.1 580.4 C 503.4 587.5 489.1 587.5 480.7 580.4 Z" fill="url(#whR)" stroke="#101112" stroke-width="1" />
<path d="M 459.3 555.3 C 450.9 548.2 434.2 548.2 427.1 555.3 L 425.9 580.4 C 436.6 587.5 450.9 587.5 459.3 580.4 Z" fill="url(#whR)" stroke="#101112" stroke-width="1" />
<path d="M 511.9 555.3 C 527.2 557.7 529.6 578.0 515.3 583.9 C 517.7 573.2 516.5 563.7 511.9 555.3 Z" fill="url(#whV)" stroke="#101112" stroke-width="0.8" />
<path d="M 428.1 555.3 C 412.8 557.7 410.4 578.0 424.7 583.9 C 422.3 573.2 423.5 563.7 428.1 555.3 Z" fill="url(#whV)" stroke="#101112" stroke-width="0.8" />
<path d="M 514.3 561.3 L 524.8 563.7" fill="none" stroke="#2E3032" stroke-width="0.9" />
<path d="M 425.7 561.3 L 415.2 563.7" fill="none" stroke="#2E3032" stroke-width="0.9" />
<path d="M 514.3 568.5 L 524.8 570.8" fill="none" stroke="#2E3032" stroke-width="0.9" />
<path d="M 425.7 568.5 L 415.2 570.8" fill="none" stroke="#2E3032" stroke-width="0.9" />
<path d="M 514.3 575.6 L 524.8 578.0" fill="none" stroke="#2E3032" stroke-width="0.9" />
<path d="M 425.7 575.6 L 415.2 578.0" fill="none" stroke="#2E3032" stroke-width="0.9" />
<path d="M 486.7 566.1 C 491.4 562.5 503.4 562.5 508.1 566.1" fill="none" stroke="#2E3032" stroke-width="1.2" />
<path d="M 453.3 566.1 C 448.6 562.5 436.6 562.5 431.9 566.1" fill="none" stroke="#2E3032" stroke-width="1.2" />
<path d="M 476.0 455.2 L 516.5 452.9 L 520.5 494.6 L 498.6 514.8 L 478.3 499.3 Z" fill="url(#wh)" stroke="#101112" stroke-width="1" />
<path d="M 464.0 455.2 L 423.5 452.9 L 419.5 494.6 L 441.4 514.8 L 461.7 499.3 Z" fill="url(#wh)" stroke="#101112" stroke-width="1" />
<path d="M 486.7 456.4 L 495.0 506.5" fill="none" stroke="#2E3032" stroke-width="1.2800000000000002" opacity=".75"/>
<path d="M 453.3 456.4 L 445.0 506.5" fill="none" stroke="#2E3032" stroke-width="1.2800000000000002" opacity=".75"/>
<path d="M 486.7 456.4 L 495.0 506.5" fill="none" stroke="#D6D8D8" stroke-width="0.48" opacity=".8" transform="translate(1.4,0)"/>
<path d="M 453.3 456.4 L 445.0 506.5" fill="none" stroke="#D6D8D8" stroke-width="0.48" opacity=".8" transform="translate(1.4,0)"/>
<path d="M 498.6 456.4 L 498.6 506.5" fill="none" stroke="#2E3032" stroke-width="1.2800000000000002" opacity=".75"/>
<path d="M 441.4 456.4 L 441.4 506.5" fill="none" stroke="#2E3032" stroke-width="1.2800000000000002" opacity=".75"/>
<path d="M 498.6 456.4 L 498.6 506.5" fill="none" stroke="#D6D8D8" stroke-width="0.48" opacity=".8" transform="translate(1.4,0)"/>
<path d="M 441.4 456.4 L 441.4 506.5" fill="none" stroke="#D6D8D8" stroke-width="0.48" opacity=".8" transform="translate(1.4,0)"/>
<path d="M 510.5 456.4 L 502.2 506.5" fill="none" stroke="#2E3032" stroke-width="1.2800000000000002" opacity=".75"/>
<path d="M 429.5 456.4 L 437.8 506.5" fill="none" stroke="#2E3032" stroke-width="1.2800000000000002" opacity=".75"/>
<path d="M 510.5 456.4 L 502.2 506.5" fill="none" stroke="#D6D8D8" stroke-width="0.48" opacity=".8" transform="translate(1.4,0)"/>
<path d="M 429.5 456.4 L 437.8 506.5" fill="none" stroke="#D6D8D8" stroke-width="0.48" opacity=".8" transform="translate(1.4,0)"/>
<path d="M 424.7 431.4 L 515.3 431.4 L 521.2 457.6 L 418.8 457.6 Z" fill="url(#wh)" stroke="#101112" stroke-width="1" />
<path d="M 422.3 439.8 L 517.7 439.8" fill="none" stroke="#2E3032" stroke-width="1.3" />
<path d="M 422.3 440.7 L 517.7 440.7" fill="none" stroke="#D6D8D8" stroke-width="0.5" />
<path d="M 422.3 448.1 L 517.7 448.1" fill="none" stroke="#2E3032" stroke-width="1.3" />
<path d="M 422.3 449.0 L 517.7 449.0" fill="none" stroke="#D6D8D8" stroke-width="0.5" />
<g><circle cx="429.5" cy="444.5" r="1.4" fill="#6E7174"/><circle cx="429.1" cy="444.1" r="0.6" fill="#E0E0DC"/><circle cx="510.5" cy="444.5" r="1.4" fill="#6E7174"/><circle cx="510.1" cy="444.1" r="0.6" fill="#E0E0DC"/><circle cx="427.1" cy="452.9" r="1.4" fill="#6E7174"/><circle cx="426.7" cy="452.4" r="0.6" fill="#E0E0DC"/><circle cx="512.9" cy="452.9" r="1.4" fill="#6E7174"/><circle cx="512.5" cy="452.4" r="0.6" fill="#E0E0DC"/></g>
<path d="M 422.3 427.8 C 458.1 437.4 493.8 446.9 520.0 454.1 L 522.4 444.5 C 493.8 435.0 458.1 425.4 424.7 418.3 Z" fill="url(#red)" stroke="#3A0E10" stroke-width="0.8" />
<path d="M 517.7 449.3 C 529.6 463.6 527.2 485.0 532.0 499.3 L 526.0 499.3 C 522.4 482.6 522.4 466.0 515.3 451.7 Z" fill="url(#red)" stroke="#3A0E10" stroke-width="0.8" />
<path d="M 520.0 451.7 C 524.8 461.2 536.7 468.4 539.1 482.6 L 534.4 482.6 C 532.0 473.1 522.4 463.6 517.7 456.4 Z" fill="#6E1C20" />
<path d="M 415.2 342.0 C 417.6 365.9 422.3 399.2 431.9 423.1 L 428.3 432.6 L 511.7 432.6 L 508.1 423.1 C 517.7 399.2 522.4 365.9 524.8 342.0 C 503.4 332.5 436.6 332.5 415.2 342.0 Z" fill="url(#wh)" stroke="#101112" stroke-width="1.2" />
<path d="M 470.0 337.3 L 470.0 380.2" fill="none" stroke="#D6D8D8" stroke-width="1.2" />
<path d="M 428.3 432.6 C 425.9 415.9 428.3 399.2 435.4 389.7 C 441.4 392.1 446.2 384.9 449.7 388.5 C 454.5 382.6 459.3 384.9 461.7 380.2 L 470.0 363.5 L 478.3 380.2 C 480.7 384.9 485.5 382.6 490.3 388.5 C 493.8 384.9 498.6 392.1 504.6 389.7 C 511.7 399.2 514.1 415.9 511.7 432.6 Z" fill="url(#wh)" stroke="#101112" stroke-width="1.2" />
<path d="M 472.9 430.2 C 475.0 415.9 477.1 404.0 477.1 389.7" fill="none" stroke="#2E3032" stroke-width="1.6" opacity=".75"/>
<path d="M 467.1 430.2 C 465.0 415.9 462.9 404.0 462.9 389.7" fill="none" stroke="#2E3032" stroke-width="1.6" opacity=".75"/>
<path d="M 472.9 430.2 C 475.0 415.9 477.1 404.0 477.1 389.7" fill="none" stroke="#D6D8D8" stroke-width="0.6" opacity=".8" transform="translate(1.4,0)"/>
<path d="M 467.1 430.2 C 465.0 415.9 462.9 404.0 462.9 389.7" fill="none" stroke="#D6D8D8" stroke-width="0.6" opacity=".8" transform="translate(1.4,0)"/>
<path d="M 476.7 430.2 C 481.7 415.9 486.7 404.0 486.7 389.7" fill="none" stroke="#2E3032" stroke-width="1.6" opacity=".75"/>
<path d="M 463.3 430.2 C 458.3 415.9 453.3 404.0 453.3 389.7" fill="none" stroke="#2E3032" stroke-width="1.6" opacity=".75"/>
<path d="M 476.7 430.2 C 481.7 415.9 486.7 404.0 486.7 389.7" fill="none" stroke="#D6D8D8" stroke-width="0.6" opacity=".8" transform="translate(1.4,0)"/>
<path d="M 463.3 430.2 C 458.3 415.9 453.3 404.0 453.3 389.7" fill="none" stroke="#D6D8D8" stroke-width="0.6" opacity=".8" transform="translate(1.4,0)"/>
<path d="M 480.5 430.2 C 488.4 415.9 496.2 404.0 496.2 389.7" fill="none" stroke="#2E3032" stroke-width="1.6" opacity=".75"/>
<path d="M 459.5 430.2 C 451.6 415.9 443.8 404.0 443.8 389.7" fill="none" stroke="#2E3032" stroke-width="1.6" opacity=".75"/>
<path d="M 480.5 430.2 C 488.4 415.9 496.2 404.0 496.2 389.7" fill="none" stroke="#D6D8D8" stroke-width="0.6" opacity=".8" transform="translate(1.4,0)"/>
<path d="M 459.5 430.2 C 451.6 415.9 443.8 404.0 443.8 389.7" fill="none" stroke="#D6D8D8" stroke-width="0.6" opacity=".8" transform="translate(1.4,0)"/>
<path d="M 484.3 430.2 C 495.0 415.9 505.8 404.0 505.8 389.7" fill="none" stroke="#2E3032" stroke-width="1.6" opacity=".75"/>
<path d="M 455.7 430.2 C 445.0 415.9 434.2 404.0 434.2 389.7" fill="none" stroke="#2E3032" stroke-width="1.6" opacity=".75"/>
<path d="M 484.3 430.2 C 495.0 415.9 505.8 404.0 505.8 389.7" fill="none" stroke="#D6D8D8" stroke-width="0.6" opacity=".8" transform="translate(1.4,0)"/>
<path d="M 455.7 430.2 C 445.0 415.9 434.2 404.0 434.2 389.7" fill="none" stroke="#D6D8D8" stroke-width="0.6" opacity=".8" transform="translate(1.4,0)"/>
<path d="M 427.1 356.3 L 441.4 356.3 L 441.4 365.9 L 427.1 363.5 Z" fill="#4A4D50" stroke="#101112" stroke-width="0.8" />
<g><circle cx="429.5" cy="359.9" r="1.2" fill="#6E7174"/><circle cx="429.1" cy="359.6" r="0.5" fill="#E0E0DC"/><circle cx="439.0" cy="359.9" r="1.2" fill="#6E7174"/><circle cx="438.7" cy="359.6" r="0.5" fill="#E0E0DC"/></g>
<path d="M 436.6 327.7 C 450.9 337.3 489.1 337.3 503.4 327.7 L 501.0 342.0 C 489.1 346.8 450.9 346.8 439.0 342.0 Z" fill="url(#wh)" stroke="#101112" stroke-width="1" />
<path d="M 526.0 370.6 L 548.6 380.2 L 549.1 418.3 L 528.4 418.3 Z" fill="url(#wh)" stroke="#101112" stroke-width="1" />
<path d="M 541.5 402.8 C 551.0 401.6 555.8 413.5 553.4 423.1 C 567.7 420.7 570.1 408.8 565.3 399.2 C 558.2 394.5 548.6 396.9 541.5 402.8 Z" fill="url(#whV)" stroke="#101112" stroke-width="0.8" />
<path d="M 524.3 406.4 C 532.0 400.4 548.6 400.4 553.9 410.0 L 553.9 427.8 C 546.3 432.6 529.6 432.6 524.3 427.8 Z" fill="url(#whR)" stroke="#101112" stroke-width="1" />
<path d="M 555.8 419.5 L 558.2 402.8" fill="none" stroke="#2E3032" stroke-width="0.8" />
<path d="M 560.6 419.5 L 563.0 402.8" fill="none" stroke="#2E3032" stroke-width="0.8" />
<path d="M 414.0 370.6 L 391.4 380.2 L 390.9 418.3 L 411.6 418.3 Z" fill="url(#wh)" stroke="#101112" stroke-width="1" />
<path d="M 398.5 402.8 C 389.0 401.6 384.2 413.5 386.6 423.1 C 372.3 420.7 369.9 408.8 374.7 399.2 C 381.8 394.5 391.4 396.9 398.5 402.8 Z" fill="url(#whV)" stroke="#101112" stroke-width="0.8" />
<path d="M 415.7 406.4 C 408.0 400.4 391.4 400.4 386.1 410.0 L 386.1 427.8 C 393.7 432.6 410.4 432.6 415.7 427.8 Z" fill="url(#whR)" stroke="#101112" stroke-width="1" />
<path d="M 384.2 419.5 L 381.8 402.8" fill="none" stroke="#2E3032" stroke-width="0.8" />
<path d="M 379.4 419.5 L 377.1 402.8" fill="none" stroke="#2E3032" stroke-width="0.8" />
<path d="M 528.4 427.8 L 551.0 427.8 C 552.2 451.7 549.8 468.4 547.5 480.3 L 530.8 480.3 C 529.6 463.6 528.4 446.9 528.4 427.8 Z" fill="url(#wh)" stroke="#101112" stroke-width="1" />
<path d="M 526.0 475.5 L 552.9 475.5 L 549.1 489.8 C 549.1 499.3 545.6 508.9 539.6 511.2 C 533.6 511.2 530.1 504.1 530.1 492.2 Z" fill="url(#wh)" stroke="#101112" stroke-width="1" />
<path d="M 532.0 491.0 L 533.2 506.5" fill="none" stroke="#2E3032" stroke-width="1" />
<path d="M 537.9 491.0 L 539.1 506.5" fill="none" stroke="#2E3032" stroke-width="1" />
<path d="M 543.9 491.0 L 545.1 506.5" fill="none" stroke="#2E3032" stroke-width="1" />
<path d="M 526.0 475.5 L 552.9 475.5 L 552.2 479.1 L 526.7 479.1 Z" fill="#D6D8D8" opacity=".6"/>
<path d="M 411.6 427.8 L 389.0 427.8 C 384.2 446.9 380.6 461.2 378.2 470.7 L 394.2 475.5 C 398.5 461.2 405.6 444.5 411.6 427.8 Z" fill="url(#wh)" stroke="#101112" stroke-width="1" />
<path d="M 505.8 332.5 C 527.2 320.6 551.0 327.7 555.8 351.6 C 558.2 370.6 553.4 384.9 548.6 389.7 C 539.1 380.2 522.4 373.0 512.9 365.9 Z" fill="url(#whR)" stroke="#101112" stroke-width="1.2" />
<path d="M 515.3 339.7 C 529.6 342.0 543.9 346.8 553.4 356.3" fill="none" stroke="#2E3032" stroke-width="1.3" />
<path d="M 515.3 338.7 C 529.6 341.1 543.9 345.8 553.4 355.4" fill="none" stroke="#D6D8D8" stroke-width="0.6" />
<path d="M 515.3 351.6 C 529.6 354.0 543.9 358.7 553.4 368.3" fill="none" stroke="#2E3032" stroke-width="1.3" />
<path d="M 515.3 350.6 C 529.6 353.0 543.9 357.8 553.4 367.3" fill="none" stroke="#D6D8D8" stroke-width="0.6" />
<path d="M 515.3 363.5 C 529.6 365.9 543.9 370.6 553.4 380.2" fill="none" stroke="#2E3032" stroke-width="1.3" />
<path d="M 515.3 362.5 C 529.6 364.9 543.9 369.7 553.4 379.2" fill="none" stroke="#D6D8D8" stroke-width="0.6" />
<circle cx="521.2" cy="380.2" r="10.7" fill="url(#whR)" stroke="#101112"/>
<circle cx="521.2" cy="380.2" r="2.9" fill="#4A4D50"/>
<path d="M 434.2 332.5 C 412.8 321.5 392.5 327.7 388.3 351.6 C 386.1 370.6 390.4 384.9 394.7 389.7 C 400.9 380.2 417.6 373.0 427.1 365.9 Z" fill="url(#whR)" stroke="#101112" stroke-width="1.2" />
<path d="M 424.7 339.7 C 410.4 342.0 396.1 346.8 390.4 356.3" fill="none" stroke="#2E3032" stroke-width="1.3" />
<path d="M 424.7 338.7 C 410.4 341.1 396.1 345.8 390.4 355.4" fill="none" stroke="#D6D8D8" stroke-width="0.6" />
<path d="M 424.7 351.6 C 410.4 354.0 396.1 358.7 390.4 368.3" fill="none" stroke="#2E3032" stroke-width="1.3" />
<path d="M 424.7 350.6 C 410.4 353.0 396.1 357.8 390.4 367.3" fill="none" stroke="#D6D8D8" stroke-width="0.6" />
<path d="M 424.7 363.5 C 410.4 365.9 396.1 370.6 390.4 380.2" fill="none" stroke="#2E3032" stroke-width="1.3" />
<path d="M 424.7 362.5 C 410.4 364.9 396.1 369.7 390.4 379.2" fill="none" stroke="#D6D8D8" stroke-width="0.6" />
<circle cx="418.8" cy="380.2" r="10.7" fill="url(#whR)" stroke="#101112"/>
<circle cx="418.8" cy="380.2" r="2.9" fill="#4A4D50"/>
<path d="M 370.9 690.0 L 378.5 690.0 L 378.5 356.3 L 370.9 356.3 Z" fill="url(#ash)" />
<path d="M 369.9 690.0 L 379.4 690.0 L 379.4 678.1 L 369.9 678.1 Z" fill="url(#whV)" />
<path d="M 371.8 690.0 L 374.7 690.0 L 377.5 690.0 Z" fill="#4A4D50" />
<path d="M 370.4 439.8 L 379.0 439.8 L 379.0 339.7 L 370.4 339.7 Z" fill="url(#wh)" stroke="#101112" stroke-width="0.8" />
<g><circle cx="374.7" cy="427.8" r="1.0" fill="#6E7174"/><circle cx="374.4" cy="427.5" r="0.4" fill="#E0E0DC"/><circle cx="374.7" cy="408.8" r="1.0" fill="#6E7174"/><circle cx="374.4" cy="408.5" r="0.4" fill="#E0E0DC"/><circle cx="374.7" cy="389.7" r="1.0" fill="#6E7174"/><circle cx="374.4" cy="389.4" r="0.4" fill="#E0E0DC"/><circle cx="374.7" cy="370.6" r="1.0" fill="#6E7174"/><circle cx="374.4" cy="370.3" r="0.4" fill="#E0E0DC"/></g>
<ellipse cx="374.7" cy="446.9" rx="11.9" ry="2.9" fill="url(#wh)" stroke="#101112"/>
<path d="M 370.4 339.7 C 355.6 337.3 338.9 332.5 329.4 325.4 C 333.0 342.0 333.0 356.3 328.2 373.0 C 341.3 368.2 358.0 361.1 370.4 356.3 Z" fill="url(#wh)" stroke="#101112" stroke-width="1" />
<path d="M 329.4 325.4 C 333.0 342.0 333.0 356.3 328.2 373.0" fill="none" stroke="#E0E0DC" stroke-width="1.4" />
<path d="M 379.0 344.4 L 392.5 342.0 L 392.5 358.7 L 379.0 356.3 Z" fill="url(#whV)" stroke="#101112" stroke-width="1" />
<path d="M 392.5 345.6 L 395.2 346.6 L 392.5 348.5 Z" fill="#4A4D50" />
<path d="M 392.5 350.4 L 395.2 351.3 L 392.5 353.2 Z" fill="#4A4D50" />
<path d="M 392.5 355.1 L 395.2 356.1 L 392.5 358.0 Z" fill="#4A4D50" />
<path d="M 369.9 339.7 L 374.7 315.8 L 379.4 339.7 Z" fill="url(#wh)" stroke="#101112" stroke-width="0.8" />
<path d="M 391.4 467.2 C 387.8 468.4 367.5 468.4 365.1 475.5 C 363.9 485.0 367.5 492.2 374.7 494.6 C 381.8 494.6 387.8 489.8 389.0 482.6 Z" fill="url(#wh)" stroke="#101112" stroke-width="1" />
<path d="M 367.5 476.7 L 381.8 476.7" fill="none" stroke="#2E3032" stroke-width="1" />
<path d="M 367.5 482.6 L 381.8 482.6" fill="none" stroke="#2E3032" stroke-width="1" />
<path d="M 367.5 488.6 L 381.8 488.6" fill="none" stroke="#2E3032" stroke-width="1" />
<path d="M 439.0 308.7 C 436.6 284.8 443.8 265.8 455.7 261.0 C 465.2 258.6 474.8 258.6 484.3 261.0 C 496.2 265.8 503.4 284.8 501.0 308.7 C 498.6 323.0 489.1 334.9 470.0 337.3 C 450.9 334.9 441.4 323.0 439.0 308.7 Z" fill="url(#whR)" stroke="#0C0D0E" stroke-width="1.2" />
<path d="M 470.0 261.0 L 470.0 284.8" fill="none" stroke="#D6D8D8" stroke-width="1.4" />
<path d="M 440.2 312.2 C 450.9 330.1 489.1 330.1 499.8 312.2 L 498.6 323.0 C 489.1 334.9 450.9 334.9 441.4 323.0 Z" fill="url(#wh)" stroke="#0C0D0E" stroke-width="0.8" />
<path d="M 442.6 288.4 L 497.4 288.4 C 497.4 302.7 485.5 317.0 470.0 321.8 C 454.5 317.0 442.6 302.7 442.6 288.4 Z" fill="url(#wh)" stroke="#0C0D0E" stroke-width="1" />
<path d="M 470.0 288.4 L 470.0 320.6" fill="none" stroke="#D6D8D8" stroke-width="1.2" />
<path d="M 446.2 292.5 L 466.4 292.5 L 466.4 290.1 L 446.2 290.1 Z" fill="#050505" />
<path d="M 473.6 292.5 L 493.8 292.5 L 493.8 290.1 L 473.6 290.1 Z" fill="#050505" />
<circle cx="477.1" cy="306.3" r="1.3" fill="#050505"/>
<circle cx="480.5" cy="309.1" r="1.3" fill="#050505"/>
<circle cx="483.8" cy="312.0" r="1.3" fill="#050505"/>
<circle cx="487.2" cy="314.9" r="1.3" fill="#050505"/>
<circle cx="490.5" cy="317.7" r="1.3" fill="#050505"/>
<path d="M 453.3 263.4 C 442.6 269.3 439.0 284.8 439.5 303.9" fill="none" stroke="#E0E0DC" stroke-width="1.2" opacity=".8"/>
<g><circle cx="440.2" cy="289.6" r="1.9" fill="#6E7174"/><circle cx="439.6" cy="289.0" r="0.8" fill="#E0E0DC"/><circle cx="499.8" cy="289.6" r="1.9" fill="#6E7174"/><circle cx="499.2" cy="289.0" r="0.8" fill="#E0E0DC"/></g>
<g fill="#1E1B17" opacity="0.45"><ellipse cx="416.5" cy="649.8" rx="0.9" ry="0.7"/><ellipse cx="430.4" cy="649.8" rx="0.7" ry="0.6"/><ellipse cx="431.3" cy="425.2" rx="1.1" ry="0.5"/><ellipse cx="473.9" cy="529.9" rx="0.9" ry="0.9"/><ellipse cx="425.4" cy="682.7" rx="1.4" ry="0.9"/><ellipse cx="436.9" cy="571.9" rx="0.8" ry="0.8"/><ellipse cx="438.2" cy="612.4" rx="1.0" ry="0.8"/><ellipse cx="519.7" cy="390.2" rx="0.8" ry="0.4"/><ellipse cx="506.9" cy="336.4" rx="0.5" ry="0.4"/><ellipse cx="510.4" cy="457.2" rx="0.7" ry="0.6"/><ellipse cx="495.2" cy="620.7" rx="1.1" ry="0.6"/><ellipse cx="419.7" cy="569.9" rx="0.8" ry="0.5"/><ellipse cx="486.1" cy="391.1" rx="1.4" ry="1.4"/><ellipse cx="524.1" cy="407.6" rx="0.8" ry="0.4"/><ellipse cx="483.6" cy="494.9" rx="1.1" ry="0.5"/><ellipse cx="436.3" cy="360.7" rx="1.0" ry="0.9"/><ellipse cx="425.7" cy="547.3" rx="1.3" ry="1.1"/><ellipse cx="523.9" cy="619.6" rx="0.9" ry="0.8"/><ellipse cx="463.9" cy="408.0" rx="1.0" ry="0.5"/><ellipse cx="426.0" cy="338.6" rx="0.6" ry="0.3"/><ellipse cx="451.9" cy="434.9" rx="1.3" ry="0.9"/><ellipse cx="469.8" cy="408.1" rx="0.7" ry="0.5"/><ellipse cx="482.4" cy="462.5" rx="0.5" ry="0.2"/><ellipse cx="430.3" cy="430.8" rx="1.1" ry="1.1"/><ellipse cx="499.3" cy="598.9" rx="1.2" ry="1.2"/><ellipse cx="453.4" cy="686.0" rx="0.8" ry="0.5"/><ellipse cx="434.5" cy="673.9" rx="0.6" ry="0.5"/><ellipse cx="420.7" cy="470.5" rx="0.7" ry="0.3"/><ellipse cx="505.2" cy="583.2" rx="0.7" ry="0.4"/><ellipse cx="491.4" cy="502.5" rx="1.3" ry="0.8"/><ellipse cx="472.6" cy="433.6" rx="0.9" ry="0.8"/><ellipse cx="466.4" cy="642.2" rx="0.6" ry="0.5"/><ellipse cx="496.8" cy="353.0" rx="1.1" ry="0.8"/><ellipse cx="433.4" cy="385.0" rx="0.6" ry="0.4"/><ellipse cx="430.6" cy="553.9" rx="0.8" ry="0.5"/><ellipse cx="493.1" cy="496.4" rx="0.7" ry="0.6"/><ellipse cx="495.8" cy="394.3" rx="0.5" ry="0.4"/><ellipse cx="513.3" cy="597.5" rx="0.7" ry="0.6"/><ellipse cx="455.1" cy="546.5" rx="1.3" ry="0.8"/><ellipse cx="436.9" cy="613.4" rx="0.8" ry="0.7"/><ellipse cx="455.6" cy="414.3" rx="0.5" ry="0.3"/><ellipse cx="483.7" cy="518.6" rx="1.0" ry="0.9"/><ellipse cx="445.6" cy="625.1" rx="0.5" ry="0.4"/><ellipse cx="447.8" cy="520.6" rx="0.5" ry="0.2"/><ellipse cx="456.8" cy="419.2" rx="0.8" ry="0.7"/><ellipse cx="478.7" cy="545.8" rx="1.2" ry="0.7"/><ellipse cx="481.5" cy="387.4" rx="1.0" ry="0.6"/><ellipse cx="425.7" cy="484.8" rx="0.7" ry="0.4"/><ellipse cx="474.7" cy="353.6" rx="1.1" ry="0.8"/><ellipse cx="509.3" cy="579.7" rx="0.8" ry="0.7"/><ellipse cx="475.9" cy="610.8" rx="0.9" ry="0.8"/><ellipse cx="441.7" cy="437.7" rx="0.5" ry="0.5"/><ellipse cx="490.2" cy="574.3" rx="1.4" ry="1.2"/><ellipse cx="421.9" cy="601.2" rx="0.9" ry="0.9"/><ellipse cx="430.6" cy="673.0" rx="0.8" ry="0.3"/><ellipse cx="460.0" cy="497.5" rx="0.9" ry="0.4"/><ellipse cx="417.7" cy="403.0" rx="0.9" ry="0.6"/><ellipse cx="467.6" cy="444.9" rx="1.3" ry="1.2"/><ellipse cx="494.9" cy="568.9" rx="0.6" ry="0.3"/><ellipse cx="509.4" cy="669.7" rx="1.0" ry="1.0"/></g>
<g fill="#1E1B17" opacity="0.5"><ellipse cx="443.8" cy="317.2" rx="0.8" ry="0.7"/><ellipse cx="469.8" cy="281.0" rx="0.6" ry="0.4"/><ellipse cx="491.3" cy="295.1" rx="1.4" ry="1.3"/><ellipse cx="462.0" cy="332.4" rx="1.2" ry="0.6"/><ellipse cx="439.6" cy="280.3" rx="1.3" ry="1.2"/><ellipse cx="498.1" cy="318.1" rx="0.6" ry="0.3"/><ellipse cx="499.6" cy="324.5" rx="0.6" ry="0.3"/><ellipse cx="442.1" cy="329.8" rx="0.8" ry="0.4"/><ellipse cx="458.2" cy="266.1" rx="0.6" ry="0.6"/><ellipse cx="484.8" cy="291.9" rx="1.0" ry="0.9"/><ellipse cx="475.4" cy="316.1" rx="0.8" ry="0.4"/><ellipse cx="463.8" cy="261.9" rx="0.9" ry="0.4"/></g>
<ellipse cx="820" cy="692" rx="120" ry="7" fill="#0B0A08" opacity=".7"/>
<path d="M 871.0 690.0 L 878.6 690.0 L 878.6 356.3 L 871.0 356.3 Z" fill="url(#ash)" />
<path d="M 870.5 439.8 L 879.1 439.8 L 879.1 339.7 L 870.5 339.7 Z" fill="url(#wh)" stroke="#101112" stroke-width="0.8" />
<path d="M 873.4 373.0 L 876.2 373.0 L 876.2 325.4 L 873.4 325.4 Z" fill="#B9BCBD" stroke="#101112" stroke-width="0.6" />
<path d="M 872.0 339.7 L 874.8 315.8 L 877.7 339.7 Z" fill="url(#wh)" stroke="#101112" stroke-width="0.8" />
<ellipse cx="874.8" cy="446.9" rx="11.9" ry="2.9" fill="url(#wh)" stroke="#101112"/>
<path d="M 824.8 423.1 C 839.1 437.4 853.4 451.7 865.3 463.6 L 873.6 454.1 C 860.5 442.1 846.2 427.8 834.3 413.5 Z" fill="#5A5D60" stroke="#101112" stroke-width="0.8" />
<path d="M 864.1 460.0 L 877.2 457.6 L 883.2 468.4 C 885.5 477.9 883.2 487.4 877.2 489.8 C 870.0 491.0 865.3 485.0 866.5 475.5 Z" fill="#6E7174" stroke="#101112" stroke-width="0.8" />
<path d="M 867.7 474.3 L 883.2 474.3" fill="none" stroke="#2E3032" stroke-width="0.9" />
<path d="M 867.7 480.3 L 883.2 480.3" fill="none" stroke="#2E3032" stroke-width="0.9" />
<path d="M 867.7 486.2 L 883.2 486.2" fill="none" stroke="#2E3032" stroke-width="0.9" />
<path d="M 789.0 480.3 C 784.2 511.2 793.8 542.2 800.9 556.5 L 796.2 580.4 C 791.4 604.2 792.6 632.8 798.5 666.2 L 822.4 666.2 C 824.8 637.6 828.3 609.0 827.1 580.4 L 829.5 556.5 C 834.3 535.1 836.7 508.9 836.7 480.3 Z" fill="#3A3C3E" />
<path d="M 798.5 666.2 L 822.4 666.2 C 831.9 675.7 851.0 682.9 870.0 687.6 L 870.0 690.0 L 793.8 690.0 C 792.6 680.5 795.0 673.3 798.5 666.2 Z" fill="#2E3032" />
<path d="M 796.2 480.3 C 791.4 511.2 800.9 542.2 808.1 556.5 L 834.3 556.5 C 839.1 535.1 843.8 508.9 843.8 480.3 Z" fill="url(#wh)" stroke="#101112" stroke-width="1" />
<path d="M 808.1 485.0 C 809.3 508.9 810.5 532.7 810.9 549.4" fill="none" stroke="#2E3032" stroke-width="1.6" opacity=".75"/>
<path d="M 808.1 485.0 C 809.3 508.9 810.5 532.7 810.9 549.4" fill="none" stroke="#D6D8D8" stroke-width="0.6" opacity=".8" transform="translate(1.4,0)"/>
<path d="M 820.0 485.0 C 821.2 508.9 822.4 532.7 822.9 549.4" fill="none" stroke="#2E3032" stroke-width="1.6" opacity=".75"/>
<path d="M 820.0 485.0 C 821.2 508.9 822.4 532.7 822.9 549.4" fill="none" stroke="#D6D8D8" stroke-width="0.6" opacity=".8" transform="translate(1.4,0)"/>
<path d="M 831.9 485.0 C 833.1 508.9 834.3 532.7 834.8 549.4" fill="none" stroke="#2E3032" stroke-width="1.6" opacity=".75"/>
<path d="M 831.9 485.0 C 833.1 508.9 834.3 532.7 834.8 549.4" fill="none" stroke="#D6D8D8" stroke-width="0.6" opacity=".8" transform="translate(1.4,0)"/>
<path d="M 803.3 580.4 C 797.4 604.2 798.5 632.8 804.5 666.2 L 828.3 666.2 C 830.7 637.6 834.3 609.0 833.1 580.4 Z" fill="url(#wh)" stroke="#101112" stroke-width="1" />
<path d="M 805.2 665.0 L 829.5 665.0 C 839.1 674.5 858.1 681.7 877.2 687.1 L 877.2 690.0 L 800.9 690.0 C 799.7 680.5 802.1 672.1 805.2 665.0 Z" fill="url(#whV)" stroke="#101112" stroke-width="1" />
<path d="M 831.9 690.0 L 824.8 668.5" fill="none" stroke="#2E3032" stroke-width="1" />
<path d="M 841.5 690.0 L 834.3 673.3" fill="none" stroke="#2E3032" stroke-width="1" />
<path d="M 851.0 690.0 L 843.8 678.1" fill="none" stroke="#2E3032" stroke-width="1" />
<path d="M 860.5 690.0 L 853.4 682.9" fill="none" stroke="#2E3032" stroke-width="1" />
<path d="M 815.2 550.6 C 831.9 549.4 840.3 566.1 836.7 582.8 L 805.7 582.8 C 808.1 570.8 810.5 558.9 815.2 550.6 Z" fill="url(#whR)" stroke="#101112" stroke-width="1" />
<path d="M 812.9 556.5 C 793.8 553.0 789.0 570.8 805.7 581.6 C 805.7 573.2 809.3 563.7 812.9 556.5 Z" fill="url(#whV)" stroke="#101112" stroke-width="0.8" />
<path d="M 808.1 563.7 L 795.0 562.5" fill="none" stroke="#2E3032" stroke-width="0.9" />
<path d="M 808.1 570.8 L 795.0 569.6" fill="none" stroke="#2E3032" stroke-width="0.9" />
<path d="M 808.1 576.8 L 795.0 575.6" fill="none" stroke="#2E3032" stroke-width="0.9" />
<path d="M 789.0 432.6 C 779.5 446.9 777.1 461.2 781.9 475.5 L 800.9 470.7 L 800.9 432.6 Z" fill="url(#wh)" stroke="#101112" stroke-width="1" />
<path d="M 779.5 444.5 L 800.9 442.1" fill="none" stroke="#2E3032" stroke-width="1.1" />
<path d="M 779.5 456.4 L 800.9 454.1" fill="none" stroke="#2E3032" stroke-width="1.1" />
<path d="M 779.5 466.0 L 800.9 463.6" fill="none" stroke="#2E3032" stroke-width="1.1" />
<path d="M 817.6 454.1 L 853.4 454.1 L 856.9 494.6 L 837.9 512.4 L 818.8 494.6 Z" fill="url(#wh)" stroke="#101112" stroke-width="1" />
<path d="M 827.1 456.4 L 834.5 504.1" fill="none" stroke="#2E3032" stroke-width="1.2800000000000002" opacity=".75"/>
<path d="M 827.1 456.4 L 834.5 504.1" fill="none" stroke="#D6D8D8" stroke-width="0.48" opacity=".8" transform="translate(1.4,0)"/>
<path d="M 837.9 456.4 L 837.9 504.1" fill="none" stroke="#2E3032" stroke-width="1.2800000000000002" opacity=".75"/>
<path d="M 837.9 456.4 L 837.9 504.1" fill="none" stroke="#D6D8D8" stroke-width="0.48" opacity=".8" transform="translate(1.4,0)"/>
<path d="M 848.6 456.4 L 841.0 504.1" fill="none" stroke="#2E3032" stroke-width="1.2800000000000002" opacity=".75"/>
<path d="M 848.6 456.4 L 841.0 504.1" fill="none" stroke="#D6D8D8" stroke-width="0.48" opacity=".8" transform="translate(1.4,0)"/>
<path d="M 789.0 431.4 L 848.6 431.4 L 856.9 457.6 L 780.7 457.6 Z" fill="url(#wh)" stroke="#101112" stroke-width="1" />
<path d="M 796.2 337.3 C 785.4 361.1 785.4 399.2 792.6 432.6 L 843.8 432.6 C 854.6 408.8 859.3 380.2 854.6 356.3 C 849.8 339.7 835.5 332.5 820.0 332.5 Z" fill="url(#wh)" stroke="#101112" stroke-width="1.2" />
<path d="M 843.8 432.6 C 854.6 408.8 859.3 380.2 854.6 356.3 L 851.0 389.7 L 834.3 380.2 L 827.1 404.0 L 820.0 427.8 Z" fill="url(#whV)" stroke="#101112" stroke-width="0.8" opacity=".85"/>
<path d="M 798.5 427.8 C 796.2 399.2 796.2 370.6 800.9 346.8" fill="none" stroke="#2E3032" stroke-width="1.6" opacity=".75"/>
<path d="M 798.5 427.8 C 796.2 399.2 796.2 370.6 800.9 346.8" fill="none" stroke="#D6D8D8" stroke-width="0.6" opacity=".8" transform="translate(1.4,0)"/>
<path d="M 808.1 427.8 C 805.7 399.2 805.7 370.6 810.5 346.8" fill="none" stroke="#2E3032" stroke-width="1.6" opacity=".75"/>
<path d="M 808.1 427.8 C 805.7 399.2 805.7 370.6 810.5 346.8" fill="none" stroke="#D6D8D8" stroke-width="0.6" opacity=".8" transform="translate(1.4,0)"/>
<path d="M 791.4 427.8 C 820.0 435.0 839.1 442.1 853.4 446.9 L 854.6 438.6 C 839.1 433.8 820.0 426.6 792.6 419.5 Z" fill="url(#red)" stroke="#3A0E10" stroke-width="0.8" />
<path d="M 853.4 432.6 L 870.0 432.6 L 870.0 439.8 L 851.0 439.8 Z" fill="#4A4D50" stroke="#101112" stroke-width="0.8" />
<path d="M 798.5 327.7 L 839.1 327.7 L 843.8 342.0 L 793.8 342.0 Z" fill="url(#wh)" stroke="#101112" stroke-width="1" />
<path d="M 789.0 325.4 L 774.7 325.4" fill="none" stroke="#4A4D50" stroke-width="3" />
<circle cx="771.1" cy="325.4" r="9.5" fill="url(#whR)" stroke="#101112"/>
<path d="M 851.0 303.9 C 853.4 280.1 843.8 263.4 824.8 261.0 C 805.7 261.0 791.4 272.9 789.0 294.4 C 787.8 313.4 793.8 327.7 803.3 334.9 L 834.3 337.3 C 846.2 327.7 851.0 315.8 851.0 303.9 Z" fill="url(#whR)" stroke="#0C0D0E" stroke-width="1.2" />
<path d="M 789.0 294.4 C 791.4 272.9 805.7 261.0 824.8 261.0" fill="none" stroke="#E0E0DC" stroke-width="1.2" opacity=".8"/>
<path d="M 815.2 325.4 C 829.5 332.5 843.8 327.7 848.6 318.2" fill="none" stroke="#2E3032" stroke-width="1.2" />
<path d="M 824.8 280.1 C 839.1 280.1 851.0 286.0 854.6 293.2 C 865.3 302.7 865.3 308.7 859.3 313.4 C 849.8 318.2 835.5 320.6 824.8 320.6 C 820.0 308.7 820.0 289.6 824.8 280.1 Z" fill="url(#wh)" stroke="#0C0D0E" stroke-width="1" />
<path d="M 834.3 293.2 L 858.1 295.6 L 857.7 297.9 L 834.3 295.6 Z" fill="#050505" />
<circle cx="836.7" cy="308.7" r="1.3" fill="#050505"/>
<circle cx="841.5" cy="308.7" r="1.3" fill="#050505"/>
<circle cx="846.2" cy="308.7" r="1.3" fill="#050505"/>
<circle cx="851.0" cy="308.7" r="1.3" fill="#050505"/>
<g><circle cx="820.0" cy="294.4" r="2.9" fill="#6E7174"/><circle cx="819.1" cy="293.5" r="1.1" fill="#E0E0DC"/></g>
<path d="M 808.1 356.3 L 831.9 356.3 L 831.9 418.3 L 809.3 418.3 Z" fill="url(#wh)" stroke="#101112" stroke-width="1" />
<path d="M 805.7 406.4 C 802.1 418.3 810.5 430.2 822.4 430.2 C 834.3 427.8 836.7 413.5 831.9 404.0 Z" fill="url(#whR)" stroke="#101112" stroke-width="1" />
<path d="M 805.7 408.8 C 793.8 404.0 789.0 418.3 798.5 427.8 C 800.9 420.7 803.3 413.5 805.7 408.8 Z" fill="url(#whV)" stroke="#101112" stroke-width="0.8" />
<path d="M 810.5 427.8 L 830.7 427.8 C 831.9 451.7 830.7 468.4 829.5 480.3 L 812.9 480.3 C 811.7 463.6 810.5 446.9 810.5 427.8 Z" fill="url(#wh)" stroke="#101112" stroke-width="1" />
<path d="M 809.3 475.5 L 834.3 475.5 L 833.1 489.8 C 834.3 499.3 830.7 508.9 824.8 511.2 C 817.6 511.2 812.9 504.1 812.9 492.2 Z" fill="url(#wh)" stroke="#101112" stroke-width="1" />
<path d="M 786.6 332.5 C 808.1 319.4 836.7 323.0 848.1 342.0 C 852.2 356.3 847.4 373.0 842.6 380.2 C 828.3 370.6 805.7 365.9 790.2 365.9 C 783.1 346.8 783.1 332.5 786.6 320.6 Z" fill="url(#whR)" stroke="#101112" stroke-width="1.2" />
<path d="M 786.6 346.8 C 808.1 346.8 831.9 351.6 846.2 358.7" fill="none" stroke="#2E3032" stroke-width="1.3" />
<path d="M 786.6 345.8 C 808.1 345.8 831.9 350.6 846.2 357.8" fill="none" stroke="#D6D8D8" stroke-width="0.6" />
<path d="M 786.6 356.3 C 808.1 356.3 831.9 361.1 846.2 368.3" fill="none" stroke="#2E3032" stroke-width="1.3" />
<path d="M 786.6 355.4 C 808.1 355.4 831.9 360.1 846.2 367.3" fill="none" stroke="#D6D8D8" stroke-width="0.6" />
<path d="M 786.6 365.9 C 808.1 365.9 831.9 370.6 846.2 377.8" fill="none" stroke="#2E3032" stroke-width="1.3" />
<path d="M 786.6 364.9 C 808.1 364.9 831.9 369.7 846.2 376.8" fill="none" stroke="#D6D8D8" stroke-width="0.6" />
<g fill="#1E1B17" opacity="0.45"><ellipse cx="810.9" cy="607.5" rx="0.6" ry="0.6"/><ellipse cx="825.9" cy="443.3" rx="1.0" ry="0.6"/><ellipse cx="837.7" cy="483.9" rx="1.2" ry="1.0"/><ellipse cx="845.9" cy="532.9" rx="0.6" ry="0.3"/><ellipse cx="837.0" cy="630.1" rx="1.1" ry="0.9"/><ellipse cx="786.4" cy="409.6" rx="0.5" ry="0.5"/><ellipse cx="846.0" cy="612.8" rx="1.2" ry="1.0"/><ellipse cx="791.4" cy="450.5" rx="0.6" ry="0.6"/><ellipse cx="834.4" cy="339.6" rx="0.5" ry="0.3"/><ellipse cx="829.1" cy="472.6" rx="0.7" ry="0.6"/><ellipse cx="846.4" cy="582.2" rx="0.6" ry="0.5"/><ellipse cx="812.9" cy="452.9" rx="0.9" ry="0.6"/><ellipse cx="783.5" cy="641.8" rx="0.9" ry="0.8"/><ellipse cx="814.3" cy="423.9" rx="1.0" ry="0.9"/><ellipse cx="831.8" cy="574.9" rx="0.6" ry="0.3"/><ellipse cx="784.9" cy="381.7" rx="1.3" ry="1.1"/><ellipse cx="790.2" cy="453.9" rx="0.6" ry="0.6"/><ellipse cx="831.9" cy="422.0" rx="1.1" ry="0.7"/><ellipse cx="846.6" cy="346.2" rx="0.7" ry="0.5"/><ellipse cx="837.8" cy="446.9" rx="0.9" ry="0.6"/><ellipse cx="855.7" cy="591.4" rx="0.7" ry="0.6"/><ellipse cx="803.0" cy="369.2" rx="0.8" ry="0.8"/><ellipse cx="810.8" cy="373.6" rx="1.2" ry="1.0"/><ellipse cx="798.2" cy="631.3" rx="0.5" ry="0.3"/><ellipse cx="832.7" cy="667.0" rx="0.7" ry="0.5"/><ellipse cx="793.7" cy="572.4" rx="0.7" ry="0.6"/><ellipse cx="790.9" cy="333.4" rx="1.0" ry="0.9"/><ellipse cx="824.0" cy="512.0" rx="1.4" ry="1.3"/><ellipse cx="844.6" cy="679.3" rx="1.0" ry="1.0"/><ellipse cx="830.5" cy="506.6" rx="1.1" ry="0.6"/><ellipse cx="837.4" cy="409.8" rx="0.5" ry="0.4"/><ellipse cx="827.3" cy="564.2" rx="1.1" ry="1.1"/><ellipse cx="851.0" cy="580.0" rx="0.6" ry="0.6"/><ellipse cx="828.5" cy="393.4" rx="1.3" ry="0.7"/><ellipse cx="826.7" cy="581.6" rx="1.2" ry="1.0"/><ellipse cx="800.1" cy="511.2" rx="1.0" ry="0.6"/><ellipse cx="795.8" cy="520.5" rx="0.5" ry="0.4"/><ellipse cx="853.6" cy="394.7" rx="0.5" ry="0.5"/><ellipse cx="836.5" cy="436.8" rx="0.5" ry="0.4"/><ellipse cx="796.8" cy="402.9" rx="0.8" ry="0.5"/><ellipse cx="795.0" cy="379.8" rx="0.7" ry="0.6"/><ellipse cx="821.1" cy="636.9" rx="1.1" ry="0.8"/><ellipse cx="783.9" cy="395.6" rx="0.7" ry="0.3"/><ellipse cx="840.3" cy="430.1" rx="0.8" ry="0.4"/><ellipse cx="822.1" cy="480.4" rx="1.1" ry="0.8"/><ellipse cx="825.2" cy="432.3" rx="0.7" ry="0.3"/><ellipse cx="818.8" cy="420.4" rx="1.2" ry="1.1"/><ellipse cx="815.3" cy="434.9" rx="0.6" ry="0.4"/><ellipse cx="787.0" cy="391.4" rx="1.4" ry="1.1"/><ellipse cx="839.3" cy="556.9" rx="1.2" ry="0.6"/></g>
<text x="470" y="712" text-anchor="middle" font-family="Overpass Mono, monospace" font-size="10" fill="#635C4C">poleaxe 1.70 m · passes 2.88 m arches upright</text>
</g>
<g id="callouts" font-family="Overpass Mono, monospace">
<circle cx="455.7" cy="270.5" r="2.6" fill="#DCD2BA"/><polyline points="455.7,270.5 358.0,156.0" fill="none" stroke="#9A9078" stroke-width="0.9"/>
<text x="352.0" y="160.0" text-anchor="end" font-family="Overpass Mono, monospace" font-size="12" fill="#DCD2BA" >ARMET</text>
<text x="352.0" y="174.0" text-anchor="end" font-family="Overpass Mono, monospace" font-size="10.5" fill="#9A9078" >visor + wrapper, rondel</text>
<circle cx="341.3" cy="342.0" r="2.6" fill="#DCD2BA"/><polyline points="341.3,342.0 358.0,211.0" fill="none" stroke="#9A9078" stroke-width="0.9"/>
<text x="352.0" y="215.0" text-anchor="end" font-family="Overpass Mono, monospace" font-size="12" fill="#DCD2BA" >POLEAXE HEAD</text>
<text x="352.0" y="229.0" text-anchor="end" font-family="Overpass Mono, monospace" font-size="10.5" fill="#9A9078" >axe, 4-pt hammer, spike</text>
<circle cx="403.3" cy="351.6" r="2.6" fill="#DCD2BA"/><polyline points="403.3,351.6 358.0,266.0" fill="none" stroke="#9A9078" stroke-width="0.9"/>
<text x="352.0" y="270.0" text-anchor="end" font-family="Overpass Mono, monospace" font-size="12" fill="#DCD2BA" >PAULDRON</text>
<text x="352.0" y="284.0" text-anchor="end" font-family="Overpass Mono, monospace" font-size="10.5" fill="#9A9078" >fluted, besagew</text>
<circle cx="446.2" cy="411.2" r="2.6" fill="#DCD2BA"/><polyline points="446.2,411.2 358.0,366.0" fill="none" stroke="#9A9078" stroke-width="0.9"/>
<text x="352.0" y="370.0" text-anchor="end" font-family="Overpass Mono, monospace" font-size="12" fill="#DCD2BA" >CUSPED PLACKART</text>
<text x="352.0" y="384.0" text-anchor="end" font-family="Overpass Mono, monospace" font-size="10.5" fill="#9A9078" >rising to a point</text>
<circle cx="374.7" cy="446.9" r="2.6" fill="#DCD2BA"/><polyline points="374.7,446.9 358.0,436.0" fill="none" stroke="#9A9078" stroke-width="0.9"/>
<text x="352.0" y="440.0" text-anchor="end" font-family="Overpass Mono, monospace" font-size="12" fill="#DCD2BA" >RONDEL GUARD</text>
<text x="352.0" y="454.0" text-anchor="end" font-family="Overpass Mono, monospace" font-size="10.5" fill="#9A9078" >on langets, 0.11 m</text>
<circle cx="441.4" cy="499.3" r="2.6" fill="#DCD2BA"/><polyline points="441.4,499.3 358.0,506.0" fill="none" stroke="#9A9078" stroke-width="0.9"/>
<text x="352.0" y="510.0" text-anchor="end" font-family="Overpass Mono, monospace" font-size="12" fill="#DCD2BA" >POINTED TASSET</text>
<text x="352.0" y="524.0" text-anchor="end" font-family="Overpass Mono, monospace" font-size="10.5" fill="#9A9078" >fluted, 3 flutes</text>
<circle cx="860.5" cy="306.3" r="2.6" fill="#DCD2BA"/><polyline points="860.5,306.3 972.0,166.0" fill="none" stroke="#9A9078" stroke-width="0.9"/>
<text x="978.0" y="170.0" font-family="Overpass Mono, monospace" font-size="12" fill="#DCD2BA" >SPARROW-BEAK VISOR</text>
<text x="978.0" y="184.0" font-family="Overpass Mono, monospace" font-size="10.5" fill="#9A9078" >pivots, breaths R side</text>
<circle cx="771.1" cy="325.4" r="2.6" fill="#DCD2BA"/><polyline points="771.1,325.4 972.0,246.0" fill="none" stroke="#9A9078" stroke-width="0.9"/>
<text x="978.0" y="250.0" font-family="Overpass Mono, monospace" font-size="12" fill="#DCD2BA" >RONDEL</text>
<text x="978.0" y="264.0" font-family="Overpass Mono, monospace" font-size="10.5" fill="#9A9078" >disc on the armet tail</text>
<circle cx="798.5" cy="418.3" r="2.6" fill="#DCD2BA"/><polyline points="798.5,418.3 972.0,316.0" fill="none" stroke="#9A9078" stroke-width="0.9"/>
<text x="978.0" y="320.0" font-family="Overpass Mono, monospace" font-size="12" fill="#DCD2BA" >FAN COUTER</text>
<text x="978.0" y="334.0" font-family="Overpass Mono, monospace" font-size="10.5" fill="#9A9078" >wing guards the elbow</text>
<circle cx="843.8" cy="439.8" r="2.6" fill="#DCD2BA"/><polyline points="843.8,439.8 972.0,396.0" fill="none" stroke="#9A9078" stroke-width="0.9"/>
<text x="978.0" y="400.0" font-family="Overpass Mono, monospace" font-size="12" fill="#DCD2BA" >LIVERY SASH</text>
<text x="978.0" y="414.0" font-family="Overpass Mono, monospace" font-size="10.5" fill="#9A9078" >red wool, knotted</text>
<circle cx="798.5" cy="568.5" r="2.6" fill="#DCD2BA"/><polyline points="798.5,568.5 972.0,496.0" fill="none" stroke="#9A9078" stroke-width="0.9"/>
<text x="978.0" y="500.0" font-family="Overpass Mono, monospace" font-size="12" fill="#DCD2BA" >FAN POLEYN</text>
<text x="978.0" y="514.0" font-family="Overpass Mono, monospace" font-size="10.5" fill="#9A9078" >fluted knee wing</text>
<circle cx="851.0" cy="681.7" r="2.6" fill="#DCD2BA"/><polyline points="851.0,681.7 972.0,586.0" fill="none" stroke="#9A9078" stroke-width="0.9"/>
<text x="978.0" y="590.0" font-family="Overpass Mono, monospace" font-size="12" fill="#DCD2BA" >SABATON</text>
<text x="978.0" y="604.0" font-family="Overpass Mono, monospace" font-size="10.5" fill="#9A9078" >7 lames, poulaine toe</text>
</g>
<g id="palette" font-family="Overpass Mono, monospace" font-size="10" fill="#9A9078"><rect x="40" y="748" width="34" height="18" fill="#8E9194" stroke="#332D22" stroke-width=".6"/><text x="80" y="761" font-size="10.0">#8E9194 white harness</text><rect x="227" y="748" width="34" height="18" fill="#6D6E6C" stroke="#332D22" stroke-width=".6"/><text x="267" y="761" font-size="10.0">#6D6E6C mail voiders</text><rect x="413" y="748" width="34" height="18" fill="#9E2A2F" stroke="#332D22" stroke-width=".6"/><text x="453" y="761" font-size="10.0">#9E2A2F livery sash</text><rect x="600" y="748" width="34" height="18" fill="#8A7456" stroke="#332D22" stroke-width=".6"/><text x="640" y="761" font-size="10.0">#8A7456 ash haft</text><rect x="787" y="748" width="34" height="18" fill="#5A4331" stroke="#332D22" stroke-width=".6"/><text x="827" y="761" font-size="10.0">#5A4331 straps</text><rect x="973" y="748" width="34" height="18" fill="#1E1B17" stroke="#332D22" stroke-width=".6"/><text x="1013" y="761" font-size="10.0">#1E1B17 soot</text></g>
</svg>