<svg xmlns="http://www.w3.org/2000/svg" viewBox="0 0 1200 800" width="1200" height="800">
<defs>
<pattern id="grid" width="55" height="55" patternUnits="userSpaceOnUse" x="0" y="690"><path d="M55 0 H0 V55" fill="none" stroke="#262119" stroke-width="1"/></pattern>
<radialGradient id="glow" cx="50%" cy="70%" r="60%"><stop offset="0" stop-color="#2A2012" stop-opacity=".9"/><stop offset="1" stop-color="#14120E" stop-opacity="0"/></radialGradient>
<linearGradient id="stH" x1="0" y1="0" x2="1" y2="0"><stop offset="0" stop-color="#131416"/><stop offset="0.22" stop-color="#3A3B3E"/><stop offset="0.38" stop-color="#6A6B6B"/><stop offset="0.5" stop-color="#2E2F31"/><stop offset="0.8" stop-color="#1E1F21"/><stop offset="1" stop-color="#0E0F10"/></linearGradient>
<linearGradient id="stV" x1="0" y1="0" x2="0" y2="1"><stop offset="0" stop-color="#5A5B5C"/><stop offset="0.25" stop-color="#2E2F31"/><stop offset="1" stop-color="#111213"/></linearGradient>
<radialGradient id="stR" cx="0.38" cy="0.3" r="0.75"><stop offset="0" stop-color="#707172"/><stop offset="0.35" stop-color="#3A3B3E"/><stop offset="1" stop-color="#111214"/></radialGradient>
<pattern id="mail" width="4" height="3.2" patternUnits="userSpaceOnUse"><rect width="4" height="3.2" fill="#2A2B2A"/><path d="M0 1.6 Q2.0 -0.4 4 1.6" fill="none" stroke="#6D6E6C" stroke-width="1.1"/><path d="M-2.0 3.2 Q0 1.2 2.0 3.2 M2.0 3.2 Q4.0 1.2 6.0 3.2" fill="none" stroke="#6D6E6C" stroke-width="1.1"/></pattern>
<linearGradient id="hose" x1="0" y1="0" x2="1" y2="0"><stop offset="0" stop-color="#1E1812"/><stop offset="0.35" stop-color="#4A3C30"/><stop offset="0.6" stop-color="#3A2F26"/><stop offset="1" stop-color="#16110D"/></linearGradient>
<linearGradient id="boot" x1="0" y1="0" x2="1" y2="0"><stop offset="0" stop-color="#2A1E15"/><stop offset="0.4" stop-color="#5A4331"/><stop offset="1" stop-color="#1A120C"/></linearGradient>
<linearGradient id="red" x1="0" y1="0" x2="1" y2="0"><stop offset="0" stop-color="#5E171B"/><stop offset="0.4" stop-color="#9E2A2F"/><stop offset="0.7" stop-color="#8A2328"/><stop offset="1" stop-color="#4E1216"/></linearGradient>
<linearGradient id="wht" x1="0" y1="0" x2="1" y2="0"><stop offset="0" stop-color="#8F887A"/><stop offset="0.3" stop-color="#D6CDB6"/><stop offset="0.6" stop-color="#E4DCC6"/><stop offset="1" stop-color="#9F9784"/></linearGradient>
<linearGradient id="gesso" x1="0" y1="0" x2="1" y2="0"><stop offset="0" stop-color="#B9B09B"/><stop offset="0.5" stop-color="#E0D8C2"/><stop offset="1" stop-color="#A8A08C"/></linearGradient>
<linearGradient id="ridge" x1="0" y1="0" x2="1" y2="0"><stop offset="0" stop-color="#8F887A"/><stop offset="0.3" stop-color="#EAE2CC"/><stop offset="0.6" stop-color="#C9C0AA"/><stop offset="1" stop-color="#6E6858"/></linearGradient>
<linearGradient id="pop" x1="0" y1="0" x2="1" y2="0"><stop offset="0" stop-color="#6E5E44"/><stop offset="0.5" stop-color="#B09A74"/><stop offset="1" stop-color="#7A6848"/></linearGradient>
<linearGradient id="iron" x1="0" y1="0" x2="0" y2="1"><stop offset="0" stop-color="#6A655E"/><stop offset="0.35" stop-color="#3F3C38"/><stop offset="1" stop-color="#1A1917"/></linearGradient>
<linearGradient id="skin" x1="0" y1="0" x2="1" y2="0"><stop offset="0" stop-color="#635C4C"/><stop offset="0.5" stop-color="#9A9078"/><stop offset="1" stop-color="#4A4436"/></linearGradient>
</defs>
<rect width="1200" height="800" fill="#14120E"/>
<rect width="1200" height="800" fill="url(#glow)"/>
<rect x="0" y="120" width="1200" height="570" fill="url(#grid)"/>
<line x1="40" y1="690" x2="1160" y2="690" stroke="#635C4C" stroke-width="1.5"/>
<rect x="12" y="12" width="1176" height="776" fill="none" stroke="#332D22" stroke-width="1"/>
<text x="40" y="54" font-family="Overpass Mono, monospace" font-size="12" letter-spacing="3" fill="#635C4C">THE LATE MEDIEVAL · ENEMY · SPECIAL</text>
<text x="40" y="96" font-family="Eczar, Georgia, serif" font-size="38" font-weight="700" fill="#DCD2BA">Pavisier</text>
<text x="1160" y="54" text-anchor="end" font-family="Overpass Mono, monospace" font-size="12" fill="#9A9078">H 1.80 m · pavise 1.30 m · ≤ 8k tris · 2048²</text>
<text x="1160" y="76" text-anchor="end" font-family="Overpass Mono, monospace" font-size="12" fill="#9A9078">1 m = 220 px · ground y 690</text>
<g font-family="Overpass Mono, monospace" font-size="11" fill="#635C4C" stroke="#635C4C"><line x1="60" y1="690" x2="60" y2="140" stroke-width="1"/><line x1="54" y1="690" x2="66" y2="690"/><text x="72" y="694" stroke="none">0</text><line x1="54" y1="580" x2="66" y2="580"/><text x="72" y="584" stroke="none">0.5</text><line x1="54" y1="470" x2="66" y2="470"/><text x="72" y="474" stroke="none">1.0</text><line x1="54" y1="360" x2="66" y2="360"/><text x="72" y="364" stroke="none">1.5</text><line x1="54" y1="250" x2="66" y2="250"/><text x="72" y="254" stroke="none">2.0</text><line x1="54" y1="140" x2="66" y2="140"/><text x="72" y="144" stroke="none">2.5</text><line x1="57" y1="668" x2="63" y2="668" stroke-width=".6"/><line x1="57" y1="624" x2="63" y2="624" stroke-width=".6"/><line x1="57" y1="536" x2="63" y2="536" stroke-width=".6"/><line x1="57" y1="492" x2="63" y2="492" stroke-width=".6"/><line x1="57" y1="448" x2="63" y2="448" stroke-width=".6"/><line x1="57" y1="404" x2="63" y2="404" stroke-width=".6"/><line x1="57" y1="316" x2="63" y2="316" stroke-width=".6"/><line x1="57" y1="272" x2="63" y2="272" stroke-width=".6"/><line x1="57" y1="228" x2="63" y2="228" stroke-width=".6"/><line x1="57" y1="184" x2="63" y2="184" stroke-width=".6"/></g><g fill="#635C4C" opacity=".45"><ellipse cx="160" cy="320" rx="20" ry="26"/><path d="M160 346 C138 350 126 360 124 380 L118 500 L130 502 L138 410 L140 520 L142 690 L156 690 L160 540 L164 690 L178 690 L180 520 L182 410 L190 502 L202 500 L196 380 C194 360 182 350 160 346 Z"/></g><text x="160" y="712" text-anchor="middle" font-family="Overpass Mono, monospace" font-size="10" fill="#635C4C">1.80 m</text><text x="470" y="730" text-anchor="middle" font-family="Overpass Mono, monospace" font-size="11" letter-spacing="3" fill="#635C4C">FRONT</text><text x="820" y="730" text-anchor="middle" font-family="Overpass Mono, monospace" font-size="11" letter-spacing="3" fill="#635C4C">SIDE</text>
<g id="drawing">
<ellipse cx="470" cy="692" rx="140" ry="7" fill="#0B0A08" opacity=".7"/>
<path d="M 426.0 496.4 C 443.6 494.2 461.2 498.6 463.4 514.0 C 465.6 544.8 459.4 562.4 458.1 580.0 C 460.3 602.0 459.0 624.0 455.0 646.0 C 453.7 657.0 452.8 663.6 452.8 668.0 L 436.1 668.0 C 434.8 646.0 432.6 613.0 432.6 591.0 C 431.5 569.0 428.2 536.0 426.0 496.4 Z" fill="url(#hose)" />
<path d="M 417.2 496.4 C 399.6 494.2 382.0 498.6 379.8 514.0 C 377.6 544.8 383.8 562.4 385.1 580.0 C 382.9 602.0 384.2 624.0 388.2 646.0 C 389.5 657.0 390.4 663.6 390.4 668.0 L 407.1 668.0 C 408.4 646.0 410.6 613.0 410.6 591.0 C 411.7 569.0 415.0 536.0 417.2 496.4 Z" fill="url(#hose)" />
<path d="M 434.4 661.4 L 454.2 661.4 C 457.2 672.4 460.8 683.4 459.4 690.0 L 429.5 690.0 C 429.5 681.2 432.2 672.4 434.4 661.4 Z" fill="url(#boot)" stroke="#120C08" stroke-width="0.8" />
<path d="M 408.8 661.4 L 389.0 661.4 C 386.0 672.4 382.4 683.4 383.8 690.0 L 413.7 690.0 C 413.7 681.2 411.0 672.4 408.8 661.4 Z" fill="url(#boot)" stroke="#120C08" stroke-width="0.8" />
<path d="M 431.5 615.2 L 459.4 615.2 L 459.0 661.4 L 433.7 661.4 Z" fill="url(#boot)" stroke="#120C08" stroke-width="0.8" />
<path d="M 411.7 615.2 L 383.8 615.2 L 384.2 661.4 L 409.5 661.4 Z" fill="url(#boot)" stroke="#120C08" stroke-width="0.8" />
<path d="M 430.8 614.1 L 460.1 614.1 L 460.3 620.7 L 431.1 620.7 Z" fill="#6A5038" />
<path d="M 412.4 614.1 L 383.1 614.1 L 382.9 620.7 L 412.1 620.7 Z" fill="#6A5038" />
<path d="M 377.6 522.8 L 465.6 522.8 L 467.8 536.0 C 443.6 538.2 399.6 538.2 375.4 536.0 Z" fill="url(#mail)" stroke="#1A1B1A" stroke-width="0.8" />
<path d="M 421.6 353.4 C 404.0 353.4 386.4 355.6 371.0 362.2 C 375.4 386.4 377.6 408.4 380.9 426.0 C 384.2 439.2 385.3 448.0 385.3 456.8 C 379.8 476.6 374.3 500.8 369.9 527.2 C 388.6 531.6 406.2 532.7 421.6 532.7 Z" fill="url(#wht)" stroke="#5E574B" stroke-width="0.8" />
<path d="M 421.6 353.4 C 439.2 353.4 456.8 355.6 472.2 362.2 C 467.8 386.4 465.6 408.4 462.3 426.0 C 459.0 439.2 457.9 448.0 457.9 456.8 C 463.4 476.6 468.9 500.8 473.3 527.2 C 454.6 531.6 437.0 532.7 421.6 532.7 Z" fill="url(#red)" stroke="#3A0E10" stroke-width="0.8" />
<path d="M 386.4 461.2 C 382.0 481.0 377.6 503.0 374.1 529.4" fill="none" stroke="#6E6656" stroke-width="1.3" opacity=".8"/>
<path d="M 397.0 461.2 C 393.9 481.0 390.8 503.0 388.4 529.4" fill="none" stroke="#6E6656" stroke-width="1.3" opacity=".8"/>
<path d="M 407.5 461.2 C 405.8 481.0 404.0 503.0 402.7 529.4" fill="none" stroke="#6E6656" stroke-width="1.3" opacity=".8"/>
<path d="M 432.2 461.2 C 433.5 481.0 434.8 503.0 435.9 529.4" fill="none" stroke="#4E1216" stroke-width="1.3" opacity=".8"/>
<path d="M 442.7 461.2 C 445.4 481.0 448.0 503.0 450.2 529.4" fill="none" stroke="#4E1216" stroke-width="1.3" opacity=".8"/>
<path d="M 453.3 461.2 C 457.2 481.0 461.2 503.0 464.3 529.4" fill="none" stroke="#4E1216" stroke-width="1.3" opacity=".8"/>
<path d="M 384.2 463.4 L 459.0 463.4 L 458.6 455.7 L 384.6 455.7 Z" fill="#3A2A1C" stroke="#140E09" stroke-width="0.8" />
<path d="M 417.2 463.8 L 426.0 463.8 L 426.0 455.3 L 417.2 455.3 Z" fill="none" stroke="#6D6E6C" stroke-width="1.4" />
<path d="M 388.6 465.6 L 393.0 465.6 C 390.8 492.0 384.2 518.4 379.8 536.0 C 371.0 531.6 368.8 522.8 369.9 514.0 C 377.6 500.8 384.2 483.2 388.6 465.6 Z" fill="#3A2A1C" stroke="#140E09" stroke-width="0.8" />
<path d="M 382.0 461.2 L 399.6 461.2 L 399.6 456.8 L 382.0 456.8 Z" fill="#3F3C38" />
<path d="M 389.0 456.8 L 392.6 456.8 L 392.6 439.2 L 389.0 439.2 Z" fill="#5A4331" />
<path d="M 374.3 366.6 C 355.6 366.6 347.9 379.8 346.8 401.8 C 345.7 426.0 347.9 470.0 351.2 492.0 L 367.7 492.0 C 369.9 459.0 372.1 415.0 374.3 366.6 Z" fill="url(#red)" stroke="#3A0E10" stroke-width="0.8" />
<path d="M 350.1 488.7 L 368.8 488.7 C 369.9 500.8 367.7 514.0 363.3 517.3 C 357.8 519.5 353.4 514.0 351.6 505.2 Z" fill="#5A4331" stroke="#1A120C" stroke-width="0.8" />
<path d="M 395.2 346.8 C 390.8 355.6 386.4 360.0 382.0 364.4 C 408.4 371.0 434.8 371.0 461.2 364.4 C 456.8 360.0 452.4 355.6 448.0 346.8 Z" fill="url(#mail)" stroke="#1A1B1A" stroke-width="0.8" />
<path d="M 405.3 329.2 C 404.0 342.4 408.4 353.4 421.6 355.6 C 434.8 353.4 439.2 342.4 437.9 329.2 Z" fill="url(#skin)" stroke="#2A241C" stroke-width="0.8" />
<path d="M 411.7 338.0 L 417.2 338.0" fill="none" stroke="#14120E" stroke-width="2" />
<path d="M 426.0 338.0 L 431.5 338.0" fill="none" stroke="#14120E" stroke-width="2" />
<path d="M 415.0 347.9 C 419.4 349.0 423.8 349.0 428.2 347.9" fill="none" stroke="#3A3024" stroke-width="1.4" />
<path d="M 421.6 340.2 L 420.3 344.6 L 422.9 344.6" fill="none" stroke="#4A4436" stroke-width="1" />
<path d="M 389.7 338.0 C 387.5 316.0 392.6 298.4 402.9 295.1 C 411.7 292.9 431.5 292.9 440.3 295.1 C 450.6 298.4 455.7 316.0 453.5 338.0 L 441.4 331.4 C 434.8 328.1 408.4 328.1 401.8 331.4 Z" fill="url(#stR)" stroke="#0A0B0C" stroke-width="1.2" />
<path d="M 406.2 297.3 C 395.2 302.8 390.8 316.0 390.8 331.4" fill="none" stroke="#8C8D8C" stroke-width="1" opacity=".8"/>
<g><circle cx="395.2" cy="334.7" r="1.1" fill="#8E8C84"/><circle cx="394.9" cy="334.4" r="0.4" fill="#C9C3B2"/><circle cx="410.6" cy="329.2" r="1.1" fill="#8E8C84"/><circle cx="410.3" cy="328.9" r="0.4" fill="#C9C3B2"/><circle cx="432.6" cy="329.2" r="1.1" fill="#8E8C84"/><circle cx="432.3" cy="328.9" r="0.4" fill="#C9C3B2"/><circle cx="448.0" cy="334.7" r="1.1" fill="#8E8C84"/><circle cx="447.7" cy="334.4" r="0.4" fill="#C9C3B2"/></g>
<g fill="#2A2218" opacity="0.4"><ellipse cx="417.9" cy="467.5" rx="0.8" ry="0.7"/><ellipse cx="371.7" cy="445.3" rx="1.6" ry="0.7"/><ellipse cx="427.1" cy="425.8" rx="0.7" ry="0.4"/><ellipse cx="442.2" cy="454.0" rx="1.5" ry="0.7"/><ellipse cx="395.1" cy="512.6" rx="1.2" ry="1.2"/><ellipse cx="430.8" cy="398.7" rx="1.1" ry="0.9"/><ellipse cx="381.3" cy="481.6" rx="1.4" ry="1.2"/><ellipse cx="413.7" cy="516.5" rx="1.0" ry="0.5"/><ellipse cx="399.5" cy="392.7" rx="0.9" ry="0.8"/><ellipse cx="460.0" cy="522.2" rx="1.1" ry="0.7"/><ellipse cx="373.4" cy="458.7" rx="1.7" ry="0.8"/><ellipse cx="431.4" cy="510.8" rx="1.3" ry="1.2"/><ellipse cx="391.5" cy="530.2" rx="0.8" ry="0.5"/><ellipse cx="372.8" cy="517.0" rx="1.2" ry="1.1"/><ellipse cx="413.5" cy="463.3" rx="1.4" ry="0.6"/><ellipse cx="429.7" cy="502.0" rx="1.3" ry="1.3"/><ellipse cx="376.5" cy="436.4" rx="1.3" ry="0.6"/><ellipse cx="398.2" cy="360.9" rx="1.8" ry="0.8"/><ellipse cx="442.4" cy="368.4" rx="0.9" ry="0.7"/><ellipse cx="375.4" cy="468.8" rx="1.4" ry="1.1"/><ellipse cx="449.4" cy="516.7" rx="1.0" ry="1.0"/><ellipse cx="430.1" cy="454.2" rx="1.1" ry="1.1"/><ellipse cx="429.1" cy="528.4" rx="1.5" ry="0.9"/><ellipse cx="414.9" cy="495.0" rx="1.1" ry="0.7"/><ellipse cx="380.0" cy="423.6" rx="0.8" ry="0.7"/><ellipse cx="373.6" cy="397.6" rx="1.5" ry="1.1"/><ellipse cx="442.8" cy="489.0" rx="1.5" ry="1.0"/><ellipse cx="394.4" cy="366.2" rx="1.1" ry="0.7"/><ellipse cx="458.0" cy="468.2" rx="1.4" ry="0.7"/><ellipse cx="456.3" cy="487.2" rx="0.7" ry="0.7"/><ellipse cx="388.5" cy="369.2" rx="1.7" ry="1.3"/><ellipse cx="372.2" cy="521.1" rx="0.9" ry="0.6"/><ellipse cx="432.9" cy="365.8" rx="1.0" ry="0.5"/><ellipse cx="427.9" cy="508.0" rx="0.8" ry="0.6"/><ellipse cx="441.4" cy="520.3" rx="1.2" ry="1.0"/><ellipse cx="448.3" cy="465.9" rx="1.6" ry="0.8"/><ellipse cx="443.4" cy="399.2" rx="1.6" ry="1.1"/><ellipse cx="381.0" cy="523.3" rx="1.2" ry="0.6"/><ellipse cx="434.7" cy="517.1" rx="1.5" ry="0.8"/><ellipse cx="372.3" cy="501.4" rx="1.2" ry="0.9"/></g>
<path d="M 474.4 676.8 L 478.8 690.0 L 483.2 676.8 Z" fill="#3F3C38" />
<path d="M 588.8 676.8 L 593.2 690.0 L 597.6 676.8 Z" fill="#3F3C38" />
<path d="M 474.4 679.0 L 467.8 417.2 C 492.0 401.8 580.0 401.8 604.2 417.2 L 597.6 679.0 Z" fill="url(#gesso)" stroke="#2A241C" stroke-width="1.4" />
<clipPath id="pavclip"><path d="M 474.4 679.0 L 467.8 417.2 C 492.0 401.8 580.0 401.8 604.2 417.2 L 597.6 679.0 Z"/></clipPath><g clip-path="url(#pavclip)">
<path d="M 466.9 389.8 L 478.8 410.5 L 488.0 432.7 L 500.1 453.3 L 512.8 473.7 L 527.3 472.7 L 517.9 483.3 L 523.7 494.9 L 533.7 516.7 L 545.0 537.7 L 556.0 559.0 L 567.4 580.0 L 579.5 600.6 L 595.2 599.1 L 585.8 609.6 L 592.5 620.8 L 601.3 643.2 L 614.0 663.5 L 626.9 683.7 L 603.6 696.2 L 598.4 684.3 L 584.4 686.3 L 595.1 673.7 L 581.1 654.0 L 572.7 631.4 L 560.1 611.0 L 547.9 590.5 L 536.2 569.6 L 530.5 557.9 L 516.5 560.0 L 524.6 548.7 L 514.7 526.9 L 502.7 506.2 L 491.6 485.0 L 479.6 464.3 L 469.7 442.5 L 462.6 431.6 L 448.6 433.6 L 459.1 421.1 L 446.2 400.9 Z" fill="url(#red)"/>
<path d="M 624.1 400.0 L 614.5 422.0 L 602.0 442.4 L 592.1 464.2 L 579.4 484.5 L 589.5 496.8 L 575.4 494.8 L 568.4 505.8 L 556.2 526.3 L 547.4 548.7 L 534.0 568.7 L 523.9 590.4 L 512.4 611.3 L 521.6 623.1 L 507.6 621.1 L 499.8 631.7 L 488.3 652.7 L 476.9 673.7 L 468.5 696.3 L 447.0 684.7 L 452.3 672.8 L 442.9 662.2 L 458.9 664.0 L 469.8 642.7 L 480.1 621.1 L 491.4 600.0 L 504.4 579.9 L 513.6 557.7 L 520.2 546.5 L 510.7 535.9 L 526.3 537.4 L 538.1 516.6 L 547.6 494.6 L 559.2 473.7 L 570.6 452.7 L 583.2 432.3 L 588.1 420.1 L 578.6 409.6 L 592.3 410.1 L 604.4 389.4 Z" fill="url(#red)"/>
<path d="M 520.6 690.0 L 519.5 399.6 L 552.5 399.6 L 551.4 690.0 Z" fill="url(#ridge)" opacity=".55"/>
<path d="M 520.6 690.0 L 519.5 399.6" fill="none" stroke="#6E6858" stroke-width="1.2" />
<path d="M 551.4 690.0 L 552.5 399.6" fill="none" stroke="#6E6858" stroke-width="1.2" />
<path d="M 502.3 431.1 L 505.4 430.0 L 504.8 434.5 L 502.9 433.8 Z" fill="url(#pop)" opacity=".85"/>
<path d="M 484.9 610.3 L 493.7 609.8 L 491.9 612.3 L 486.7 611.9 Z" fill="url(#pop)" opacity=".85"/>
<path d="M 553.5 557.2 L 558.7 556.4 L 557.6 560.1 L 554.5 559.5 Z" fill="url(#pop)" opacity=".85"/>
<path d="M 498.1 464.1 L 500.9 463.5 L 500.3 466.1 L 498.6 465.7 Z" fill="url(#pop)" opacity=".85"/>
<path d="M 476.9 605.5 L 481.8 604.3 L 480.8 609.6 L 477.8 608.8 Z" fill="url(#pop)" opacity=".85"/>
<path d="M 521.1 643.9 L 525.0 642.6 L 524.2 648.3 L 521.9 647.4 Z" fill="url(#pop)" opacity=".85"/>
<path d="M 482.2 516.9 L 486.9 515.9 L 485.9 520.2 L 483.1 519.5 Z" fill="url(#pop)" opacity=".85"/>
<path d="M 516.1 499.0 L 521.6 498.0 L 520.5 502.3 L 517.2 501.7 Z" fill="url(#pop)" opacity=".85"/>
<path d="M 585.4 526.6 L 588.6 526.1 L 588.0 528.1 L 586.1 527.8 Z" fill="url(#pop)" opacity=".85"/>
<path d="M 591.0 549.8 L 594.4 548.6 L 593.7 554.1 L 591.6 553.2 Z" fill="url(#pop)" opacity=".85"/>
<path d="M 545.7 489.6 L 553.7 488.9 L 552.1 491.8 L 547.3 491.3 Z" fill="url(#pop)" opacity=".85"/>
<path d="M 518.3 452.2 L 521.4 451.1 L 520.8 455.9 L 519.0 455.1 Z" fill="url(#pop)" opacity=".85"/>
<path d="M 486.4 499.3 L 493.3 498.0 L 491.9 503.5 L 487.8 502.7 Z" fill="url(#pop)" opacity=".85"/>
<path d="M 578.3 546.1 L 581.8 545.6 L 581.1 547.9 L 579.0 547.5 Z" fill="url(#pop)" opacity=".85"/>
<path d="M 539.5 544.5 L 542.2 543.3 L 541.7 548.6 L 540.1 547.8 Z" fill="url(#pop)" opacity=".85"/>
<path d="M 536.9 496.5 L 540.6 495.9 L 539.8 498.6 L 537.6 498.2 Z" fill="url(#pop)" opacity=".85"/>
</g>
<path d="M 520.6 514.0 C 520.6 500.8 529.4 496.4 536.0 500.8 C 542.6 496.4 551.4 500.8 551.4 514.0 L 548.1 514.0 C 548.1 504.1 542.6 500.8 536.0 506.3 C 529.4 500.8 523.9 504.1 523.9 514.0 Z" fill="#1A1917" />
<path d="M 519.5 514.0 L 552.5 514.0 L 552.5 517.3 L 519.5 517.3 Z" fill="#1A1917" />
<path d="M 531.6 518.4 L 540.4 518.4 L 542.6 531.6 L 536.0 536.0 L 529.4 531.6 Z" fill="#6E6858" stroke="#1A1917" stroke-width="0.8" />
<path d="M 554.0 503.4 L 560.9 499.7" fill="none" stroke="#9E2A2F" stroke-width="2.4" />
<path d="M 546.6 496.0 L 550.3 489.1" fill="none" stroke="#9E2A2F" stroke-width="2.4" />
<path d="M 536.0 493.1 L 536.0 485.4" fill="none" stroke="#9E2A2F" stroke-width="2.4" />
<path d="M 525.7 496.0 L 521.7 489.1" fill="none" stroke="#9E2A2F" stroke-width="2.4" />
<path d="M 518.0 503.4 L 511.1 499.7" fill="none" stroke="#9E2A2F" stroke-width="2.4" />
<path d="M 525.4 532.0 L 521.7 538.9" fill="none" stroke="#9E2A2F" stroke-width="2.4" />
<path d="M 536.0 534.9 L 536.0 542.6" fill="none" stroke="#9E2A2F" stroke-width="2.4" />
<path d="M 546.6 532.0 L 550.3 538.9" fill="none" stroke="#9E2A2F" stroke-width="2.4" />
<path d="M 474.4 679.0 L 467.8 417.2 C 492.0 401.8 580.0 401.8 604.2 417.2 L 597.6 679.0 Z" fill="none" stroke="#3F3C38" stroke-width="3.2" />
<path d="M 468.9 418.3 C 492.0 404.0 580.0 404.0 603.1 418.3" fill="none" stroke="#8A857C" stroke-width="0.8" />
<g><circle cx="470.0" cy="657.0" r="1.5" fill="#3F3C38"/><circle cx="469.5" cy="656.5" r="0.6" fill="#8A857C"/><circle cx="470.0" cy="602.0" r="1.5" fill="#3F3C38"/><circle cx="469.5" cy="601.5" r="0.6" fill="#8A857C"/><circle cx="470.0" cy="547.0" r="1.5" fill="#3F3C38"/><circle cx="469.5" cy="546.5" r="0.6" fill="#8A857C"/><circle cx="470.0" cy="492.0" r="1.5" fill="#3F3C38"/><circle cx="469.5" cy="491.5" r="0.6" fill="#8A857C"/><circle cx="470.0" cy="437.0" r="1.5" fill="#3F3C38"/><circle cx="469.5" cy="436.5" r="0.6" fill="#8A857C"/><circle cx="602.0" cy="657.0" r="1.5" fill="#3F3C38"/><circle cx="601.5" cy="656.5" r="0.6" fill="#8A857C"/><circle cx="602.0" cy="602.0" r="1.5" fill="#3F3C38"/><circle cx="601.5" cy="601.5" r="0.6" fill="#8A857C"/><circle cx="602.0" cy="547.0" r="1.5" fill="#3F3C38"/><circle cx="601.5" cy="546.5" r="0.6" fill="#8A857C"/><circle cx="602.0" cy="492.0" r="1.5" fill="#3F3C38"/><circle cx="601.5" cy="491.5" r="0.6" fill="#8A857C"/><circle cx="602.0" cy="437.0" r="1.5" fill="#3F3C38"/><circle cx="601.5" cy="436.5" r="0.6" fill="#8A857C"/></g>
<circle cx="498.6" cy="575.6" r="4.2" fill="#14120E"/>
<path d="M 502.8 574.3 L 507.0 573.0" fill="none" stroke="#6E5E44" stroke-width="1" />
<path d="M 499.5 571.2 L 500.6 567.0" fill="none" stroke="#6E5E44" stroke-width="1" />
<path d="M 495.3 572.5 L 492.2 569.7" fill="none" stroke="#6E5E44" stroke-width="1" />
<path d="M 494.4 576.9 L 490.2 578.2" fill="none" stroke="#6E5E44" stroke-width="1" />
<path d="M 497.7 580.0 L 496.8 584.2" fill="none" stroke="#6E5E44" stroke-width="1" />
<path d="M 501.9 578.5 L 505.2 581.5" fill="none" stroke="#6E5E44" stroke-width="1" />
<circle cx="571.2" cy="456.8" r="4.2" fill="#14120E"/>
<path d="M 575.4 455.5 L 579.6 454.2" fill="none" stroke="#6E5E44" stroke-width="1" />
<path d="M 572.1 452.4 L 573.2 448.2" fill="none" stroke="#6E5E44" stroke-width="1" />
<path d="M 567.9 453.7 L 564.8 450.9" fill="none" stroke="#6E5E44" stroke-width="1" />
<path d="M 567.0 458.1 L 562.8 459.4" fill="none" stroke="#6E5E44" stroke-width="1" />
<path d="M 570.3 461.2 L 569.4 465.4" fill="none" stroke="#6E5E44" stroke-width="1" />
<path d="M 574.5 459.7 L 577.8 462.7" fill="none" stroke="#6E5E44" stroke-width="1" />
<circle cx="580.0" cy="624.0" r="4.2" fill="#14120E"/>
<path d="M 584.2 622.7 L 588.4 621.4" fill="none" stroke="#6E5E44" stroke-width="1" />
<path d="M 580.9 619.6 L 582.0 615.4" fill="none" stroke="#6E5E44" stroke-width="1" />
<path d="M 576.7 620.9 L 573.6 618.1" fill="none" stroke="#6E5E44" stroke-width="1" />
<path d="M 575.8 625.3 L 571.6 626.6" fill="none" stroke="#6E5E44" stroke-width="1" />
<path d="M 579.1 628.4 L 578.2 632.6" fill="none" stroke="#6E5E44" stroke-width="1" />
<path d="M 583.3 626.9 L 586.6 629.9" fill="none" stroke="#6E5E44" stroke-width="1" />
<path d="M 509.6 465.6 L 509.6 457.9" fill="none" stroke="#6E6858" stroke-width="3" />
<path d="M 509.6 465.6 L 503.0 469.6" fill="none" stroke="#6E6858" stroke-width="3" />
<path d="M 509.6 465.6 L 516.2 469.6" fill="none" stroke="#6E6858" stroke-width="3" />
<circle cx="509.6" cy="465.6" r="3" fill="#5A4331" stroke="#1A120C"/>
<g fill="#1E1B17" opacity="0.4"><ellipse cx="545.3" cy="507.9" rx="1.5" ry="0.9"/><ellipse cx="556.0" cy="437.9" rx="1.6" ry="0.8"/><ellipse cx="556.0" cy="512.0" rx="1.1" ry="1.1"/><ellipse cx="539.7" cy="558.5" rx="1.7" ry="1.3"/><ellipse cx="509.8" cy="595.3" rx="1.1" ry="0.5"/><ellipse cx="550.2" cy="479.9" rx="1.0" ry="0.9"/><ellipse cx="592.5" cy="528.7" rx="1.3" ry="0.6"/><ellipse cx="477.4" cy="413.8" rx="0.8" ry="0.4"/><ellipse cx="588.4" cy="476.1" rx="0.6" ry="0.4"/><ellipse cx="502.0" cy="605.2" rx="0.4" ry="0.3"/><ellipse cx="510.2" cy="572.3" rx="0.7" ry="0.3"/><ellipse cx="474.3" cy="442.8" rx="1.4" ry="1.0"/><ellipse cx="486.3" cy="638.7" rx="0.6" ry="0.4"/><ellipse cx="477.6" cy="604.5" rx="0.7" ry="0.4"/><ellipse cx="556.3" cy="555.1" rx="1.1" ry="0.7"/><ellipse cx="541.1" cy="466.5" rx="0.8" ry="0.4"/><ellipse cx="533.5" cy="576.4" rx="1.5" ry="0.7"/><ellipse cx="585.2" cy="675.0" rx="1.2" ry="0.8"/><ellipse cx="511.6" cy="438.5" rx="1.4" ry="0.7"/><ellipse cx="535.3" cy="513.3" rx="0.5" ry="0.2"/><ellipse cx="549.4" cy="481.6" rx="1.1" ry="0.7"/><ellipse cx="536.9" cy="608.5" rx="1.6" ry="1.6"/><ellipse cx="533.6" cy="673.4" rx="1.0" ry="0.9"/><ellipse cx="512.9" cy="650.4" rx="0.7" ry="0.6"/><ellipse cx="552.1" cy="601.6" rx="1.3" ry="1.1"/><ellipse cx="597.5" cy="454.1" rx="1.0" ry="0.9"/><ellipse cx="592.2" cy="443.9" rx="1.4" ry="1.1"/><ellipse cx="537.5" cy="448.9" rx="1.3" ry="1.1"/><ellipse cx="500.1" cy="654.1" rx="0.8" ry="0.6"/><ellipse cx="545.6" cy="625.3" rx="0.7" ry="0.7"/><ellipse cx="479.4" cy="428.3" rx="1.5" ry="1.1"/><ellipse cx="601.4" cy="495.1" rx="0.4" ry="0.4"/><ellipse cx="524.6" cy="431.0" rx="1.5" ry="0.7"/><ellipse cx="475.2" cy="673.4" rx="1.5" ry="1.3"/><ellipse cx="500.1" cy="648.5" rx="0.9" ry="0.8"/><ellipse cx="567.8" cy="444.4" rx="1.7" ry="1.5"/><ellipse cx="580.3" cy="674.6" rx="0.4" ry="0.4"/><ellipse cx="551.7" cy="590.6" rx="0.6" ry="0.4"/><ellipse cx="514.8" cy="544.9" rx="1.0" ry="0.5"/><ellipse cx="480.8" cy="624.0" rx="0.6" ry="0.3"/><ellipse cx="524.7" cy="643.8" rx="1.5" ry="1.1"/><ellipse cx="530.7" cy="506.0" rx="0.8" ry="0.3"/><ellipse cx="480.4" cy="587.8" rx="0.9" ry="0.5"/><ellipse cx="510.5" cy="453.4" rx="0.5" ry="0.3"/><ellipse cx="520.6" cy="602.7" rx="1.4" ry="0.7"/><ellipse cx="475.6" cy="635.8" rx="1.7" ry="1.1"/><ellipse cx="485.5" cy="416.3" rx="1.3" ry="1.3"/><ellipse cx="513.7" cy="459.8" rx="0.5" ry="0.3"/><ellipse cx="574.9" cy="539.4" rx="1.5" ry="0.9"/><ellipse cx="585.7" cy="658.0" rx="1.3" ry="0.6"/></g>
<path d="M 468.9 366.6 C 487.6 366.6 497.5 377.6 500.8 390.8 C 503.0 399.6 507.4 406.2 514.0 412.8 L 498.6 421.6 C 492.0 410.6 485.4 401.8 481.0 395.2 C 476.6 388.6 472.2 379.8 468.9 382.0 Z" fill="url(#wht)" stroke="#5E574B" stroke-width="0.8" />
<path d="M 496.4 418.3 C 500.8 404.0 509.6 404.0 517.3 408.4 L 518.4 423.8 C 516.2 428.2 509.6 428.2 507.4 423.8 L 506.3 415.0 L 500.8 423.8 Z" fill="#5A4331" stroke="#1A120C" stroke-width="0.8" />
<path d="M 509.6 410.6 L 509.6 423.8" fill="none" stroke="#2A1E15" stroke-width="0.8" />
<path d="M 512.9 410.6 L 512.9 423.8" fill="none" stroke="#2A1E15" stroke-width="0.8" />
<path d="M 516.2 410.6 L 516.2 423.8" fill="none" stroke="#2A1E15" stroke-width="0.8" />
<ellipse cx="820" cy="692" rx="150" ry="7" fill="#0B0A08" opacity=".7"/>
<path d="M 736.4 496.4 C 732.0 525.0 738.6 558.0 743.0 580.0 C 738.6 602.0 738.6 628.4 745.2 663.6 L 765.0 663.6 C 767.2 635.0 771.6 613.0 769.4 591.0 C 773.8 569.0 780.4 536.0 780.4 496.4 Z" fill="#241D16" />
<path d="M 745.2 661.4 L 766.1 661.4 C 769.4 672.4 784.8 679.0 800.2 685.6 L 800.2 690.0 L 743.0 690.0 C 740.8 679.0 743.0 670.2 745.2 661.4 Z" fill="#22180F" />
<path d="M 743.0 492.0 C 738.6 525.0 745.2 558.0 749.6 580.0 C 745.2 602.0 745.2 628.4 751.8 663.6 L 771.6 663.6 C 773.8 635.0 778.2 613.0 776.0 591.0 C 780.4 569.0 787.0 536.0 787.0 492.0 Z" fill="url(#hose)" stroke="#0F0C09" stroke-width="0.8" />
<path d="M 748.5 615.2 L 776.4 615.2 L 774.9 661.4 L 751.4 661.4 Z" fill="url(#boot)" stroke="#120C08" stroke-width="0.8" />
<path d="M 751.4 661.4 L 772.7 661.4 C 776.0 672.4 791.4 679.0 806.8 685.6 L 806.8 690.0 L 749.2 690.0 C 747.0 679.0 749.2 670.2 751.4 661.4 Z" fill="url(#boot)" stroke="#120C08" stroke-width="0.8" />
<path d="M 727.6 522.8 L 798.0 522.8 L 800.2 536.0 L 725.4 536.0 Z" fill="url(#mail)" stroke="#1A1B1A" stroke-width="0.8" />
<path d="M 740.8 360.0 C 735.3 382.0 735.3 415.0 739.7 452.4 C 732.0 474.4 726.5 500.8 723.2 529.4 L 801.3 529.4 C 798.0 500.8 793.6 474.4 789.2 452.4 C 795.8 426.0 799.1 399.6 792.5 377.6 C 787.0 362.2 778.2 353.4 769.4 351.2 Z" fill="url(#red)" stroke="#3A0E10" stroke-width="0.8" />
<path d="M 743.9 461.2 C 741.2 481.0 738.6 503.0 736.0 527.2" fill="none" stroke="#4E1216" stroke-width="1.3" opacity=".8"/>
<path d="M 754.4 461.2 C 753.1 481.0 751.8 503.0 750.5 527.2" fill="none" stroke="#4E1216" stroke-width="1.3" opacity=".8"/>
<path d="M 765.0 461.2 C 765.0 481.0 765.0 503.0 765.0 527.2" fill="none" stroke="#4E1216" stroke-width="1.3" opacity=".8"/>
<path d="M 775.6 461.2 C 776.9 481.0 778.2 503.0 779.5 527.2" fill="none" stroke="#4E1216" stroke-width="1.3" opacity=".8"/>
<path d="M 784.4 461.2 C 786.8 481.0 789.2 503.0 791.6 527.2" fill="none" stroke="#4E1216" stroke-width="1.3" opacity=".8"/>
<path d="M 734.2 463.4 L 791.4 463.4 L 791.4 455.7 L 734.2 455.7 Z" fill="#3A2A1C" stroke="#140E09" stroke-width="0.8" />
<path d="M 754.0 465.6 L 758.4 465.6 C 751.8 492.0 740.8 514.0 732.0 531.6 C 723.2 529.4 721.0 522.8 723.2 516.2 C 734.2 500.8 747.4 483.2 754.0 465.6 Z" fill="#3A2A1C" stroke="#140E09" stroke-width="0.8" />
<path d="M 751.8 461.2 L 765.0 461.2 L 765.0 456.8 L 751.8 456.8 Z" fill="#3F3C38" />
<path d="M 738.6 346.8 C 734.2 355.6 734.2 362.2 738.6 366.6 L 787.0 366.6 C 791.4 360.0 789.2 353.4 784.8 346.8 Z" fill="url(#mail)" stroke="#1A1B1A" stroke-width="0.8" />
<path d="M 780.4 329.2 L 786.6 336.9 L 783.9 340.2 C 785.2 343.5 783.9 347.9 780.4 351.2 C 776.0 354.5 769.4 355.6 765.0 353.4 L 754.0 346.8 L 747.4 329.2 Z" fill="url(#skin)" stroke="#2A241C" stroke-width="0.8" />
<path d="M 776.0 338.0 L 779.5 338.0" fill="none" stroke="#14120E" stroke-width="2" />
<path d="M 788.1 333.6 C 790.3 316.0 784.8 298.4 769.4 294.0 C 754.0 291.8 740.8 298.4 734.2 311.6 C 729.8 322.6 723.2 331.4 714.4 338.0 C 727.6 340.2 738.6 338.0 745.2 333.6 C 760.6 331.4 776.0 330.3 788.1 333.6 Z" fill="url(#stR)" stroke="#0A0B0C" stroke-width="1.2" />
<path d="M 769.4 294.0 C 754.0 291.8 740.8 298.4 734.2 311.6" fill="none" stroke="#8C8D8C" stroke-width="1.1" opacity=".8"/>
<g><circle cx="782.6" cy="332.5" r="1.1" fill="#8E8C84"/><circle cx="782.3" cy="332.2" r="0.4" fill="#C9C3B2"/><circle cx="765.0" cy="331.8" r="1.1" fill="#8E8C84"/><circle cx="764.7" cy="331.5" r="0.4" fill="#C9C3B2"/><circle cx="747.4" cy="333.2" r="1.1" fill="#8E8C84"/><circle cx="747.1" cy="332.8" r="0.4" fill="#C9C3B2"/><circle cx="729.8" cy="335.8" r="1.1" fill="#8E8C84"/><circle cx="729.5" cy="335.5" r="0.4" fill="#C9C3B2"/></g>
<path d="M 752.9 368.8 C 749.6 386.4 754.0 404.0 760.6 417.2 L 778.2 408.4 C 776.0 393.0 776.0 377.6 776.0 368.8 Z" fill="url(#red)" stroke="#3A0E10" stroke-width="0.8" />
<path d="M 758.4 415.0 C 782.6 426.0 809.0 432.6 844.2 434.8 L 844.2 419.4 C 813.4 417.2 787.0 410.6 773.8 404.0 Z" fill="url(#red)" stroke="#3A0E10" stroke-width="0.8" />
<g fill="#2A0A0C" opacity="0.4"><ellipse cx="774.6" cy="396.4" rx="1.2" ry="0.9"/><ellipse cx="754.0" cy="360.5" rx="1.0" ry="0.5"/><ellipse cx="744.4" cy="485.3" rx="1.0" ry="0.6"/><ellipse cx="733.2" cy="474.3" rx="1.0" ry="0.7"/><ellipse cx="740.0" cy="517.4" rx="0.9" ry="0.6"/><ellipse cx="753.6" cy="405.2" rx="1.5" ry="1.0"/><ellipse cx="732.6" cy="406.1" rx="1.5" ry="1.0"/><ellipse cx="773.2" cy="478.7" rx="1.7" ry="1.5"/><ellipse cx="782.9" cy="367.8" rx="0.9" ry="0.7"/><ellipse cx="778.5" cy="393.6" rx="1.1" ry="0.5"/><ellipse cx="770.9" cy="511.7" rx="1.4" ry="0.6"/><ellipse cx="758.4" cy="448.1" rx="0.8" ry="0.5"/><ellipse cx="761.7" cy="466.9" rx="1.6" ry="1.5"/><ellipse cx="790.1" cy="487.9" rx="0.7" ry="0.4"/><ellipse cx="733.7" cy="409.9" rx="0.9" ry="0.5"/><ellipse cx="746.0" cy="461.1" rx="1.5" ry="1.0"/><ellipse cx="747.3" cy="414.7" rx="0.7" ry="0.4"/><ellipse cx="775.3" cy="402.0" rx="0.8" ry="0.3"/><ellipse cx="762.1" cy="418.2" rx="0.7" ry="0.4"/><ellipse cx="745.4" cy="515.0" rx="0.8" ry="0.5"/><ellipse cx="759.3" cy="510.4" rx="1.3" ry="1.2"/><ellipse cx="775.1" cy="517.9" rx="1.4" ry="1.1"/><ellipse cx="726.0" cy="464.2" rx="1.4" ry="1.3"/><ellipse cx="792.8" cy="432.9" rx="1.3" ry="1.3"/><ellipse cx="740.7" cy="443.2" rx="0.7" ry="0.6"/><ellipse cx="772.9" cy="493.7" rx="0.9" ry="0.6"/><ellipse cx="780.0" cy="506.4" rx="1.0" ry="0.7"/><ellipse cx="744.4" cy="379.6" rx="1.5" ry="1.4"/><ellipse cx="771.9" cy="414.0" rx="1.0" ry="0.7"/><ellipse cx="756.6" cy="448.3" rx="0.7" ry="0.7"/></g>
<g transform="translate(866.2,690) rotate(-4.4)"><path d="M -6.6 -11.0 L -6.6 -281.6 L 0.0 -286.0 L 2.6 -283.8 L 2.6 -11.0 Z" fill="url(#pop)" stroke="#2A241C" stroke-width="0.8" /><path d="M 2.6 -13.2 L 2.6 -283.8 L 4.4 -283.8 L 4.4 -13.2 Z" fill="#D6CDB6" /><path d="M 4.4 -17.6 C 11.0 -22.0 12.1 -66.0 12.1 -143.0 C 12.1 -220.0 11.0 -268.4 4.4 -282.7 Z" fill="url(#ridge)" stroke="#6E6858" stroke-width="0.8" /><path d="M -6.6 -11.0 L -4.4 0.0 L -2.2 -11.0 Z" fill="#3F3C38" /><path d="M -7.5 -11.0 L -7.5 -283.8 L -6.6 -283.8 L -6.6 -11.0 Z" fill="#3F3C38" /><path d="M -6.6 -77.0 C -17.6 -79.2 -17.6 -96.8 -6.6 -99.0" fill="none" stroke="#5A4331" stroke-width="3" /><path d="M -6.6 -209.0 C -17.6 -211.2 -17.6 -228.8 -6.6 -231.0" fill="none" stroke="#5A4331" stroke-width="3" /><path d="M -6.6 -246.4 C -19.8 -248.6 -19.8 -268.4 -6.6 -270.6" fill="none" stroke="#5A4331" stroke-width="3" /><path d="M 12.1 -154.0 L 70.4 -158.4 L 70.4 -156.2 L 12.1 -151.8 Z" fill="#5A4331" /><path d="M 61.6 -161.7 L 74.8 -163.9 L 70.4 -157.3 Z" fill="#6E6858" /><path d="M 61.6 -152.9 L 74.8 -150.7 L 70.4 -157.3 Z" fill="#6E6858" /></g>
<path d="M 851.9 514.0 L 854.1 516.2 L 802.4 690.0 L 798.0 690.0 Z" fill="url(#pop)" stroke="#2A241C" stroke-width="0.8" />
<path d="M 846.4 514.0 L 855.2 514.0 L 855.2 520.6 L 846.4 520.6 Z" fill="#3F3C38" />
<path d="M 798.0 690.0 L 802.4 690.0 L 800.2 690.0 Z" fill="#3F3C38" />
<path d="M 839.8 437.0 C 846.4 439.2 853.0 434.8 853.0 428.2 C 853.0 419.4 846.4 415.0 839.8 417.2 Z" fill="#5A4331" stroke="#1A120C" stroke-width="0.8" />
</g>
<g id="callouts" font-family="Overpass Mono, monospace">
<circle cx="404.0" cy="302.8" r="2.6" fill="#DCD2BA"/><polyline points="404.0,302.8 346.0,156.0" fill="none" stroke="#9A9078" stroke-width="0.9"/>
<text x="340.0" y="160.0" text-anchor="end" font-family="Overpass Mono, monospace" font-size="12" fill="#DCD2BA" >OPEN SALLET</text>
<text x="340.0" y="174.0" text-anchor="end" font-family="Overpass Mono, monospace" font-size="10.5" fill="#9A9078" >no visor, to see</text>
<circle cx="388.6" cy="360.0" r="2.6" fill="#DCD2BA"/><polyline points="388.6,360.0 346.0,211.0" fill="none" stroke="#9A9078" stroke-width="0.9"/>
<text x="340.0" y="215.0" text-anchor="end" font-family="Overpass Mono, monospace" font-size="12" fill="#DCD2BA" >MAIL STANDARD</text>
<text x="340.0" y="229.0" text-anchor="end" font-family="Overpass Mono, monospace" font-size="10.5" fill="#9A9078" >riveted collar</text>
<circle cx="395.2" cy="415.0" r="2.6" fill="#DCD2BA"/><polyline points="395.2,415.0 346.0,376.0" fill="none" stroke="#9A9078" stroke-width="0.9"/>
<text x="340.0" y="380.0" text-anchor="end" font-family="Overpass Mono, monospace" font-size="12" fill="#DCD2BA" >PIED LIVERY COAT</text>
<text x="340.0" y="394.0" text-anchor="end" font-family="Overpass Mono, monospace" font-size="10.5" fill="#9A9078" >white | red wool</text>
<circle cx="377.6" cy="522.8" r="2.6" fill="#DCD2BA"/><polyline points="377.6,522.8 346.0,436.0" fill="none" stroke="#9A9078" stroke-width="0.9"/>
<text x="340.0" y="440.0" text-anchor="end" font-family="Overpass Mono, monospace" font-size="12" fill="#DCD2BA" >FALCHION</text>
<text x="340.0" y="454.0" text-anchor="end" font-family="Overpass Mono, monospace" font-size="10.5" fill="#9A9078" >in a leather scabbard</text>
<circle cx="404.0" cy="529.4" r="2.6" fill="#DCD2BA"/><polyline points="404.0,529.4 346.0,496.0" fill="none" stroke="#9A9078" stroke-width="0.9"/>
<text x="340.0" y="500.0" text-anchor="end" font-family="Overpass Mono, monospace" font-size="12" fill="#DCD2BA" >MAIL HEM</text>
<text x="340.0" y="514.0" text-anchor="end" font-family="Overpass Mono, monospace" font-size="10.5" fill="#9A9078" >shirt under the coat</text>
<circle cx="536.0" cy="505.2" r="2.6" fill="#DCD2BA"/><polyline points="536.0,505.2 634.0,221.0" fill="none" stroke="#9A9078" stroke-width="0.9"/>
<text x="640.0" y="225.0" font-family="Overpass Mono, monospace" font-size="12" fill="#DCD2BA" >BRIQUET DEVICE</text>
<text x="640.0" y="239.0" font-family="Overpass Mono, monospace" font-size="10.5" fill="#9A9078" >painted fire-steel</text>
<circle cx="580.0" cy="426.0" r="2.6" fill="#DCD2BA"/><polyline points="580.0,426.0 634.0,161.0" fill="none" stroke="#9A9078" stroke-width="0.9"/>
<text x="640.0" y="165.0" font-family="Overpass Mono, monospace" font-size="12" fill="#DCD2BA" >PAVISE FACE</text>
<text x="640.0" y="179.0" font-family="Overpass Mono, monospace" font-size="10.5" fill="#9A9078" >gesso over poplar, 1.30 m</text>
<circle cx="848.6" cy="448.0" r="2.6" fill="#DCD2BA"/><polyline points="848.6,448.0 972.0,296.0" fill="none" stroke="#9A9078" stroke-width="0.9"/>
<text x="978.0" y="300.0" font-family="Overpass Mono, monospace" font-size="12" fill="#DCD2BA" >REAR GRIPS</text>
<text x="978.0" y="314.0" font-family="Overpass Mono, monospace" font-size="10.5" fill="#9A9078" >3 rawhide loops</text>
<circle cx="897.0" cy="531.6" r="2.6" fill="#DCD2BA"/><polyline points="897.0,531.6 972.0,366.0" fill="none" stroke="#9A9078" stroke-width="0.9"/>
<text x="978.0" y="370.0" font-family="Overpass Mono, monospace" font-size="12" fill="#DCD2BA" >STUCK BOLT</text>
<text x="978.0" y="384.0" font-family="Overpass Mono, monospace" font-size="10.5" fill="#9A9078" >trophy, not a weapon</text>
<circle cx="826.6" cy="597.6" r="2.6" fill="#DCD2BA"/><polyline points="826.6,597.6 972.0,446.0" fill="none" stroke="#9A9078" stroke-width="0.9"/>
<text x="978.0" y="450.0" font-family="Overpass Mono, monospace" font-size="12" fill="#DCD2BA" >HINGED PROP</text>
<text x="978.0" y="464.0" font-family="Overpass Mono, monospace" font-size="10.5" fill="#9A9078" >0.85 m poplar leg</text>
<circle cx="868.4" cy="685.6" r="2.6" fill="#DCD2BA"/><polyline points="868.4,685.6 972.0,526.0" fill="none" stroke="#9A9078" stroke-width="0.9"/>
<text x="978.0" y="530.0" font-family="Overpass Mono, monospace" font-size="12" fill="#DCD2BA" >SPIKED FEET</text>
<text x="978.0" y="544.0" font-family="Overpass Mono, monospace" font-size="10.5" fill="#9A9078" >bite into turf</text>
</g>
<g id="palette" font-family="Overpass Mono, monospace" font-size="10" fill="#9A9078"><rect x="40" y="748" width="34" height="18" fill="#B09A74" stroke="#332D22" stroke-width=".6"/><text x="80" y="761" font-size="10.0">#B09A74 poplar</text><rect x="200" y="748" width="34" height="18" fill="#D6CDB6" stroke="#332D22" stroke-width=".6"/><text x="240" y="761" font-size="9.3">#D6CDB6 gesso white</text><rect x="360" y="748" width="34" height="18" fill="#9E2A2F" stroke="#332D22" stroke-width=".6"/><text x="400" y="761" font-size="9.9">#9E2A2F livery red</text><rect x="520" y="748" width="34" height="18" fill="#3F3C38" stroke="#332D22" stroke-width=".6"/><text x="560" y="761" font-size="8.9">#3F3C38 iron binding</text><rect x="680" y="748" width="34" height="18" fill="#2E2F31" stroke="#332D22" stroke-width=".6"/><text x="720" y="761" font-size="10.0">#2E2F31 sallet</text><rect x="840" y="748" width="34" height="18" fill="#6D6E6C" stroke="#332D22" stroke-width=".6"/><text x="880" y="761" font-size="10.0">#6D6E6C mail</text><rect x="1000" y="748" width="34" height="18" fill="#5A4331" stroke="#332D22" stroke-width=".6"/><text x="1040" y="761" font-size="10.0">#5A4331 leather</text></g>
</svg>