{
	"asset":{
		"generator":"Khronos glTF Blender I/O v5.0.21",
		"version":"2.0"
	},
	"extensionsUsed":[
		"KHR_materials_emissive_strength"
	],
	"scene":0,
	"scenes":[
		{
			"name":"Scene",
			"nodes":[
				0
			]
		}
	],
	"nodes":[
		{
			"mesh":0,
			"name":"SilverServiceTureen"
		}
	],
	"materials":[
		{
			"doubleSided":true,
			"emissiveFactor":[
				1,
				1,
				1
			],
			"emissiveTexture":{
				"index":0
			},
			"extensions":{
				"KHR_materials_emissive_strength":{
					"emissiveStrength":9
				}
			},
			"name":"SilverServiceTureen",
			"pbrMetallicRoughness":{
				"baseColorTexture":{
					"index":1
				},
				"metallicRoughnessTexture":{
					"index":2
				}
			}
		}
	],
	"meshes":[
		{
			"name":"SilverServiceTureen",
			"primitives":[
				{
					"attributes":{
						"POSITION":0,
						"NORMAL":1,
						"TEXCOORD_0":2
					},
					"indices":3,
					"material":0
				}
			]
		}
	],
	"textures":[
		{
			"sampler":0,
			"source":0
		},
		{
			"sampler":0,
			"source":1
		},
		{
			"sampler":0,
			"source":2
		}
	],
	"images":[
		{
			"mimeType":"image/png",
			"name":"SilverServiceTureen_Emission",
			"uri":"SilverServiceTureen_Emission.png"
		},
		{
			"mimeType":"image/png",
			"name":"SilverServiceTureen_BaseMap",
			"uri":"SilverServiceTureen_BaseMap.png"
		},
		{
			"mimeType":"image/png",
			"name":"SilverServiceTureen_ORM",
			"uri":"SilverServiceTureen_ORM.png"
		}
	],
	"accessors":[
		{
			"bufferView":0,
			"componentType":5126,
			"count":2897,
			"max":[
				0.23751181364059448,
				0.3660772144794464,
				0.14350000023841858
			],
			"min":[
				-0.23583409190177917,
				0,
				-0.14350000023841858
			],
			"type":"VEC3"
		},
		{
			"bufferView":1,
			"componentType":5126,
			"count":2897,
			"type":"VEC3"
		},
		{
			"bufferView":2,
			"componentType":5126,
			"count":2897,
			"type":"VEC2"
		},
		{
			"bufferView":3,
			"componentType":5123,
			"count":8910,
			"type":"SCALAR"
		}
	],
	"bufferViews":[
		{
			"buffer":0,
			"byteLength":34764,
			"byteOffset":0,
			"target":34962
		},
		{
			"buffer":0,
			"byteLength":34764,
			"byteOffset":34764,
			"target":34962
		},
		{
			"buffer":0,
			"byteLength":23176,
			"byteOffset":69528,
			"target":34962
		},
		{
			"buffer":0,
			"byteLength":17820,
			"byteOffset":92704,
			"target":34963
		}
	],
	"samplers":[
		{
			"magFilter":9729,
			"minFilter":9987
		}
	],
	"buffers":[
		{
			"byteLength":110524,
			"uri":"SilverServiceTureen.bin"
		}
	]
}
