{
	"asset":{
		"generator":"Khronos glTF Blender I/O v5.0.21",
		"version":"2.0"
	},
	"extensionsUsed":[
		"KHR_materials_emissive_strength"
	],
	"scene":0,
	"scenes":[
		{
			"name":"Scene",
			"nodes":[
				0
			]
		}
	],
	"nodes":[
		{
			"mesh":0,
			"name":"TripodCauldron"
		}
	],
	"materials":[
		{
			"doubleSided":true,
			"emissiveFactor":[
				1,
				1,
				1
			],
			"emissiveTexture":{
				"index":0
			},
			"extensions":{
				"KHR_materials_emissive_strength":{
					"emissiveStrength":9
				}
			},
			"name":"TripodCauldron",
			"pbrMetallicRoughness":{
				"baseColorTexture":{
					"index":1
				},
				"metallicRoughnessTexture":{
					"index":2
				}
			}
		}
	],
	"meshes":[
		{
			"name":"TripodCauldron",
			"primitives":[
				{
					"attributes":{
						"POSITION":0,
						"NORMAL":1,
						"TEXCOORD_0":2
					},
					"indices":3,
					"material":0
				}
			]
		}
	],
	"textures":[
		{
			"sampler":0,
			"source":0
		},
		{
			"sampler":0,
			"source":1
		},
		{
			"sampler":0,
			"source":2
		}
	],
	"images":[
		{
			"mimeType":"image/png",
			"name":"TripodCauldron_Emission",
			"uri":"TripodCauldron_Emission.png"
		},
		{
			"mimeType":"image/png",
			"name":"TripodCauldron_BaseMap",
			"uri":"TripodCauldron_BaseMap.png"
		},
		{
			"mimeType":"image/png",
			"name":"TripodCauldron_ORM",
			"uri":"TripodCauldron_ORM.png"
		}
	],
	"accessors":[
		{
			"bufferView":0,
			"componentType":5126,
			"count":4920,
			"max":[
				0.41629987955093384,
				1.0499999523162842,
				0.46700000762939453
			],
			"min":[
				-0.41629987955093384,
				0,
				-0.3440000116825104
			],
			"type":"VEC3"
		},
		{
			"bufferView":1,
			"componentType":5126,
			"count":4920,
			"type":"VEC3"
		},
		{
			"bufferView":2,
			"componentType":5126,
			"count":4920,
			"type":"VEC2"
		},
		{
			"bufferView":3,
			"componentType":5123,
			"count":13950,
			"type":"SCALAR"
		}
	],
	"bufferViews":[
		{
			"buffer":0,
			"byteLength":59040,
			"byteOffset":0,
			"target":34962
		},
		{
			"buffer":0,
			"byteLength":59040,
			"byteOffset":59040,
			"target":34962
		},
		{
			"buffer":0,
			"byteLength":39360,
			"byteOffset":118080,
			"target":34962
		},
		{
			"buffer":0,
			"byteLength":27900,
			"byteOffset":157440,
			"target":34963
		}
	],
	"samplers":[
		{
			"magFilter":9729,
			"minFilter":9987
		}
	],
	"buffers":[
		{
			"byteLength":185340,
			"uri":"TripodCauldron.bin"
		}
	]
}
