{
	"asset":{
		"generator":"Khronos glTF Blender I/O v5.0.21",
		"version":"2.0"
	},
	"extensionsUsed":[
		"KHR_materials_emissive_strength"
	],
	"scene":0,
	"scenes":[
		{
			"name":"Scene",
			"nodes":[
				24
			]
		}
	],
	"nodes":[
		{
			"name":"Visor",
			"rotation":[
				0.7702793478965759,
				0,
				0,
				0.6377066373825073
			],
			"scale":[
				1,
				0.9999999403953552,
				0.9999998807907104
			],
			"translation":[
				0,
				0.07725989818572998,
				0.019999999552965164
			]
		},
		{
			"name":"Rondel",
			"rotation":[
				-0.7071067094802856,
				0,
				0,
				0.7071068286895752
			],
			"scale":[
				1,
				0.9999999403953552,
				0.9999999403953552
			],
			"translation":[
				0,
				0.10725998878479004,
				-0.1276099979877472
			]
		},
		{
			"children":[
				0,
				1
			],
			"name":"Head",
			"translation":[
				0,
				0.08455002307891846,
				0
			]
		},
		{
			"children":[
				2
			],
			"name":"Neck",
			"translation":[
				0,
				0.23159003257751465,
				0
			]
		},
		{
			"name":"Hand.L",
			"rotation":[
				2.447515953463153e-06,
				2.383813443884719e-05,
				-1.5962868928909302e-05,
				1
			],
			"scale":[
				1,
				0.9999999403953552,
				0.9999998807907104
			],
			"translation":[
				-3.3527612686157227e-08,
				0.26650989055633545,
				0
			]
		},
		{
			"children":[
				4
			],
			"name":"LowerArm.L",
			"rotation":[
				-0.1669308990240097,
				1.190578768728301e-05,
				-0.04787461459636688,
				0.9848055839538574
			],
			"scale":[
				1,
				1,
				1.0000001192092896
			],
			"translation":[
				-2.1653249859809875e-08,
				0.31613969802856445,
				5.587935447692871e-09
			]
		},
		{
			"children":[
				5
			],
			"name":"UpperArm.L",
			"rotation":[
				-0.4589693248271942,
				-0.4794795513153076,
				0.3500933051109314,
				0.6609698534011841
			],
			"scale":[
				1.0000001192092896,
				1,
				1
			],
			"translation":[
				-1.0593794286251068e-08,
				0.12043447047472,
				-1.825392246246338e-07
			]
		},
		{
			"children":[
				6
			],
			"name":"Shoulder.L",
			"rotation":[
				-0.5305143594741821,
				-0.4990680515766144,
				-0.4990680515766144,
				0.46948564052581787
			],
			"translation":[
				0.05513999983668327,
				0.21320998668670654,
				0
			]
		},
		{
			"name":"Poleaxe",
			"rotation":[
				-0.9289931654930115,
				0.20945195853710175,
				0.2094518542289734,
				0.221881702542305
			],
			"scale":[
				0.9999994039535522,
				0.9999997615814209,
				0.9999997019767761
			],
			"translation":[
				1.475214958190918e-06,
				0.08270859718322754,
				4.082918167114258e-06
			]
		},
		{
			"children":[
				8
			],
			"name":"Hand.R",
			"rotation":[
				1.0330229997634888e-05,
				-1.5988945960998535e-05,
				6.042421773599926e-06,
				1
			],
			"scale":[
				0.9999999403953552,
				0.9999999403953552,
				1
			],
			"translation":[
				-7.450580596923828e-09,
				0.26651647686958313,
				-7.450580596923828e-09
			]
		},
		{
			"children":[
				9
			],
			"name":"LowerArm.R",
			"rotation":[
				-0.24321340024471283,
				-4.7389303290401585e-06,
				0.08852368593215942,
				0.965924859046936
			],
			"translation":[
				-3.020510064288828e-08,
				0.31613385677337646,
				-8.557252684227024e-09
			]
		},
		{
			"children":[
				10
			],
			"name":"UpperArm.R",
			"rotation":[
				-0.43933430314064026,
				0.4585367441177368,
				-0.3280644118785858,
				0.699359118938446
			],
			"scale":[
				1,
				0.9999998211860657,
				0.9999998807907104
			],
			"translation":[
				1.0593794286251068e-08,
				0.12043447047472,
				-1.825392246246338e-07
			]
		},
		{
			"children":[
				11
			],
			"name":"Shoulder.R",
			"rotation":[
				-0.5305143594741821,
				0.4990680515766144,
				0.4990680515766144,
				0.46948564052581787
			],
			"translation":[
				-0.05513999983668327,
				0.21320998668670654,
				0
			]
		},
		{
			"children":[
				3,
				7,
				12
			],
			"name":"Chest",
			"translation":[
				0,
				0.20218002796173096,
				0
			]
		},
		{
			"children":[
				13
			],
			"name":"Spine",
			"translation":[
				0,
				0.11395996809005737,
				0
			]
		},
		{
			"name":"Foot.L",
			"rotation":[
				-0.5515061616897583,
				0.10749176144599915,
				-0.14428934454917908,
				0.8145348429679871
			],
			"scale":[
				0.9999998807907104,
				0.9999998807907104,
				0.9999998211860657
			],
			"translation":[
				1.9763137792949692e-09,
				0.41998785734176636,
				2.369470175622723e-10
			]
		},
		{
			"children":[
				15
			],
			"name":"LowerLeg.L",
			"rotation":[
				0.025061095133423805,
				3.5742330055654747e-06,
				0.001529006753116846,
				0.999684751033783
			],
			"translation":[
				3.259629011154175e-09,
				0.4604906141757965,
				9.313225746154785e-10
			]
		},
		{
			"children":[
				16
			],
			"name":"UpperLeg.L",
			"rotation":[
				0.9989848732948303,
				0.030883094295859337,
				0.030882325023412704,
				0.011033769696950912
			],
			"scale":[
				1.000003695487976,
				1,
				1.0000005960464478
			],
			"translation":[
				0.10642000287771225,
				0,
				0
			]
		},
		{
			"name":"Foot.R",
			"rotation":[
				-0.5515061616897583,
				-0.10749176144599915,
				0.14428934454917908,
				0.8145348429679871
			],
			"scale":[
				0.9999998807907104,
				0.9999998807907104,
				0.9999998211860657
			],
			"translation":[
				-1.9763137792949692e-09,
				0.41998785734176636,
				2.369470175622723e-10
			]
		},
		{
			"children":[
				18
			],
			"name":"LowerLeg.R",
			"rotation":[
				0.025061095133423805,
				-3.5742330055654747e-06,
				-0.001529006753116846,
				0.999684751033783
			],
			"translation":[
				-3.259629011154175e-09,
				0.4604906141757965,
				9.313225746154785e-10
			]
		},
		{
			"children":[
				19
			],
			"name":"UpperLeg.R",
			"rotation":[
				0.9989848732948303,
				-0.030883094295859337,
				-0.030882325023412704,
				0.011033769696950912
			],
			"scale":[
				1.000003695487976,
				1,
				1.0000005960464478
			],
			"translation":[
				-0.10642000287771225,
				0,
				0
			]
		},
		{
			"children":[
				14,
				17,
				20
			],
			"name":"Hips",
			"translation":[
				0,
				0.9704599976539612,
				0
			]
		},
		{
			"children":[
				21
			],
			"name":"Root"
		},
		{
			"mesh":0,
			"name":"GothicManAtArms",
			"skin":0
		},
		{
			"children":[
				23,
				22
			],
			"name":"GothicManAtArms_Rig"
		}
	],
	"materials":[
		{
			"doubleSided":true,
			"emissiveFactor":[
				1,
				1,
				1
			],
			"emissiveTexture":{
				"index":0
			},
			"extensions":{
				"KHR_materials_emissive_strength":{
					"emissiveStrength":9
				}
			},
			"name":"GothicManAtArms",
			"pbrMetallicRoughness":{
				"baseColorTexture":{
					"index":1
				},
				"metallicRoughnessTexture":{
					"index":2
				}
			}
		}
	],
	"meshes":[
		{
			"name":"GothicManAtArms",
			"primitives":[
				{
					"attributes":{
						"POSITION":0,
						"NORMAL":1,
						"TEXCOORD_0":2,
						"JOINTS_0":3,
						"WEIGHTS_0":4
					},
					"indices":5,
					"material":0
				}
			]
		}
	],
	"textures":[
		{
			"sampler":0,
			"source":0
		},
		{
			"sampler":0,
			"source":1
		},
		{
			"sampler":0,
			"source":2
		}
	],
	"images":[
		{
			"mimeType":"image/png",
			"name":"GothicManAtArms_Emission",
			"uri":"GothicManAtArms_Emission.png"
		},
		{
			"mimeType":"image/png",
			"name":"GothicManAtArms_BaseMap",
			"uri":"GothicManAtArms_BaseMap.png"
		},
		{
			"mimeType":"image/png",
			"name":"GothicManAtArms_ORM",
			"uri":"GothicManAtArms_ORM.png"
		}
	],
	"skins":[
		{
			"inverseBindMatrices":6,
			"joints":[
				22,
				21,
				14,
				13,
				3,
				2,
				0,
				1,
				7,
				6,
				5,
				4,
				12,
				11,
				10,
				9,
				8,
				17,
				16,
				15,
				20,
				19,
				18
			],
			"name":"GothicManAtArms_Rig"
		}
	],
	"accessors":[
		{
			"bufferView":0,
			"componentType":5126,
			"count":7373,
			"max":[
				0.3908006250858307,
				1.9503968954086304,
				0.2572900056838989
			],
			"min":[
				-0.5369083881378174,
				0,
				-0.21468175947666168
			],
			"type":"VEC3"
		},
		{
			"bufferView":1,
			"componentType":5126,
			"count":7373,
			"type":"VEC3"
		},
		{
			"bufferView":2,
			"componentType":5126,
			"count":7373,
			"type":"VEC2"
		},
		{
			"bufferView":3,
			"componentType":5121,
			"count":7373,
			"type":"VEC4"
		},
		{
			"bufferView":4,
			"componentType":5126,
			"count":7373,
			"type":"VEC4"
		},
		{
			"bufferView":5,
			"componentType":5123,
			"count":19776,
			"type":"SCALAR"
		},
		{
			"bufferView":6,
			"componentType":5126,
			"count":23,
			"type":"MAT4"
		}
	],
	"bufferViews":[
		{
			"buffer":0,
			"byteLength":88476,
			"byteOffset":0,
			"target":34962
		},
		{
			"buffer":0,
			"byteLength":88476,
			"byteOffset":88476,
			"target":34962
		},
		{
			"buffer":0,
			"byteLength":58984,
			"byteOffset":176952,
			"target":34962
		},
		{
			"buffer":0,
			"byteLength":29492,
			"byteOffset":235936,
			"target":34962
		},
		{
			"buffer":0,
			"byteLength":117968,
			"byteOffset":265428,
			"target":34962
		},
		{
			"buffer":0,
			"byteLength":39552,
			"byteOffset":383396,
			"target":34963
		},
		{
			"buffer":0,
			"byteLength":1472,
			"byteOffset":422948
		}
	],
	"samplers":[
		{
			"magFilter":9729,
			"minFilter":9987
		}
	],
	"buffers":[
		{
			"byteLength":424420,
			"uri":"GothicManAtArms.bin"
		}
	]
}
