{
	"asset":{
		"generator":"Khronos glTF Blender I/O v5.0.21",
		"version":"2.0"
	},
	"extensionsUsed":[
		"KHR_materials_emissive_strength"
	],
	"scene":0,
	"scenes":[
		{
			"name":"Scene",
			"nodes":[
				25
			]
		}
	],
	"nodes":[
		{
			"name":"Hat",
			"rotation":[
				-0.03490019217133522,
				0,
				0,
				0.9993908405303955
			],
			"translation":[
				0,
				0.1514882743358612,
				-0.007034629583358765
			]
		},
		{
			"children":[
				0
			],
			"name":"Head",
			"rotation":[
				-5.4134055972099304e-05,
				0,
				0,
				1
			],
			"translation":[
				0,
				0.0812985748052597,
				0
			]
		},
		{
			"children":[
				1
			],
			"name":"Neck",
			"rotation":[
				6.277672946453094e-05,
				0,
				0,
				1
			],
			"translation":[
				0,
				0.22268228232860565,
				-5.587935447692871e-09
			]
		},
		{
			"name":"LanternBody",
			"rotation":[
				7.450580596923828e-09,
				-4.3021150145158696e-16,
				-1.1175869119028903e-08,
				1
			],
			"translation":[
				1.2364836265987833e-08,
				0.030000071972608566,
				1.1907220986984157e-08
			]
		},
		{
			"children":[
				3
			],
			"name":"LanternRing",
			"rotation":[
				0.10532788932323456,
				-0.1348205953836441,
				0.13482055068016052,
				0.9759881496429443
			],
			"scale":[
				0.9999998807907104,
				0.9999999403953552,
				0.9999998211860657
			],
			"translation":[
				-0.0035046227276325226,
				0.09062943607568741,
				0.0020341724157333374
			]
		},
		{
			"children":[
				4
			],
			"name":"Hand.L",
			"rotation":[
				-2.1239742636680603e-05,
				1.671072095632553e-05,
				-1.870934102043975e-05,
				1
			],
			"scale":[
				0.9999999403953552,
				0.9999998807907104,
				1
			],
			"translation":[
				1.30385160446167e-08,
				0.25564077496528625,
				7.450580596923828e-09
			]
		},
		{
			"children":[
				5
			],
			"name":"LowerArm.L",
			"rotation":[
				-0.13502219319343567,
				1.2344181413936894e-05,
				-0.03367578238248825,
				0.9902701377868652
			],
			"scale":[
				0.9999999403953552,
				0.9999999403953552,
				1.0000001192092896
			],
			"translation":[
				-4.0978193283081055e-08,
				0.3032354712486267,
				-1.6763806343078613e-08
			]
		},
		{
			"children":[
				6
			],
			"name":"UpperArm.L",
			"rotation":[
				-0.4466440677642822,
				-0.4674762785434723,
				0.3875454366207123,
				0.6571024656295776
			],
			"scale":[
				1,
				1,
				0.9999999403953552
			],
			"translation":[
				-3.4924596548080444e-10,
				0.11551637202501297,
				4.0745362639427185e-09
			]
		},
		{
			"children":[
				7
			],
			"name":"Shoulder.L",
			"rotation":[
				-0.5476062297821045,
				-0.5150813460350037,
				-0.48032888770103455,
				0.4517773389816284
			],
			"scale":[
				1.000000238418579,
				1.0000001192092896,
				1
			],
			"translation":[
				0.052889999002218246,
				0.20500944554805756,
				2.5313347578048706e-06
			]
		},
		{
			"name":"Glaive",
			"rotation":[
				-0.7274519801139832,
				0.19420580565929413,
				0.19420573115348816,
				0.6287940144538879
			],
			"scale":[
				1,
				1,
				0.9999998211860657
			],
			"translation":[
				2.5546178221702576e-06,
				0.0793328508734703,
				4.2244791984558105e-06
			]
		},
		{
			"children":[
				9
			],
			"name":"Hand.R",
			"rotation":[
				-5.293172307574423e-06,
				0.00041777704609557986,
				-2.893898999900557e-05,
				0.9999998807907104
			],
			"translation":[
				1.210719347000122e-08,
				0.2556380033493042,
				9.313225746154785e-08
			]
		},
		{
			"children":[
				10
			],
			"name":"LowerArm.R",
			"rotation":[
				-0.6049264669418335,
				-6.450695218518376e-05,
				0.17352284491062164,
				0.7771446108818054
			],
			"scale":[
				1,
				0.9999998807907104,
				0.9999998807907104
			],
			"translation":[
				1.1175870895385742e-08,
				0.3032366931438446,
				1.862645149230957e-09
			]
		},
		{
			"children":[
				11
			],
			"name":"UpperArm.R",
			"rotation":[
				-0.4687937796115875,
				0.48644858598709106,
				-0.33748090267181396,
				0.6555203199386597
			],
			"translation":[
				3.4924596548080444e-10,
				0.11551637202501297,
				4.0745362639427185e-09
			]
		},
		{
			"children":[
				12
			],
			"name":"Shoulder.R",
			"rotation":[
				-0.5476062297821045,
				0.5150813460350037,
				0.48032888770103455,
				0.4517773389816284
			],
			"scale":[
				1.000000238418579,
				1.0000001192092896,
				1
			],
			"translation":[
				-0.052889999002218246,
				0.20500944554805756,
				2.5313347578048706e-06
			]
		},
		{
			"children":[
				2,
				8,
				13
			],
			"name":"Chest",
			"rotation":[
				-5.614012934529455e-06,
				0,
				0,
				1
			],
			"scale":[
				1,
				0.9999999403953552,
				0.9999999403953552
			],
			"translation":[
				0,
				0.19440355896949768,
				-3.725290298461914e-09
			]
		},
		{
			"children":[
				14
			],
			"name":"Spine",
			"rotation":[
				0.03489716723561287,
				0,
				0,
				0.9993909001350403
			],
			"translation":[
				0,
				0.10930997133255005,
				0
			]
		},
		{
			"name":"Foot.L",
			"rotation":[
				-0.5514195561408997,
				0.11917373538017273,
				-0.1465407758951187,
				0.8125638365745544
			],
			"translation":[
				-1.750290756774575e-08,
				0.40248191356658936,
				9.301144854312327e-10
			]
		},
		{
			"children":[
				16
			],
			"name":"LowerLeg.L",
			"rotation":[
				0.0251071285456419,
				4.116843683732441e-06,
				0.0010920075001195073,
				0.9996841549873352
			],
			"scale":[
				0.9999999403953552,
				0.9999998807907104,
				0.9999998807907104
			],
			"translation":[
				1.6065314412117004e-08,
				0.44129639863967896,
				2.3283064365386963e-09
			]
		},
		{
			"children":[
				17
			],
			"name":"UpperLeg.L",
			"rotation":[
				0.9994467496871948,
				0.02206551842391491,
				0.022065171971917152,
				0.011506875976920128
			],
			"scale":[
				1.0000011920928955,
				1.0000003576278687,
				1.0000003576278687
			],
			"translation":[
				0.10208000242710114,
				5.960464477539063e-08,
				0
			]
		},
		{
			"name":"Foot.R",
			"rotation":[
				-0.5514195561408997,
				-0.11917373538017273,
				0.1465407758951187,
				0.8125638365745544
			],
			"translation":[
				1.750290756774575e-08,
				0.40248191356658936,
				9.301144854312327e-10
			]
		},
		{
			"children":[
				19
			],
			"name":"LowerLeg.R",
			"rotation":[
				0.0251071285456419,
				-4.116843683732441e-06,
				-0.0010920075001195073,
				0.9996841549873352
			],
			"scale":[
				0.9999999403953552,
				0.9999998807907104,
				0.9999998807907104
			],
			"translation":[
				-1.6065314412117004e-08,
				0.44129639863967896,
				2.3283064365386963e-09
			]
		},
		{
			"children":[
				20
			],
			"name":"UpperLeg.R",
			"rotation":[
				0.9994467496871948,
				-0.02206551842391491,
				-0.022065171971917152,
				0.011506875976920128
			],
			"scale":[
				1.0000011920928955,
				1.0000003576278687,
				1.0000003576278687
			],
			"translation":[
				-0.10208000242710114,
				5.960464477539063e-08,
				0
			]
		},
		{
			"children":[
				15,
				18,
				21
			],
			"name":"Hips",
			"rotation":[
				-3.552713678800501e-15,
				0,
				0,
				1
			],
			"translation":[
				0,
				0.9308600425720215,
				0
			]
		},
		{
			"children":[
				22
			],
			"name":"Root",
			"rotation":[
				-2.980232594040899e-08,
				0,
				0,
				1
			],
			"scale":[
				1,
				0.9999999403953552,
				0.9999999403953552
			]
		},
		{
			"mesh":0,
			"name":"LanternWarden",
			"skin":0
		},
		{
			"children":[
				24,
				23
			],
			"name":"LanternWarden_Rig"
		}
	],
	"materials":[
		{
			"doubleSided":true,
			"emissiveFactor":[
				1,
				1,
				1
			],
			"emissiveTexture":{
				"index":0
			},
			"extensions":{
				"KHR_materials_emissive_strength":{
					"emissiveStrength":9
				}
			},
			"name":"LanternWarden",
			"pbrMetallicRoughness":{
				"baseColorTexture":{
					"index":1
				},
				"metallicRoughnessTexture":{
					"index":2
				}
			}
		}
	],
	"meshes":[
		{
			"name":"LanternWarden",
			"primitives":[
				{
					"attributes":{
						"POSITION":0,
						"NORMAL":1,
						"TEXCOORD_0":2,
						"JOINTS_0":3,
						"WEIGHTS_0":4
					},
					"indices":5,
					"material":0
				}
			]
		}
	],
	"textures":[
		{
			"sampler":0,
			"source":0
		},
		{
			"sampler":0,
			"source":1
		},
		{
			"sampler":0,
			"source":2
		}
	],
	"images":[
		{
			"mimeType":"image/png",
			"name":"LanternWarden_Emission",
			"uri":"LanternWarden_Emission.png"
		},
		{
			"mimeType":"image/png",
			"name":"LanternWarden_BaseMap",
			"uri":"LanternWarden_BaseMap.png"
		},
		{
			"mimeType":"image/png",
			"name":"LanternWarden_ORM",
			"uri":"LanternWarden_ORM.png"
		}
	],
	"skins":[
		{
			"inverseBindMatrices":6,
			"joints":[
				23,
				22,
				15,
				14,
				2,
				1,
				0,
				8,
				7,
				6,
				5,
				4,
				3,
				13,
				12,
				11,
				10,
				9,
				18,
				17,
				16,
				21,
				20,
				19
			],
			"name":"LanternWarden_Rig"
		}
	],
	"accessors":[
		{
			"bufferView":0,
			"componentType":5126,
			"count":5783,
			"max":[
				0.39713436365127563,
				2.047773838043213,
				0.4378439784049988
			],
			"min":[
				-0.31155288219451904,
				0,
				-0.1835307776927948
			],
			"type":"VEC3"
		},
		{
			"bufferView":1,
			"componentType":5126,
			"count":5783,
			"type":"VEC3"
		},
		{
			"bufferView":2,
			"componentType":5126,
			"count":5783,
			"type":"VEC2"
		},
		{
			"bufferView":3,
			"componentType":5121,
			"count":5783,
			"type":"VEC4"
		},
		{
			"bufferView":4,
			"componentType":5126,
			"count":5783,
			"type":"VEC4"
		},
		{
			"bufferView":5,
			"componentType":5123,
			"count":15048,
			"type":"SCALAR"
		},
		{
			"bufferView":6,
			"componentType":5126,
			"count":24,
			"type":"MAT4"
		}
	],
	"bufferViews":[
		{
			"buffer":0,
			"byteLength":69396,
			"byteOffset":0,
			"target":34962
		},
		{
			"buffer":0,
			"byteLength":69396,
			"byteOffset":69396,
			"target":34962
		},
		{
			"buffer":0,
			"byteLength":46264,
			"byteOffset":138792,
			"target":34962
		},
		{
			"buffer":0,
			"byteLength":23132,
			"byteOffset":185056,
			"target":34962
		},
		{
			"buffer":0,
			"byteLength":92528,
			"byteOffset":208188,
			"target":34962
		},
		{
			"buffer":0,
			"byteLength":30096,
			"byteOffset":300716,
			"target":34963
		},
		{
			"buffer":0,
			"byteLength":1536,
			"byteOffset":330812
		}
	],
	"samplers":[
		{
			"magFilter":9729,
			"minFilter":9987
		}
	],
	"buffers":[
		{
			"byteLength":332348,
			"uri":"LanternWarden.bin"
		}
	]
}
